<?xml version="1.0" encoding="UTF-8" standalone="no"?><!DOCTYPE svg PUBLIC "-//W3C//DTD SVG 1.1//EN" "http://www.w3.org/Graphics/SVG/1.1/DTD/svg11.dtd"><svg width="100%" height="100%" viewBox="0 0 583 80" version="1.1" xmlns="http://www.w3.org/2000/svg" xmlns:xlink="http://www.w3.org/1999/xlink" xml:space="preserve" xmlns:serif="http://www.serif.com/" style="fill-rule:evenodd;clip-rule:evenodd;stroke-linejoin:round;stroke-miterlimit:1.41421;"><g><path d="M153.047,9.876l0.015,0.013l-0.014,-0.013l-0.001,0Z" style="fill:#9f5760;fill-rule:nonzero;"/><path d="M208.056,1.516l-9.689,9.69c0.44,15.077 -0.255,28.853 -6.455,37.503l7.603,7.605c7.99,-15.721 9.038,-35.123 9.063,-55.32l-0.447,0.447l0,0.075l-0.075,0Z" style="fill:#9f5660;fill-rule:nonzero;"/><path d="M191.902,48.733l7.603,7.603c0.003,-0.007 0.006,-0.015 0.01,-0.023l-7.603,-7.603c-0.004,0.006 -0.007,0.015 -0.01,0.023Z" style="fill:#9f5760;fill-rule:nonzero;"/><path d="M142.885,0.931c0.022,20.245 1.068,39.694 9.098,55.443l7.605,-7.603c-4.697,-10.778 -6.114,-23.623 -6.494,-37.63l-10.209,-10.21Z" style="fill:#9f5660;fill-rule:nonzero;"/><path d="M153.047,9.876l0.015,0.013l-0.014,-0.013l-0.001,0Z" style="fill:#9f5760;fill-rule:nonzero;"/><path d="M208.027,1.516l0.029,0l0.074,-0.075l0,-0.028l-0.103,0.103Z" style="fill:#9f5760;fill-rule:nonzero;"/><path d="M144.137,0.876l0.585,0.585l62.087,0l0.585,-0.585l-63.257,0Z" style="fill:#9f5660;fill-rule:nonzero;"/><path d="M208.056,1.516l0.074,0l0,-0.075l-0.074,0.075Z" style="fill:#9f5760;fill-rule:nonzero;"/><path d="M175.721,33.811l-14.967,14.937c3.387,7.445 7.595,14.118 14.99,19.218l-0.005,0c7.396,-5.1 11.604,-11.773 14.992,-19.218l-14.968,-14.937l-0.042,0Z" style="fill:#9f5660;fill-rule:nonzero;"/><path d="M159.714,16.543l-5.337,-5.339l-0.002,0l5.339,5.339Z" style="fill:#9f5760;fill-rule:nonzero;"/><path d="M175.734,32.564l21.431,-21.427l-42.856,0l21.425,21.427Z" style="fill:#9f5660;fill-rule:nonzero;"/><path d="M190.274,68.384c-4.027,4.255 -8.898,7.961 -14.475,11.012c-0.046,0.025 -0.106,0.025 -0.151,0.002c-5.577,-3.053 -10.448,-6.759 -14.477,-11.014c-3.248,-3.431 -6.058,-7.341 -8.357,-11.621l-0.428,0.429c2.308,4.266 5.117,8.166 8.36,11.594c4.072,4.299 8.991,8.043 14.623,11.125c0.108,0.058 0.231,0.089 0.354,0.089c0.124,0 0.247,-0.031 0.357,-0.091c5.632,-3.08 10.549,-6.824 14.62,-11.123c3.265,-3.452 6.088,-7.381 8.405,-11.679l-0.429,-0.428c-2.307,4.313 -5.132,8.25 -8.402,11.705Z" style="fill:#9f5660;fill-rule:nonzero;"/><path d="M239.747,41.298l-9.057,0l-2.274,7.39l-3.788,0l8.563,-26.148l4.548,0l8.412,26.148l-4.092,0l-2.312,-7.39Zm-1.194,-4.245c-0.189,-0.606 -0.403,-1.312 -0.644,-2.121c-0.241,-0.809 -0.498,-1.674 -0.777,-2.596c-0.278,-0.923 -0.53,-1.793 -0.758,-2.615c-0.227,-0.821 -0.43,-1.553 -0.606,-2.197c-0.178,-0.645 -0.291,-1.093 -0.34,-1.346l-0.228,0c-0.051,0.253 -0.164,0.695 -0.342,1.326c-0.176,0.632 -0.385,1.358 -0.624,2.179c-0.241,0.822 -0.5,1.694 -0.778,2.615c-0.277,0.922 -0.543,1.787 -0.795,2.596c-0.253,0.809 -0.473,1.521 -0.663,2.141c-0.189,0.619 -0.322,1.029 -0.398,1.232l7.352,0c-0.077,-0.203 -0.209,-0.606 -0.399,-1.214Z" style="fill:#231f20;fill-rule:nonzero;"/><path d="M267.072,41.203c-0.503,1.553 -1.195,2.875 -2.075,3.961c-0.906,1.136 -2.025,2.008 -3.359,2.614c-1.333,0.606 -3.132,0.91 -5.395,0.91l-6.492,0l0,-26.11l6.038,0c2.239,0 4.126,0.309 5.66,0.928c1.535,0.62 2.893,1.75 4.076,3.391c1.534,2.148 2.301,5.066 2.301,8.754c0,2.148 -0.25,3.999 -0.754,5.552Zm-3.6,-9.936c-0.251,-1.367 -0.766,-2.545 -1.541,-3.531c-0.729,-0.912 -1.5,-1.525 -2.315,-1.842c-0.817,-0.315 -1.862,-0.475 -3.141,-0.475l-2.934,0l0,20.237l2.857,0c1.505,0 2.748,-0.221 3.726,-0.665c0.977,-0.443 1.755,-1.195 2.332,-2.258c0.476,-0.886 0.827,-1.899 1.054,-3.038c0.224,-1.139 0.339,-2.353 0.339,-3.644c0,-1.823 -0.126,-3.417 -0.377,-4.784Z" style="fill:#231f20;fill-rule:nonzero;"/><path d="M277.945,48.763l-8.715,-26.185l3.979,0l5.015,15.726c0.153,0.455 0.323,0.998 0.513,1.629c0.19,0.633 0.349,1.239 0.475,1.82c0.102,0.43 0.183,0.796 0.248,1.098c0.063,0.304 0.12,0.594 0.171,0.872l0.228,0c0.051,-0.278 0.119,-0.555 0.209,-0.834c0.088,-0.277 0.196,-0.656 0.324,-1.136c0.151,-0.531 0.309,-1.061 0.473,-1.593c0.166,-0.529 0.362,-1.16 0.589,-1.894l5.132,-15.688l3.788,0l-8.828,26.185l-3.601,0Z" style="fill:#231f20;fill-rule:nonzero;"/><path d="M312.278,41.279c-0.48,1.629 -1.169,3.026 -2.064,4.187c-0.898,1.162 -1.996,2.059 -3.298,2.69c-1.301,0.633 -2.785,0.949 -4.453,0.949c-1.793,0 -3.366,-0.343 -4.718,-1.024c-1.352,-0.682 -2.476,-1.624 -3.371,-2.823c-0.899,-1.201 -1.568,-2.627 -2.01,-4.283c-0.442,-1.654 -0.662,-3.466 -0.662,-5.437c0,-2.148 0.252,-4.054 0.757,-5.723c0.505,-1.666 1.219,-3.069 2.142,-4.205c0.922,-1.138 2.033,-2.003 3.333,-2.596c1.302,-0.595 2.749,-0.892 4.34,-0.892c1.92,0 3.562,0.374 4.926,1.119c1.365,0.745 2.476,1.743 3.335,2.993c0.858,1.251 1.484,2.704 1.876,4.358c0.392,1.656 0.588,3.391 0.588,5.211c0,2.022 -0.241,3.847 -0.721,5.476Zm-3.788,-9.895c-0.226,-1.383 -0.589,-2.549 -1.093,-3.492c-0.501,-0.944 -1.165,-1.668 -1.996,-2.171c-0.829,-0.503 -1.858,-0.756 -3.089,-0.756c-2.31,0 -3.962,0.844 -4.954,2.53c-0.993,1.687 -1.488,4.218 -1.488,7.589c0,1.663 0.106,3.179 0.321,4.551c0.212,1.372 0.576,2.549 1.091,3.531c0.515,0.981 1.194,1.743 2.034,2.285c0.842,0.54 1.903,0.812 3.185,0.812c2.008,0 3.566,-0.787 4.671,-2.362c1.106,-1.572 1.659,-4.171 1.659,-7.797c0,-1.762 -0.115,-3.335 -0.341,-4.72Z" style="fill:#231f20;fill-rule:nonzero;"/><path d="M319.062,22.578l3.79,0l0,26.111l-3.79,0l0,-26.111Zm3.865,12.163l9.132,-12.163l4.586,0l-9.55,12.125l9.89,13.984l-4.736,0l-9.322,-13.946Z" style="fill:#231f20;fill-rule:nonzero;"/><path d="M352.864,41.298l-9.058,0l-2.273,7.39l-3.79,0l8.564,-26.148l4.549,0l8.412,26.148l-4.092,0l-2.312,-7.39Zm-1.194,-4.245c-0.189,-0.606 -0.405,-1.312 -0.645,-2.121c-0.24,-0.809 -0.498,-1.674 -0.777,-2.596c-0.277,-0.923 -0.53,-1.793 -0.757,-2.615c-0.228,-0.821 -0.43,-1.553 -0.606,-2.197c-0.178,-0.645 -0.291,-1.093 -0.341,-1.346l-0.227,0c-0.052,0.253 -0.165,0.695 -0.342,1.326c-0.176,0.632 -0.386,1.358 -0.625,2.179c-0.241,0.822 -0.5,1.694 -0.777,2.615c-0.277,0.922 -0.543,1.787 -0.796,2.596c-0.252,0.809 -0.473,1.521 -0.662,2.141c-0.19,0.619 -0.322,1.029 -0.399,1.232l7.352,0c-0.076,-0.203 -0.209,-0.606 -0.398,-1.214Z" style="fill:#231f20;fill-rule:nonzero;"/><path d="M369.248,25.609l0,23.078l-3.601,0l0,-23.078l-6.782,0l0,-3.031l17.546,0l-0.381,3.031l-6.782,0Z" style="fill:#231f20;fill-rule:nonzero;"/><path d="M383.56,25.609l0,7.806l7.731,0l0,3.032l-7.731,0l0,12.24l-3.6,0l0,-26.109l13.528,0l-0.491,3.031l-9.437,0Z" style="fill:#231f20;fill-rule:nonzero;"/><path d="M416.605,41.279c-0.48,1.629 -1.17,3.026 -2.066,4.187c-0.897,1.162 -1.995,2.059 -3.297,2.69c-1.3,0.633 -2.785,0.949 -4.453,0.949c-1.793,0 -3.366,-0.343 -4.718,-1.024c-1.35,-0.682 -2.476,-1.624 -3.371,-2.823c-0.897,-1.201 -1.568,-2.627 -2.01,-4.283c-0.441,-1.654 -0.662,-3.466 -0.662,-5.437c0,-2.148 0.252,-4.054 0.757,-5.723c0.505,-1.666 1.219,-3.069 2.142,-4.205c0.921,-1.138 2.033,-2.003 3.335,-2.596c1.301,-0.595 2.747,-0.892 4.338,-0.892c1.92,0 3.563,0.374 4.926,1.119c1.365,0.745 2.476,1.743 3.336,2.993c0.857,1.251 1.484,2.704 1.875,4.358c0.391,1.656 0.588,3.391 0.588,5.211c0,2.022 -0.24,3.847 -0.72,5.476Zm-3.789,-9.895c-0.225,-1.383 -0.589,-2.549 -1.091,-3.492c-0.503,-0.944 -1.167,-1.668 -1.998,-2.171c-0.828,-0.503 -1.858,-0.756 -3.089,-0.756c-2.31,0 -3.962,0.844 -4.954,2.53c-0.993,1.687 -1.488,4.218 -1.488,7.589c0,1.663 0.107,3.179 0.321,4.551c0.212,1.372 0.576,2.549 1.093,3.531c0.513,0.981 1.192,1.743 2.032,2.285c0.842,0.54 1.904,0.812 3.186,0.812c2.008,0 3.565,-0.787 4.67,-2.362c1.106,-1.572 1.659,-4.171 1.659,-7.797c0,-1.762 -0.115,-3.335 -0.341,-4.72Z" style="fill:#231f20;fill-rule:nonzero;"/><path d="M434.413,47.702l-0.455,-0.833c-0.151,-0.278 -0.322,-0.575 -0.511,-0.891c-0.19,-0.315 -0.411,-0.7 -0.663,-1.155c-0.506,-0.834 -0.942,-1.548 -1.307,-2.141c-0.367,-0.595 -0.714,-1.124 -1.043,-1.593c-0.329,-0.466 -0.658,-0.915 -0.985,-1.345c-0.329,-0.428 -0.72,-0.908 -1.176,-1.44c-0.353,-0.379 -0.694,-0.663 -1.023,-0.852c-0.327,-0.189 -0.77,-0.297 -1.325,-0.322l0,11.557l-3.6,0l0,-26.109l7.295,0c1.588,0 2.855,0.17 3.8,0.512c0.945,0.34 1.732,0.802 2.363,1.383c0.58,0.555 1.108,1.269 1.588,2.141c0.478,0.872 0.718,1.951 0.718,3.24c0,1.01 -0.158,1.958 -0.474,2.842c-0.315,0.885 -0.777,1.655 -1.383,2.311c-0.606,0.658 -1.339,1.17 -2.197,1.535c-0.859,0.367 -1.832,0.525 -2.918,0.473c0.606,0.507 1.079,0.96 1.42,1.365c0.342,0.404 0.626,0.758 0.853,1.062c0.278,0.353 0.606,0.809 0.985,1.363c0.379,0.557 0.782,1.176 1.212,1.857c0.278,0.455 0.607,0.985 0.987,1.593c0.379,0.606 0.751,1.205 1.118,1.798c0.365,0.595 0.705,1.131 1.023,1.611c0.315,0.48 0.536,0.822 0.662,1.023l-4.434,0c-0.203,-0.378 -0.379,-0.706 -0.53,-0.985Zm-0.78,-20.168c-0.444,-0.679 -1.033,-1.156 -1.771,-1.433c-0.38,-0.151 -0.837,-0.271 -1.368,-0.359c-0.533,-0.088 -1.144,-0.133 -1.829,-0.133l-2.74,0l0,9.058l2.549,0c1.168,0 2.101,-0.101 2.799,-0.302c0.697,-0.201 1.275,-0.517 1.732,-0.944c0.407,-0.377 0.722,-0.866 0.952,-1.471c0.229,-0.604 0.343,-1.284 0.343,-2.038c0,-0.907 -0.222,-1.699 -0.667,-2.378Z" style="fill:#231f20;fill-rule:nonzero;"/><path d="M444.152,22.578l14.135,0l-0.494,3.031l-10.04,0l0,7.958l8.411,0l0,3.033l-8.375,0l0,8.866l10.915,0l0,3.222l-14.552,0l0,-26.11Z" style="fill:#231f20;fill-rule:nonzero;"/><path d="M470.104,34.818c-0.332,-0.683 -0.664,-1.37 -0.996,-2.066c-0.333,-0.694 -0.645,-1.35 -0.939,-1.97c-0.294,-0.619 -0.549,-1.2 -0.765,-1.743c-0.218,-0.544 -0.389,-1.005 -0.515,-1.384l-0.228,0.038c0.1,1.138 0.171,2.33 0.208,3.581c0.038,1.25 0.07,2.483 0.095,3.695l0.151,13.718l-3.599,0l0,-26.109l4.245,0l7.274,14.399c0.279,0.531 0.556,1.126 0.834,1.782c0.279,0.658 0.543,1.289 0.797,1.895c0.25,0.606 0.46,1.143 0.624,1.611c0.165,0.467 0.271,0.789 0.322,0.966l0.228,-0.076c-0.025,-0.176 -0.063,-0.55 -0.113,-1.118c-0.052,-0.569 -0.096,-1.225 -0.133,-1.971c-0.038,-0.744 -0.07,-1.528 -0.095,-2.348c-0.026,-0.822 -0.038,-1.598 -0.038,-2.332l-0.076,-12.808l3.6,0l0,26.109l-3.946,0l-6.935,-13.869Z" style="fill:#231f20;fill-rule:nonzero;"/><rect x="488.109" y="22.578" width="3.79" height="26.111" style="fill:#231f20;fill-rule:nonzero;"/><path d="M505.611,34.818c-0.332,-0.683 -0.664,-1.37 -0.996,-2.066c-0.332,-0.694 -0.644,-1.35 -0.938,-1.97c-0.294,-0.619 -0.55,-1.2 -0.768,-1.743c-0.216,-0.544 -0.387,-1.005 -0.513,-1.384l-0.227,0.038c0.099,1.138 0.171,2.33 0.207,3.581c0.038,1.25 0.07,2.483 0.095,3.695l0.151,13.718l-3.599,0l0,-26.109l4.243,0l7.276,14.399c0.279,0.531 0.557,1.126 0.834,1.782c0.279,0.658 0.543,1.289 0.796,1.895c0.252,0.606 0.461,1.143 0.625,1.611c0.164,0.467 0.271,0.789 0.323,0.966l0.227,-0.076c-0.025,-0.176 -0.063,-0.55 -0.115,-1.118c-0.05,-0.569 -0.094,-1.225 -0.131,-1.971c-0.038,-0.744 -0.07,-1.528 -0.094,-2.348c-0.028,-0.822 -0.038,-1.598 -0.038,-2.332l-0.077,-12.808l3.6,0l0,26.109l-3.945,0l-6.936,-13.869Z" style="fill:#231f20;fill-rule:nonzero;"/><path d="M536.467,48.516c-1.352,0.367 -2.722,0.551 -4.113,0.551c-3.51,0 -6.264,-1.176 -8.26,-3.524c-1.061,-1.214 -1.832,-2.609 -2.313,-4.189c-0.479,-1.577 -0.718,-3.441 -0.718,-5.588c0,-2.654 0.372,-4.889 1.118,-6.708c0.744,-1.818 1.875,-3.348 3.391,-4.585c0.96,-0.784 1.971,-1.352 3.031,-1.706c1.061,-0.354 2.237,-0.53 3.526,-0.53c2.879,0 5.342,0.849 7.388,2.546l-1.743,2.266c-0.954,-0.706 -1.864,-1.213 -2.731,-1.515c-0.867,-0.304 -1.802,-0.455 -2.806,-0.455c-1.281,0 -2.385,0.254 -3.315,0.762c-0.929,0.508 -1.683,1.372 -2.261,2.589c-0.3,0.636 -0.544,1.233 -0.734,1.792c-0.187,0.56 -0.332,1.138 -0.433,1.734c-0.1,0.596 -0.169,1.213 -0.208,1.849c-0.036,0.634 -0.056,1.345 -0.056,2.132c0,3.659 0.616,6.299 1.845,7.925c0.576,0.738 1.367,1.315 2.372,1.734c1.003,0.419 2.071,0.628 3.2,0.628c0.727,0 1.416,-0.088 2.069,-0.266c0.653,-0.178 1.242,-0.418 1.771,-0.722l0,-7.462l-4.813,0l-0.607,-3.033l9.018,0l0,12.235c-1.061,0.659 -2.267,1.173 -3.618,1.54Z" style="fill:#231f20;fill-rule:nonzero;"/><path d="M546.033,22.578l14.135,0l-0.493,3.031l-10.041,0l0,7.958l8.412,0l0,3.033l-8.376,0l0,8.866l10.915,0l0,3.222l-14.552,0l0,-26.11Z" style="fill:#231f20;fill-rule:nonzero;"/><path d="M571.985,34.818c-0.332,-0.683 -0.664,-1.37 -0.996,-2.066c-0.332,-0.694 -0.644,-1.35 -0.938,-1.97c-0.294,-0.619 -0.55,-1.2 -0.766,-1.743c-0.218,-0.544 -0.389,-1.005 -0.515,-1.384l-0.227,0.038c0.101,1.138 0.171,2.33 0.207,3.581c0.038,1.25 0.07,2.483 0.095,3.695l0.151,13.718l-3.599,0l0,-26.109l4.245,0l7.276,14.399c0.277,0.531 0.555,1.126 0.832,1.782c0.279,0.658 0.545,1.289 0.797,1.895c0.251,0.606 0.46,1.143 0.625,1.611c0.164,0.467 0.27,0.789 0.322,0.966l0.227,-0.076c-0.025,-0.176 -0.063,-0.55 -0.113,-1.118c-0.051,-0.569 -0.096,-1.225 -0.133,-1.971c-0.038,-0.744 -0.069,-1.528 -0.094,-2.348c-0.027,-0.822 -0.038,-1.598 -0.038,-2.332l-0.077,-12.808l3.601,0l0,26.109l-3.946,0l-6.936,-13.869Z" style="fill:#231f20;fill-rule:nonzero;"/><path d="M22.04,49.105l-1.362,-17.729c-0.114,-1.4 -0.151,-3.366 -0.187,-4.12l-0.077,0c-0.151,0.754 -0.529,2.379 -0.946,3.778l-5.179,18.071l-3.137,0l-4.765,-17.238c-0.566,-2.004 -1.019,-3.97 -1.169,-4.65l-0.076,0c-0.038,0.907 -0.151,3.289 -0.264,4.65l-1.324,17.238l-3.554,0l2.345,-26.046l5.102,0l4.386,15.99c0.566,2.117 0.87,3.705 0.945,4.273l0.075,0c0.113,-0.645 0.417,-2.345 0.907,-4.084l4.538,-16.179l5.139,0l2.232,26.046l-3.629,0Z" style="fill:#231f20;fill-rule:nonzero;"/><path d="M33.742,40.372l0,0.453c0,1.626 0.225,2.873 0.793,3.78c0.984,1.513 2.533,2.232 4.348,2.232c1.777,0 3.289,-0.604 4.65,-1.815l1.322,2.079c-1.851,1.626 -4.082,2.42 -6.541,2.42c-5.252,0 -8.467,-3.818 -8.467,-10.018c0,-3.288 0.643,-5.406 2.269,-7.334c1.513,-1.777 3.364,-2.607 5.708,-2.607c2.116,0 3.819,0.679 5.141,2.041c1.665,1.701 2.267,3.816 2.307,8.164l0,0.605l-11.53,0Zm6.727,-6.843c-0.603,-0.755 -1.513,-1.322 -2.722,-1.322c-2.645,0 -3.969,2.154 -3.969,5.594l7.865,0c0,-1.815 -0.416,-3.327 -1.174,-4.272Z" style="fill:#231f20;fill-rule:nonzero;"/><path d="M61.933,49.105c-0.189,-0.567 -0.226,-0.833 -0.34,-1.776c-1.322,1.397 -2.875,2.078 -4.878,2.078c-4.839,0 -7.674,-3.629 -7.674,-9.601c0,-4.084 1.398,-7.221 3.971,-8.885c1.171,-0.756 2.343,-1.096 3.703,-1.096c1.815,0 3.328,0.642 4.612,2.192c0,-0.528 -0.076,-2.041 -0.076,-3.325l0,-7.372l3.479,0.566l0,20.868c0,3.061 0.113,5.18 0.53,6.351l-3.327,0Zm-0.719,-14.705c-0.983,-1.172 -2.23,-1.777 -4.006,-1.777c-1.436,0 -2.572,0.718 -3.29,1.927c-0.719,1.249 -0.983,2.76 -0.983,5.218c0,3.667 0.454,4.686 1.473,5.746c0.645,0.679 1.513,0.983 2.8,0.983c2.003,0 3.363,-1.059 4.006,-2.192l0,-9.905Z" style="fill:#231f20;fill-rule:nonzero;"/><path d="M74.66,49.483c-1.36,0 -2.229,-0.417 -2.946,-1.437c-0.566,-0.794 -0.719,-1.436 -0.719,-3.288l0,-17.162c0,-2.686 -0.115,-3.97 -0.417,-5.444l3.629,-0.758c0.34,1.249 0.34,3.064 0.34,5.406l0,17.049c0,2.005 0.113,2.458 0.493,2.797c0.226,0.266 0.756,0.379 1.173,0.266l0.603,2.154c-0.718,0.304 -1.324,0.417 -2.156,0.417Z" style="fill:#231f20;fill-rule:nonzero;"/><path d="M83.539,40.372l0,0.453c0,1.626 0.226,2.873 0.794,3.78c0.983,1.513 2.533,2.232 4.348,2.232c1.775,0 3.288,-0.604 4.649,-1.815l1.323,2.079c-1.853,1.626 -4.082,2.42 -6.542,2.42c-5.253,0 -8.468,-3.818 -8.468,-10.018c0,-3.288 0.645,-5.406 2.27,-7.334c1.513,-1.777 3.365,-2.607 5.708,-2.607c2.116,0 3.819,0.679 5.142,2.041c1.664,1.701 2.267,3.816 2.307,8.164l0,0.605l-11.531,0Zm6.728,-6.843c-0.603,-0.755 -1.513,-1.322 -2.722,-1.322c-2.646,0 -3.969,2.154 -3.969,5.594l7.864,0c0,-1.815 -0.416,-3.327 -1.173,-4.272Z" style="fill:#231f20;fill-rule:nonzero;"/><path d="M120.384,49.105l0,-13.572c0,-2.154 -0.68,-2.91 -2.267,-2.91c-1.739,0 -2.986,1.134 -4.423,2.569l0,13.913l-3.401,0l0,-13.496c0,-2.117 -0.606,-2.909 -2.347,-2.909c-1.282,0 -2.719,0.641 -4.344,2.19l0,14.215l-3.44,0l0,-13.913c0,-2.683 -0.153,-3.401 -0.683,-4.725l3.252,-0.792c0.377,0.641 0.643,1.586 0.643,2.646c1.626,-1.702 3.552,-2.686 5.329,-2.686c1.776,0 3.556,0.945 4.499,2.988c1.89,-2.004 3.855,-2.988 5.785,-2.988c2.949,0 4.839,1.854 4.839,5.331l0,14.139l-3.442,0Z" style="fill:#231f20;fill-rule:nonzero;"/></g></svg>