<?xml version="1.0" encoding="UTF-8" standalone="no"?><!DOCTYPE svg PUBLIC "-//W3C//DTD SVG 1.1//EN" "http://www.w3.org/Graphics/SVG/1.1/DTD/svg11.dtd"><svg width="100%" height="100%" viewBox="0 0 3006 2813" version="1.1" xmlns="http://www.w3.org/2000/svg" xmlns:xlink="http://www.w3.org/1999/xlink" xml:space="preserve" xmlns:serif="http://www.serif.com/" style="fill-rule:evenodd;clip-rule:evenodd;stroke-linejoin:round;stroke-miterlimit:1.41421;"><g><path d="M1138.17,1317.69c0,-17.16 6.42,-33.34 18.09,-45.54c5.35,-5.59 11.51,-10.04 18.19,-13.25c8.13,-3.89 17.05,-5.96 26.28,-5.96c11.93,0 23.08,3.47 32.58,9.49l0,-49.13c0,-35.7 28.07,-64.75 62.57,-64.75c0.51,0 1.02,0.03 1.53,0.04c-10.92,-12.48 -20.84,-24.51 -29.13,-35.34c-22.51,-29.39 -27.54,-42.52 -28.7,-50.3c-3.04,-10.16 -4.58,-20.71 -4.58,-31.38c0,-60.27 49.03,-109.29 109.3,-109.29c27.68,0 54.09,10.36 74.36,29.19c2.56,2.385 4.99,4.887 7.29,7.477c2.66,2.046 5.23,4.22 7.71,6.523c2.5,2.323 4.86,4.758 7.11,7.275c3.64,-5.697 7.82,-11.081 12.52,-16.065l0,-637.63c0,-6.902 -1.79,-13.491 -5.13,-19.197c-4.35,-2.088 -9.1,-3.193 -14,-3.193c-18.82,0 -34.14,16.32 -34.14,36.39l0,187.99c0,7.53 -5.55,13.75 -12.78,14.82c-0.73,0.11 -1.46,0.18 -2.22,0.18c-7.94,0 -14.43,-6.18 -14.95,-14.002c-0.02,0 -0.03,0.002 -0.05,0.002c-8.28,0 -15,-6.71 -15,-15l0,-295.82c0,-7.035 -1.89,-13.607 -5.15,-19.181c-4.27,-2.055 -9,-3.209 -13.98,-3.209c-18.82,0 -34.13,16.33 -34.13,36.39l0,295.82c0,5.18 -2.63,9.75 -6.62,12.44c-2.39,1.62 -5.28,2.56 -8.38,2.56c-3.11,0 -6,-0.94 -8.39,-2.56c-3.73,-2.515 -6.26,-6.676 -6.58,-11.441c-0.01,0 -0.02,0.001 -0.03,0.001c-3.11,0 -6,-0.94 -8.39,-2.56c-3.99,-2.69 -6.61,-7.26 -6.61,-12.44l0,-343.62c0,-7.035 -1.89,-13.606 -5.14,-19.178c-4.28,-2.057 -9.01,-3.212 -14,-3.212c-18.82,0 -34.13,16.32 -34.13,36.39l0,303.76c0,8.29 -6.72,15 -15,15c-6.29,0 -11.67,-3.87 -13.9,-9.36c-0.59,-1.447 -0.94,-3.009 -1.05,-4.642c-0.02,0 -0.03,0.002 -0.05,0.002c-6.29,0 -11.67,-3.87 -13.9,-9.36c-0.71,-1.74 -1.1,-3.64 -1.1,-5.64l0,-255.96c0,-7.034 -1.89,-13.604 -5.15,-19.178c-4.27,-2.057 -9.01,-3.212 -13.99,-3.212c-18.82,0 -34.13,16.33 -34.13,36.39l0,295.82c0,1.49 -0.23,2.93 -0.63,4.29l0,33.16c0,28.61 11.14,55.51 31.37,75.74l71.77,71.76c21.44,21.45 33.25,49.97 33.25,80.29l0,46.82c0,8.28 -6.71,15 -15,15c-0.42,0 -0.83,-0.03 -1.24,-0.07c-7.37,-0.603 -13.22,-6.533 -13.71,-13.933c-0.02,0 -0.03,0.003 -0.05,0.003c-0.42,0 -0.83,-0.03 -1.24,-0.07c-7.7,-0.63 -13.76,-7.07 -13.76,-14.93l0,-46.82c0,-22.31 -8.69,-43.29 -24.47,-59.08l-71.76,-71.76c-25.9,-25.89 -40.16,-60.33 -40.16,-96.95l0,-100.56c0,-6.332 -1.66,-12.413 -4.77,-17.752c-4.8,-2.361 -10.111,-3.618 -15.611,-3.618c-19.509,0 -35.379,15.87 -35.379,35.37l0,208.59c0,31.84 12.4,61.78 34.92,84.3l31.76,31.76c33.07,33.08 51.28,77.05 51.28,123.81l0,1862.61l16.38,0l0,-1451.31Z" style="fill:#8b5e3c;fill-rule:nonzero;"/><path d="M2413.36,2638.51c0,8.29 -6.72,15 -15,15c-7.95,0 -14.44,-6.18 -14.95,-14c-0.02,0 -0.04,0 -0.05,0c-8.29,0 -15,-6.71 -15,-15l0,-624.09c0,-8.29 6.71,-15 15,-15c7.94,0 14.43,6.18 14.95,14c0.01,0 0.03,0 0.05,0c8.28,0 15,6.71 15,15l0,624.09Zm37.96,-905.14c0,-12.44 4.08,-24.26 11.58,-33.8c1.07,-1.37 2.21,-2.68 3.42,-3.95c0.79,-0.82 1.61,-1.61 2.44,-2.37c3.09,-2.85 6.46,-5.28 10.05,-7.27c1.29,-0.71 2.6,-1.37 3.94,-1.97c-1.19,-1.13 -2.39,-2.26 -3.59,-3.4c-15.28,-13.97 -31.74,-29.98 -48.39,-47.08c-3.66,-3.76 -7.33,-7.57 -10.99,-11.43c-19.3,-20.29 -37.64,-40.81 -53.61,-59.9c-6.07,-7.26 -11.79,-14.3 -17.09,-21.05c-1.78,-2.27 -3.53,-4.52 -5.21,-6.71c-1.08,-1.41 -2.11,-2.77 -3.12,-4.11l0,1238.67l110.57,0l0,-1035.63Z" style="fill:#a97c50;fill-rule:nonzero;"/><path d="M1466.74,103.463c-0.01,-0.063 -0.02,-0.126 -0.02,-0.189c-1.84,0.005 -3.61,-0.31 -5.25,-0.918c-1.77,-0.657 -3.38,-1.639 -4.77,-2.881c-2.78,-2.483 -4.65,-6 -4.96,-10.012c-1.29,-16.317 -7.57,-31.661 -17.92,-44.159c-13.39,-9.601 -29.43,-14.814 -46.12,-14.814c-15.21,0 -29.43,4.313 -41.51,11.767c-22.66,13.975 -37.79,39.012 -37.79,67.523c0,2.677 0.15,5.341 0.41,7.988c0.28,2.797 0.71,5.572 1.28,8.316c0.53,2.515 1.16,5.007 1.93,7.462c0.32,1.035 0.54,2.103 0.63,3.183c0.04,0.245 0.1,0.522 0.18,0.816c0.27,1.035 0.8,2.37 1.57,3.986c0.5,1.048 1.11,2.216 1.82,3.498c0.11,-0.008 0.21,-0.021 0.31,-0.029c1.44,-0.104 2.89,-0.17 4.36,-0.17c18.41,0 35.02,8.084 46.73,20.991c1.08,1.191 2.11,2.435 3.1,3.706c4.36,2.932 8.36,6.387 11.9,10.294c10.78,11.883 17.4,27.852 17.4,45.401l0,21.431c2.38,2.435 4.75,4.833 7.11,7.195c3.9,-0.771 7.92,-1.192 12.03,-1.192c15.48,0 30.1,5.646 41.71,15.977c1.33,1.18 2.62,2.406 3.87,3.707c1.52,1.594 2.95,3.261 4.29,4.979c2.38,1.603 4.66,3.376 6.84,5.314c1.33,1.18 2.62,2.406 3.87,3.707c1.94,2.033 3.73,4.184 5.38,6.417c10.76,-8.159 26.51,-21.813 48.05,-43.456c0.97,-0.979 1.95,-1.971 2.95,-2.983c1.77,-1.794 3.54,-3.609 5.32,-5.438c30,-30.932 60.55,-66.552 79.06,-92.27c0.52,-0.72 1.02,-1.419 1.51,-2.119c4.79,-6.747 8.56,-12.573 11.22,-17.335c1.68,-3.602 3.09,-7.361 4.19,-11.181c2.1,-7.173 3.16,-14.635 3.16,-22.195c0,-19.14 -6.83,-36.716 -18.16,-50.431c-10.94,-7.856 -23.94,-13.012 -38.04,-14.448c-2.66,-0.271 -5.36,-0.411 -8.09,-0.411c-15.31,0 -30.07,4.382 -42.75,12.505c-3.95,2.534 -7.7,5.422 -11.2,8.668c-3.62,3.36 -6.88,7.016 -9.78,10.912c-8.7,11.723 -14.01,25.641 -15.27,40.367c-0.01,0.172 -0.04,0.342 -0.05,0.514l0,0.029c-0.63,7.844 -7.2,13.797 -14.94,13.798c-0.05,0 -0.1,-0.001 -0.15,-0.001c-1.99,0.062 -3.91,-0.269 -5.68,-0.926c-1.77,-0.657 -3.38,-1.639 -4.77,-2.881c-2.78,-2.483 -4.65,-6.001 -4.96,-10.012Z" style="fill:#f4d1ce;fill-rule:nonzero;"/><path d="M2032.55,535.094c-1.34,-0.843 -2.52,-1.905 -3.53,-3.121c-1.29,-1.547 -2.27,-3.361 -2.85,-5.364c-0.28,-0.973 -0.49,-1.979 -0.57,-3.029c-1.75,-22.214 -9.6,-43.244 -22.56,-61.01c-2.48,-3.397 -5.15,-6.671 -7.99,-9.816c-21.05,-16.543 -46.96,-25.554 -73.99,-25.554c-20.35,0 -40.18,5.12 -57.83,14.85l0,79.313c2.76,-0.442 5.58,-0.683 8.43,-0.683c17.64,0 33.28,8.679 42.91,21.98c15.02,9.356 25.04,26.014 25.04,44.97l0,157.151c0,2.999 -0.12,5.98 -0.34,8.939c11.33,11.586 22.4,22.517 33.04,32.648c10.3,9.413 20.07,17.924 29.13,25.344c2.38,1.946 4.63,3.752 6.78,5.451c28.55,22.509 38.04,24.085 39.06,24.187c0.96,-0.12 9.69,-1.72 35.24,-22.24c1.109,-0.896 2.25,-1.817 3.399,-2.762c8.661,-7.112 18.271,-15.582 28.571,-25.15c9.94,-9.235 20.51,-19.49 31.5,-30.578c46.38,-46.79 95.01,-102.97 123.9,-143.13c4.18,-5.796 7.86,-11.151 11.05,-16.048c3.01,-4.626 5.58,-8.847 7.68,-12.616c1.17,-2.511 2.25,-5.081 3.25,-7.685c1.2,-3.109 2.27,-6.267 3.2,-9.461c0.69,-2.352 1.29,-4.727 1.82,-7.116c1.95,-8.637 2.95,-17.495 2.95,-26.436c0,-30.881 -11.74,-59.07 -30.98,-80.351c-20.39,-16.015 -46.07,-25.577 -73.95,-25.577c-14.8,0 -29.27,2.708 -42.79,7.868c-12.86,4.909 -24.86,12.043 -35.47,21.194c-1.12,0.966 -2.23,1.947 -3.32,2.958c-17.39,16.149 -29.441,36.796 -34.951,59.442c-1.5,6.172 -2.509,12.491 -3.019,18.911c-0.65,8.259 -7.86,14.429 -16.13,13.779c-0.46,-0.036 -0.91,-0.1 -1.351,-0.175c-2.909,-0.493 -5.509,-1.81 -7.569,-3.696c-1.08,-0.988 -2.01,-2.13 -2.76,-3.387c-1.34,-0.843 -2.52,-1.905 -3.53,-3.121c-1.01,-1.206 -1.81,-2.578 -2.4,-4.071c-2.4,-0.622 -4.55,-1.812 -6.31,-3.421c-1.08,-0.988 -2.01,-2.13 -2.76,-3.387Z" style="fill:#e2b4b0;fill-rule:nonzero;"/><path d="M1469.08,1151.01c5.44,-1.6 11.16,-2.46 17.08,-2.46c6.68,0 13.12,1.09 19.16,3.11c2.52,0.84 4.96,1.85 7.32,3c3.32,1.62 6.48,3.51 9.45,5.68l0,-189.749c-8.67,2.98 -16.8,7.456 -24.03,13.303c-1.41,1.137 -2.78,2.317 -4.12,3.555c-14.63,13.581 -23.54,31.981 -25.1,51.791c-0.17,2.15 -0.79,4.15 -1.76,5.94c-2.55,4.73 -7.54,7.89 -13.17,7.89l-0.15,0c-1.71,0.05 -3.37,-0.2 -4.92,-0.68c-5.69,-1.77 -10.01,-6.84 -10.5,-13.14c-0.01,-0.06 -0.02,-0.12 -0.02,-0.19c-1.56,0.01 -3.06,-0.23 -4.48,-0.67c-5.69,-1.77 -10.01,-6.84 -10.5,-13.14c-1.28,-16.31 -7.55,-31.641 -17.88,-44.135c-13.39,-9.611 -29.45,-14.835 -46.16,-14.835c-31.83,0 -59.33,18.864 -71.94,45.99c-4.71,10.13 -7.36,21.41 -7.36,33.3c0,8.1 1.22,16.1 3.62,23.76c0.33,1.04 0.54,2.1 0.63,3.19c0.5,3.28 4.61,10.91 12.35,22.1c8.22,11.85 20.55,27.72 37.03,46.66c9.63,-22.94 31.72,-39.02 57.39,-39.02c19.71,0 37.31,9.49 48.78,24.28c9.65,6.44 17.49,15.54 22.54,26.31c0.07,0.16 0.14,0.33 0.22,0.5c2.12,-0.9 4.3,-1.68 6.52,-2.34Z" style="fill:#f4d1ce;fill-rule:nonzero;"/><path d="M343.085,1386.7c-2.719,-2.48 -4.545,-5.95 -4.856,-9.91c-0.124,-1.59 -0.298,-3.17 -0.503,-4.75c-2.343,-17.96 -9.88,-34.73 -21.678,-48.43c-2.736,-2.03 -5.57,-3.91 -8.488,-5.62c-14.139,-8.3 -30.293,-12.77 -47.003,-12.77c-40.854,0 -75.639,26.49 -88.084,63.19c-1.386,4.08 -2.477,8.3 -3.286,12.62c-1.043,5.57 -1.607,11.3 -1.607,17.16c0,9.5 1.43,18.88 4.25,27.87c0.32,1.03 0.53,2.1 0.63,3.18c0.024,0.23 0.492,3.67 6.095,13.27c3.834,6.57 10.07,16.02 20.212,29.29c0.294,0.38 0.604,0.78 0.902,1.17c14.31,18.61 33.066,40.52 53.579,62.61c2.56,2.75 5.142,5.51 7.751,8.27c9.014,9.51 18.052,18.73 26.889,27.44c2.287,-1.56 4.698,-2.93 7.214,-4.11c0.809,-0.38 1.625,-0.75 2.455,-1.08c5.874,-2.39 12.265,-3.7 18.953,-3.7c10.292,0 19.885,3.11 27.964,8.46c5.293,3.5 9.924,7.97 13.68,13.16c0.443,0.27 0.885,0.55 1.32,0.84c6.242,4.13 11.577,9.6 15.623,16.01c1.596,-0.51 3.221,-0.95 4.877,-1.31c3.415,-0.73 6.945,-1.14 10.569,-1.14c0.354,0 0.704,0.02 1.057,0.03c11.188,-9.65 25.045,-22.54 41.876,-39.58c28.93,-29.29 58.933,-63.12 81.451,-91.61l-8.899,-8.89l-17.278,-17.27c-32.45,-32.47 -50.33,-75.63 -50.33,-121.52l0,-6.2c-2.859,1.28 -5.657,2.71 -8.38,4.28c-5.989,3.46 -11.624,7.6 -16.787,12.39c-2.604,2.42 -5.032,4.98 -7.32,7.64c-10.204,11.88 -17.205,26.06 -20.405,41.32c-0.809,3.87 -1.393,7.79 -1.706,11.77c-0.091,1.16 -0.326,2.28 -0.663,3.34c-1.932,6.15 -7.667,10.49 -14.279,10.49l-0.18,0c-1.504,0.05 -2.969,-0.12 -4.36,-0.49c-2.353,-0.62 -4.49,-1.82 -6.255,-3.42c-2.719,-2.48 -4.545,-5.95 -4.856,-9.91c-0.004,-0.06 -0.011,-0.12 -0.016,-0.18c-1.333,0 -2.633,-0.16 -3.873,-0.49c-2.353,-0.62 -4.49,-1.82 -6.255,-3.42Z" style="fill:#f4d1ce;fill-rule:nonzero;"/><path d="M2720.82,1567.45c15.53,-17.88 29.87,-35.34 41.85,-51c3.84,-5.02 7.44,-9.86 10.75,-14.46c4.34,-6.02 8.1,-11.53 11.28,-16.5c2.3,-3.59 4.31,-6.92 5.99,-9.92c1.48,-3.18 2.8,-6.45 3.97,-9.77c0.33,-0.94 0.66,-1.88 0.96,-2.82c0.34,-1.03 0.67,-2.06 0.97,-3.1c0.34,-1.18 0.66,-2.37 0.97,-3.56c2.26,-8.86 3.4,-17.99 3.4,-27.24c0,-28.03 -10.54,-53.64 -27.85,-73.09c-18.61,-14.39 -41.92,-22.96 -67.2,-22.96c-27.87,0 -54.46,10.44 -74.87,29.39c-7.63,7.08 -14.14,15.11 -19.41,23.83c-8.75,14.49 -14.08,30.89 -15.43,48.06c-0.13,1.65 -0.53,3.21 -1.14,4.66c-1.03,2.42 -2.65,4.51 -4.7,6.08c-2.54,1.94 -5.7,3.08 -9.09,3.08c-0.09,0 -0.17,0 -0.25,0c-8.01,0.3 -14.88,-5.76 -15.52,-13.81c0,-0.07 -0.01,-0.13 -0.01,-0.19c-7.78,0.02 -14.37,-5.94 -14.99,-13.81c-0.4,-5.12 -1.15,-10.16 -2.25,-15.11c-4.04,-18.29 -12.72,-35.23 -25.27,-49.3c-19.19,-14.82 -42.68,-22.88 -67.17,-22.88c-60.69,0 -110.06,49.37 -110.06,110.05c0,6.88 0.64,13.7 1.89,20.4c0.8,4.25 1.84,8.45 3.13,12.58c0.15,0.47 0.27,0.95 0.37,1.44c0.01,0.06 0.03,0.12 0.04,0.18c0.1,0.52 0.18,1.04 0.22,1.56c0.08,0.91 1.16,8.01 15.61,29.34c3.96,5.86 8.93,12.78 15.17,20.95c18.92,24.79 44.81,54.75 72.89,84.37c15.11,15.94 30.26,31.15 44.67,44.87c0.51,0.47 1.03,0.95 1.55,1.42c6.6,6 12.97,11.59 18.99,16.68c0.66,0.55 1.3,1.08 1.93,1.61c0.53,0.44 1.05,0.87 1.56,1.3c0.53,0.44 1.06,0.88 1.58,1.31l0,-28.96c0,-13.2 4.64,-25.29 12.32,-34.65c9.55,-11.65 23.8,-19.06 39.7,-19.06c3.08,0 6.1,0.28 9.04,0.82c5.05,0.92 9.85,2.59 14.3,4.91c3.48,-15.73 13.66,-28.86 27.27,-35.98c7.04,-3.69 15,-5.77 23.42,-5.77c10.3,0 19.91,3.11 28,8.47c5.28,3.49 9.9,7.96 13.65,13.13c0.45,0.28 0.9,0.57 1.35,0.87c2.29,1.51 4.43,3.22 6.46,5.07c6.8,-7.5 13.48,-15.03 19.96,-22.49Z" style="fill:#e2b4b0;fill-rule:nonzero;"/><path d="M526.329,906.677c9.548,8.059 17.327,14.085 23.635,18.608c2.544,1.824 4.855,3.41 6.936,4.775l0,-126.17c0,-20.209 7.759,-38.561 20.334,-52.066c13.18,-14.157 31.651,-22.989 52.086,-22.989c10.565,0 20.597,2.374 29.653,6.611c4.578,2.14 8.91,4.748 12.927,7.784c1.522,-24.934 14.851,-46.585 34.235,-59.036c11.058,-7.104 24.079,-11.225 38.02,-11.225c19.991,0 38.104,8.449 51.219,22.071c1.356,1.409 2.659,2.873 3.905,4.389c1.266,-3.195 2.402,-6.447 3.358,-9.739c2.903,-9.955 4.373,-20.312 4.373,-30.801c0,-28.027 -10.539,-53.636 -27.854,-73.087c-18.602,-14.387 -41.915,-22.962 -67.196,-22.962c-27.87,0 -54.46,10.44 -74.87,29.39c-2.593,2.406 -5.054,4.923 -7.384,7.537c-15.913,17.868 -25.57,40.358 -27.454,64.352c-0.055,0.703 -0.174,1.384 -0.321,2.054c-1.491,6.82 -7.555,11.777 -14.621,11.777c-0.051,0 -0.101,-0.003 -0.151,-0.006c-0.029,0 -0.058,0 -0.088,-0.001c-6.448,0.246 -12.191,-3.668 -14.493,-9.43c-0.548,-1.368 -0.905,-2.838 -1.028,-4.383c-0.005,-0.063 -0.014,-0.125 -0.019,-0.188c-6.226,0.013 -11.716,-3.829 -13.953,-9.429c-0.548,-1.368 -0.905,-2.838 -1.028,-4.383c-1.883,-23.973 -11.53,-46.435 -27.411,-64.297c-19.212,-14.874 -42.746,-22.993 -67.289,-22.993c-60.68,0 -110.05,49.37 -110.05,110.05c0,9.904 1.316,19.699 3.906,29.167c0.35,1.276 0.719,2.548 1.115,3.813c0.068,0.215 0.11,0.437 0.167,0.655c0.176,0.657 0.306,1.321 0.387,1.994c0.022,0.179 0.061,0.354 0.076,0.534c0.101,1.153 1.819,12.364 30.774,50.288c6.528,8.551 13.902,17.729 21.893,27.287c15.173,18.144 32.61,37.681 51.002,57.082c15.031,15.86 30.103,30.988 44.444,44.662c0.057,0.054 0.113,0.107 0.17,0.161c7.18,6.559 14.089,12.653 20.595,18.144Z" style="fill:#e2b4b0;fill-rule:nonzero;"/><path d="M2488.34,1039.9c0,-8.29 6.71,-15 15,-15c7.94,0 14.43,6.18 14.95,14c0.02,0 0.03,0 0.05,0c8.28,0 15,6.71 15,15l0,118.64c0,8.28 -6.72,15 -15,15c-7.95,0 -14.43,-6.19 -14.95,-14c-0.02,0 -0.03,0 -0.05,0c-8.29,0 -15,-6.72 -15,-15l0,-118.64Zm-221.8,-673.66c-0.71,-1.74 -1.11,-3.64 -1.11,-5.63l0,-247.82c0,-6.542 -1.71,-12.667 -4.66,-17.898c-3.96,-1.831 -8.33,-2.851 -12.91,-2.851c-17.96,0 -32.57,15.589 -32.57,34.749l0,265.633c28.83,7.003 54.43,22.364 74.08,43.364c33.82,27.514 55.47,69.446 55.47,116.343c0,14.25 -2.01,28.36 -5.96,41.93c-1.98,6.8 -4.46,13.48 -7.37,19.91c9.92,16.8 15.22,36 15.22,56.02l0,45.33c0,8.28 -6.71,15 -15,15c-1.72,0 -3.36,-0.3 -4.9,-0.84c-5.57,-1.926 -9.66,-7.04 -10.06,-13.162c-0.01,0 -0.03,0.002 -0.04,0.002c-1.72,0 -3.36,-0.3 -4.9,-0.84c-5.87,-2.03 -10.1,-7.6 -10.1,-14.16l0,-42.087c-19.87,26.513 -46.36,58.132 -74.6,89.207c2.78,12.27 4.21,24.95 4.21,37.84l0,187.13c1.99,6.63 3.06,13.67 3.06,20.97l0,36.28c7.24,-2.72 15.05,-4.21 23.18,-4.21c18.33,0 35.53,7.43 48.43,20.92c1.46,1.53 2.84,3.12 4.15,4.76c3.87,2.66 7.51,5.74 10.85,9.24c12.73,13.32 19.74,30.96 19.74,49.69l0,220.15c25.44,-26.01 60.89,-42.18 100.06,-42.18c35.46,0 69.3,13.28 95.28,37.41c2.55,2.37 4.99,4.85 7.34,7.38c2.54,2.04 5.01,4.18 7.42,6.4l0,-1123.04c0,-6.41 -1.62,-12.549 -4.64,-17.9c-4.04,-1.862 -8.41,-2.85 -12.92,-2.85c-17.96,0 -32.58,15.59 -32.58,34.75l0,182.02c0,7.88 -6.08,14.33 -13.82,14.94c-0.39,0.03 -0.78,0.06 -1.18,0.06c-7.94,0 -14.43,-6.189 -14.95,-14.003c-0.02,0.001 -0.03,0.003 -0.05,0.003c-8.28,0 -15,-6.72 -15,-15l0,-182.02c0,-0.02 0.01,-0.05 0.01,-0.08l0,-104.31c0,-6.541 -1.71,-12.664 -4.67,-17.895c-3.96,-1.833 -8.32,-2.854 -12.91,-2.854c-17.96,0 -32.57,15.589 -32.57,34.749l0,286.41c0,8.28 -6.71,15 -15,15c-7.94,0 -14.43,-6.189 -14.95,-14.003c-0.02,0.001 -0.03,0.003 -0.05,0.003c-8.28,0 -15,-6.72 -15,-15l0,-332.69c0,-6.547 -1.71,-12.676 -4.67,-17.909c-3.96,-1.831 -8.32,-2.85 -12.9,-2.85c-17.96,0 -32.57,15.589 -32.57,34.759l0,294.1c0,8.28 -6.71,15 -15,15c-6.29,0 -11.66,-3.88 -13.89,-9.37c-0.59,-1.446 -0.95,-3.006 -1.06,-4.632c-0.02,0 -0.03,0.002 -0.05,0.002c-6.29,0 -11.66,-3.88 -13.89,-9.37Z" style="fill:#a97c50;fill-rule:nonzero;"/><path d="M2690.18,2417.23c0,8.29 -6.72,15 -15,15c-7.95,0 -14.44,-6.18 -14.95,-14c-0.02,0 -0.03,0 -0.05,0c-8.29,0 -15,-6.71 -15,-15l0,-113.36c0,-8.28 6.71,-15 15,-15c7.94,0 14.43,6.19 14.95,14c0.02,0 0.03,0 0.05,0c8.28,0 15,6.72 15,15l0,113.36Zm44.79,-251.92c0,-36.22 14.1,-70.27 39.71,-95.89l23.94,-23.93c16.26,-16.27 25.22,-37.89 25.22,-60.89l0,-157.15c0,-2.81 -0.51,-5.51 -1.44,-8c-2.07,-0.62 -4.26,-0.95 -6.52,-0.95c-6.13,0 -11.9,2.39 -16.24,6.73c-4.33,4.33 -6.72,10.1 -6.72,16.22l0,75.76c0,28.58 -11.12,55.45 -31.33,75.66l-54.07,54.06c-11.18,11.19 -17.34,26.07 -17.34,41.891l0,35.269c0,7.61 -5.68,13.89 -13.03,14.86c-0.64,0.08 -1.3,0.14 -1.97,0.14c-7.95,0 -14.43,-6.18 -14.95,-14c-0.02,0 -0.03,0 -0.05,0c-8.29,0 -15,-6.71 -15,-15l0,-35.269c0,-23.841 9.28,-46.251 26.13,-63.101l54.07,-54.06c14.54,-14.55 22.54,-33.88 22.54,-54.45l0,-24.54c-0.29,-1.18 -0.47,-2.4 -0.47,-3.67l0,-222.87c0,-3.18 -0.59,-6.22 -1.65,-9c-1.72,-0.46 -3.51,-0.71 -5.36,-0.71c-12.14,0 -22.02,10.64 -22.02,23.71l0,192.84c0,1.99 -0.4,3.89 -1.1,5.64c-2.23,5.48 -7.61,9.36 -13.9,9.36c-7.94,0 -14.43,-6.19 -14.95,-14c-0.02,0 -0.03,0 -0.05,0c-8.28,0 -15,-6.72 -15,-15l0,-228.85c0,-3.19 -0.59,-6.23 -1.65,-9c-1.72,-0.47 -3.52,-0.72 -5.37,-0.72c-12.14,0 -22.01,10.64 -22.01,23.72l0,258.88c0,8.28 -6.72,15 -15,15c-7.95,0 -14.43,-6.19 -14.95,-14c-0.02,0 -0.03,0 -0.05,0c-8.29,0 -15,-6.72 -15,-15l0,-222.87c0,-3.18 -0.59,-6.22 -1.65,-8.99c-1.72,-0.47 -3.52,-0.72 -5.37,-0.72c-12.14,0 -22.02,10.64 -22.02,23.71l0,222.87c0,7.25 -5.14,13.3 -11.97,14.7c-0.98,0.2 -1.99,0.3 -3.03,0.3c-0.41,0 -0.81,-0.03 -1.21,-0.06c-7.39,-0.59 -13.25,-6.53 -13.74,-13.94c-0.02,0 -0.03,0 -0.05,0c-0.41,0 -0.81,-0.03 -1.21,-0.06c-7.72,-0.62 -13.79,-7.07 -13.79,-14.94l0,-141.63c0,-3.19 -0.59,-6.23 -1.65,-9.01c-1.72,-0.46 -3.51,-0.71 -5.36,-0.71c-5.75,0 -11.2,2.38 -15.34,6.71c-4.31,4.5 -6.68,10.55 -6.68,17.01l0,1021.63l238.65,0l0,-603.69Z" style="fill:#f7eae2;fill-rule:nonzero;"/><path d="M2055.5,2268.19c0,8.29 -6.72,15 -15,15c-7.95,0 -14.43,-6.18 -14.95,-14c-0.02,0 -0.03,0 -0.05,0c-8.29,0 -15,-6.71 -15,-15l0,-228.22c0,-8.29 6.71,-15 15,-15c7.94,0 14.43,6.18 14.95,14c0.02,0 0.03,0 0.05,0c8.28,0 15,6.71 15,15l0,228.22Zm240.25,-1171.13c0,-8.12 -2.23,-15.86 -6.37,-22.47c-5.17,-2.7 -10.89,-4.14 -16.8,-4.14c-21.05,0 -38.18,18.22 -38.18,40.61l0,203.45c0,7.93 -6.14,14.4 -13.93,14.95c-0.35,0.02 -0.71,0.05 -1.07,0.05c-7.94,0 -14.43,-6.18 -14.95,-14c-0.02,0 -0.03,0 -0.05,0c-8.28,0 -15,-6.71 -15,-15l0,-320.13c0,-8.307 -2.36,-16.036 -6.4,-22.478c-5.06,-2.649 -10.75,-4.142 -16.77,-4.142c-21.05,0 -38.17,18.22 -38.17,40.62l0,320.13c0,8.29 -6.72,15 -15,15c-7.95,0 -14.44,-6.18 -14.95,-14c-0.02,0 -0.03,0 -0.05,0c-8.29,0 -15,-6.71 -15,-15l0,-371.87c0,-8.301 -2.36,-16.026 -6.401,-22.465c-5.059,-2.65 -10.76,-4.145 -16.77,-4.145c-21.049,0 -38.179,18.22 -38.179,40.61l0,328.74c0,8.28 -6.71,15 -15,15c-6.29,0 -11.66,-3.88 -13.89,-9.37c-0.59,-1.45 -0.95,-3.01 -1.06,-4.63c-0.02,0 -0.03,0 -0.05,0c-6.29,0 -11.66,-3.88 -13.89,-9.37c-0.71,-1.74 -1.11,-3.64 -1.11,-5.63l0,-277c0,-8.307 -2.36,-16.036 -6.4,-22.478c-5.06,-2.649 -10.75,-4.142 -16.77,-4.142c-21.05,0 -38.17,18.22 -38.17,40.62l0,320.13c0,1.56 -0.24,3.07 -0.68,4.48l0,36.04c0,31.3 12.18,60.72 34.31,82.84l77.66,77.66c22.979,22.99 35.63,53.53 35.63,86.02l0,50.66c0,8.29 -6.71,15 -15,15c-0.57,0 -1.12,-0.03 -1.68,-0.1c-7.16,-0.79 -12.79,-6.64 -13.27,-13.9c-0.02,0 -0.03,0 -0.05,0c-0.57,0 -1.12,-0.03 -1.68,-0.1c-7.49,-0.83 -13.32,-7.18 -13.32,-14.9l0,-50.66c0,-24.48 -9.53,-47.49 -26.84,-64.81l-77.66,-77.65c-27.8,-27.8 -43.1,-64.75 -43.1,-104.06l0,-108.82c0,-7.51 -2.09,-14.7 -5.99,-20.92c-5.64,-3 -11.96,-4.59 -18.53,-4.59c-21.79,0 -39.53,17.72 -39.53,39.51l0,225.74c0,34.79 13.55,67.49 38.16,92.1l34.37,34.37c17.57,17.57 31.29,38.12 40.8,61.07c9.51,22.96 14.33,47.19 14.33,72.04l0,1037.47l77.2,0l0,-392.26c0,-8.29 6.71,-15 15,-15c7.94,0 14.43,6.18 14.95,14c0.02,0 0.03,0 0.05,0c8.28,0 15,6.71 15,15l0,378.26l240.25,0l0,-1671.94Z" style="fill:#e8c5af;fill-rule:nonzero;"/><path d="M1745.95,1178.41c-7.95,0 -14.43,-6.18 -14.95,-14c-0.02,0 -0.03,0 -0.05,0c-8.29,0 -15,-6.71 -15,-15l0,-113.35c0,-8.29 6.71,-15 15,-15c3.47,0 6.65,1.18 9.2,3.16c3.27,2.56 5.45,6.44 5.74,10.84c0.02,0 0.04,0 0.06,0c3.47,0 6.65,1.18 9.2,3.16c3.52,2.75 5.8,7.02 5.8,11.84l0,113.35c0,8.29 -6.72,15 -15,15Zm59.79,698.89c0,-113.59 0.16,-215.75 0.5,-307.42c-19.36,-19.82 -32.99,-43.78 -40.04,-69.87c-3.66,-13.55 -5.56,-27.66 -5.56,-42.06l0,-225.74c0,-31.27 20.77,-57.79 49.25,-66.49c1.33,-75.08 3.01,-134.46 5.04,-180.32c6.16,-138.7 15.61,-154.88 30.52,-169.8l23.94,-23.93c16.26,-16.27 25.22,-37.89 25.22,-60.89l0,-157.15c0,-2.814 -0.51,-5.51 -1.44,-8.004c-2.07,-0.612 -4.25,-0.946 -6.51,-0.946c-6.14,0 -11.9,2.39 -16.25,6.73c-4.32,4.33 -6.71,10.1 -6.71,16.22l0,75.76c0,28.58 -11.13,55.45 -31.33,75.66l-54.07,54.06c-11.19,11.19 -17.35,26.07 -17.35,41.89l0,35.27c0,8.01 -6.28,14.53 -14.18,14.96c-0.27,0.02 -0.55,0.04 -0.82,0.04c-7.95,0 -14.43,-6.181 -14.95,-14.003c-0.02,0 -0.03,0.003 -0.05,0.003c-8.29,0 -15,-6.71 -15,-15l0,-35.27c0,-23.84 9.28,-46.25 26.14,-63.1l54.06,-54.06c14.54,-14.55 22.55,-33.88 22.55,-54.45l0,-24.54c-0.3,-1.17 -0.47,-2.4 -0.47,-3.67l0,-222.86c0,-3.186 -0.59,-6.226 -1.65,-9.004c-1.72,-0.466 -3.52,-0.716 -5.37,-0.716c-12.14,0 -22.02,10.64 -22.02,23.72l0,192.83c0,1.99 -0.39,3.9 -1.1,5.64c-2.23,5.49 -7.61,9.36 -13.9,9.36c-7.94,0 -14.43,-6.189 -14.95,-14.002c-0.02,0 -0.03,0.002 -0.05,0.002c-8.28,0 -15,-6.72 -15,-15l0,-228.85c0,-3.187 -0.59,-6.228 -1.65,-9.006c-1.72,-0.465 -3.51,-0.714 -5.36,-0.714c-12.14,0 -22.02,10.64 -22.02,23.72l0,258.88c0,5.18 -2.62,9.74 -6.61,12.44c-2.4,1.62 -5.28,2.56 -8.39,2.56c-3.11,0 -5.99,-0.94 -8.39,-2.56c-3.73,-2.525 -6.26,-6.677 -6.58,-11.441c-0.01,0 -0.02,0.001 -0.03,0.001c-3.11,0 -5.99,-0.94 -8.39,-2.56c-3.99,-2.7 -6.61,-7.26 -6.61,-12.44l0,-222.86c0,-3.186 -0.59,-6.226 -1.65,-9.004c-1.72,-0.466 -3.52,-0.716 -5.37,-0.716c-12.14,0 -22.01,10.64 -22.01,23.72l0,222.86c0,7.77 -5.91,14.15 -13.47,14.92c-0.5,0.05 -1.02,0.08 -1.53,0.08c-0.32,0 -0.64,-0.03 -0.95,-0.05c-7.51,-0.469 -13.51,-6.455 -14,-13.953c-0.02,0.001 -0.03,0.003 -0.05,0.003c-0.32,0 -0.64,-0.03 -0.95,-0.05c-7.84,-0.49 -14.05,-6.99 -14.05,-14.95l0,-141.63c0,-3.186 -0.59,-6.226 -1.65,-9.004c-1.72,-0.466 -3.52,-0.716 -5.37,-0.716c-5.75,0 -11.2,2.38 -15.33,6.71c-4.31,4.51 -6.69,10.55 -6.69,17.01l0,883.33c5.17,-1.33 10.54,-2.05 16.02,-2.05c20.48,0 38.72,9.71 50.4,24.75c17.1,11.46 28.39,30.95 28.39,53.03l0,201.95c0,38.71 -15.08,75.11 -42.46,102.49l-30.75,30.75c-26.44,26.45 -41,61.6 -41,98.99l0,882.21l258.05,0l0,-891.7Z" style="fill:#e0c3af;fill-rule:nonzero;"/><path d="M1438.37,2447.08c0,8.28 -6.72,15 -15,15c-7.95,0 -14.43,-6.19 -14.95,-14c-0.02,0 -0.03,0 -0.05,0c-8.29,0 -15,-6.72 -15,-15l0,-56.34c0,-8.29 6.71,-15 15,-15c7.94,0 14.43,6.18 14.95,14c0.02,0 0.03,0 0.05,0c8.28,0 15,6.71 15,15l0,56.34Zm-203.67,-537.15c0,2.08 -0.42,4.05 -1.18,5.85l1.18,-15.94l0,10.09Zm-15,-14c0,2.08 -0.42,4.05 -1.18,5.85l1.18,-15.94l0,10.09Zm282.99,-23.14c0,-45.4 17.68,-88.09 49.78,-120.2l30.75,-30.75c21.72,-21.72 33.68,-50.58 33.68,-81.28l0,-201.95c0,-6 -1.58,-11.64 -4.34,-16.53c-4.38,-2.08 -9.28,-3.25 -14.45,-3.25c-9.01,0 -17.5,3.52 -23.88,9.9c-6.37,6.38 -9.89,14.86 -9.89,23.88l0,97.35c0,35.59 -13.86,69.05 -39.02,94.21l-69.48,69.48c-15.19,15.19 -23.55,35.38 -23.55,56.86l0,45.32c0,7.69 -5.79,14.02 -13.25,14.89c-0.58,0.07 -1.16,0.11 -1.75,0.11c-7.95,0 -14.43,-6.18 -14.95,-14c-0.02,0 -0.03,0 -0.05,0c-8.29,0 -15,-6.71 -15,-15l0,-45.32c0,-29.49 11.48,-57.22 32.33,-78.08l69.49,-69.47c19.49,-19.5 30.23,-45.42 30.23,-73l0,-32.05c-0.39,-1.33 -0.61,-2.74 -0.61,-4.2l0,-286.41c0,-6.54 -1.71,-12.67 -4.67,-17.9c-3.95,-1.83 -8.32,-2.85 -12.9,-2.85c-17.96,0 -32.57,15.59 -32.57,34.75l0,247.82c0,1.99 -0.4,3.89 -1.1,5.63c-2.23,5.49 -7.61,9.37 -13.9,9.37c-7.94,0 -14.43,-6.19 -14.95,-14c-0.02,0 -0.03,0 -0.05,0c-8.28,0 -15,-6.72 -15,-15l0,-294.1c0,-6.55 -1.71,-12.68 -4.67,-17.91c-3.96,-1.83 -8.32,-2.85 -12.9,-2.85c-17.96,0 -32.57,15.59 -32.57,34.76l0,332.69c0,8.28 -6.72,15 -15,15c-7.94,0 -14.43,-6.19 -14.95,-14c-0.02,0 -0.03,0 -0.05,0c-8.28,0 -15,-6.72 -15,-15l0,-286.41c0,-6.54 -1.71,-12.67 -4.66,-17.9c-3.96,-1.83 -8.33,-2.85 -12.91,-2.85c-17.96,0 -32.57,15.59 -32.57,34.75l0,286.41c0,8.29 -6.72,15 -15,15c-0.37,0 -0.74,-0.03 -1.11,-0.05c-7.43,-0.55 -13.35,-6.5 -13.84,-13.95c-0.02,0 -0.03,0 -0.05,0c-0.37,0 -0.74,-0.03 -1.11,-0.05c-7.76,-0.57 -13.89,-7.04 -13.89,-14.95l0,-182.02c0,-6.54 -1.71,-12.67 -4.66,-17.9c-3.97,-1.83 -8.33,-2.85 -12.92,-2.85c-8.56,0 -16.66,3.53 -22.79,9.94c-6.3,6.59 -9.77,15.41 -9.77,24.81l0,1437.31l210.2,0l0,-237.18c0,-8.29 6.71,-15 15,-15c7.94,0 14.43,6.18 14.95,14c0.02,0 0.03,0 0.05,0c8.28,0 15,6.71 15,15l0,223.18l64.32,0l0,-896.21Z" style="fill:#f4e3d7;fill-rule:nonzero;"/><path d="M337.74,2417.23c0,8.29 -6.72,15 -15,15c-7.954,0 -14.435,-6.18 -14.95,-14c-0.017,0 -0.033,0 -0.05,0c-8.29,0 -15,-6.71 -15,-15l0,-113.36c0,-8.28 6.71,-15 15,-15c7.943,0 14.433,6.19 14.949,14c0.017,0 0.034,0 0.051,0c8.28,0 15,6.72 15,15l0,113.36Zm148.85,-683.86c0,-3.14 -0.569,-6.17 -1.637,-8.98c-1.743,-0.47 -3.543,-0.74 -5.383,-0.74c-12.13,0 -22.01,10.64 -22.01,23.72l0,141.63c0,7.87 -6.07,14.32 -13.78,14.94c-0.4,0.03 -0.81,0.06 -1.22,0.06c-0.52,0 -1.03,-0.03 -1.53,-0.08c-7.242,-0.74 -12.942,-6.61 -13.423,-13.92c-0.016,0 -0.032,0 -0.047,0c-0.52,0 -1.03,-0.03 -1.53,-0.08c-7.57,-0.77 -13.47,-7.15 -13.47,-14.92l0,-222.87c0,-3.18 -0.59,-6.22 -1.651,-8.99c-1.72,-0.47 -3.518,-0.72 -5.369,-0.72c-12.14,0 -22.01,10.64 -22.01,23.71l0,222.87c0,8.28 -6.72,15 -15,15c-7.953,0 -14.434,-6.19 -14.95,-14c-0.017,0 -0.033,0 -0.05,0c-8.29,0 -15,-6.72 -15,-15l0,-258.88c0,-3.19 -0.59,-6.23 -1.653,-9c-1.719,-0.47 -3.516,-0.72 -5.367,-0.72c-12.14,0 -22.02,10.64 -22.02,23.72l0,228.85c0,8.28 -6.71,15 -15,15c-6.29,0 -11.66,-3.88 -13.89,-9.36c-0.59,-1.45 -0.95,-3.02 -1.06,-4.64c-0.017,0 -0.033,0 -0.05,0c-6.29,0 -11.66,-3.88 -13.89,-9.36c-0.71,-1.75 -1.11,-3.65 -1.11,-5.64l0,-192.84c0,-3.18 -0.59,-6.22 -1.651,-9c-1.717,-0.46 -3.511,-0.71 -5.36,-0.71c-12.139,0 -22.019,10.64 -22.019,23.71l0,222.87c0,1.27 -0.17,2.49 -0.47,3.67l0,24.54c0,20.57 8.01,39.9 22.55,54.45l54.06,54.06c16.86,16.85 26.14,39.26 26.14,63.101l0,35.269c0,8.29 -6.72,15 -15,15c-0.67,0 -1.33,-0.06 -1.98,-0.14c-7.025,-0.93 -12.502,-6.71 -12.974,-13.86c-0.016,0 -0.031,0 -0.046,0c-0.67,0 -1.33,-0.06 -1.98,-0.14c-7.35,-0.97 -13.02,-7.25 -13.02,-14.86l0,-35.269c0,-15.821 -6.16,-30.701 -17.35,-41.891l-54.07,-54.06c-20.2,-20.21 -31.33,-47.08 -31.33,-75.66l0,-75.76c0,-2.78 -0.517,-5.48 -1.461,-8.01c-2.085,-0.61 -4.267,-0.94 -6.499,-0.94c-12.66,0 -22.95,10.3 -22.95,22.95l0,157.15c0,23 8.96,44.62 25.22,60.9l23.929,23.92c25.611,25.62 39.721,59.67 39.721,95.89l0,589.69l238.64,0l0,-1035.63Z" style="fill:#bc7f48;fill-rule:nonzero;"/><path d="M760.55,1982.94c0,8.28 -6.72,15 -15,15c-7.953,0 -14.434,-6.19 -14.95,-14c-0.017,0 -0.033,0 -0.05,0c-8.29,0 -15,-6.72 -15,-15l0,-175.84c0,-8.28 6.71,-15 15,-15c7.943,0 14.433,6.19 14.949,14c0.017,0 0.034,0 0.051,0c8.28,0 15,6.72 15,15l0,175.84Zm255.69,-1053.05c0,-9.422 -2.71,-18.381 -7.72,-25.918c-6.01,-3.356 -12.733,-5.142 -19.7,-5.142c-23.38,0 -42.41,20.22 -42.41,45.06l0,219.69c0,7.93 -6.16,14.41 -13.95,14.95c-0.35,0.02 -0.7,0.05 -1.05,0.05c-1.04,0 -2.05,-0.11 -3.03,-0.31c-6.513,-1.33 -11.479,-6.89 -11.926,-13.69c-0.015,0 -0.03,0 -0.044,0c-1.04,0 -2.05,-0.11 -3.03,-0.31c-6.83,-1.39 -11.97,-7.44 -11.97,-14.69l0,-345.69c0,-9.63 -2.87,-18.556 -7.735,-25.887c-5.888,-3.29 -12.583,-5.163 -19.685,-5.163c-23.39,0 -42.42,20.21 -42.42,45.05l0,345.69c0,8.28 -6.71,15 -15,15c-7.943,0 -14.434,-6.19 -14.95,-14c-0.017,0 -0.033,0 -0.05,0c-8.28,0 -15,-6.72 -15,-15l0,-401.56c0,-9.631 -2.87,-18.558 -7.736,-25.889c-5.885,-3.289 -12.577,-5.161 -19.674,-5.161c-23.39,0 -42.42,20.21 -42.42,45.05l0,354.98c0,8.28 -6.72,15 -15,15c-6.29,0 -11.67,-3.88 -13.9,-9.37c-0.582,-1.45 -0.941,-3.01 -1.051,-4.63c-0.016,0 -0.032,0 -0.049,0c-6.29,0 -11.67,-3.88 -13.9,-9.37c-0.7,-1.74 -1.1,-3.64 -1.1,-5.63l0,-299.11c0,-9.63 -2.87,-18.556 -7.735,-25.887c-5.888,-3.29 -12.583,-5.163 -19.685,-5.163c-23.39,0 -42.42,20.21 -42.42,45.05l0,345.69c0,1.61 -0.26,3.16 -0.73,4.61l0,39.15c0,34.1 13.28,66.17 37.4,90.3l83.86,83.85c24.58,24.58 38.12,57.27 38.12,92.04l0,54.71c0,8.28 -6.72,15 -15,15c-0.55,0 -1.1,-0.04 -1.64,-0.1c-7.183,-0.77 -12.834,-6.63 -13.313,-13.9c-0.016,0 -0.031,0 -0.047,0c-0.55,0 -1.1,-0.04 -1.64,-0.1c-7.51,-0.81 -13.36,-7.17 -13.36,-14.9l0,-54.71c0,-26.76 -10.42,-51.91 -29.33,-70.83l-83.87,-83.85c-29.78,-29.79 -46.18,-69.4 -46.18,-111.51l0,-117.51c0,-8.72 -2.535,-17.06 -7.254,-24.18c-6.524,-3.71 -13.921,-5.69 -21.626,-5.69c-24.19,0 -43.87,19.68 -43.87,43.87l0,243.75c0,37.88 14.76,73.5 41.55,100.3l37.12,37.11c18.86,18.87 33.59,40.92 43.8,65.56c10.21,24.65 15.38,50.66 15.38,77.33l0,1155.12l394.97,0l0,-1839.11Z" style="fill:#edd4c3;fill-rule:nonzero;"/><path d="M2799.7,1499.49c2.3,-3.59 4.32,-6.92 5.99,-9.92c1.48,-3.18 2.8,-6.45 3.97,-9.77c-1.17,3.32 -2.49,6.59 -3.97,9.77c-1.68,3 -3.69,6.33 -5.99,9.92Z" style="fill:#efc7c2;fill-rule:nonzero;"/><path d="M2700.86,1589.94c-2.03,-1.85 -4.17,-3.56 -6.46,-5.07c8.09,5.35 14.65,12.95 18.86,21.94c-3.02,-6.45 -7.27,-12.17 -12.4,-16.87Z" style="fill:#efc7c2;fill-rule:nonzero;"/><path d="M2810.62,1476.98c0.34,-1.03 0.67,-2.06 0.97,-3.1c0.34,-1.18 0.66,-2.37 0.97,-3.56c-0.31,1.19 -0.63,2.38 -0.97,3.56c-0.3,1.04 -0.63,2.07 -0.97,3.1Z" style="fill:#efc7c2;fill-rule:nonzero;"/><path d="M2615.71,1618.15c3.48,-15.73 13.67,-28.86 27.27,-35.98c-13.61,7.12 -23.79,20.25 -27.27,35.98Z" style="fill:#efc7c2;fill-rule:nonzero;"/><path d="M2116.65,461.262c10.61,-9.151 22.61,-16.285 35.47,-21.194c-12.87,4.909 -24.87,12.043 -35.47,21.194Z" style="fill:#efc7c2;fill-rule:nonzero;"/><path d="M2611.63,1386.25c-8.75,14.49 -14.08,30.89 -15.43,48.06c-0.13,1.65 -0.53,3.21 -1.14,4.66c0.61,-1.45 1.01,-3.01 1.14,-4.66c1.35,-17.17 6.68,-33.57 15.43,-48.06Z" style="fill:#efc7c2;fill-rule:nonzero;"/><path d="M2565.5,1434.32c0.64,8.05 7.51,14.11 15.52,13.81c0.08,0 0.16,0 0.25,0c3.39,0 6.55,-1.14 9.09,-3.08c-2.54,1.94 -5.7,3.08 -9.09,3.08l-0.25,0c-8.01,0.3 -14.88,-5.76 -15.51,-13.81c-0.4,-5.11 -1.16,-10.16 -2.26,-15.11c1.08,4.89 1.83,9.87 2.24,14.92c0,0.06 0.01,0.12 0.01,0.19Z" style="fill:#efc7c2;fill-rule:nonzero;"/><path d="M2552.67,1631.48c9.55,-11.65 23.8,-19.06 39.7,-19.06c3.08,0 6.1,0.28 9.04,0.82c-2.94,-0.54 -5.96,-0.82 -9.04,-0.82c-15.9,0 -30.15,7.41 -39.7,19.06Z" style="fill:#efc7c2;fill-rule:nonzero;"/><path d="M2540.35,1695.09c-0.52,-0.43 -1.05,-0.87 -1.58,-1.31c0.53,0.44 1.06,0.88 1.58,1.31Z" style="fill:#efc7c2;fill-rule:nonzero;"/><path d="M2777.67,1530.45c-11.98,15.66 -26.32,33.12 -41.85,51c15.53,-17.88 29.87,-35.33 41.85,-51Z" style="fill:#efc7c2;fill-rule:nonzero;"/><path d="M2347.64,1463.48c0.8,4.25 1.84,8.45 3.13,12.58c0.15,0.47 0.27,0.95 0.37,1.44c-0.1,-0.49 -0.22,-0.97 -0.37,-1.44c-1.29,-4.13 -2.33,-8.33 -3.13,-12.58Z" style="fill:#efc7c2;fill-rule:nonzero;"/><path d="M2351.18,1477.68c0.1,0.52 0.18,1.04 0.22,1.56c0.08,0.91 1.16,8.01 15.61,29.34c-14.45,-21.33 -15.53,-28.43 -15.61,-29.34c-0.04,-0.52 -0.12,-1.04 -0.22,-1.56Z" style="fill:#efc7c2;fill-rule:nonzero;"/><path d="M2516.29,1674.19c6.6,6 12.97,11.59 18.99,16.68c0.66,0.55 1.3,1.08 1.93,1.61c-0.63,-0.53 -1.27,-1.06 -1.93,-1.61c-6.02,-5.09 -12.39,-10.68 -18.99,-16.68Z" style="fill:#efc7c2;fill-rule:nonzero;"/><path d="M1283.62,1069.33c-2.4,-7.66 -3.62,-15.66 -3.62,-23.76c0,-11.89 2.65,-23.17 7.36,-33.3c-4.71,10.13 -7.36,21.41 -7.36,33.3c0,8.1 1.22,16.1 3.62,23.76c0.33,1.04 0.54,2.1 0.63,3.19c0.49,3.28 4.6,10.91 12.35,22.1c-7.74,-11.19 -11.85,-18.82 -12.35,-22.1c-0.09,-1.09 -0.3,-2.15 -0.63,-3.19Z" style="fill:#efc7c2;fill-rule:nonzero;"/><path d="M2121.62,812.412c-7.35,6.652 -14.29,12.669 -20.7,17.936c6.41,-5.266 13.35,-11.284 20.7,-17.936Z" style="fill:#efc7c2;fill-rule:nonzero;"/><path d="M1537.09,1174.34c-2.97,-2.17 -6.13,-4.06 -9.45,-5.68c3.32,1.62 6.48,3.51 9.45,5.68Z" style="fill:#efc7c2;fill-rule:nonzero;"/><path d="M2041.17,540.609c-0.28,-0.973 -0.49,-1.979 -0.57,-3.029c-1.74,-22.217 -9.6,-43.245 -22.56,-61.01c12.96,17.766 20.81,38.796 22.56,61.01c0.08,1.05 0.29,2.056 0.57,3.029Z" style="fill:#efc7c2;fill-rule:nonzero;"/><path d="M1462.34,1152.85c2.83,6.06 4.79,12.64 5.68,19.56c-0.87,-6.73 -2.75,-13.14 -5.46,-19.06c-0.08,-0.17 -0.15,-0.34 -0.22,-0.5Z" style="fill:#efc7c2;fill-rule:nonzero;"/><path d="M1493.94,987.449c1.34,-1.238 2.71,-2.418 4.12,-3.555c-1.41,1.137 -2.78,2.317 -4.12,3.556c-14.63,13.58 -23.54,31.98 -25.1,51.79c-0.17,2.15 -0.79,4.15 -1.76,5.94c0.97,-1.79 1.59,-3.79 1.76,-5.94c1.56,-19.81 10.47,-38.21 25.1,-51.791Z" style="fill:#efc7c2;fill-rule:nonzero;"/><path d="M2295.94,615.442c3.01,-4.625 5.58,-8.843 7.68,-12.612c1.17,-2.512 2.25,-5.084 3.25,-7.689c-1,2.604 -2.08,5.174 -3.25,7.685c-2.1,3.769 -4.67,7.99 -7.68,12.616Z" style="fill:#efc7c2;fill-rule:nonzero;"/><path d="M2047.55,549.094c0.75,1.257 1.68,2.399 2.76,3.387c-1.08,-0.989 -2.01,-2.132 -2.76,-3.391c-1.34,-0.843 -2.52,-1.903 -3.53,-3.117c1.01,1.216 2.19,2.278 3.53,3.121Z" style="fill:#efc7c2;fill-rule:nonzero;"/><path d="M1939.61,744.78c0,3 -0.12,5.98 -0.34,8.94c0.22,-2.959 0.34,-5.94 0.34,-8.939l0,-0.001Z" style="fill:#efc7c2;fill-rule:nonzero;"/><path d="M1976.55,790.383c14.28,13.441 27.73,25.365 39.89,35.327c2.38,1.947 4.63,3.753 6.78,5.453c-2.15,-1.699 -4.4,-3.505 -6.78,-5.451c-12.16,-9.963 -25.61,-21.887 -39.89,-35.329Z" style="fill:#efc7c2;fill-rule:nonzero;"/><path d="M2075.36,542.573c0.51,-6.42 1.519,-12.739 3.019,-18.911c-1.5,6.172 -2.509,12.49 -3.019,18.908c-0.65,8.26 -7.86,14.43 -16.13,13.78c-0.46,-0.036 -0.91,-0.098 -1.351,-0.173c0.441,0.075 0.891,0.139 1.351,0.175c8.27,0.65 15.48,-5.52 16.13,-13.779Z" style="fill:#efc7c2;fill-rule:nonzero;"/><path d="M2311.89,578.564c1.95,-8.636 2.95,-17.496 2.95,-26.434c0,-33.065 -13.45,-63.048 -35.17,-84.765c21.72,21.717 35.17,51.699 35.17,84.763c0,8.941 -1,17.799 -2.95,26.436Z" style="fill:#efc7c2;fill-rule:nonzero;"/><path d="M1438.32,1039.06c0,0.07 0.01,0.13 0.02,0.19c0.49,6.3 4.81,11.37 10.5,13.14c-5.69,-1.77 -10.01,-6.84 -10.5,-13.14c-1.56,-19.82 -10.47,-38.21 -25.1,-51.8c-1.92,-1.786 -3.93,-3.461 -6,-5.034c2.07,1.574 4.08,3.249 6,5.035c14.58,13.549 23.48,31.869 25.08,51.609Z" style="fill:#efc7c2;fill-rule:nonzero;"/><path d="M358.085,1400.7c1.765,1.6 3.902,2.8 6.255,3.42c-2.353,-0.63 -4.49,-1.82 -6.255,-3.42Z" style="fill:#efc7c2;fill-rule:nonzero;"/><path d="M359.474,1584.86c9.99,6.61 17.655,16.65 21.437,28.5c-1.418,-4.45 -3.384,-8.64 -5.814,-12.49c-4.046,-6.41 -9.381,-11.88 -15.623,-16.01Z" style="fill:#efc7c2;fill-rule:nonzero;"/><path d="M357.451,709.053c-0.015,-0.18 -0.054,-0.355 -0.076,-0.534c0.021,0.178 0.06,0.352 0.075,0.531c0.1,1.16 1.82,12.37 30.77,50.29c6.531,8.553 13.906,17.731 21.898,27.288c-7.991,-9.558 -15.365,-18.736 -21.893,-27.287c-28.955,-37.924 -30.673,-49.135 -30.774,-50.288Z" style="fill:#efc7c2;fill-rule:nonzero;"/><path d="M355.706,702.057c0.349,1.276 0.718,2.548 1.114,3.813c0.069,0.216 0.11,0.437 0.168,0.655c-0.057,-0.218 -0.099,-0.44 -0.167,-0.655c-0.396,-1.265 -0.765,-2.537 -1.115,-3.813Z" style="fill:#efc7c2;fill-rule:nonzero;"/><path d="M382.21,1618.15c0.83,-0.43 1.675,-0.84 2.529,-1.23c-0.854,0.39 -1.699,0.8 -2.529,1.23Z" style="fill:#efc7c2;fill-rule:nonzero;"/><path d="M505.734,888.533c-0.057,-0.054 -0.113,-0.107 -0.17,-0.161c12.678,12.087 24.786,23.041 35.766,32.308c9.548,8.06 17.327,14.084 23.634,18.605c-6.308,-4.523 -14.087,-10.549 -23.635,-18.608c-10.931,-9.226 -22.98,-20.123 -35.595,-32.144Z" style="fill:#efc7c2;fill-rule:nonzero;"/><path d="M541.154,596.596c-1.435,-1.49 -2.909,-2.949 -4.434,-4.366c-1.861,-1.727 -3.774,-3.382 -5.733,-4.967c1.959,1.585 3.872,3.24 5.732,4.967c1.525,1.417 3,2.876 4.435,4.366Z" style="fill:#efc7c2;fill-rule:nonzero;"/><path d="M592.234,765.824c13.181,-14.155 31.652,-22.984 52.086,-22.984c10.567,0 20.598,2.372 29.653,6.606c-9.056,-4.237 -19.088,-6.611 -29.653,-6.611c-20.435,0 -38.906,8.832 -52.086,22.989Z" style="fill:#efc7c2;fill-rule:nonzero;"/><path d="M814.279,713.429l0.001,0.001c1.27,-3.2 2.4,-6.45 3.36,-9.74c2.9,-9.96 4.37,-20.31 4.37,-30.8l0,-0.001c0,10.489 -1.47,20.846 -4.373,30.801c-0.956,3.292 -2.092,6.544 -3.358,9.739Z" style="fill:#efc7c2;fill-rule:nonzero;"/><path d="M721.135,698.194c11.059,-7.104 24.082,-11.224 38.025,-11.224c19.983,0 38.101,8.451 51.214,22.07c-13.115,-13.622 -31.228,-22.071 -51.219,-22.071c-13.941,0 -26.962,4.121 -38.02,11.225Z" style="fill:#efc7c2;fill-rule:nonzero;"/><path d="M629.706,599.767c-15.916,17.865 -25.572,40.355 -27.456,64.353c-0.055,0.703 -0.172,1.383 -0.319,2.053c0.147,-0.67 0.266,-1.351 0.321,-2.054c1.884,-23.994 11.541,-46.484 27.454,-64.352Z" style="fill:#efc7c2;fill-rule:nonzero;"/><path d="M587.071,677.943c0.03,0.001 0.059,0.001 0.088,0.001c-0.03,-0.002 -0.059,-0.004 -0.089,-0.004c-6.448,0.251 -12.188,-3.667 -14.492,-9.427c2.302,5.762 8.045,9.676 14.493,9.43Z" style="fill:#efc7c2;fill-rule:nonzero;"/><path d="M562.523,1518.6c-3.57,-5.35 -7.452,-10.52 -11.643,-15.49c-12.179,15.25 -26.231,31.77 -41.012,48.24c14.781,-16.47 28.833,-32.99 41.013,-48.24c4.191,4.97 8.072,10.14 11.642,15.49Z" style="fill:#efc7c2;fill-rule:nonzero;"/><path d="M460.582,1603.19c-8.143,8.03 -15.555,15.09 -22.292,21.25c1.447,1.21 2.828,2.51 4.141,3.87c-1.312,-1.36 -2.692,-2.65 -4.138,-3.87c6.738,-6.16 14.15,-13.21 22.289,-21.25Z" style="fill:#efc7c2;fill-rule:nonzero;"/><path d="M531.595,1747.37c0,-12.39 -4.049,-24.16 -11.494,-33.69c7.445,9.53 11.489,21.3 11.489,33.69l0,1035.63l59.68,0l-59.675,0l0,-1035.63Z" style="fill:#efc7c2;fill-rule:nonzero;"/><path d="M479.572,1693.65c6.89,0 13.567,1.38 19.747,3.99c-6.18,-2.61 -12.855,-3.99 -19.745,-3.99c0,0 -0.001,0 -0.002,0Z" style="fill:#efc7c2;fill-rule:nonzero;"/><path d="M178.555,1442.51c3.833,6.57 10.07,16.02 20.215,29.29c0.293,0.38 0.602,0.78 0.899,1.17c-0.298,-0.39 -0.608,-0.79 -0.902,-1.17c-10.142,-13.27 -16.378,-22.72 -20.212,-29.29Z" style="fill:#efc7c2;fill-rule:nonzero;"/><path d="M385.528,1379.01c-0.809,3.86 -1.395,7.79 -1.708,11.77c-0.091,1.16 -0.325,2.28 -0.661,3.34c0.337,-1.06 0.572,-2.18 0.663,-3.34c0.313,-3.98 0.897,-7.9 1.706,-11.77Z" style="fill:#efc7c2;fill-rule:nonzero;"/><path d="M413.253,1330.05c5.163,-4.79 10.798,-8.93 16.787,-12.39c-5.99,3.46 -11.627,7.6 -16.79,12.39c-2.603,2.42 -5.03,4.98 -7.317,7.64c2.288,-2.66 4.716,-5.22 7.32,-7.64Z" style="fill:#efc7c2;fill-rule:nonzero;"/><path d="M325.773,1331.97c14.832,14.6 24.278,33.56 26.953,54.07c-2.671,-20.51 -12.116,-39.47 -26.953,-54.07Z" style="fill:#efc7c2;fill-rule:nonzero;"/><path d="M260.557,1305.22c16.71,0 32.864,4.47 47.003,12.77c-14.14,-8.31 -30.292,-12.77 -47,-12.77c-40.856,0 -75.642,26.49 -88.087,63.19c12.445,-36.7 47.23,-63.19 88.084,-63.19Z" style="fill:#efc7c2;fill-rule:nonzero;"/><path d="M260.999,1543.85c-2.609,-2.76 -5.191,-5.52 -7.751,-8.27c2.56,2.75 5.142,5.51 7.752,8.27c9.05,9.56 18.126,18.81 26.999,27.55c-0.037,-0.03 -0.074,-0.07 -0.111,-0.11c-8.837,-8.71 -17.875,-17.93 -26.889,-27.44Z" style="fill:#efc7c2;fill-rule:nonzero;"/><path d="M448.476,1572.87c-16.831,17.04 -30.688,29.93 -41.876,39.58c-0.353,-0.01 -0.703,-0.03 -1.057,-0.03c-3.624,0 -7.154,0.41 -10.569,1.14c3.416,-0.73 6.945,-1.14 10.566,-1.14c0.36,0 0.71,0.02 1.06,0.03c11.19,-9.65 25.05,-22.54 41.879,-39.58c28.931,-29.29 58.931,-63.12 81.451,-91.61l-8.902,-8.89l8.9,8.89c-22.519,28.49 -52.522,62.32 -81.452,91.61Z" style="fill:#efc7c2;fill-rule:nonzero;"/><path d="M1434.16,266.656c-4.22,0 -8.35,0.437 -12.35,1.249c3.99,-0.81 8.13,-1.245 12.35,-1.245c15.48,0 30.09,5.639 41.71,15.973c-2.18,-1.938 -4.46,-3.711 -6.84,-5.314c-10.29,-6.937 -22.29,-10.663 -34.87,-10.663Z" style="fill:#efc7c2;fill-rule:nonzero;"/><path d="M2364.08,1555.15c-1.78,-2.27 -3.53,-4.51 -5.21,-6.71c-2.41,-3.15 -4.65,-6.13 -6.75,-9c2.1,2.87 4.34,5.85 6.75,9c1.68,2.19 3.43,4.44 5.21,6.71Z" style="fill:#efc7c2;fill-rule:nonzero;"/><path d="M1466.74,103.463c0.31,4.011 2.18,7.529 4.96,10.012c-2.78,-2.483 -4.65,-6 -4.96,-10.015c-1.38,-17.565 -8.56,-34.014 -20.36,-46.984c11.76,12.927 18.92,29.301 20.34,46.798c0,0.063 0.01,0.126 0.02,0.189Z" style="fill:#efc7c2;fill-rule:nonzero;"/><path d="M2466.32,2783l-125.57,0l125.57,0l0,-1035.63c0,-12.44 4.08,-24.26 11.58,-33.8c-7.5,9.54 -11.58,21.36 -11.58,33.8l0,1035.63Z" style="fill:#efc7c2;fill-rule:nonzero;"/><path d="M2445.77,1647.53c-3.66,-3.76 -7.32,-7.57 -10.99,-11.43c-19.3,-20.29 -37.64,-40.81 -53.61,-59.9c15.97,19.09 34.31,39.61 53.61,59.9c3.66,3.86 7.33,7.67 10.99,11.43Z" style="fill:#efc7c2;fill-rule:nonzero;"/><path d="M2493.81,1699.98c-3.59,1.99 -6.96,4.42 -10.05,7.27c3.1,-2.85 6.47,-5.28 10.05,-7.27Z" style="fill:#efc7c2;fill-rule:nonzero;"/><path d="M1400.02,246.653l0,-21.431c0,-17.549 -6.62,-33.518 -17.4,-45.401c10.78,11.882 17.4,27.85 17.4,45.399l0,21.43c4.7,4.821 9.38,9.499 13.99,14.031c-2.28,-2.242 -4.58,-4.521 -6.88,-6.833c-2.36,-2.362 -4.73,-4.76 -7.11,-7.195Z" style="fill:#efc7c2;fill-rule:nonzero;"/><path d="M1522.34,51.663c3.5,-3.246 7.25,-6.134 11.2,-8.668c-3.95,2.533 -7.7,5.42 -11.2,8.665c-3.62,3.362 -6.88,7.018 -9.78,10.915c2.9,-3.896 6.16,-7.552 9.78,-10.912Z" style="fill:#efc7c2;fill-rule:nonzero;"/><path d="M1655.58,109.78c0,7.56 -1.06,15.022 -3.16,22.195c-1.1,3.82 -2.51,7.579 -4.19,11.181c-2.66,4.762 -6.43,10.588 -11.22,17.335c4.79,-6.749 8.57,-12.574 11.22,-17.331c1.68,-3.61 3.09,-7.36 4.2,-11.18c2.09,-7.18 3.15,-14.64 3.15,-22.2c0,-40.988 -31.26,-74.813 -71.2,-78.879c14.1,1.436 27.1,6.592 38.04,14.448c20.06,14.402 33.16,37.911 33.16,64.431Z" style="fill:#efc7c2;fill-rule:nonzero;"/><path d="M1316.22,145.029c-0.71,-1.282 -1.32,-2.45 -1.82,-3.498c2.02,4.217 5.74,10.352 11.2,18.169c1.95,-0.326 3.93,-0.555 5.93,-0.7c-2,0.144 -3.98,0.371 -5.93,0.698c-4.1,-5.872 -7.22,-10.795 -9.38,-14.669Z" style="fill:#efc7c2;fill-rule:nonzero;"/><path d="M1497.29,102.942c-0.01,0.173 -0.04,0.344 -0.05,0.518c0,-0.001 0,-0.003 0,-0.004c0.01,-0.172 0.04,-0.342 0.05,-0.514Z" style="fill:#efc7c2;fill-rule:nonzero;"/><path d="M1548.17,263.301c0.97,-0.979 1.95,-1.969 2.95,-2.981c1.77,-1.794 3.54,-3.61 5.32,-5.44c-1.78,1.829 -3.55,3.644 -5.32,5.438c-1,1.012 -1.98,2.004 -2.95,2.983Z" style="fill:#efc7c2;fill-rule:nonzero;"/><path d="M1482.3,117.283c7.74,-0.001 14.31,-5.954 14.94,-13.798c-0.64,7.847 -7.2,13.795 -14.94,13.795l-0.15,0c-1.99,0.063 -3.91,-0.268 -5.68,-0.924c1.77,0.657 3.69,0.988 5.68,0.926c0.05,0 0.1,0.001 0.15,0.001Z" style="fill:#efc7c2;fill-rule:nonzero;"/><path d="M1346.19,42.257c-22.66,13.975 -37.79,39.012 -37.79,67.523c0,2.677 0.15,5.341 0.41,7.988c-0.26,-2.647 -0.41,-5.311 -0.41,-7.988c0,-28.511 15.13,-53.548 37.79,-67.523Z" style="fill:#efc7c2;fill-rule:nonzero;"/><path d="M1484.08,1165.01c5.44,-1.6 11.16,-2.46 17.08,-2.46c6.68,0 13.12,1.09 19.16,3.11c-6.04,-2.02 -12.48,-3.11 -19.16,-3.11c-5.92,0 -11.64,0.86 -17.08,2.46Z" style="fill:#efc7c2;fill-rule:nonzero;"/><path d="M1312.02,133.546c-0.77,-2.455 -1.4,-4.947 -1.93,-7.462c0.53,2.516 1.16,5.01 1.93,7.466c0.32,1.03 0.54,2.1 0.63,3.18c0.04,0.245 0.1,0.522 0.18,0.815c-0.08,-0.294 -0.14,-0.571 -0.18,-0.816c-0.09,-1.08 -0.31,-2.148 -0.63,-3.183Z" style="fill:#efc7c2;fill-rule:nonzero;"/><path d="M2340.75,1523.28l0,0.01c1.38,2.08 2.88,4.26 4.46,6.54c-1.58,-2.28 -3.08,-4.47 -4.46,-6.55Z" style="fill:#efc7c2;fill-rule:nonzero;"/><path d="M1234.7,1909.93l0,-10.09l-1.18,15.94c0.76,-1.8 1.18,-3.77 1.18,-5.85Z" style="fill:#414042;fill-rule:nonzero;"/><path d="M2675.18,2288.87c-0.02,0 -0.03,0 -0.05,0c-8.27,0.03 -14.95,6.74 -14.95,15l0,113.36c0,0.34 0.03,0.67 0.05,1c0.51,7.82 7,14 14.95,14c8.28,0 15,-6.71 15,-15l0,-113.36c0,-8.28 -6.72,-15 -15,-15Z" style="fill:#414042;fill-rule:nonzero;"/><path d="M322.74,2288.87c-0.017,0 -0.034,0 -0.051,0c-8.266,0.03 -14.949,6.74 -14.949,15l0,113.36c0,0.34 0.028,0.67 0.05,1c0.515,7.82 6.996,14 14.95,14c8.28,0 15,-6.71 15,-15l0,-113.36c0,-8.28 -6.72,-15 -15,-15Z" style="fill:#414042;fill-rule:nonzero;"/><path d="M745.55,1792.1c-0.017,0 -0.034,0 -0.051,0c-8.266,0.03 -14.949,6.74 -14.949,15l0,175.84c0,0.34 0.028,0.67 0.05,1c0.516,7.81 6.997,14 14.95,14c8.28,0 15,-6.72 15,-15l0,-175.84c0,-8.28 -6.72,-15 -15,-15Z" style="fill:#414042;fill-rule:nonzero;"/><path d="M1760.95,1050.06c0,-4.82 -2.28,-9.09 -5.8,-11.84c-2.55,-1.98 -5.73,-3.16 -9.2,-3.16c-0.02,0 -0.04,0 -0.06,0c-8.26,0.03 -14.94,6.73 -14.94,15l0,113.35c0,0.34 0.03,0.67 0.05,1c0.52,7.82 7,14 14.95,14c8.28,0 15,-6.71 15,-15l0,-113.35Z" style="fill:#414042;fill-rule:nonzero;"/><path d="M2040.5,2024.97c-0.02,0 -0.03,0 -0.05,0c-8.27,0.03 -14.95,6.73 -14.95,15l0,228.22c0,0.34 0.03,0.67 0.05,1c0.52,7.82 7,14 14.95,14c8.28,0 15,-6.71 15,-15l0,-228.22c0,-8.29 -6.72,-15 -15,-15Z" style="fill:#414042;fill-rule:nonzero;"/><path d="M1423.37,2375.74c-0.02,0 -0.03,0 -0.05,0c-8.27,0.03 -14.95,6.73 -14.95,15l0,56.34c0,0.34 0.03,0.67 0.05,1c0.52,7.81 7,14 14.95,14c8.28,0 15,-6.72 15,-15l0,-56.34c0,-8.29 -6.72,-15 -15,-15Z" style="fill:#414042;fill-rule:nonzero;"/><path d="M2503.34,1053.9l0,118.64c0,0.34 0.03,0.67 0.05,1c0.52,7.81 7,14 14.95,14c8.28,0 15,-6.72 15,-15l0,-118.64c0,-8.29 -6.72,-15 -15,-15c-0.02,0 -0.03,0 -0.05,0c-8.27,0.03 -14.95,6.73 -14.95,15Z" style="fill:#414042;fill-rule:nonzero;"/><path d="M2398.36,1999.42c-0.02,0 -0.04,0 -0.05,0c-8.26,0.03 -14.95,6.73 -14.95,15l0,624.09c0,0.34 0.03,0.67 0.05,1c0.51,7.82 7,14 14.95,14c8.28,0 15,-6.71 15,-15l0,-624.09c0,-8.29 -6.72,-15 -15,-15Z" style="fill:#414042;fill-rule:nonzero;"/><path d="M2749.97,2783l-253.65,0l0,-14l0,-1021.63c0,-6.46 2.37,-12.51 6.68,-17.01c4.14,-4.33 9.59,-6.71 15.34,-6.71c1.85,0 3.64,0.25 5.36,0.71c9.55,2.59 16.65,11.92 16.65,23.01l0,141.63c0,0.34 0.03,0.67 0.05,1c0.49,7.41 6.35,13.35 13.74,13.94c0.4,0.03 0.8,0.06 1.21,0.06c1.04,0 2.05,-0.1 3.03,-0.3c6.83,-1.4 11.97,-7.45 11.97,-14.7l0,-222.87c0,-13.07 9.88,-23.71 22.02,-23.71c1.85,0 3.65,0.25 5.37,0.72c9.55,2.58 16.65,11.91 16.65,22.99l0,222.87c0,0.34 0.03,0.67 0.05,1c0.52,7.81 7,14 14.95,14c8.28,0 15,-6.72 15,-15l0,-258.88c0,-13.08 9.87,-23.72 22.01,-23.72c1.85,0 3.65,0.25 5.37,0.72c9.55,2.58 16.65,11.91 16.65,23l0,228.85c0,0.34 0.03,0.67 0.05,1c0.52,7.81 7.01,14 14.95,14c6.29,0 11.67,-3.88 13.9,-9.36c0.7,-1.75 1.1,-3.65 1.1,-5.64l0,-192.84c0,-13.07 9.88,-23.71 22.02,-23.71c1.85,0 3.64,0.25 5.36,0.71c9.56,2.59 16.65,11.92 16.65,23l0,222.87c0,1.27 0.18,2.49 0.47,3.67l0,24.54c0,20.57 -8,39.9 -22.54,54.45l-54.07,54.06c-16.85,16.85 -26.13,39.26 -26.13,63.101l0,35.269c0,0.34 0.03,0.67 0.05,1c0.52,7.82 7,14 14.95,14c0.67,0 1.33,-0.06 1.97,-0.14c7.35,-0.97 13.03,-7.25 13.03,-14.86l0,-35.269c0,-15.821 6.16,-30.701 17.34,-41.891l54.07,-54.06c20.21,-20.21 31.33,-47.08 31.33,-75.66l0,-75.76c0,-6.12 2.39,-11.89 6.72,-16.22c4.34,-4.34 10.11,-6.73 16.24,-6.73c2.26,0 4.45,0.33 6.52,0.95c9.49,2.81 16.44,11.61 16.44,22l0,157.15c0,23 -8.96,44.62 -25.22,60.89l-23.94,23.93c-25.61,25.62 -39.71,59.67 -39.71,95.89l0,603.69Zm-283.65,-1035.63l0,1035.63l-125.57,0l0,-14l0,-1238.67l0,-7.04l0,-0.01c1.38,2.08 2.88,4.27 4.46,6.55c2.11,3.02 4.41,6.22 6.91,9.61c2.1,2.87 4.34,5.85 6.75,9c1.68,2.2 3.43,4.44 5.21,6.71c5.3,6.75 11.02,13.79 17.09,21.05c15.97,19.09 34.31,39.61 53.61,59.9c3.67,3.86 7.33,7.67 10.99,11.43c11.32,11.63 22.56,22.76 33.39,33.08c1.2,1.14 2.4,2.27 3.59,3.4c5.14,4.85 10.19,9.51 15.1,13.95c-1.37,0.61 -2.72,1.29 -4.04,2.02c-3.58,1.99 -6.95,4.42 -10.05,7.27c-0.83,0.76 -1.65,1.55 -2.44,2.37c-1.21,1.27 -2.35,2.58 -3.42,3.95c-7.5,9.54 -11.58,21.36 -11.58,33.8Zm-155.57,1035.63l-255.25,0l0,-14l0,-378.26c0,-8.29 -6.72,-15 -15,-15c-0.02,0 -0.03,0 -0.05,0c-8.27,0.03 -14.95,6.73 -14.95,15l0,392.26l-92.2,0l0,-14l0,-1037.47c0,-24.85 -4.82,-49.08 -14.33,-72.04c-9.51,-22.95 -23.23,-43.5 -40.8,-61.07l-34.37,-34.37c-24.61,-24.61 -38.16,-57.31 -38.16,-92.1l0,-225.74c0,-21.79 17.74,-39.51 39.53,-39.51c6.57,0 12.89,1.59 18.53,4.59c3.42,1.82 6.59,4.16 9.41,6.97c7.47,7.48 11.58,17.4 11.58,27.95l0,108.82c0,39.31 15.3,76.26 43.1,104.06l77.66,77.65c17.31,17.32 26.84,40.33 26.84,64.81l0,50.66c0,0.34 0.03,0.67 0.05,1c0.48,7.26 6.11,13.11 13.27,13.9c0.56,0.07 1.11,0.1 1.68,0.1c8.29,0 15,-6.71 15,-15l0,-50.66c0,-32.49 -12.651,-63.03 -35.63,-86.02l-77.66,-77.66c-22.13,-22.12 -34.31,-51.54 -34.31,-82.84l0,-36.04c0.44,-1.41 0.68,-2.92 0.68,-4.48l0,-320.13c0,-22.4 17.12,-40.62 38.17,-40.62c6.02,0 11.71,1.493 16.77,4.142c12.66,6.619 21.4,20.48 21.4,36.478l0,277c0,0.34 0.03,0.67 0.05,1c0.11,1.62 0.47,3.18 1.06,4.63c2.23,5.49 7.6,9.37 13.89,9.37c8.29,0 15,-6.72 15,-15l0,-328.74c0,-22.39 17.13,-40.61 38.179,-40.61c6.01,0 11.711,1.495 16.77,4.145c12.661,6.619 21.401,20.476 21.401,36.465l0,371.87c0,0.34 0.03,0.67 0.05,1c0.51,7.82 7,14 14.95,14c8.28,0 15,-6.71 15,-15l0,-320.13c0,-22.4 17.12,-40.62 38.17,-40.62c6.02,0 11.71,1.493 16.77,4.142c12.66,6.619 21.4,20.48 21.4,36.478l0,320.13c0,0.34 0.03,0.67 0.05,1c0.52,7.82 7.01,14 14.95,14c0.36,0 0.72,-0.03 1.07,-0.05c7.79,-0.55 13.93,-7.02 13.93,-14.95l0,-203.45c0,-22.39 17.13,-40.61 38.18,-40.61c5.91,0 11.63,1.44 16.8,4.14c3.62,1.9 6.98,4.41 9.95,7.51c7.36,7.71 11.42,17.99 11.42,28.96l0,1671.94Zm-407.45,0l-52.56,0l0,-891.7c0,-101.39 0.13,-193.67 0.4,-277.49l5.81,5.82c29.89,29.9 46.35,69.64 46.35,111.9l0,1051.47Zm-355.61,-14l0,-882.21c0,-37.39 14.56,-72.54 41,-98.99l30.75,-30.75c27.38,-27.38 42.46,-63.78 42.46,-102.49l0,-201.95c0,-22.08 -11.29,-41.57 -28.39,-53.03c-10.14,-6.78 -22.31,-10.75 -35.4,-10.75c-6.88,0 -13.59,1.11 -19.94,3.19c-3.84,1.26 -7.55,2.89 -11.08,4.86l0,-20l0,-883.33c0,-6.46 2.38,-12.5 6.69,-17.01c4.13,-4.33 9.58,-6.71 15.33,-6.71c1.85,0 3.65,0.25 5.37,0.716c9.55,2.588 16.65,11.918 16.65,23.004l0,141.63c0,0.337 0.03,0.666 0.05,0.997c0.49,7.498 6.49,13.484 14,13.953c0.31,0.02 0.63,0.05 0.95,0.05c0.51,0 1.03,-0.03 1.53,-0.08c7.56,-0.77 13.47,-7.15 13.47,-14.92l0,-222.86c0,-13.08 9.87,-23.72 22.01,-23.72c1.85,0 3.65,0.25 5.37,0.716c9.55,2.589 16.65,11.919 16.65,23.004l0,222.86c0,0.336 0.01,0.668 0.03,0.999c0.32,4.764 2.85,8.916 6.58,11.441c2.4,1.62 5.28,2.56 8.39,2.56c3.11,0 5.99,-0.94 8.39,-2.56c3.99,-2.7 6.61,-7.26 6.61,-12.44l0,-258.88c0,-13.08 9.88,-23.72 22.02,-23.72c1.85,0 3.64,0.249 5.36,0.714c9.55,2.585 16.65,11.917 16.65,23.006l0,228.85c0,0.337 0.03,0.667 0.05,0.998c0.52,7.813 7.01,14.002 14.95,14.002c6.29,0 11.67,-3.87 13.9,-9.36c0.71,-1.74 1.1,-3.65 1.1,-5.64l0,-192.83c0,-13.08 9.88,-23.72 22.02,-23.72c1.85,0 3.65,0.25 5.37,0.716c9.55,2.588 16.65,11.918 16.65,23.004l0,222.86c0,1.27 0.17,2.5 0.47,3.67l0,24.54c0,20.57 -8.01,39.9 -22.55,54.45l-54.06,54.06c-16.86,16.85 -26.14,39.26 -26.14,63.1l0,35.27c0,0.337 0.03,0.666 0.05,0.997c0.52,7.822 7,14.003 14.95,14.003c0.27,0 0.55,-0.02 0.82,-0.04c7.9,-0.43 14.18,-6.95 14.18,-14.96l0,-35.27c0,-15.82 6.16,-30.7 17.35,-41.89l54.07,-54.06c20.2,-20.21 31.33,-47.08 31.33,-75.66l0,-75.76c0,-6.12 2.39,-11.89 6.71,-16.22c4.35,-4.34 10.11,-6.73 16.25,-6.73c2.26,0 4.44,0.334 6.51,0.946c9.49,2.813 16.44,11.613 16.44,22.004l0,157.15c0,23 -8.96,44.62 -25.22,60.89l-23.94,23.93c-14.91,14.92 -24.36,31.1 -30.52,169.8c-2.03,45.86 -3.71,105.24 -5.04,180.32c-28.48,8.7 -49.25,35.22 -49.25,66.49l0,225.74c0,14.4 1.9,28.51 5.56,42.06c7.05,26.09 20.68,50.05 40.04,69.87c-0.34,91.67 -0.5,193.83 -0.5,307.42l0,891.7l-273.05,0l0,-14Zm-30,14l-79.32,0l0,-14l0,-223.18c0,-8.29 -6.72,-15 -15,-15c-0.02,0 -0.03,0 -0.05,0c-8.27,0.03 -14.95,6.73 -14.95,15l0,237.18l-225.2,0l0,-14l0,-1437.31c0,-9.4 3.47,-18.22 9.77,-24.81c6.13,-6.41 14.23,-9.94 22.79,-9.94c4.59,0 8.95,1.02 12.92,2.85c11.55,5.35 19.66,17.63 19.66,31.9l0,182.02c0,0.34 0.03,0.67 0.05,1c0.49,7.45 6.41,13.4 13.84,13.95c0.37,0.02 0.74,0.05 1.11,0.05c8.28,0 15,-6.71 15,-15l0,-286.41c0,-19.16 14.61,-34.75 32.57,-34.75c4.58,0 8.95,1.02 12.91,2.85c11.55,5.34 19.66,17.63 19.66,31.9l0,286.41c0,0.34 0.03,0.67 0.05,1c0.52,7.81 7.01,14 14.95,14c8.28,0 15,-6.72 15,-15l0,-332.69c0,-19.17 14.61,-34.76 32.57,-34.76c4.58,0 8.94,1.02 12.9,2.85c11.56,5.34 19.67,17.63 19.67,31.91l0,294.1c0,0.34 0.03,0.67 0.05,1c0.52,7.81 7.01,14 14.95,14c6.29,0 11.67,-3.88 13.9,-9.37c0.7,-1.74 1.1,-3.64 1.1,-5.63l0,-247.82c0,-19.16 14.61,-34.75 32.57,-34.75c4.58,0 8.95,1.02 12.9,2.85c11.56,5.34 19.67,17.63 19.67,31.9l0,286.41c0,1.46 0.22,2.87 0.61,4.2l0,32.05c0,27.58 -10.74,53.5 -30.23,73l-69.49,69.47c-20.85,20.86 -32.33,48.59 -32.33,78.08l0,45.32c0,0.34 0.03,0.67 0.05,1c0.52,7.82 7,14 14.95,14c0.59,0 1.17,-0.04 1.75,-0.11c7.46,-0.87 13.25,-7.2 13.25,-14.89l0,-45.32c0,-21.48 8.36,-41.67 23.55,-56.86l69.48,-69.48c25.16,-25.16 39.02,-58.62 39.02,-94.21l0,-97.35c0,-9.02 3.52,-17.5 9.89,-23.88c6.38,-6.38 14.87,-9.9 23.88,-9.9c5.17,0 10.07,1.17 14.45,3.25c11.42,5.43 19.34,17.07 19.34,30.53l0,201.95c0,30.7 -11.96,59.56 -33.68,81.28l-30.75,30.75c-32.1,32.11 -49.78,74.8 -49.78,120.2l0,896.21Zm-364.52,0l-31.38,0l0,-14l0,-1862.61c0,-46.76 -18.21,-90.73 -51.28,-123.81l-31.76,-31.76c-22.52,-22.52 -34.92,-52.46 -34.92,-84.3l0,-208.59c0,-19.5 15.87,-35.37 35.379,-35.37c5.5,0 10.811,1.257 15.611,3.618c3.43,1.692 6.61,3.947 9.4,6.732c6.69,6.69 10.37,15.58 10.37,25.02l0,100.56c0,36.62 14.26,71.06 40.16,96.95l71.76,71.76c15.78,15.79 24.47,36.77 24.47,59.08l0,46.82c0,0.336 0.03,0.666 0.05,0.997c0.49,7.4 6.34,13.33 13.71,13.933c0.41,0.04 0.82,0.07 1.24,0.07c8.29,0 15,-6.72 15,-15l0,-46.82c0,-30.32 -11.81,-58.84 -33.25,-80.29l-71.77,-71.76c-20.23,-20.23 -31.37,-47.13 -31.37,-75.74l0,-33.16c0.4,-1.36 0.63,-2.8 0.63,-4.29l0,-295.82c0,-20.06 15.31,-36.39 34.13,-36.39c4.98,0 9.72,1.155 13.99,3.212c11.87,5.71 20.15,18.431 20.15,33.178l0,255.96c0,0.337 0.03,0.666 0.05,0.998c0.11,1.633 0.46,3.195 1.05,4.642c2.23,5.49 7.61,9.36 13.9,9.36c8.28,0 15,-6.71 15,-15l0,-303.76c0,-20.07 15.31,-36.39 34.13,-36.39c4.99,0 9.72,1.155 14,3.212c11.86,5.708 20.14,18.425 20.14,33.178l0,343.62c0,0.336 0.01,0.669 0.03,0.999c0.32,4.765 2.85,8.926 6.58,11.441c2.39,1.62 5.28,2.56 8.39,2.56c3.1,0 5.99,-0.94 8.38,-2.56c3.99,-2.69 6.62,-7.26 6.62,-12.44l0,-295.82c0,-20.06 15.31,-36.39 34.13,-36.39c4.98,0 9.71,1.154 13.98,3.209c11.87,5.707 20.15,18.431 20.15,33.181l0,295.82c0,0.337 0.03,0.667 0.05,0.998c0.52,7.822 7.01,14.002 14.95,14.002c0.76,0 1.49,-0.07 2.22,-0.18c7.23,-1.07 12.78,-7.29 12.78,-14.82l0,-187.99c0,-20.07 15.32,-36.39 34.14,-36.39c4.9,0 9.65,1.105 14,3.193c3.62,1.741 6.97,4.162 9.89,7.217c6.6,6.91 10.24,16.13 10.24,25.98l0,637.63c-5.06,5.37 -9.53,11.2 -13.36,17.39c-0.45,0.73 -0.91,1.45 -1.34,2.19c-3.65,-6.22 -7.95,-12.079 -12.82,-17.515c-2.25,-2.517 -4.61,-4.952 -7.11,-7.275c-2.48,-2.303 -5.05,-4.477 -7.71,-6.523c-19.04,-14.684 -42.36,-22.667 -66.65,-22.667c-60.27,0 -109.3,49.02 -109.3,109.29c0,10.67 1.54,21.22 4.58,31.38c1.16,7.78 6.19,20.91 28.7,50.3c8.29,10.83 18.21,22.86 29.13,35.34c-0.51,-0.01 -1.02,-0.04 -1.53,-0.04c-34.5,0 -62.57,29.05 -62.57,64.75l0,49.13c-9.5,-6.02 -20.65,-9.49 -32.58,-9.49c-9.23,0 -18.15,2.07 -26.28,5.96c-6.68,3.21 -12.84,7.66 -18.19,13.25c-11.67,12.2 -18.09,28.38 -18.09,45.54l0,1451.31Zm313.57,-2679.54c0.31,4.015 2.18,7.532 4.96,10.015c1.39,1.242 3,2.224 4.77,2.881c1.77,0.656 3.69,0.987 5.68,0.924l0.15,0c7.74,0 14.3,-5.948 14.94,-13.795c0,-0.009 0,-0.016 0,-0.025c0.01,-0.174 0.04,-0.345 0.05,-0.518c1.26,-14.726 6.57,-28.644 15.27,-40.367c2.9,-3.897 6.16,-7.553 9.78,-10.915c3.5,-3.245 7.25,-6.132 11.2,-8.665c12.68,-8.123 27.44,-12.505 42.75,-12.505c2.73,0 5.43,0.14 8.09,0.411c39.94,4.066 71.2,37.891 71.2,78.879c0,7.56 -1.06,15.02 -3.15,22.2c-1.11,3.82 -2.52,7.57 -4.2,11.18c-2.65,4.757 -6.43,10.582 -11.22,17.331c-0.49,0.7 -0.99,1.399 -1.51,2.119c-18.51,25.718 -49.06,61.338 -79.06,92.27c-1.78,1.83 -3.55,3.646 -5.32,5.44c-1,1.012 -1.98,2.002 -2.95,2.981c-25.56,25.684 -42.97,40.119 -53.56,47.469c-2.22,-6.451 -5.42,-12.511 -9.49,-18.013c-1.65,-2.233 -3.44,-4.384 -5.38,-6.417c-1.25,-1.301 -2.54,-2.527 -3.87,-3.707c-11.62,-10.334 -26.23,-15.973 -41.71,-15.973c-4.22,0 -8.36,0.435 -12.35,1.245c-0.1,0.02 -0.21,0.034 -0.31,0.055c-2.47,-2.367 -4.97,-4.808 -7.49,-7.279c-4.61,-4.532 -9.29,-9.21 -13.99,-14.031l0,-21.43c0,-17.549 -6.62,-33.517 -17.4,-45.399c-3.54,-3.907 -7.54,-7.362 -11.9,-10.294c-10.03,-6.757 -21.99,-10.697 -34.83,-10.697c-1.47,0 -2.92,0.066 -4.36,0.17c-2,0.145 -3.98,0.374 -5.93,0.7c-5.46,-7.817 -9.18,-13.952 -11.2,-18.169c-0.77,-1.616 -1.3,-2.951 -1.57,-3.986c-0.08,-0.293 -0.14,-0.57 -0.18,-0.815c-0.09,-1.08 -0.31,-2.15 -0.63,-3.18c-0.77,-2.456 -1.4,-4.95 -1.93,-7.466c-0.57,-2.744 -1,-5.519 -1.28,-8.316c-0.26,-2.647 -0.41,-5.311 -0.41,-7.988c0,-28.511 15.13,-53.548 37.79,-67.523c12.08,-7.454 26.3,-11.767 41.51,-11.767c16.69,0 32.73,5.213 46.12,14.814c2.72,1.949 5.34,4.062 7.82,6.367c1.66,1.539 3.23,3.147 4.74,4.805c11.8,12.97 18.98,29.419 20.36,46.984Zm53.58,1062.2c-6.04,-2.02 -12.48,-3.11 -19.16,-3.11c-5.92,0 -11.64,0.86 -17.08,2.46c-5.72,1.69 -11.12,4.2 -16.06,7.4c-0.89,-6.92 -2.85,-13.5 -5.68,-19.56c-5.05,-10.77 -12.89,-19.87 -22.54,-26.31c-9.75,-6.5 -21.35,-10.28 -33.78,-10.28c-26.39,0 -49,17 -58.18,40.97c-5.05,-5.53 -9.77,-10.85 -14.21,-15.95c-16.48,-18.94 -28.81,-34.81 -37.03,-46.66c-7.75,-11.19 -11.86,-18.82 -12.35,-22.1c-0.09,-1.09 -0.3,-2.15 -0.63,-3.19c-2.4,-7.66 -3.62,-15.66 -3.62,-23.76c0,-11.89 2.65,-23.17 7.36,-33.3c12.61,-27.126 40.11,-45.99 71.94,-45.99c16.71,0 32.77,5.224 46.16,14.835c0.6,0.429 1.2,0.855 1.78,1.301c2.07,1.573 4.08,3.248 6,5.034c14.63,13.59 23.54,31.98 25.1,51.8c0.49,6.3 4.81,11.37 10.5,13.14c1.55,0.48 3.21,0.73 4.92,0.68l0.15,0c5.63,0 10.62,-3.16 13.17,-7.89c0.97,-1.79 1.59,-3.79 1.76,-5.94c1.56,-19.81 10.47,-38.21 25.1,-51.79c1.34,-1.239 2.71,-2.419 4.12,-3.556c7.23,-5.847 15.36,-10.323 24.03,-13.303c4.85,-1.668 9.87,-2.872 15,-3.571l0,207.32c-2.97,-2.17 -6.13,-4.06 -9.45,-5.68c-2.36,-1.15 -4.8,-2.16 -7.32,-3Zm520.28,-628.08c0.08,1.05 0.29,2.056 0.57,3.029c0.13,0.441 0.28,0.87 0.45,1.293c0.59,1.493 1.39,2.865 2.4,4.071c1.01,1.214 2.19,2.274 3.53,3.117c0.75,1.259 1.68,2.402 2.76,3.391c2.06,1.886 4.66,3.203 7.569,3.696c0.441,0.075 0.891,0.137 1.351,0.173c8.27,0.65 15.48,-5.52 16.13,-13.78c0.51,-6.418 1.519,-12.736 3.019,-18.908c5.51,-22.646 17.561,-43.293 34.951,-59.442c1.09,-1.011 2.2,-1.992 3.32,-2.958c10.6,-9.151 22.6,-16.285 35.47,-21.194c13.52,-5.16 27.99,-7.868 42.79,-7.868c27.88,0 53.56,9.562 73.95,25.577c3.8,2.98 7.41,6.182 10.81,9.588c21.72,21.717 35.17,51.7 35.17,84.765c0,8.938 -1,17.798 -2.95,26.434c-0.53,2.389 -1.13,4.764 -1.82,7.116c-0.04,0.121 -0.07,0.241 -0.11,0.361c-0.43,1.45 -0.88,2.893 -1.36,4.325c-0.02,0.052 -0.04,0.104 -0.06,0.156c-0.52,1.551 -1.08,3.091 -1.67,4.619c-1,2.605 -2.08,5.177 -3.25,7.689c-2.1,3.769 -4.67,7.987 -7.68,12.612c-3.19,4.897 -6.87,10.252 -11.05,16.048c-28.89,40.16 -77.52,96.34 -123.9,143.13c-10.99,11.088 -21.56,21.343 -31.5,30.578c-2.67,2.482 -5.29,4.885 -7.87,7.214c-7.35,6.652 -14.29,12.67 -20.7,17.936c-1.15,0.945 -2.29,1.866 -3.4,2.762c-25.55,20.52 -34.28,22.12 -35.24,22.24c-1.02,-0.102 -10.51,-1.678 -39.06,-24.187c-2.15,-1.7 -4.4,-3.506 -6.78,-5.453c-12.16,-9.962 -25.61,-21.886 -39.89,-35.327c-1.4,-1.323 -2.82,-2.663 -4.24,-4.015c-10.64,-10.131 -21.71,-21.062 -33.04,-32.648c0.22,-2.96 0.34,-5.94 0.34,-8.94l0,-157.146l0,-0.004c0,-18.956 -10.02,-35.614 -25.04,-44.97c-8.11,-5.051 -17.67,-7.98 -27.91,-7.98c-8.26,0 -16.23,1.89 -23.43,5.45l0,-18.767l0,-79.313c17.65,-9.73 37.48,-14.85 57.83,-14.85c27.03,0 52.94,9.011 73.99,25.554c2.61,2.046 5.14,4.201 7.59,6.476c5.73,5.321 10.87,11.133 15.4,17.34c12.96,17.765 20.82,38.793 22.56,61.01Zm76.53,-185.49c0,-18.62 15.15,-33.77 33.78,-33.77c9.02,0 17.5,3.52 23.88,9.89c6.38,6.38 9.89,14.87 9.89,23.88l0,50.46c-24.06,1.63 -47.16,8.99 -67.55,21.39l0,-71.85Zm-163.59,571.67c-37.59,0 -68.17,31.68 -68.17,70.62l0,195.12c-9.04,-6.43 -19.43,-10.58 -30.44,-12.12c1.32,-73.41 2.97,-131.6 4.98,-176.65c5.95,-134.1 14.72,-142.87 21.76,-149.92l23.93,-23.92c11.23,-11.24 19.87,-24.36 25.63,-38.66c24.4,24.29 47.36,45.32 67.13,61.45c16.13,13.15 28.27,21.53 37.64,26.83c-23.97,9.32 -41.55,32.23 -43.99,59.61c-10.95,-7.79 -24.2,-12.36 -38.47,-12.36Zm212.69,0c-14.26,0 -27.51,4.57 -38.47,12.36c-2.35,-26.45 -18.84,-48.73 -41.55,-58.61c17.34,-9.73 46.15,-31.54 94.74,-80.41c6.65,-6.7 13.36,-13.59 20.05,-20.6c0.22,3.24 0.34,6.5 0.34,9.78l0,147.59c-10.26,-6.41 -22.28,-10.11 -35.11,-10.11Zm114.2,-796.97l0,247.82c0,0.337 0.03,0.667 0.05,0.998c0.11,1.626 0.47,3.186 1.06,4.632c2.23,5.49 7.6,9.37 13.89,9.37c8.29,0 15,-6.72 15,-15l0,-294.1c0,-19.17 14.61,-34.759 32.57,-34.759c4.58,0 8.94,1.019 12.9,2.85c11.56,5.343 19.67,17.63 19.67,31.909l0,332.69c0,0.337 0.03,0.666 0.05,0.997c0.52,7.814 7.01,14.003 14.95,14.003c8.29,0 15,-6.72 15,-15l0,-286.41c0,-19.16 14.61,-34.749 32.57,-34.749c4.59,0 8.95,1.021 12.91,2.854c11.56,5.346 19.67,17.628 19.67,31.895l0,104.31c0,0.03 -0.01,0.06 -0.01,0.08l0,182.02c0,0.337 0.03,0.666 0.05,0.997c0.52,7.814 7.01,14.003 14.95,14.003c0.4,0 0.79,-0.03 1.18,-0.06c7.74,-0.61 13.82,-7.06 13.82,-14.94l0,-182.02c0,-19.16 14.62,-34.75 32.58,-34.75c4.51,0 8.88,0.988 12.92,2.85c3.62,1.673 6.96,4.051 9.86,7.08c6.31,6.6 9.78,15.42 9.78,24.82l0,1125.26c-1.95,-2.48 -3.99,-4.89 -6.12,-7.24c-2.74,-3.03 -5.62,-5.96 -8.64,-8.76c-0.08,-0.07 -0.16,-0.14 -0.24,-0.22c-2.41,-2.22 -4.88,-4.36 -7.42,-6.4c-24.8,-19.93 -55.55,-30.79 -87.62,-30.79c-47.61,0 -89.74,23.88 -115.06,60.29l0,-32.11l0,-220.15c0,-18.73 -7.01,-36.37 -19.74,-49.69c-3.34,-3.5 -6.98,-6.58 -10.85,-9.24c-11.05,-7.59 -24,-11.68 -37.58,-11.68c-14.13,0 -27.28,4.48 -38.18,12.14l0,-21.93l0,-36.28c0,-7.3 -1.07,-14.34 -3.06,-20.97l0,-187.13c0,-12.89 -1.43,-25.57 -4.21,-37.84c28.24,-31.075 54.73,-62.694 74.6,-89.207c2.62,-3.495 5.13,-6.91 7.51,-10.213c1.14,-1.58 2.24,-3.13 3.32,-4.66c2.73,8.16 4.17,16.78 4.17,25.63l0,45.33c0,0.336 0.02,0.668 0.04,0.998c0.4,6.122 4.49,11.236 10.06,13.162c1.54,0.54 3.18,0.84 4.9,0.84c8.29,0 15,-6.72 15,-15l0,-45.33c0,-20.02 -5.3,-39.22 -15.22,-56.02c2.91,-6.43 5.39,-13.11 7.37,-19.91c3.95,-13.57 5.96,-27.68 5.96,-41.93c0,-46.897 -21.65,-88.829 -55.47,-116.343c-19.24,-15.654 -42.43,-26.644 -67.81,-31.217c-2.08,-0.37 -4.17,-0.69 -6.27,-0.98l0,-11.167l0,-265.633c0,-19.16 14.61,-34.749 32.57,-34.749c4.58,0 8.95,1.02 12.91,2.851c11.55,5.343 19.66,17.628 19.66,31.898Zm531.16,1347.09c-0.3,1.04 -0.63,2.07 -0.97,3.1c-0.3,0.94 -0.63,1.88 -0.96,2.82c-1.17,3.32 -2.49,6.59 -3.97,9.77c-1.67,3 -3.69,6.33 -5.99,9.92c-3.18,4.97 -6.94,10.48 -11.28,16.5c-3.31,4.6 -6.91,9.44 -10.75,14.46c-11.98,15.67 -26.32,33.12 -41.85,51c-7.3,8.41 -14.86,16.91 -22.56,25.36c-4.21,-8.99 -10.77,-16.59 -18.86,-21.94c-0.45,-0.3 -0.9,-0.59 -1.35,-0.87c-7.8,-4.82 -16.92,-7.6 -26.65,-7.6c-8.42,0 -16.38,2.08 -23.42,5.77c-13.6,7.12 -23.79,20.25 -27.27,35.98c-4.45,-2.32 -9.25,-3.99 -14.3,-4.91c-2.94,-0.54 -5.96,-0.82 -9.04,-0.82c-15.9,0 -30.15,7.41 -39.7,19.06c-7.68,9.36 -12.32,21.45 -12.32,34.65l0,28.96c-0.52,-0.43 -1.05,-0.87 -1.58,-1.31c-0.51,-0.43 -1.03,-0.86 -1.56,-1.3c-0.63,-0.53 -1.27,-1.06 -1.93,-1.61c-6.02,-5.09 -12.39,-10.68 -18.99,-16.68c-5.37,-4.88 -10.9,-10.04 -16.55,-15.42c-14.41,-13.72 -29.56,-28.93 -44.67,-44.87c-28.08,-29.62 -53.97,-59.58 -72.89,-84.37c-6.24,-8.17 -11.21,-15.09 -15.17,-20.95c-14.45,-21.33 -15.53,-28.43 -15.61,-29.34c-0.04,-0.52 -0.12,-1.04 -0.22,-1.56c-0.01,-0.06 -0.03,-0.12 -0.04,-0.18c-0.1,-0.49 -0.22,-0.97 -0.37,-1.44c-1.29,-4.13 -2.33,-8.33 -3.13,-12.58c-1.25,-6.7 -1.89,-13.52 -1.89,-20.4c0,-60.68 49.37,-110.05 110.06,-110.05c24.49,0 47.98,8.06 67.17,22.88c2.65,2.04 5.21,4.21 7.69,6.51c16.53,15.35 27.79,35.13 32.58,56.79c1.1,4.95 1.86,10 2.26,15.11c0.63,8.05 7.5,14.11 15.51,13.81l0.25,0c3.39,0 6.55,-1.14 9.09,-3.08c2.05,-1.57 3.67,-3.66 4.7,-6.08c0.61,-1.45 1.01,-3.01 1.14,-4.66c1.35,-17.17 6.68,-33.57 15.43,-48.06c5.27,-8.72 11.78,-16.75 19.41,-23.83c20.41,-18.95 47,-29.39 74.87,-29.39c25.28,0 48.59,8.57 67.2,22.96c26.04,20.15 42.85,51.69 42.85,87.09c0,9.25 -1.14,18.38 -3.4,27.24c-0.31,1.19 -0.63,2.38 -0.97,3.56Zm-1780.35,1309.12l-409.97,0l0,-14l0,-1155.12c0,-26.67 -5.17,-52.68 -15.38,-77.33c-10.21,-24.64 -24.94,-46.69 -43.8,-65.56l-37.12,-37.11c-26.79,-26.8 -41.55,-62.42 -41.55,-100.3l0,-243.75c0,-24.19 19.68,-43.87 43.87,-43.87c7.705,0 15.102,1.98 21.626,5.69c3.398,1.93 6.564,4.31 9.404,7.15c8.29,8.3 12.85,19.32 12.85,31.03l0,117.51c0,42.11 16.4,81.72 46.18,111.51l83.87,83.85c18.91,18.92 29.33,44.07 29.33,70.83l0,54.71c0,0.34 0.025,0.67 0.047,1c0.479,7.27 6.13,13.13 13.313,13.9c0.54,0.06 1.09,0.1 1.64,0.1c8.28,0 15,-6.72 15,-15l0,-54.71c0,-34.77 -13.54,-67.46 -38.12,-92.04l-83.86,-83.85c-24.12,-24.13 -37.4,-56.2 -37.4,-90.3l0,-39.15c0.47,-1.45 0.73,-3 0.73,-4.61l0,-345.69c0,-24.84 19.03,-45.05 42.42,-45.05c7.102,0 13.797,1.873 19.685,5.163c13.502,7.547 22.735,22.59 22.735,39.887l0,299.11c0,0.34 0.027,0.67 0.049,1c0.11,1.62 0.469,3.18 1.051,4.63c2.23,5.49 7.61,9.37 13.9,9.37c8.28,0 15,-6.72 15,-15l0,-354.98c0,-24.84 19.03,-45.05 42.42,-45.05c7.097,0 13.789,1.872 19.674,5.161c13.501,7.546 22.736,22.59 22.736,39.889l0,401.56c0,0.34 0.028,0.67 0.05,1c0.516,7.81 7.007,14 14.95,14c8.29,0 15,-6.72 15,-15l0,-345.69c0,-24.84 19.03,-45.05 42.42,-45.05c7.102,0 13.797,1.873 19.685,5.163c13.502,7.547 22.735,22.59 22.735,39.887l0,345.69c0,0.34 0.022,0.67 0.044,1c0.447,6.8 5.413,12.36 11.926,13.69c0.98,0.2 1.99,0.31 3.03,0.31c0.35,0 0.7,-0.03 1.05,-0.05c7.79,-0.54 13.95,-7.02 13.95,-14.95l0,-219.69c0,-24.84 19.03,-45.06 42.41,-45.06c6.967,0 13.69,1.786 19.7,5.142c3.65,2.039 7.04,4.656 10.06,7.808c8.17,8.55 12.66,19.95 12.66,32.11l0,1839.11Zm-439.97,0l-59.68,0l0,-1035.63c0,-12.39 -4.044,-24.16 -11.489,-33.69c-0.031,-0.03 -0.058,-0.07 -0.088,-0.11c-0.207,-0.27 -0.429,-0.52 -0.641,-0.78c-0.887,-1.09 -1.807,-2.15 -2.782,-3.17c-4.868,-5.09 -10.545,-9.05 -16.732,-11.75c-0.072,-0.03 -0.142,-0.07 -0.214,-0.1c-0.107,-0.04 -0.217,-0.08 -0.325,-0.13c-6.18,-2.61 -12.857,-3.99 -19.747,-3.99c-0.001,0 -0.001,0 -0.002,0c-7.86,0 -15.32,1.82 -22.01,5.06l0,-32.57l0,-0.01c0,-14.47 -5.584,-27.61 -14.633,-37.28c-0.148,-0.16 -0.286,-0.32 -0.435,-0.48c-0.02,-0.02 -0.041,-0.04 -0.061,-0.06c-1.313,-1.36 -2.694,-2.66 -4.141,-3.87c6.737,-6.16 14.149,-13.22 22.292,-21.25c2.24,-2.21 4.524,-4.49 6.878,-6.85c14.167,-14.25 28.605,-29.6 42.408,-44.99c14.781,-16.47 28.833,-32.99 41.012,-48.24c4.191,4.97 8.073,10.14 11.643,15.49c18.696,27.99 28.747,60.86 28.747,95.28l0,1169.12Zm-89.68,0l-253.64,0l0,-14l0,-589.69c0,-36.22 -14.11,-70.27 -39.721,-95.89l-23.929,-23.92c-16.26,-16.28 -25.22,-37.9 -25.22,-60.9l0,-157.15c0,-12.65 10.29,-22.95 22.95,-22.95c2.232,0 4.414,0.33 6.499,0.94c3.64,1.07 6.978,3.03 9.731,5.78c4.34,4.34 6.73,10.1 6.73,16.23l0,75.76c0,28.58 11.13,55.45 31.33,75.66l54.07,54.06c11.19,11.19 17.35,26.07 17.35,41.891l0,35.269c0,0.34 0.024,0.67 0.046,1c0.472,7.15 5.949,12.93 12.974,13.86c0.65,0.08 1.31,0.14 1.98,0.14c8.28,0 15,-6.71 15,-15l0,-35.269c0,-23.841 -9.28,-46.251 -26.14,-63.101l-54.06,-54.06c-14.54,-14.55 -22.55,-33.88 -22.55,-54.45l0,-24.54c0.3,-1.18 0.47,-2.4 0.47,-3.67l0,-222.87c0,-13.07 9.88,-23.71 22.019,-23.71c1.849,0 3.643,0.25 5.36,0.71c9.557,2.59 16.651,11.92 16.651,23l0,192.84c0,0.34 0.027,0.67 0.05,1c0.11,1.62 0.47,3.19 1.06,4.64c2.23,5.48 7.6,9.36 13.89,9.36c8.29,0 15,-6.72 15,-15l0,-228.85c0,-13.08 9.88,-23.72 22.02,-23.72c1.851,0 3.648,0.25 5.367,0.72c9.555,2.58 16.653,11.91 16.653,23l0,258.88c0,0.34 0.028,0.67 0.05,1c0.516,7.81 6.997,14 14.95,14c8.28,0 15,-6.72 15,-15l0,-222.87c0,-13.07 9.87,-23.71 22.01,-23.71c1.851,0 3.649,0.25 5.369,0.72c9.553,2.58 16.651,11.91 16.651,22.99l0,222.87c0,0.34 0.025,0.67 0.047,1c0.481,7.31 6.181,13.18 13.423,13.92c0.5,0.05 1.01,0.08 1.53,0.08c0.41,0 0.82,-0.03 1.22,-0.06c7.71,-0.62 13.78,-7.07 13.78,-14.94l0,-141.63c0,-13.08 9.88,-23.72 22.01,-23.72c1.84,0 3.64,0.27 5.383,0.74c3.713,1 7.139,3.02 9.957,5.96c4.31,4.52 6.68,10.56 6.68,17.02l0,1035.63Zm-148.864,-1396.96c0.197,1.52 0.363,3.04 0.487,4.57c0.005,0.06 0.012,0.12 0.016,0.18c0.311,3.96 2.137,7.43 4.856,9.91c1.765,1.6 3.902,2.79 6.255,3.42c1.391,0.37 2.856,0.54 4.36,0.49l0.18,0c6.612,0 12.347,-4.34 14.279,-10.49c0.336,-1.06 0.57,-2.18 0.661,-3.34c0.313,-3.98 0.899,-7.91 1.708,-11.77c3.2,-15.26 10.201,-29.44 20.405,-41.32c2.287,-2.66 4.714,-5.22 7.317,-7.64c5.163,-4.79 10.8,-8.93 16.79,-12.39c2.723,-1.57 5.521,-3 8.38,-4.28c4.837,-2.17 9.854,-3.93 15,-5.24l0,25.44c0,45.89 17.88,89.05 50.33,121.52l17.278,17.27l8.902,8.89c-22.52,28.49 -52.52,62.32 -81.451,91.61c-16.829,17.04 -30.689,29.93 -41.879,39.58c-0.35,-0.01 -0.7,-0.03 -1.06,-0.03c-3.621,0 -7.15,0.41 -10.566,1.14c-3.555,0.77 -6.984,1.89 -10.235,3.36c-0.854,0.39 -1.699,0.8 -2.529,1.23c-0.361,-1.63 -0.799,-3.22 -1.299,-4.79c-3.782,-11.85 -11.447,-21.89 -21.437,-28.5c-0.435,-0.29 -0.877,-0.57 -1.32,-0.84c-7.797,-4.83 -16.907,-7.62 -26.644,-7.62c-6.688,0 -13.079,1.31 -18.953,3.7c-0.83,0.33 -1.646,0.7 -2.455,1.08c-2.625,1.23 -5.139,2.67 -7.512,4.31c-4.772,-4.51 -9.651,-9.22 -14.591,-14.09c-8.873,-8.74 -17.949,-17.99 -26.999,-27.55c-2.61,-2.76 -5.192,-5.52 -7.752,-8.27c-20.513,-22.09 -39.269,-44 -53.579,-62.61c-0.297,-0.39 -0.606,-0.79 -0.899,-1.17c-10.145,-13.27 -16.382,-22.72 -20.215,-29.29c-5.603,-9.6 -6.071,-13.04 -6.095,-13.27c-0.1,-1.08 -0.31,-2.15 -0.63,-3.18c-2.82,-8.99 -4.25,-18.37 -4.25,-27.87c0,-5.86 0.564,-11.59 1.607,-17.16c0.809,-4.32 1.9,-8.54 3.286,-12.62c12.445,-36.7 47.231,-63.19 88.087,-63.19c16.708,0 32.86,4.46 47,12.77c2.918,1.71 5.752,3.59 8.488,5.62c2.684,1.99 5.274,4.14 7.752,6.44c0.674,0.63 1.32,1.28 1.973,1.92c14.837,14.6 24.282,33.56 26.953,54.07Zm188.604,-465.36c-10.98,-9.267 -23.088,-20.221 -35.766,-32.308c-14.341,-13.674 -29.413,-28.802 -44.444,-44.662c-18.392,-19.401 -35.829,-38.938 -51.002,-57.082c-7.992,-9.557 -15.367,-18.735 -21.898,-27.288c-28.95,-37.92 -30.67,-49.13 -30.77,-50.29c-0.015,-0.179 -0.054,-0.353 -0.075,-0.531c-0.081,-0.673 -0.211,-1.337 -0.387,-1.994c-0.058,-0.218 -0.099,-0.439 -0.168,-0.655c-0.396,-1.265 -0.765,-2.537 -1.114,-3.813c-2.59,-9.468 -3.906,-19.263 -3.906,-29.167c0,-60.68 49.37,-110.05 110.05,-110.05c24.543,0 48.077,8.119 67.289,22.993c0.616,0.477 1.241,0.939 1.848,1.43c1.959,1.585 3.872,3.24 5.733,4.967c1.525,1.417 2.999,2.876 4.434,4.366c17.617,18.3 28.341,41.974 30.377,67.346c0.005,0.063 0.014,0.125 0.019,0.188c0.123,1.545 0.48,3.015 1.028,4.383c2.304,5.76 8.044,9.678 14.492,9.427c0.03,0 0.059,0.002 0.089,0.004c0.05,0.003 0.1,0.006 0.151,0.006c7.066,0 13.13,-4.957 14.621,-11.777c0.147,-0.67 0.264,-1.35 0.319,-2.053c1.884,-23.998 11.54,-46.488 27.456,-64.353c2.33,-2.614 4.791,-5.131 7.384,-7.537c20.41,-18.95 47,-29.39 74.87,-29.39c25.281,0 48.594,8.575 67.196,22.962c26.047,20.145 42.854,51.688 42.854,87.087l0,0.001c0,10.49 -1.47,20.84 -4.37,30.8c-0.96,3.29 -2.09,6.54 -3.36,9.74l-0.001,-0.001c-1.246,-1.516 -2.549,-2.98 -3.905,-4.389c-13.113,-13.619 -31.231,-22.07 -51.214,-22.07c-13.943,0 -26.966,4.12 -38.025,11.224c-19.384,12.451 -32.713,34.102 -34.235,59.036c-4.017,-3.036 -8.349,-5.644 -12.927,-7.784c-9.055,-4.234 -19.086,-6.606 -29.653,-6.606c-20.434,0 -38.905,8.829 -52.086,22.984c-12.575,13.505 -20.334,31.857 -20.334,52.066l0,126.17c-2.081,-1.365 -4.392,-2.951 -6.936,-4.775c-6.307,-4.521 -14.086,-10.545 -23.634,-18.605Zm2448.72,1862.32l-210.08,0l0,-603.69c0,-28.21 10.98,-54.73 30.92,-74.68l23.94,-23.93c21.93,-21.93 34.01,-51.09 34.01,-82.1l0,-157.15c0,-29.19 -23.76,-52.95 -52.96,-52.95c-8.26,0 -16.23,1.89 -23.43,5.45l0,-127.82c0,-26.94 -19.32,-49.32 -44.4,-53.13c25.22,-28.41 48.24,-56.58 64.72,-79.48c8.31,-11.54 14.84,-21.59 19.41,-29.87c0.15,-0.27 0.3,-0.55 0.43,-0.84c3.13,-6.61 5.75,-13.53 7.78,-20.55c3.7,-12.67 5.57,-25.85 5.57,-39.18c0,-77.23 -62.82,-140.05 -140.05,-140.05c-35.47,0 -69.31,13.28 -95.28,37.4c-5.37,4.99 -10.3,10.34 -14.78,16.01l0,-1125.26c0,-17.16 -6.42,-33.34 -18.09,-45.55c-11.85,-12.38 -27.64,-19.2 -44.47,-19.2c-11.93,0 -23.08,3.47 -32.57,9.49l0,-49.13c0,-35.71 -28.07,-64.749 -62.58,-64.749c-12.16,0 -23.52,3.619 -33.14,9.86c-4.08,-31.65 -30.32,-56.15 -62,-56.15c-31.68,0 -57.92,24.5 -62,56.15c-9.62,-6.241 -20.97,-9.86 -33.14,-9.86c-34.5,0 -62.57,29.039 -62.57,64.749l0,171.59c-10.17,-6.54 -22.01,-10.06 -34.38,-10.06c-35.17,0 -63.781,28.61 -63.781,63.77l0,95.83c-11.629,12.01 -21.059,25.74 -28.029,40.62c-8.171,-19.25 -20.37,-36.74 -36.04,-51.29c-27.81,-25.83 -64.03,-40.05 -102,-40.05c-20.06,0 -39.71,3.98 -57.95,11.63c-1.75,-28 -24.35,-50.23 -51.9,-50.23c-8.39,0 -16.31,2.07 -23.33,5.73c-5.29,-23.87 -26.01,-41.75 -50.7,-41.75c-24.7,0 -45.42,17.88 -50.7,41.75c-7.02,-3.66 -14.95,-5.73 -23.34,-5.73c-28.68,0 -52.01,24.1 -52.01,53.72l0,32.58c-6.69,-3.25 -14.15,-5.07 -22.02,-5.07c-14.02,0 -27.16,5.67 -37.02,15.97c-9.67,10.13 -15,23.53 -15,37.75l0,443.26c-13.61,1.34 -26.75,5.2 -38.8,11.34l0,-604.83c12.26,-5.93 33.47,-20.97 71.44,-59.16c33.59,-33.78 68.96,-74.62 90.12,-104.03c6.36,-8.82 11.36,-16.52 14.87,-22.89c0.16,-0.28 0.3,-0.56 0.43,-0.84c2.44,-5.16 4.49,-10.57 6.08,-16.04c2.88,-9.89 4.35,-20.18 4.35,-30.58c0,-60.26 -49.03,-109.29 -109.29,-109.29c-27.68,0 -54.09,10.37 -74.36,29.19c-7.9,7.34 -14.6,15.69 -19.94,24.79c-5.35,-9.09 -12.04,-17.45 -19.94,-24.79c-20.27,-18.82 -46.67,-29.19 -74.35,-29.19c-60.27,0 -109.3,49.03 -109.3,109.29c0,5.97 0.5,11.89 1.46,17.74c-11.3,-10.26 -26.07,-16.49 -42.24,-16.49c-32.73,0 -59.8,25.52 -63.65,58.35c-9.99,-6.66 -21.87,-10.55 -34.62,-10.55c-35.36,0 -64.13,29.78 -64.13,66.39l0,178.13c-10.6,-7.02 -23.02,-10.79 -36.011,-10.79c-36.049,0 -65.379,29.32 -65.379,65.37l0,208.59c0,39.86 15.52,77.33 43.71,105.52l31.75,31.75c27.41,27.41 42.5,63.85 42.5,102.6l0,1876.61l-30.55,0l0,-1839.11c0,-19.92 -7.45,-38.68 -20.98,-52.84c-13.7,-14.33 -31.97,-22.22 -51.44,-22.22c-15.83,0 -30.48,5.31 -42.41,14.28l0,-65.22c0,-41.39 -32.49,-75.05 -72.42,-75.05c-15.91,0 -30.62,5.35 -42.58,14.39c-0.22,-3.51 -0.65,-6.96 -1.31,-10.32c3.16,-4.89 5.89,-9.38 8.129,-13.45c0.151,-0.27 0.291,-0.55 0.431,-0.84c3.12,-6.61 5.75,-13.53 7.78,-20.55c3.7,-12.67 5.57,-25.85 5.57,-39.18c0,-77.22 -62.83,-140.05 -140.05,-140.05c-35.47,0 -69.31,13.28 -95.28,37.4c-12.33,11.45 -22.36,24.84 -29.78,39.51c-7.41,-14.67 -17.44,-28.06 -29.76,-39.5c-25.98,-24.13 -59.82,-37.41 -95.29,-37.41c-77.22,0 -140.05,62.83 -140.05,140.05c0,13.8 2.01,27.45 5.97,40.57c1.28,9.08 7.34,25.85 37.15,64.79c19.86,25.94 46.809,57.07 75.9,87.66c29.43,30.95 58.96,59.14 83.159,79.38c22.651,18.94 37.551,28.48 47.921,33.18l0,52.48c-12.78,-9.72 -28.29,-14.99 -44.61,-14.99c-40.73,0 -73.87,33.14 -73.87,73.87l0,187.56c-22.53,4.28 -43.49,14.81 -60.58,30.68c-9.84,9.13 -18.02,19.68 -24.31,31.2c-6.301,-11.52 -14.47,-22.06 -24.31,-31.2c-22.81,-21.18 -52.52,-32.85 -83.66,-32.85c-67.81,0 -122.98,55.17 -122.98,122.97c0,12.07 1.75,24 5.2,35.49c1.199,8.13 6.64,23.02 32.449,56.73c17.191,22.45 40.521,49.39 65.691,75.85c14.52,15.28 29.08,29.78 42.8,42.67c-1.23,2.95 -2.2,6.03 -2.91,9.22c-7.02,-3.66 -14.95,-5.73 -23.331,-5.73c-28.679,0 -52.019,24.1 -52.019,53.71l0,127.82c-7.2,-3.56 -15.17,-5.45 -23.43,-5.45c-29.2,0 -52.95,23.76 -52.95,52.95l0,157.15c0,31.01 12.07,60.17 34.01,82.11l23.93,23.92c19.94,19.95 30.93,46.47 30.93,74.68l0,603.69l-202.95,0c-8.291,0 -15,6.71 -15,15c0,8.28 6.709,15 15,15l2975.05,0c8.28,0 15,-6.72 15,-15c0,-8.29 -6.72,-15 -15,-15Z" style="fill:#414042;fill-rule:nonzero;"/><path d="M520.101,1713.68c-0.031,-0.03 -0.058,-0.07 -0.088,-0.11" style="fill:none;"/><path d="M442.492,1628.37c-0.02,-0.02 -0.041,-0.04 -0.061,-0.06" style="fill:none;"/><path d="M499.319,1697.64c0.108,0.05 0.218,0.09 0.325,0.13" style="fill:none;"/><path d="M2351.18,1477.68c-0.01,-0.06 -0.03,-0.12 -0.04,-0.18" style="fill:none;"/><path d="M2537.21,1692.48c0.53,0.44 1.05,0.87 1.56,1.3" style="fill:none;"/><path d="M2809.66,1479.8c0.33,-0.94 0.66,-1.88 0.96,-2.82" style="fill:none;"/><path d="M814.279,713.429c-1.246,-1.516 -2.549,-2.98 -3.905,-4.389" style="fill:none;"/><path d="M2184.68,352.09c0,-9.01 -3.51,-17.5 -9.89,-23.88c-6.38,-6.37 -14.86,-9.89 -23.88,-9.89c-18.63,0 -33.78,15.15 -33.78,33.77l0,71.85c20.39,-12.4 43.49,-19.76 67.55,-21.39l0,-50.46Z" style="fill:#a97c50;fill-rule:nonzero;"/></g></svg>