<?xml version="1.0" encoding="UTF-8" standalone="no"?><!DOCTYPE svg PUBLIC "-//W3C//DTD SVG 1.1//EN" "http://www.w3.org/Graphics/SVG/1.1/DTD/svg11.dtd"><svg width="100%" height="100%" viewBox="0 0 612 235" version="1.1" xmlns="http://www.w3.org/2000/svg" xmlns:xlink="http://www.w3.org/1999/xlink" xml:space="preserve" xmlns:serif="http://www.serif.com/" style="fill-rule:evenodd;clip-rule:evenodd;stroke-linejoin:round;stroke-miterlimit:1.41421;"><path d="M127.664,38.255l-20.969,0c3.432,-11.936 18.094,-11.816 20.969,0Z" style="fill:#fff;"/><path d="M351.604,38.963c2.975,-17.601 27.268,-19.756 27.346,2.656c5.342,-6.82 21.063,-7.347 21.063,6.072l-65.622,0c-0.562,-11.597 8.58,-15.828 17.213,-8.728Z" style="fill:#fff;"/><path d="M327.865,47.691l-16.769,0c-1.158,-11.203 14.902,-10.446 16.769,0Z" style="fill:#fff;"/><path d="M196.806,13.69c-4.352,-18.563 -26.508,-15.601 -27.347,2.655c-5.341,-6.819 -17.277,-7.038 -19.436,6.073l64.148,0c0.562,-11.597 -8.732,-15.828 -17.365,-8.728Z" style="fill:#fff;"/><path d="M466.594,233.72c0,0.626 -0.508,1.134 -1.134,1.134c-0.626,0 -1.133,-0.508 -1.133,-1.134l0,-6.173l-21.477,0l0,6.173c0,0.626 -0.508,1.134 -1.134,1.134c-0.626,0 -1.134,-0.508 -1.134,-1.134l0,-6.173l-3.102,0l0,-2.267l3.102,0l0,-1.853l-3.102,0l0,-2.267l3.102,0l0,-1.852l-3.102,0l0,-2.268l32.217,0l0,2.268l-3.103,0l0,1.852l3.103,0l0,2.267l-3.103,0l0,1.853l3.103,0l0,2.267l-3.103,0l0,6.173Zm-23.744,-14.412l0,1.852l21.477,0l0,-1.852l-21.477,0Zm0,4.119l0,1.853l21.477,0l0,-1.853l-21.477,0Z" style="fill:#432d61;fill-rule:nonzero;"/><path d="M461.335,166.771c13.175,0 23.856,10.681 23.856,23.856c0,13.175 -10.681,23.855 -23.856,23.855c-13.175,0 -23.855,-10.68 -23.855,-23.855c0,-13.175 10.68,-23.856 23.855,-23.856Z" style="fill:#98d7da;"/><path d="M458.782,169.269c10.089,0 18.269,8.18 18.269,18.27c0,10.089 -8.18,18.269 -18.269,18.269c-10.09,0 -18.269,-8.18 -18.269,-18.269c0,-10.09 8.179,-18.27 18.269,-18.27Z" style="fill:#f2fcfc;"/><path d="M461.335,165.637c6.901,0 13.148,2.798 17.67,7.32c4.523,4.522 7.32,10.769 7.32,17.67c0,6.901 -2.798,13.148 -7.32,17.67c-4.273,4.273 -10.087,7.006 -16.536,7.294l0,18.129c0,0.626 -0.508,1.134 -1.134,1.134c-0.626,0 -1.133,-0.508 -1.133,-1.134l0,-18.129c-6.45,-0.288 -12.264,-3.021 -16.537,-7.294c-4.522,-4.522 -7.319,-10.769 -7.319,-17.67c0,-6.901 2.797,-13.148 7.319,-17.67c4.522,-4.522 10.77,-7.32 17.67,-7.32Zm4.258,28.145c0.443,-0.443 1.161,-0.443 1.604,0c0.442,0.442 0.442,1.16 0,1.603l-4.728,4.727l0,13.209c5.823,-0.287 11.071,-2.765 14.933,-6.627c4.112,-4.112 6.655,-9.793 6.655,-16.067c0,-6.275 -2.543,-11.955 -6.655,-16.067c-4.112,-4.112 -9.792,-6.655 -16.067,-6.655c-6.274,0 -11.955,2.543 -16.066,6.655c-4.112,4.112 -6.655,9.792 -6.655,16.067c0,6.274 2.543,11.955 6.655,16.067c3.862,3.862 9.109,6.34 14.933,6.627l0,-5.696l-8.632,-8.632c-0.442,-0.442 -0.442,-1.16 0,-1.603c0.443,-0.442 1.161,-0.442 1.603,0l7.029,7.028l0,-13.791c0,-0.626 0.507,-1.134 1.133,-1.134c0.626,0 1.134,0.508 1.134,1.134l0,6.278l3.124,-3.123Z" style="fill:#432d61;fill-rule:nonzero;"/><path d="M202.79,166.771c13.175,0 23.856,10.681 23.856,23.856c0,13.175 -10.681,23.856 -23.856,23.856c-13.175,0 -23.856,-10.681 -23.856,-23.856c0,-13.175 10.681,-23.856 23.856,-23.856Z" style="fill:#98d7da;"/><path d="M200.237,169.269c10.089,0 18.269,8.18 18.269,18.27c0,10.09 -8.18,18.269 -18.269,18.269c-10.09,0 -18.269,-8.179 -18.269,-18.269c0,-10.09 8.179,-18.27 18.269,-18.27Z" style="fill:#f2fcfc;"/><path d="M207.048,193.782c0.443,-0.443 1.161,-0.443 1.603,0c0.443,0.442 0.443,1.161 0,1.603l-4.727,4.727l0,13.209c5.823,-0.287 11.071,-2.765 14.933,-6.627c4.111,-4.112 6.655,-9.792 6.655,-16.067c0,-6.275 -2.544,-11.955 -6.655,-16.067c-4.112,-4.111 -9.793,-6.655 -16.067,-6.655c-6.274,0 -11.955,2.544 -16.066,6.655c-4.112,4.112 -6.656,9.792 -6.656,16.067c0,6.275 2.544,11.955 6.656,16.067c3.862,3.862 9.109,6.34 14.932,6.627l0,-5.696l-8.631,-8.631c-0.443,-0.443 -0.443,-1.161 0,-1.604c0.443,-0.442 1.161,-0.442 1.603,0l7.028,7.028l0,-13.791c0,-0.626 0.508,-1.134 1.134,-1.134c0.626,0 1.134,0.508 1.134,1.134l0,6.279l3.124,-3.124Zm-3.124,21.809l0,18.129c0,0.626 -0.508,1.134 -1.134,1.134c-0.626,0 -1.134,-0.508 -1.134,-1.134l0,-18.129c-6.449,-0.288 -12.263,-3.021 -16.536,-7.294c-4.522,-4.522 -7.319,-10.769 -7.319,-17.67c0,-6.9 2.797,-13.148 7.319,-17.67c4.522,-4.522 10.77,-7.32 17.67,-7.32c6.901,0 13.148,2.798 17.67,7.32c4.522,4.522 7.319,10.77 7.319,17.67c0,6.901 -2.797,13.148 -7.319,17.67c-4.273,4.273 -10.087,7.006 -16.536,7.294Z" style="fill:#432d61;fill-rule:nonzero;"/><path d="M257.347,81.562l-8.114,0c-6.956,-4.314 -15.608,-13.533 -15.608,-23.722c0,-13.102 10.621,-23.722 23.722,-23.722c13.102,0 23.722,10.62 23.722,23.722c0,10.189 -8.652,19.408 -15.607,23.722l-8.115,0Z" style="fill:#98d7da;"/><path d="M257.347,81.562l-6.57,0c-5.631,-4.314 -12.636,-13.533 -12.636,-23.722c0,-13.102 8.599,-23.722 19.206,-23.722c10.608,0 19.207,10.62 19.207,23.722c0,10.189 -7.006,19.408 -12.637,23.722l-6.57,0Z" style="fill:#fff;"/><path d="M257.347,81.562l-4.639,0c-3.977,-4.314 -8.923,-13.533 -8.923,-23.722c0,-13.102 6.072,-23.722 13.562,-23.722c7.491,0 13.563,10.62 13.563,23.722c0,10.189 -4.947,19.408 -8.924,23.722l-4.639,0Z" style="fill:#98d7da;"/><path d="M263.046,94.895l0,7.301c0,0.775 -0.635,1.409 -1.41,1.409l-8.577,0c-0.776,0 -1.41,-0.634 -1.41,-1.409l0,-7.301l11.397,0Z" style="fill:#fff;"/><path d="M251.649,91.364l11.397,0c0.414,0 0.752,0.339 0.752,0.753l0,2.026c0,0.413 -0.338,0.752 -0.752,0.752l-11.397,0c-0.414,0 -0.753,-0.339 -0.753,-0.752l0,-2.026c0,-0.414 0.339,-0.753 0.753,-0.753Z" style="fill:#fff;"/><path d="M249.233,81.562l16.229,0l0,2.778c0,0.414 -0.339,0.753 -0.753,0.753l-14.724,0c-0.414,0 -0.752,-0.339 -0.752,-0.753l0,-2.778Z" style="fill:#fff;"/><path d="M257.347,81.562l-1.883,0c-1.613,-4.314 -3.621,-13.533 -3.621,-23.722c0,-13.102 2.465,-23.722 5.504,-23.722c3.04,0 5.504,10.62 5.504,23.722c0,10.189 -2.008,19.408 -3.621,23.722l-1.883,0Z" style="fill:#fff;"/><path d="M263.046,94.895l0,7.301c0,0.775 -0.635,1.409 -1.41,1.409l-3.061,0c0.776,0 1.41,-0.634 1.41,-1.409l0,-7.301l3.061,0Z" style="fill:#98d7da;"/><path d="M259.985,91.364l3.061,0c0.414,0 0.752,0.339 0.752,0.753l0,2.026c0,0.413 -0.338,0.752 -0.752,0.752l-3.061,0c0.414,0 0.753,-0.339 0.753,-0.752l0,-2.026c0,-0.414 -0.339,-0.753 -0.753,-0.753Z" style="fill:#98d7da;"/><path d="M262.401,81.562l3.061,0l0,2.778c0,0.414 -0.339,0.753 -0.753,0.753l-3.06,0c0.414,0 0.752,-0.339 0.752,-0.753l0,-2.778Z" style="fill:#98d7da;"/><path d="M257.347,82.696l-6.981,0l0,1.263l13.962,0l0,-1.263l-6.981,0Zm-4.829,7.535l0.635,0l0,-4.004l-1.697,0l1.062,4.004Zm2.903,0l3.852,0l0,-4.004l-3.852,0l0,4.004Zm6.12,0l0.635,0l1.062,-4.004l-1.697,0l0,4.004Zm2.831,0.546l0.007,0.007c0.032,0.032 0.062,0.066 0.09,0.101c0.288,0.333 0.463,0.764 0.463,1.232l0,2.026c0,0.52 -0.212,0.991 -0.553,1.333c-0.062,0.062 -0.129,0.12 -0.199,0.173l0,6.547c0,0.7 -0.286,1.337 -0.747,1.797c-0.027,0.027 -0.055,0.052 -0.084,0.076c-0.453,0.416 -1.055,0.67 -1.713,0.67l-8.577,0c-0.696,0 -1.331,-0.286 -1.793,-0.746l-0.002,-0.003l-0.003,-0.002l-0.002,-0.002c-0.459,-0.462 -0.744,-1.096 -0.744,-1.79l0,-6.551c-0.07,-0.053 -0.136,-0.11 -0.197,-0.172l-0.002,0.003c-0.342,-0.342 -0.554,-0.814 -0.554,-1.333l0,-2.026c0,-0.515 0.212,-0.985 0.554,-1.329l0.002,-0.002l0.002,-0.002l0.003,-0.003l0.001,-0.001l-1.275,-4.806c-0.144,-0.083 -0.276,-0.185 -0.392,-0.301l-0.003,-0.002l-0.002,-0.002l-0.003,-0.003c-0.34,-0.344 -0.55,-0.813 -0.55,-1.326l0,-2.16c-3.859,-2.5 -8.139,-6.404 -11.23,-11.102c-2.606,-3.961 -4.378,-8.49 -4.378,-13.238c0,-6.864 2.782,-13.078 7.28,-17.576c4.498,-4.498 10.712,-7.28 17.576,-7.28c6.864,0 13.078,2.782 17.576,7.28c4.498,4.498 7.28,10.712 7.28,17.576c0,4.748 -1.772,9.277 -4.378,13.238c-3.091,4.698 -7.37,8.603 -11.229,11.102l0,2.16c0,0.516 -0.213,0.987 -0.556,1.331l0.003,0.002c-0.118,0.118 -0.252,0.22 -0.398,0.304l-1.273,4.8Zm-2.46,5.252l-9.129,0l0,6.167c0,0.077 0.029,0.146 0.077,0.193l0.005,0.005c0.047,0.048 0.116,0.077 0.194,0.077l8.577,0c0.064,0 0.123,-0.021 0.17,-0.057l0.024,-0.024c0.05,-0.051 0.082,-0.12 0.082,-0.194l0,-6.167Zm0.752,-3.531l-2.257,0l-6.12,0l-2.257,0l0,1.263l10.634,0l0,-1.263Zm-13.113,-12.07l15.592,0c3.691,-2.344 7.827,-6.079 10.795,-10.59c2.379,-3.616 3.997,-7.727 3.997,-11.998c0,-6.238 -2.528,-11.885 -6.615,-15.973c-4.088,-4.087 -9.735,-6.616 -15.973,-6.616c-6.238,0 -11.885,2.529 -15.972,6.616c-4.088,4.088 -6.616,9.735 -6.616,15.973c0,4.271 1.618,8.382 3.997,11.998c2.968,4.511 7.105,8.246 10.795,10.59Z" style="fill:#432d61;fill-rule:nonzero;"/><path d="M563.393,54.584l0,-6.893l8.386,0l0,43.508l2.003,0l0,5.787l-2.003,0l0,82.156l2.003,0l0,5.788l-2.003,0l0,48.79l-98.094,0l0,-48.79l-2.003,0l0,-5.788l2.003,0l0,-82.156l-2.003,0l0,-5.787l2.003,0l0,-6.892l0,-36.616l8.387,0l0,6.893l81.321,0Z" style="fill:#fff;"/><path d="M554.362,91.198c0,0.626 -0.508,1.134 -1.134,1.134c-0.626,0 -1.134,-0.508 -1.134,-1.134l0,-36.614c0,-0.626 0.508,-1.134 1.134,-1.134c0.626,0 1.134,0.508 1.134,1.134l0,36.614Zm-60.991,0c0,0.626 -0.508,1.134 -1.134,1.134c-0.626,0 -1.134,-0.508 -1.134,-1.134l0,-36.614c0,-0.626 0.508,-1.134 1.134,-1.134c0.626,0 1.134,0.508 1.134,1.134l0,36.614Zm10.165,-7.743c0,0.626 -0.508,1.134 -1.134,1.134c-0.626,0 -1.134,-0.508 -1.134,-1.134l0,-28.871c0,-0.626 0.508,-1.134 1.134,-1.134c0.626,0 1.134,0.508 1.134,1.134l0,28.871Zm10.165,-4.589c0,0.627 -0.508,1.134 -1.134,1.134c-0.626,0 -1.134,-0.507 -1.134,-1.134l0,-24.282c0,-0.626 0.508,-1.134 1.134,-1.134c0.626,0 1.134,0.508 1.134,1.134l0,24.282Zm10.165,-4.589c0,0.627 -0.507,1.134 -1.133,1.134c-0.627,0 -1.134,-0.507 -1.134,-1.134l0,-19.693c0,-0.626 0.507,-1.134 1.134,-1.134c0.626,0 1.133,0.508 1.133,1.134l0,19.693Zm10.165,4.589c0,0.627 -0.507,1.134 -1.133,1.134c-0.627,0 -1.134,-0.507 -1.134,-1.134l0,-24.282c0,-0.626 0.507,-1.134 1.134,-1.134c0.626,0 1.133,0.508 1.133,1.134l0,24.282Zm10.166,4.59c0,0.626 -0.508,1.134 -1.134,1.134c-0.626,0 -1.134,-0.508 -1.134,-1.134l0,-28.872c0,-0.626 0.508,-1.134 1.134,-1.134c0.626,0 1.134,0.508 1.134,1.134l0,28.872Z" style="fill:#98d7da;fill-rule:nonzero;"/><rect x="473.686" y="100.825" width="98.094" height="3.586" style="fill:#98d7da;"/><rect x="473.685" y="184.93" width="98.095" height="3.586" style="fill:#98d7da;"/><rect x="519.742" y="110.763" width="9.308" height="19.881" style="fill:#98d7da;"/><rect x="491.211" y="110.763" width="9.308" height="19.881" style="fill:#98d7da;"/><rect x="548.273" y="154.515" width="9.308" height="19.881" style="fill:#98d7da;"/><rect x="519.742" y="154.515" width="9.308" height="19.881" style="fill:#98d7da;"/><rect x="491.211" y="154.515" width="9.308" height="19.881" style="fill:#98d7da;"/><rect x="548.273" y="198.267" width="9.308" height="31.285" style="fill:#98d7da;"/><rect x="491.211" y="198.267" width="37.839" height="31.285" style="fill:#98d7da;"/><rect x="548.273" y="110.763" width="9.308" height="19.881" style="fill:#98d7da;"/><path d="M493.03,200.409c0.018,1.417 -1.166,2.579 -2.573,2.579c-1.421,0 -2.573,-1.152 -2.573,-2.573l0,-6.674l5.146,0l0,6.668Z" style="fill:#fff;"/><path d="M498.175,200.409c0.019,1.417 -1.165,2.579 -2.573,2.579c-1.421,0 -2.572,-1.152 -2.572,-2.573l0,-6.674l5.145,0l0,6.668Z" style="fill:#98d7da;"/><path d="M503.321,200.409c0.019,1.417 -1.166,2.579 -2.573,2.579c-1.421,0 -2.573,-1.152 -2.573,-2.573l0,-6.674l5.146,0l0,6.668Z" style="fill:#fff;"/><path d="M508.467,200.409c0.019,1.417 -1.166,2.579 -2.573,2.579c-1.421,0 -2.573,-1.152 -2.573,-2.573l0,-6.674l5.146,0l0,6.668Z" style="fill:#98d7da;"/><path d="M513.613,200.409c0.018,1.417 -1.166,2.579 -2.573,2.579c-1.421,0 -2.573,-1.152 -2.573,-2.573l0,-6.674l5.146,0l0,6.668Z" style="fill:#fff;"/><path d="M518.759,200.409c0.018,1.417 -1.166,2.579 -2.573,2.579c-1.421,0 -2.573,-1.152 -2.573,-2.573l0,-6.674l5.146,0l0,6.668Z" style="fill:#98d7da;"/><path d="M523.904,200.409c0.019,1.417 -1.165,2.579 -2.572,2.579c-1.421,0 -2.573,-1.152 -2.573,-2.573l0,-6.674l5.145,0l0,6.668Z" style="fill:#fff;"/><path d="M529.05,200.409c0.019,1.417 -1.166,2.579 -2.573,2.579c-1.421,0 -2.573,-1.152 -2.573,-2.573l0,-6.674l5.146,0l0,6.668Z" style="fill:#98d7da;"/><path d="M497.042,193.741c0,-0.626 0.507,-1.134 1.133,-1.134c0.627,0 1.134,0.508 1.134,1.134l0,6.701l0.001,0l0,0.01c0.009,0.382 0.168,0.729 0.42,0.98c0.261,0.26 0.621,0.422 1.018,0.422l0,0.004l0.021,0c0.384,-0.005 0.741,-0.169 1.003,-0.43c0.255,-0.254 0.415,-0.603 0.415,-0.986l0,-0.027l0,-0.006l0,-6.668c0,-0.626 0.508,-1.134 1.134,-1.134c0.626,0 1.134,0.508 1.134,1.134l0,6.674c0,0.397 0.161,0.757 0.421,1.017c0.26,0.26 0.62,0.422 1.018,0.422l0,0.004l0.02,0c0.385,-0.005 0.742,-0.169 1.004,-0.43c0.255,-0.254 0.415,-0.603 0.415,-0.986l0,-0.027l0,-0.006l0,-6.668c0,-0.626 0.508,-1.134 1.134,-1.134c0.626,0 1.134,0.508 1.134,1.134l0,6.674c0,0.397 0.161,0.757 0.421,1.017l-0.002,0.002l0.002,0.003c0.258,0.257 0.618,0.417 1.018,0.417l0,0.004l0.02,0c0.385,-0.005 0.742,-0.169 1.004,-0.43c0.255,-0.254 0.415,-0.603 0.415,-0.986l0,-0.021l0,-0.012l0,-6.668c0,-0.626 0.508,-1.134 1.134,-1.134c0.626,0 1.133,0.508 1.133,1.134l0,6.659l0.001,0.015c0,0.377 0.143,0.719 0.376,0.975l0.045,0.042c0.26,0.26 0.62,0.422 1.018,0.422l0,0.004l0.02,0c0.385,-0.005 0.742,-0.169 1.004,-0.43c0.255,-0.254 0.415,-0.603 0.415,-0.986l0,-0.021l0,-0.012l0,-6.668c0,-0.626 0.507,-1.134 1.134,-1.134c0.625,0 1.133,0.508 1.133,1.134l0,6.674c0,0.377 0.143,0.719 0.377,0.975l0.045,0.042c0.26,0.26 0.62,0.422 1.017,0.422l0,0.004l0.02,0c0.385,-0.005 0.742,-0.169 1.005,-0.43c0.251,-0.25 0.41,-0.592 0.415,-0.969l0,-0.018l0,-0.026l0,-0.006l0,-6.668c0,-0.626 0.507,-1.134 1.134,-1.134c0.625,0 1.133,0.508 1.133,1.134l0,6.674c0,0.377 0.143,0.719 0.377,0.975l0.045,0.042c0.26,0.26 0.62,0.422 1.017,0.422l0,0.004l0.02,0c0.385,-0.005 0.742,-0.169 1.004,-0.43c0.256,-0.254 0.416,-0.603 0.416,-0.987l0.004,0l0,-0.028c-0.003,-0.624 0.501,-1.132 1.125,-1.134c0.624,-0.002 1.132,0.502 1.134,1.125l0,0.037l0.005,0c0,1.009 -0.42,1.924 -1.089,2.59c-0.662,0.659 -1.576,1.073 -2.572,1.086l-0.009,0l-0.033,0l-0.005,0l0,0.004c-1,0 -1.909,-0.397 -2.576,-1.042c-0.658,0.631 -1.551,1.026 -2.523,1.038l-0.009,0l-0.033,0l-0.005,0l0,0.004c-1,0 -1.909,-0.397 -2.576,-1.042c-0.657,0.631 -1.55,1.025 -2.522,1.038l-0.009,0l-0.034,0l-0.004,0l0,0.004c-1.001,0 -1.91,-0.397 -2.577,-1.042c-0.657,0.631 -1.55,1.025 -2.522,1.038l-0.009,0l-0.034,0l-0.004,0l0,0.004c-0.997,0 -1.905,-0.397 -2.574,-1.044c-0.658,0.632 -1.552,1.027 -2.525,1.04l-0.009,0l-0.034,0l-0.004,0l0,0.004c-1.001,0 -1.91,-0.397 -2.576,-1.042c-0.658,0.631 -1.551,1.025 -2.523,1.038l-0.009,0l-0.034,0l-0.004,0l0,0.004c-1.001,0 -1.909,-0.397 -2.576,-1.042c-0.658,0.631 -1.551,1.025 -2.523,1.038l-0.009,0l-0.033,0l-0.005,0l0,0.004c-1,0 -1.909,-0.397 -2.576,-1.042c-0.658,0.631 -1.551,1.025 -2.523,1.038l-0.009,0l-0.033,0l-0.004,0l0,0.004c-1.02,0 -1.946,-0.415 -2.619,-1.088l-0.002,0.003c-0.671,-0.671 -1.086,-1.598 -1.086,-2.621c0,-0.627 0.508,-1.134 1.134,-1.134c0.626,0 1.134,0.507 1.134,1.134c0,0.397 0.161,0.757 0.421,1.017l-0.002,0.002l0.002,0.003c0.258,0.257 0.617,0.417 1.018,0.417l0,0.004l0.02,0c0.384,-0.005 0.742,-0.169 1.004,-0.43c0.251,-0.25 0.41,-0.592 0.415,-0.969l0,-0.017l0,-0.027l0,-0.006l0,-6.668c0,-0.626 0.507,-1.134 1.134,-1.134c0.626,0 1.134,0.508 1.134,1.134l0,6.674c0,0.377 0.142,0.719 0.376,0.975l0.045,0.042c0.26,0.26 0.62,0.422 1.017,0.422l0,0.004l0.02,0c0.385,-0.005 0.742,-0.169 1.005,-0.43c0.251,-0.25 0.41,-0.592 0.415,-0.969l0,-0.017l-0.001,-0.027l0.001,-0.015l0,-6.659Z" style="fill:#432d61;fill-rule:nonzero;"/><path d="M530.184,233.72c0,0.626 -0.508,1.134 -1.134,1.134c-0.626,0 -1.134,-0.508 -1.134,-1.134l0,-3.034l-7.76,0l-0.014,0l-0.015,0l-23.321,0l-0.014,0l-0.015,0l-7.759,0l0,3.034c0,0.626 -0.509,1.134 -1.134,1.134c-0.627,0 -1.134,-0.508 -1.134,-1.134l0,-4.154l-0.001,-0.014l0.001,-0.015l0,-9.229l-0.001,-0.014l0.001,-0.015l0,-26.538c0,-0.626 0.507,-1.134 1.134,-1.134l41.166,0c0.626,0 1.134,0.508 1.134,1.134l0,39.979Zm26.263,-3.034l-10.367,0l0,3.034c0,0.626 -0.508,1.134 -1.134,1.134c-0.626,0 -1.134,-0.508 -1.134,-1.134l0,-4.168l0,-9.258l0,-26.553c0,-0.626 0.508,-1.134 1.134,-1.134l12.635,0c0.626,0 1.134,0.508 1.134,1.134l0,39.979c0,0.626 -0.508,1.134 -1.134,1.134c-0.626,0 -1.134,-0.508 -1.134,-1.134l0,-3.034Zm-8.174,-2.268l8.174,0l0,-6.99l-8.174,0l0,6.99Zm0,-9.258l8.174,0l0,-20.893l-8.174,0l0,20.893Zm-67.335,-133.72l-6.119,0l0,4.625l6.119,0l0,-4.625Zm-6.119,-2.267l6.119,0l0,-28.589l0,-5.759l-6.119,0l0,34.348Zm-2.267,6.892l0,-5.759l0,-36.615c0,-0.626 0.508,-1.134 1.133,-1.134l8.387,0c0.626,0 1.134,0.508 1.134,1.134l0,5.759l79.053,0l0,-5.759c0,-0.626 0.508,-1.134 1.134,-1.134l8.386,0c0.626,0 1.134,0.508 1.134,1.134l0,42.374l0.869,0c0.626,0 1.134,0.508 1.134,1.134l0,5.787c0,0.626 -0.508,1.134 -1.134,1.134l-0.869,0l0,79.888l0.869,0c0.626,0 1.134,0.508 1.134,1.134l0,5.788c0,0.626 -0.508,1.134 -1.134,1.134l-0.869,0l0,47.656c0,0.626 -0.508,1.134 -1.134,1.134c-0.626,0 -1.134,-0.508 -1.134,-1.134l0,-47.656l-95.826,0l0,47.656c0,0.626 -0.507,1.134 -1.134,1.134c-0.625,0 -1.133,-0.508 -1.133,-1.134l0,-47.656l-0.87,0c-0.626,0 -1.133,-0.508 -1.133,-1.134l0,-5.788c0,-0.626 0.507,-1.134 1.133,-1.134l0.87,0l0,-77.183l0,-2.705l-0.87,0c-0.626,0 -1.133,-0.508 -1.133,-1.134l0,-5.787c0,-0.626 0.507,-1.134 1.133,-1.134l0.87,0Zm10.654,-34.347l0,34.347l16.179,0l0,-5.759c0,-0.484 0.304,-0.898 0.731,-1.06l22.151,-10c0.308,-0.139 0.645,-0.129 0.93,0l0.007,0.003l0.006,0.002l22.201,10.023c0.419,0.189 0.667,0.601 0.667,1.032l0.002,0l0,5.759l16.179,0l0,-5.759l0,-28.588l-79.053,0Zm81.321,27.454l6.118,0l0,-34.347l-6.118,0l0,34.347Zm6.118,2.268l-6.118,0l0,4.625l6.118,0l0,-4.625Zm-26.833,4.625l0,-5.029l-21.08,-9.516l-21.08,9.516l0,5.029l42.16,0Zm4.461,30.385l8.174,0l0,-9.687l-8.174,0l0,9.687Zm8.174,2.268l-8.174,0l0,6.792l8.174,0l0,-6.792Zm1.134,9.06l-12.635,0c-0.626,0 -1.134,-0.508 -1.134,-1.134l0,-9.06l0,-15.347c0,-0.626 0.508,-1.134 1.134,-1.134l12.635,0c0.626,0 1.134,0.508 1.134,1.134l0,24.407c0,0.626 -0.508,1.134 -1.134,1.134Zm-37.839,-11.328l8.174,0l0,-9.687l-8.174,0l0,9.687Zm8.174,2.268l-8.174,0l0,6.792l8.174,0l0,-6.792Zm1.134,9.06l-12.635,0c-0.626,0 -1.134,-0.508 -1.134,-1.134l0,-9.06l0,-15.347c0,-0.626 0.508,-1.134 1.134,-1.134l12.635,0c0.626,0 1.134,0.508 1.134,1.134l0,24.407c0,0.626 -0.508,1.134 -1.134,1.134Zm-37.839,-11.328l8.174,0l0,-9.687l-8.174,0l0,9.687Zm8.174,2.268l-8.174,0l0,6.792l8.174,0l0,-6.792Zm1.134,9.06l-12.636,0c-0.626,0 -1.134,-0.508 -1.134,-1.134l0,-9.06l0,-15.347c0,-0.626 0.508,-1.134 1.134,-1.134l12.636,0c0.626,0 1.134,0.508 1.134,1.134l0,24.407c0,0.626 -0.508,1.134 -1.134,1.134Zm48.433,14.023l-4.937,0l0.449,3.054l13.6,0l0.448,-3.054l-4.937,0c-0.626,0 -1.134,-0.508 -1.134,-1.134l0,-0.668l-2.355,0l0,0.668c0,0.626 -0.507,1.134 -1.134,1.134Zm-5.14,5.321l-0.326,0l0,-0.001c-0.554,0.001 -1.039,-0.405 -1.121,-0.969l-0.773,-5.264c-0.014,-0.072 -0.022,-0.145 -0.022,-0.221c0,-0.626 0.508,-1.134 1.134,-1.134l5.115,0l0,-0.668c0,-0.626 0.507,-1.134 1.133,-1.134l4.623,0c0.626,0 1.134,0.508 1.134,1.134l0,0.668l5.115,0c0.625,0 1.133,0.508 1.133,1.134c0,0.076 -0.007,0.149 -0.021,0.221l-0.773,5.264c-0.083,0.564 -0.567,0.97 -1.121,0.969l0,0.001l-0.327,0l0,23.274c0,0.626 -0.508,1.134 -1.134,1.134l-12.635,0c-0.626,0 -1.134,-0.508 -1.134,-1.134l0,-9.06l0,-14.214Zm4.461,13.08l8.174,0l0,-9.687l-8.174,0l0,9.687Zm8.174,2.267l-8.174,0l0,6.793l8.174,0l0,-6.793Zm-36.705,-2.267l8.174,0l0,-9.687l-8.174,0l0,9.687Zm8.174,2.267l-8.174,0l0,6.793l8.174,0l0,-6.793Zm1.134,9.061l-12.635,0c-0.626,0 -1.134,-0.508 -1.134,-1.134l0,-9.06l0,-14.214l-0.327,0l0,-0.001c-0.553,0.001 -1.038,-0.405 -1.12,-0.969l-0.774,-5.264c-0.014,-0.072 -0.021,-0.145 -0.021,-0.221c0,-0.626 0.508,-1.134 1.134,-1.134l5.114,0l0,-0.668c0,-0.626 0.508,-1.134 1.134,-1.134l4.902,0c0.626,0 1.134,0.508 1.134,1.134l0,0.668l4.835,0c0.626,0 1.134,0.508 1.134,1.134c0,0.076 -0.008,0.149 -0.022,0.221l-0.773,5.264c-0.082,0.564 -0.567,0.97 -1.12,0.969l0,0.001l-0.327,0l0,23.274c0,0.626 -0.508,1.134 -1.134,1.134Zm-12.635,-26.675l13.118,0l0.448,-3.054l-4.658,0c-0.626,0 -1.134,-0.508 -1.134,-1.134l0,-0.668l-2.634,0l0,0.668c0,0.626 -0.508,1.134 -1.134,1.134l-4.937,0l0.448,3.054l0.483,0Zm-25.204,24.407l8.174,0l0,-6.793l-8.174,0l0,6.793Zm8.174,-9.06l0,-9.687l-8.174,0l0,9.687l8.174,0Zm-6.362,-19.535c0,0.626 -0.507,1.134 -1.133,1.134l-4.938,0l0.449,3.054l13.6,0l0.449,-3.054l-4.938,0c-0.626,0 -1.134,-0.508 -1.134,-1.134l0,-0.668l-2.355,0l0,0.668Zm-6.274,6.455l-0.326,0l0,-0.001c-0.554,0.001 -1.039,-0.405 -1.121,-0.969l-0.773,-5.264c-0.014,-0.072 -0.021,-0.145 -0.021,-0.221c0,-0.626 0.507,-1.134 1.133,-1.134l5.115,0l0,-0.668c0,-0.626 0.508,-1.134 1.134,-1.134l4.622,0c0.626,0 1.134,0.508 1.134,1.134l0,0.668l5.115,0c0.626,0 1.134,0.508 1.134,1.134c0,0.076 -0.008,0.149 -0.022,0.221l-0.773,5.264c-0.082,0.564 -0.567,0.97 -1.121,0.969l0,0.001l-0.326,0l0,23.274c0,0.626 -0.508,1.134 -1.134,1.134l-12.636,0c-0.626,0 -1.134,-0.508 -1.134,-1.134l0,-9.06l0,-14.214Zm83.896,-49.163l-95.826,0l0,76.049l95.826,0l0,-76.049Zm-95.826,-2.268l95.826,0l0,-1.571l-95.826,0l0,1.571Zm-2.003,-3.839l99.832,0l0,-3.52l-0.869,0l-8.386,0l-18.447,0l-44.428,0l-18.446,0l-8.387,0l-0.869,0l0,3.52Zm0,87.944l99.832,0l0,-3.52l-0.869,0l-98.094,0l-0.869,0l0,3.52Zm46.192,44.622l0,-6.99l-21.082,0l0,6.99l21.082,0Zm0,-9.258l0,-16.464c0,-0.625 0.508,-1.133 1.134,-1.133c0.626,0 1.134,0.508 1.134,1.133l0,16.464l6.64,0l0,-24.285l-38.898,0l0,8.204l2.192,0l0,16.081l4.448,0l0,-16.467c0,-0.626 0.508,-1.134 1.134,-1.134c0.626,0 1.134,0.508 1.134,1.134l0,16.467l21.082,0Zm2.268,2.268l0,6.99l6.64,0l0,-6.99l-6.64,0Zm-25.618,6.99l0,-6.99l-4.448,0l0,6.99l4.448,0Z" style="fill:#432d61;fill-rule:nonzero;"/><path d="M112.33,77.649l61.742,0l0,154.937l-116.564,0l0,-38.476l-9.321,0l0,38.299l-3.882,0l0,-38.299l-4,0l0,-21.901l17.203,0l0,-104.016l54.822,0l0,9.456Z" style="fill:#fff;"/><path d="M92.785,161.619c0.626,0 1.134,0.508 1.134,1.134c0,0.626 -0.508,1.134 -1.134,1.134l-15.456,0c-0.627,0 -1.134,-0.508 -1.134,-1.134c0,-0.626 0.507,-1.134 1.134,-1.134l15.456,0Zm-29.74,-66.192c0.627,0 1.134,0.508 1.134,1.134c0,0.626 -0.507,1.134 -1.134,1.134l-5.537,0c-0.626,0 -1.134,-0.508 -1.134,-1.134c0,-0.626 0.508,-1.134 1.134,-1.134l5.537,0Zm0,9.456c0.627,0 1.134,0.508 1.134,1.134c0,0.626 -0.507,1.134 -1.134,1.134l-5.537,0c-0.626,0 -1.134,-0.508 -1.134,-1.134c0,-0.626 0.508,-1.134 1.134,-1.134l5.537,0Zm0,9.456c0.627,0 1.134,0.508 1.134,1.134c0,0.626 -0.507,1.134 -1.134,1.134l-5.537,0c-0.626,0 -1.134,-0.508 -1.134,-1.134c0,-0.626 0.508,-1.134 1.134,-1.134l5.537,0Zm0,9.456c0.627,0 1.134,0.508 1.134,1.134c0,0.626 -0.507,1.134 -1.134,1.134l-5.537,0c-0.626,0 -1.134,-0.508 -1.134,-1.134c0,-0.626 0.508,-1.134 1.134,-1.134l5.537,0Zm0,9.456c0.627,0 1.134,0.508 1.134,1.134c0,0.626 -0.507,1.134 -1.134,1.134l-5.537,0c-0.626,0 -1.134,-0.508 -1.134,-1.134c0,-0.626 0.508,-1.134 1.134,-1.134l5.537,0Zm0,9.456c0.627,0 1.134,0.508 1.134,1.134c0,0.626 -0.507,1.134 -1.134,1.134l-5.537,0c-0.626,0 -1.134,-0.508 -1.134,-1.134c0,-0.626 0.508,-1.134 1.134,-1.134l5.537,0Zm0,9.456c0.627,0 1.134,0.508 1.134,1.134c0,0.626 -0.507,1.134 -1.134,1.134l-5.537,0c-0.626,0 -1.134,-0.508 -1.134,-1.134c0,-0.626 0.508,-1.134 1.134,-1.134l5.537,0Zm0,9.456c0.627,0 1.134,0.508 1.134,1.134c0,0.626 -0.507,1.134 -1.134,1.134l-5.537,0c-0.626,0 -1.134,-0.508 -1.134,-1.134c0,-0.626 0.508,-1.134 1.134,-1.134l5.537,0Zm29.74,-85.103c0.626,0 1.134,0.507 1.134,1.133c0,0.626 -0.508,1.134 -1.134,1.134l-35.277,0c-0.626,0 -1.134,-0.508 -1.134,-1.134c0,-0.626 0.508,-1.133 1.134,-1.133l35.277,0Zm0,9.455c0.626,0 1.134,0.508 1.134,1.134c0,0.626 -0.508,1.134 -1.134,1.134l-35.277,0c-0.626,0 -1.134,-0.508 -1.134,-1.134c0,-0.626 0.508,-1.134 1.134,-1.134l35.277,0Zm0,9.456c0.626,0 1.134,0.508 1.134,1.134c0,0.626 -0.508,1.134 -1.134,1.134l-15.456,0c-0.627,0 -1.134,-0.508 -1.134,-1.134c0,-0.626 0.507,-1.134 1.134,-1.134l15.456,0Zm0,9.456c0.626,0 1.134,0.508 1.134,1.134c0,0.626 -0.508,1.134 -1.134,1.134l-15.456,0c-0.627,0 -1.134,-0.508 -1.134,-1.134c0,-0.626 0.507,-1.134 1.134,-1.134l15.456,0Zm0,9.456c0.626,0 1.134,0.508 1.134,1.134c0,0.626 -0.508,1.134 -1.134,1.134l-15.456,0c-0.627,0 -1.134,-0.508 -1.134,-1.134c0,-0.626 0.507,-1.134 1.134,-1.134l15.456,0Zm0,9.456c0.626,0 1.134,0.508 1.134,1.134c0,0.626 -0.508,1.134 -1.134,1.134l-15.456,0c-0.627,0 -1.134,-0.508 -1.134,-1.134c0,-0.626 0.507,-1.134 1.134,-1.134l15.456,0Zm0,9.456c0.626,0 1.134,0.508 1.134,1.134c0,0.626 -0.508,1.134 -1.134,1.134l-15.456,0c-0.627,0 -1.134,-0.508 -1.134,-1.134c0,-0.626 0.507,-1.134 1.134,-1.134l15.456,0Zm0,9.456c0.626,0 1.134,0.508 1.134,1.134c0,0.626 -0.508,1.134 -1.134,1.134l-15.456,0c-0.627,0 -1.134,-0.508 -1.134,-1.134c0,-0.626 0.507,-1.134 1.134,-1.134l15.456,0Zm0,9.456c0.626,0 1.134,0.508 1.134,1.134c0,0.626 -0.508,1.134 -1.134,1.134l-15.456,0c-0.627,0 -1.134,-0.508 -1.134,-1.134c0,-0.626 0.507,-1.134 1.134,-1.134l15.456,0Z" style="fill:#98d7da;fill-rule:nonzero;"/><path d="M159.017,194.11l0,6.694l-81.688,0l0,31.782l-11.108,0l0,-31.782l-8.713,0l0,-6.694l101.509,0Z" style="fill:#98d7da;"/><rect x="66.221" y="100.881" width="11.108" height="71.328" style="fill:#98d7da;"/><rect x="115.506" y="100.881" width="43.511" height="89.059" style="fill:#98d7da;"/><path d="M115.506,171.839l43.512,-25.135l-0.001,11.983l-43.511,25.135l0,-11.983Z" style="fill:#def6f7;"/><path d="M115.506,187.234l43.511,-25.135l0,6.877l-36.291,20.964l-7.22,0l0,-2.706Z" style="fill:#def6f7;"/><path d="M94.052,204.863c-0.627,0 -1.134,-0.508 -1.134,-1.134c0,-0.626 0.507,-1.134 1.134,-1.134l3.08,0c0.626,0 1.134,0.508 1.134,1.134c0,0.117 -0.018,0.231 -0.051,0.337l-2.194,8.752c-0.152,0.606 -0.767,0.975 -1.374,0.824c-0.606,-0.152 -0.975,-0.767 -0.824,-1.373l1.857,-7.406l-1.628,0Zm-11.636,0c-0.626,0 -1.134,-0.508 -1.134,-1.134c0,-0.626 0.508,-1.134 1.134,-1.134l2.143,0c0.626,0 1.133,0.508 1.133,1.134l0,8.814c0,0.626 -0.507,1.134 -1.133,1.134c-0.627,0 -1.134,-0.508 -1.134,-1.134l0,-7.68l-1.009,0Zm6.505,-2.268l1.623,0c0.51,0 0.974,0.21 1.312,0.546l0.002,0.002l0.002,-0.002c0.337,0.337 0.546,0.804 0.546,1.316l0,7.357c0,0.514 -0.209,0.98 -0.546,1.317c-0.337,0.337 -0.803,0.546 -1.316,0.546l-1.623,0c-0.514,0 -0.98,-0.209 -1.317,-0.546c-0.031,-0.031 -0.06,-0.064 -0.087,-0.098c-0.285,-0.327 -0.459,-0.753 -0.459,-1.219l0,-7.357c0,-0.51 0.21,-0.974 0.546,-1.312l0.003,-0.002l-0.003,-0.002c0.337,-0.337 0.803,-0.546 1.317,-0.546Zm1.217,2.268l-0.812,0l0,6.546l0.812,0l0,-6.546Z" style="fill:#432d61;fill-rule:nonzero;"/><path d="M77.329,194.11l0,38.476l-11.108,0l0,-31.782l-3.176,0l0,-6.694l14.284,0Z" style="fill:#98d7da;"/><path d="M64.179,232.586c0,0.626 -0.507,1.133 -1.134,1.133c-0.626,0 -1.134,-0.507 -1.134,-1.133l0,-4.168l0,-24.689l0,-8.485l-3.269,0l0,37.342c0,0.626 -0.508,1.134 -1.134,1.134c-0.626,0 -1.133,-0.508 -1.133,-1.134l0,-37.342l-7.054,0l0,37.342c0,0.626 -0.508,1.134 -1.134,1.134c-0.626,0 -1.134,-0.508 -1.134,-1.134l0,-37.342l-1.614,0l0,37.342c0,0.626 -0.508,1.134 -1.134,1.134c-0.627,0 -1.134,-0.508 -1.134,-1.134l0,-37.342l-2.866,0c-0.626,0 -1.134,-0.508 -1.134,-1.134l0,-21.901c0,-0.626 0.508,-1.134 1.134,-1.134l16.07,0l0,-102.882c0,-0.626 0.507,-1.133 1.133,-1.133l54.822,0c0.626,0 1.134,0.507 1.134,1.133l0,8.323l60.608,0c0.626,0 1.133,0.507 1.133,1.133l0,154.937c0,0.626 -0.507,1.134 -1.133,1.134c-0.627,0 -1.134,-0.508 -1.134,-1.134l0,-153.803l-60.608,0l-14.064,0l0,93.426c0,0.626 -0.508,1.134 -1.134,1.134l-19.803,0l-14.284,0l-5.537,0l-16.069,0l0,19.633l117.579,0c0.626,0 1.133,0.508 1.133,1.134l0,38.476c0,0.626 -0.507,1.134 -1.133,1.134c-0.627,0 -1.134,-0.508 -1.134,-1.134l0,-8.485l-44.42,0l0,8.485c0,0.626 -0.508,1.134 -1.134,1.134c-0.626,0 -1.133,-0.508 -1.133,-1.134l0,-9.619l0,-9.619l0,-9.619l0,-8.485l-32.735,0l0,37.342c0,0.626 -0.507,1.133 -1.133,1.133c-0.627,0 -1.134,-0.507 -1.134,-1.133l0,-3.034l-9.974,0l0,4.167l-2.042,0l0,-1.133Zm94.838,-41.512l-9.417,0l-27.852,0l-9.418,0c-0.626,0 -1.133,-0.508 -1.133,-1.134l0,-46.099l0,-9.456l0,-37.824c0,-0.626 0.507,-1.134 1.133,-1.134l46.687,0c0.627,0 1.134,0.508 1.134,1.134l0,93.379c0,0.626 -0.507,1.134 -1.134,1.134Zm-43.511,-2.268l5.108,0l0,-43.831l-5.108,0l0,43.831Zm7.376,0l25.584,0l0,-16.597l0,-27.234l-25.584,0l0,43.831Zm27.852,0l7.15,0l0,-15.463l-7.15,0l0,15.463Zm7.15,-17.731l0,-26.1l-7.15,0l0,26.1l7.15,0Zm0,-28.368l0,-41.826l-7.15,0l0,41.826l7.15,0Zm-9.418,-41.826l-25.584,0l0,32.37l25.584,0l0,-32.37Zm-27.852,0l-5.108,0l0,32.37l5.108,0l0,-32.37Zm-5.108,34.638l0,7.188l5.108,0l0,-7.188l-5.108,0Zm32.96,0l-25.584,0l0,7.188l25.584,0l0,-7.188Zm-86.555,35.556l0,-36.69l0,-37.824c0,-0.626 0.508,-1.134 1.134,-1.134l14.284,0c0.626,0 1.133,0.508 1.133,1.134l0,74.514l17.536,0l0,-93.426c0,-0.626 0.507,-1.133 1.134,-1.133l14.065,0l0,-7.189l-52.555,0l0,101.748l3.269,0Zm14.284,0l0,-35.556l-9.974,0l0,35.556l9.974,0Zm0,-37.824l0,-32.37l-9.974,0l0,32.37l9.974,0Zm81.689,88.582l0,-7.351l-44.42,0l0,7.351l44.42,0Zm0,-9.619l0,-7.351l-44.42,0l0,7.351l44.42,0Zm0,-9.619l0,-7.351l-44.42,0l0,7.351l44.42,0Zm-91.663,-1.791l0,1.791l9.974,0l0,-1.791l-9.974,0Zm9.974,26.48l0,-22.421l-9.974,0l0,22.421l9.974,0Z" style="fill:#432d61;fill-rule:nonzero;"/><path d="M413.986,140.673l0,44.384l-8.321,0l0,31.585l1.707,0l0,17.078l-166.15,0l0,-17.078l1.708,0l0,-48.965l-9.731,7.333c-0.404,0.304 -0.983,0.222 -1.287,-0.181l-2.21,-2.934c-0.305,-0.403 -0.223,-0.982 0.18,-1.286l61.129,-46.065l21.403,16.129l15.862,0l0,-5.331l1.454,0l0,-10.394l-1.454,0l0,-4.231l1.454,0l0,-4.23l9.363,0l0,4.23l1.454,0l0,4.231l-1.454,0l0,10.394l1.454,0l0,5.331l73.439,0Z" style="fill:#fff;"/><path d="M329.527,152.714c0,0.626 -0.507,1.134 -1.134,1.134c-0.625,0 -1.133,-0.508 -1.133,-1.134l0,-5.708c0,-0.625 0.508,-1.133 1.133,-1.133c0.627,0 1.134,0.508 1.134,1.133l0,5.708Z" style="fill:#98d7da;fill-rule:nonzero;"/><path d="M318.828,144.651c0,0.626 -0.508,1.134 -1.134,1.134c-0.626,0 -1.134,-0.508 -1.134,-1.134l0,-3.978c0,-0.626 0.508,-1.134 1.134,-1.134c0.626,0 1.134,0.508 1.134,1.134l0,3.978Z" style="fill:#98d7da;fill-rule:nonzero;"/><path d="M404.421,175.164c0,0.626 -0.508,1.134 -1.133,1.134c-0.627,0 -1.134,-0.508 -1.134,-1.134l0,-34.491c0,-0.626 0.507,-1.134 1.134,-1.134c0.625,0 1.133,0.508 1.133,1.134l0,34.491Z" style="fill:#98d7da;fill-rule:nonzero;"/><path d="M393.722,175.164c0,0.626 -0.508,1.134 -1.134,1.134c-0.626,0 -1.133,-0.508 -1.133,-1.134l0,-34.491c0,-0.626 0.507,-1.134 1.133,-1.134c0.626,0 1.134,0.508 1.134,1.134l0,34.491Z" style="fill:#98d7da;fill-rule:nonzero;"/><path d="M383.023,175.164c0,0.626 -0.508,1.134 -1.134,1.134c-0.626,0 -1.133,-0.508 -1.133,-1.134l0,-34.491c0,-0.626 0.507,-1.134 1.133,-1.134c0.626,0 1.134,0.508 1.134,1.134l0,34.491Z" style="fill:#98d7da;fill-rule:nonzero;"/><path d="M372.324,175.164c0,0.626 -0.508,1.134 -1.134,1.134c-0.626,0 -1.134,-0.508 -1.134,-1.134l0,-34.491c0,-0.626 0.508,-1.134 1.134,-1.134c0.626,0 1.134,0.508 1.134,1.134l0,34.491Z" style="fill:#98d7da;fill-rule:nonzero;"/><path d="M361.625,175.164c0,0.626 -0.508,1.134 -1.134,1.134c-0.626,0 -1.134,-0.508 -1.134,-1.134l0,-34.491c0,-0.626 0.508,-1.134 1.134,-1.134c0.626,0 1.134,0.508 1.134,1.134l0,34.491Z" style="fill:#98d7da;fill-rule:nonzero;"/><path d="M350.926,168.839c0,0.626 -0.508,1.134 -1.134,1.134c-0.626,0 -1.134,-0.508 -1.134,-1.134l0,-28.166c0,-0.626 0.508,-1.134 1.134,-1.134c0.626,0 1.134,0.508 1.134,1.134l0,28.166Z" style="fill:#98d7da;fill-rule:nonzero;"/><path d="M340.227,160.777c0,0.626 -0.508,1.133 -1.134,1.133c-0.626,0 -1.134,-0.507 -1.134,-1.133l0,-13.771c0,-0.625 0.508,-1.133 1.134,-1.133c0.626,0 1.134,0.508 1.134,1.133l0,13.771Z" style="fill:#98d7da;fill-rule:nonzero;"/><path d="M292.636,146.641c4.545,0 8.23,3.685 8.23,8.23c0,4.545 -3.685,8.229 -8.23,8.229c-4.545,0 -8.229,-3.684 -8.229,-8.229c0,-4.545 3.684,-8.23 8.229,-8.23Zm113.029,38.416l0,5.674l-44.848,0l3.874,8.983l-3.316,4.4l-4.993,0l0,29.606l-15.582,0l0,-17.078l-1.707,0l0,-44.382l-15.88,-11.966l-21.737,16.379l0,27.023l-13.588,-32.277l3.123,4.144l10.465,-7.886l18.809,-14.173l18.808,14.113l9.731,7.393l3.316,-4.401l3.854,8.937l57.992,0l0,5.511l-8.321,0Zm-126.189,44.494l-11.37,0l0,-4.319l11.37,0l0,4.319Zm33.868,4.169l-7.364,0l0,-17.078l7.364,17.078Zm-5.657,-17.078l6.135,0l0,-22.176c2.032,-1.456 4.136,-2.539 6.321,-3.225l0,19.09l3.458,0l0,-19.832c2.947,-0.347 6.035,-0.001 9.281,1.097l0,-16.033c-9.575,-5.665 -17.86,-5.255 -25.195,0l0,41.079Zm-21.578,-6.311l-24.636,0l0,-29.693l24.636,0l0,29.693Zm-43.179,-42.654l48.081,-36.232l24.962,18.81l-3.094,2.332l-18.993,-14.312l-5.384,4.057c-2.156,0.622 -3.981,2.024 -5.15,3.881l-40.422,30.46l0,-8.996Z" style="fill:#98d7da;"/><path d="M278.342,225.232l0,3.185l-10.236,0l0,-3.185l10.236,0Zm35.247,-9.724l0,-34.828l13.391,0l0,34.828l-13.391,0Zm10.012,-4.043c0.626,0 1.134,-0.508 1.134,-1.134l0,-25.274c0,-0.626 -0.508,-1.134 -1.134,-1.134l-6.633,0c-0.626,0 -1.134,0.508 -1.134,1.134l0,25.274c0,0.626 0.508,1.134 1.134,1.134l6.633,0Zm-3.458,-2.268l-2.042,0l0,-17.19c0.673,-0.294 1.354,-0.55 2.042,-0.766l0,17.956Zm9.105,6.311l0,-35.962c0,-0.626 -0.508,-1.134 -1.134,-1.134l-15.659,0c-0.626,0 -1.134,0.508 -1.134,1.134l0,35.962l-2.5,0l0,-38.678c1.538,-1.312 3.271,-2.338 5.119,-3.048c1.999,-0.769 4.148,-1.172 6.345,-1.172c2.196,0 4.345,0.403 6.345,1.172c1.847,0.71 3.58,1.736 5.118,3.048l0,38.678l-2.5,0Zm-64.317,4.27c-0.627,0 -1.134,0.508 -1.134,1.134l0,8.639c0,0.627 0.507,1.134 1.134,1.134l14.545,0c0.626,0 1.133,-0.507 1.133,-1.134l0,-8.639c0,-0.626 -0.507,-1.134 -1.133,-1.134l-14.545,0Zm68.524,0l-26.342,0l0,-2.002l26.342,0l0,2.002Zm0,4.269l-26.342,0l0,-2.001l26.342,0l0,2.001Zm0,4.371l-26.342,0l0,-2.103l26.342,0l0,2.103Zm-69.658,-19.221l-2.324,0l0,-28.559l2.324,0l0,28.559Zm16.812,-28.559l4.366,0l0,28.559l-4.366,0l0,-28.559Zm-2.267,28.559l-12.277,0l0,-28.559l12.277,0l0,28.559Zm-20.045,-34.013c-0.626,0 -1.134,0.508 -1.134,1.134l0,34.013c0,0.626 0.508,1.134 1.134,1.134l27.812,0c0.626,0 1.134,-0.508 1.134,-1.134l0,-34.013c0,-0.626 -0.508,-1.134 -1.134,-1.134l-6.633,0l-14.545,0l-6.634,0Zm32.668,-33.552c-2.585,0 -4.926,1.048 -6.621,2.742c-1.694,1.694 -2.742,4.036 -2.742,6.621c0,2.586 1.048,4.926 2.742,6.621c1.695,1.694 4.036,2.742 6.621,2.742c2.585,0 4.926,-1.048 6.621,-2.742c1.694,-1.695 2.742,-4.035 2.742,-6.621c0,-2.585 -1.048,-4.927 -2.742,-6.621c-1.695,-1.694 -4.036,-2.742 -6.621,-2.742Zm9.377,28.317l0,45.559l-0.573,0l-55.705,0l0,-47.268l46.947,-35.378l22.814,17.192l-26.078,19.651c-0.451,0.34 -0.722,0.834 -0.795,1.355c-0.073,0.519 0.052,1.067 0.392,1.518l2.211,2.933c0.339,0.451 0.833,0.721 1.354,0.795c0.519,0.072 1.067,-0.052 1.518,-0.392l7.915,-5.965Zm39.137,-3.398l-18.512,-13.951c-0.42,-0.316 -0.989,-0.296 -1.383,0.014l-18.738,14.12c-0.035,0.024 -0.069,0.049 -0.101,0.076l-9.511,7.168l-1.954,-2.594l27.096,-20.418l0.025,-0.018l3.884,-2.927l31.004,23.364l-1.954,2.593l-9.325,-7.027c-0.132,-0.181 -0.316,-0.322 -0.531,-0.4Zm-5.886,8.884c-1.815,-1.627 -3.905,-2.895 -6.157,-3.761c-2.272,-0.873 -4.695,-1.332 -7.151,-1.332c-2.458,0 -4.88,0.459 -7.152,1.332c-2.251,0.866 -4.342,2.134 -6.157,3.761c-0.258,0.208 -0.422,0.526 -0.422,0.883l0,39.19l-0.574,0l-3.37,0l0,-47.268l17.675,-13.319l17.674,13.319l0,47.268l-3.37,0l-0.573,0l0,-39.19c0,-0.357 -0.165,-0.675 -0.423,-0.883Zm60.473,30.586l-43.375,0l0,-11.015l43.375,0l0,11.015Zm0,13.283l-43.375,0l0,-2.662l0,-8.353l43.375,0l0,11.015Zm18.787,-38.624l0,3.243l-7.188,0l-65.438,0l0,-3.243l72.626,0Zm-8.322,5.511l0,29.317l-8.197,0l0,-8.353l0,-13.283c0,-0.626 -0.508,-1.134 -1.134,-1.134l-45.643,0c-0.625,0 -1.133,0.508 -1.133,1.134l0,21.636l-7.624,0l-0.573,0l0,-29.317l64.304,0Zm-75.121,-62.377l0,-1.963l10.003,0l0,1.963l-0.32,0l-9.363,0l-0.32,0Zm8.549,-4.23l-7.095,0l0,-1.963l7.095,0l0,1.963Zm1.454,16.892l0,9.397l-10.003,0l0,-5.2l0,-4.197l10.003,0Zm-1.454,-2.268l-7.095,0l0,-8.127l7.095,0l0,8.127Zm-26.177,7.406l6.622,4.99l-2.698,2.032l-24.013,-18.095c-0.419,-0.316 -0.988,-0.296 -1.382,0.014l-48.014,36.181c-0.033,0.023 -0.065,0.047 -0.095,0.072l-9.514,7.169l-1.954,-2.593l60.277,-45.422l20.674,15.579c0.031,0.026 0.063,0.05 0.097,0.073Zm4.018,0.193l11.342,0l0,5.199c0,0.627 0.508,1.134 1.134,1.134l12.271,0c0.626,0 1.134,-0.507 1.134,-1.134l0,-5.199l71.172,0l0,36.605l-72.626,0l0,-8.463l7.915,5.965c0.451,0.34 0.999,0.464 1.517,0.392c0.522,-0.074 1.016,-0.344 1.355,-0.795l2.211,-2.933l-0.002,-0.002l0.002,-0.003c0.339,-0.45 0.465,-0.997 0.392,-1.513c-0.073,-0.522 -0.344,-1.015 -0.795,-1.355l-31.837,-23.991l-0.018,-0.014l-0.008,-0.005l-5.159,-3.888Zm-31.331,12.047c0.501,-4.065 3.966,-7.213 8.167,-7.213c1.821,0 3.504,0.593 4.867,1.594l0.001,-0.001c0.358,0.849 0.556,1.782 0.556,2.761c0,1.959 -0.794,3.734 -2.077,5.017c-1.284,1.284 -3.058,2.079 -5.018,2.079c-1.96,0 -3.734,-0.795 -5.018,-2.079c-0.617,-0.617 -1.121,-1.348 -1.478,-2.158Zm-42.113,79.866l0,-15.944l56.279,0l0,15.944c0,0.626 0.507,1.134 1.134,1.134c0.625,0 1.133,-0.508 1.133,-1.134l0,-15.944l3.943,0l0,15.944c0,0.626 0.508,1.134 1.135,1.134c0.626,0 1.133,-0.508 1.133,-1.134l0,-3.034l26.342,0l0,3.034c0,0.626 0.508,1.134 1.134,1.134c0.627,0 1.134,-0.508 1.134,-1.134l0,-4.168l0,-4.371l0,-4.269l0,-3.136l3.943,0l0,15.944c0,0.626 0.508,1.134 1.134,1.134c0.626,0 1.134,-0.508 1.134,-1.134l0,-15.944l6.49,0l0,15.944c0,0.626 0.508,1.134 1.133,1.134c0.627,0 1.134,-0.508 1.134,-1.134l0,-12.148l43.375,0l0,12.148c0,0.626 0.508,1.134 1.134,1.134c0.626,0 1.134,-0.508 1.134,-1.134l0,-13.282l0,-2.662l9.904,0l0,15.944c0,0.626 0.508,1.134 1.134,1.134c0.626,0 1.134,-0.508 1.134,-1.134l0,-17.078c0,-0.626 -0.508,-1.134 -1.134,-1.134l-0.573,0l0,-29.317l7.187,0c0.627,0 1.134,-0.508 1.134,-1.134l0,-5.511l0,-38.873c0,-0.626 -0.507,-1.134 -1.134,-1.134l-72.305,0l0,-4.197c0,-0.626 -0.508,-1.134 -1.134,-1.134l-0.32,0l0,-8.127l0.32,0c0.626,0 1.134,-0.507 1.134,-1.133l0,-4.231c0,-0.626 -0.508,-1.133 -1.134,-1.133l-0.32,0l0,-3.097c0,-0.626 -0.508,-1.134 -1.134,-1.134l-9.363,0c-0.626,0 -1.134,0.508 -1.134,1.134l0,3.097l-0.32,0c-0.626,0 -1.134,0.507 -1.134,1.133l0,4.231c0,0.626 0.508,1.133 1.134,1.133l0.32,0l0,8.127l-0.32,0c-0.626,0 -1.134,0.508 -1.134,1.134l0,4.197l-14.352,0l-21.079,-15.884c-0.394,-0.311 -0.963,-0.331 -1.382,-0.014l-61.129,46.064c-0.45,0.339 -0.721,0.833 -0.794,1.355c-0.073,0.518 0.052,1.066 0.392,1.517l2.211,2.934c0.339,0.45 0.833,0.721 1.354,0.794c0.519,0.073 1.066,-0.052 1.518,-0.392l7.915,-5.965l0,45.56l-0.574,0c-0.626,0 -1.134,0.508 -1.134,1.134l0,17.078c0,0.626 0.508,1.134 1.134,1.134c0.626,0 1.134,-0.508 1.134,-1.134Zm78.832,-87.798c-0.06,-0.08 -0.128,-0.149 -0.203,-0.208l0.203,0.208Zm-29.273,-22.06c-0.06,-0.079 -0.129,-0.148 -0.204,-0.207l0.204,0.207Z" style="fill:#432d61;fill-rule:nonzero;"/><path d="M318.101,192.007c0.673,-0.294 1.354,-0.55 2.042,-0.766l0,17.956l-2.042,0l0,-17.19Z" style="fill:#98d7da;fill-rule:nonzero;"/><path d="M152.259,48.825c-0.626,0 -1.134,-0.508 -1.134,-1.134c0,-0.626 0.508,-1.134 1.134,-1.134l33.754,0c0.626,0 1.134,0.508 1.134,1.134c0,0.626 -0.508,1.134 -1.134,1.134l-33.754,0Zm255.406,0c-0.627,0 -1.134,-0.508 -1.134,-1.134c0,-0.626 0.507,-1.134 1.134,-1.134l26.109,0c0.626,0 1.134,0.508 1.134,1.134c0,0.626 -0.508,1.134 -1.134,1.134l-26.109,0Zm-56.797,-11.827c1.496,-5.737 5.234,-9.716 9.547,-11.6c2.14,-0.935 4.423,-1.354 6.648,-1.219c2.245,0.137 4.433,0.838 6.362,2.144c3.399,2.301 5.961,6.465 6.534,12.7c1.664,-1.327 3.724,-2.289 5.894,-2.803l0.052,-0.011c2.334,-0.545 4.813,-0.577 7.079,0.01c2.335,0.604 4.439,1.863 5.934,3.888c1.383,1.873 2.229,4.375 2.229,7.584c0,0.626 -0.508,1.134 -1.134,1.134l-65.622,0c-0.626,0 -1.134,-0.508 -1.134,-1.134l0.001,-0.033c-0.191,-4.279 0.88,-7.651 2.753,-9.929c0.851,-1.034 1.861,-1.842 2.989,-2.405c1.127,-0.564 2.376,-0.885 3.704,-0.95c2.543,-0.123 5.366,0.714 8.164,2.624Zm10.45,-9.527c-4.1,1.791 -7.607,5.811 -8.599,11.678l-0.001,0c-0.031,0.189 -0.112,0.373 -0.242,0.532c-0.396,0.481 -1.108,0.551 -1.59,0.154c-2.804,-2.305 -5.628,-3.32 -8.076,-3.202c-1.003,0.049 -1.946,0.293 -2.8,0.719c-0.853,0.426 -1.614,1.034 -2.254,1.812c-1.39,1.69 -2.237,4.189 -2.258,7.393l63.339,0c-0.163,-2.143 -0.793,-3.827 -1.735,-5.103c-1.165,-1.579 -2.829,-2.567 -4.685,-3.047c-1.897,-0.492 -4,-0.459 -6.001,0.008l-0.041,0.011c-2.631,0.623 -5.046,1.988 -6.534,3.888c-0.207,0.264 -0.529,0.434 -0.891,0.434c-0.623,0 -1.129,-0.506 -1.129,-1.13c-0.024,-6.838 -2.387,-11.208 -5.663,-13.426c-1.577,-1.067 -3.375,-1.641 -5.228,-1.754c-1.873,-0.114 -3.8,0.242 -5.612,1.033Zm-33.453,21.354l-0.001,0l-16.768,0c-0.617,0 -1.119,-0.493 -1.133,-1.107c-0.376,-3.891 1.118,-6.537 3.436,-7.993c1.118,-0.703 2.424,-1.114 3.798,-1.241c1.344,-0.126 2.752,0.02 4.105,0.429c3.588,1.082 6.86,3.994 7.679,8.579c0.11,0.616 -0.3,1.206 -0.916,1.316c-0.068,0.011 -0.134,0.017 -0.2,0.017Zm-15.696,-2.268l14.237,0c-0.977,-2.873 -3.269,-4.725 -5.751,-5.474c-1.088,-0.328 -2.204,-0.447 -3.255,-0.349c-1.022,0.095 -1.984,0.394 -2.797,0.904c-1.444,0.908 -2.427,2.531 -2.434,4.919Zm-89.298,-23.005c-0.626,0 -1.133,-0.508 -1.133,-1.134c0,-0.626 0.507,-1.134 1.133,-1.134l11.033,0c1.061,-2.978 2.908,-5.111 5.087,-6.407c1.738,-1.033 3.688,-1.53 5.621,-1.496c1.94,0.034 3.859,0.601 5.526,1.694c2.01,1.317 3.656,3.392 4.535,6.209l36.209,0c0.626,0 1.134,0.508 1.134,1.134c0,0.626 -0.508,1.134 -1.134,1.134l-46.023,0c-0.626,0 -1.134,-0.508 -1.134,-1.134c0,-0.626 0.508,-1.134 1.134,-1.134l7.422,0c-0.746,-1.935 -1.951,-3.375 -3.383,-4.313c-1.31,-0.859 -2.81,-1.304 -4.322,-1.331c-1.519,-0.027 -3.057,0.367 -4.434,1.186c-1.89,1.124 -3.478,3.059 -4.308,5.821c-0.105,0.516 -0.563,0.905 -1.11,0.905l-11.853,0Zm76.296,0c-0.626,0 -1.134,-0.508 -1.134,-1.134c0,-0.626 0.508,-1.134 1.134,-1.134l8.265,0c0.626,0 1.134,0.508 1.134,1.134c0,0.626 -0.508,1.134 -1.134,1.134l-8.265,0Zm-103.463,-9.605c-1.312,-5.593 -4.308,-9.081 -7.792,-10.669c-1.853,-0.844 -3.85,-1.155 -5.805,-0.962c-1.955,0.193 -3.873,0.895 -5.566,2.074c-3.269,2.277 -5.692,6.346 -5.952,12.004c-0.027,0.624 -0.555,1.108 -1.178,1.081c-0.357,-0.016 -0.668,-0.194 -0.864,-0.461c-1.71,-2.17 -4.154,-3.596 -6.685,-4.013c-1.157,-0.191 -2.332,-0.168 -3.459,0.093c-1.116,0.258 -2.188,0.752 -3.152,1.507c-1.714,1.343 -3.107,3.521 -3.85,6.683l61.663,0c-0.025,-3.175 -0.873,-5.658 -2.262,-7.347c-0.651,-0.791 -1.428,-1.411 -2.298,-1.845c-0.871,-0.434 -1.835,-0.682 -2.858,-0.732c-2.473,-0.119 -5.317,0.895 -8.122,3.202c-0.482,0.397 -1.194,0.327 -1.59,-0.155c-0.114,-0.138 -0.19,-0.297 -0.228,-0.461l-0.002,0.001Zm-6.853,-12.724c3.714,1.692 6.938,5.16 8.61,10.558c2.831,-1.951 5.702,-2.805 8.292,-2.679c1.347,0.065 2.615,0.391 3.76,0.962c1.146,0.571 2.172,1.39 3.034,2.439c1.874,2.277 2.947,5.633 2.758,9.882l0,0.033c0,0.626 -0.507,1.134 -1.134,1.134l-64.148,0l0,-0.003c-0.06,0 -0.121,-0.005 -0.182,-0.015c-0.616,-0.1 -1.034,-0.681 -0.934,-1.297c0.74,-4.5 2.589,-7.564 4.953,-9.416c1.237,-0.969 2.61,-1.603 4.038,-1.933c1.416,-0.328 2.885,-0.357 4.327,-0.119c2.29,0.376 4.517,1.43 6.358,3.025c0.819,-5.161 3.372,-8.971 6.665,-11.264c2.008,-1.399 4.295,-2.232 6.638,-2.464c2.343,-0.231 4.739,0.143 6.965,1.157Zm-97.972,38.166c-0.626,0 -1.134,-0.508 -1.134,-1.134c0,-0.626 0.508,-1.134 1.134,-1.134l14.985,0c1.16,-3.38 3.202,-5.797 5.612,-7.254c1.871,-1.13 3.964,-1.678 6.042,-1.647c2.082,0.031 4.145,0.644 5.95,1.836c2.241,1.478 4.081,3.837 5.058,7.065l3.503,0c0.626,0 1.134,0.508 1.134,1.134c0,0.626 -0.508,1.134 -1.134,1.134l-11.831,0c-0.626,0 -1.134,-0.508 -1.134,-1.134c0,-0.626 0.508,-1.134 1.134,-1.134l5.947,0c-0.848,-2.352 -2.249,-4.079 -3.917,-5.179c-1.439,-0.95 -3.081,-1.439 -4.736,-1.463c-1.66,-0.025 -3.338,0.417 -4.846,1.328c-2.131,1.288 -3.922,3.524 -4.85,6.719c-0.122,0.495 -0.569,0.863 -1.101,0.863l-15.816,0Zm48.723,0c-0.626,0 -1.134,-0.508 -1.134,-1.134c0,-0.626 0.508,-1.134 1.134,-1.134l24.847,0c0.626,0 1.134,0.508 1.134,1.134c0,0.626 -0.508,1.134 -1.134,1.134l-24.847,0Zm53.976,9.436c-0.626,0 -1.134,-0.508 -1.134,-1.134c0,-0.626 0.508,-1.134 1.134,-1.134l8.469,0c0.626,0 1.134,0.508 1.134,1.134c0,0.626 -0.508,1.134 -1.134,1.134l-8.469,0Z" style="fill:#432d61;fill-rule:nonzero;"/><path d="M1.134,234.854c-0.627,0 -1.134,-0.508 -1.134,-1.134c0,-0.626 0.507,-1.134 1.134,-1.134l609.691,0c0.627,0 1.134,0.508 1.134,1.134c0,0.626 -0.507,1.134 -1.134,1.134l-609.691,0Z" style="fill:#432d61;fill-rule:nonzero;"/></svg>