<?xml version="1.0" encoding="UTF-8" standalone="no"?><!DOCTYPE svg PUBLIC "-//W3C//DTD SVG 1.1//EN" "http://www.w3.org/Graphics/SVG/1.1/DTD/svg11.dtd"><svg width="100%" height="100%" viewBox="0 0 181 140" version="1.1" xmlns="http://www.w3.org/2000/svg" xmlns:xlink="http://www.w3.org/1999/xlink" xml:space="preserve" xmlns:serif="http://www.serif.com/" style="fill-rule:evenodd;clip-rule:evenodd;stroke-linejoin:round;stroke-miterlimit:1.41421;"><g><path d="M161.391,11.994l-2,0l0,-3.994c0,-3.308 -2.691,-6 -6,-6l0,-2c4.412,0 8,3.589 8,8l0,3.994Z" style="fill:#48515a;fill-rule:nonzero;"/><rect x="68.776" y="17.994" width="98.615" height="2" style="fill:#48515a;fill-rule:nonzero;"/><rect x="54.776" y="0" width="98.615" height="2" style="fill:#48515a;fill-rule:nonzero;"/><path d="M157.391,8l0,0.994l-90.618,0l0,3c0,2.206 4.209,4 2.004,4c-2.206,0 -4.001,-1.794 -4.001,-4l0,-3.994c0,-1.421 -0.298,-2.774 -0.835,-4l89.45,0c2.206,0 4,1.794 4,4Z" style="fill:#e1f5fc;fill-rule:nonzero;"/><rect x="100.74" y="103.957" width="29.082" height="2" style="fill:#48515a;fill-rule:nonzero;"/><rect x="100.823" y="107.873" width="20.999" height="2" style="fill:#48515a;fill-rule:nonzero;"/><path d="M106.822,124.873c-3.308,0 -6,-2.692 -6,-6c-0.001,-1.574 0.631,-3.073 1.779,-4.221c1.148,-1.147 2.647,-1.779 4.221,-1.779c3.309,0 6,2.692 6,6l0,2c0,0.552 0.448,1 0.999,1c0.552,0 1.001,-0.448 1.001,-1c0,-1.654 1.346,-3 2.999,-3c1.654,0 3.001,1.346 3.001,3c0,0.552 0.448,1 0.999,1c0.553,0 1,0.448 1,1c0,0.553 -0.447,1 -1,1c-1.653,0 -2.999,-1.345 -2.999,-3c0,-0.551 -0.448,-1 -1,-1c-0.552,0 -1,0.449 -1,1c0,1.655 -1.346,3 -3,3c-1.654,0 -3,-1.345 -3,-3l0,-2c0,-2.205 -1.795,-4 -4,-4c-1.04,0 -2.037,0.424 -2.807,1.194c-0.77,0.769 -1.193,1.766 -1.193,2.806c0,2.206 1.794,4 4,4c0.553,0 1,0.448 1,1c0,0.552 -0.447,1 -1,1Z" style="fill:#48515a;fill-rule:nonzero;"/><path d="M125.822,123.876c-0.069,0 -0.13,-0.011 -0.199,-0.02c-0.061,-0.011 -0.12,-0.03 -0.181,-0.06c-0.059,-0.02 -0.12,-0.05 -0.179,-0.09c-0.05,-0.04 -0.1,-0.08 -0.151,-0.13c-0.09,-0.09 -0.159,-0.2 -0.21,-0.32c-0.059,-0.121 -0.08,-0.25 -0.08,-0.38c0,-0.07 0,-0.13 0.021,-0.2c0.009,-0.061 0.03,-0.12 0.059,-0.19c0.021,-0.06 0.051,-0.11 0.091,-0.17c0.029,-0.05 0.079,-0.1 0.119,-0.15c0.051,-0.051 0.101,-0.09 0.151,-0.12c0.059,-0.04 0.12,-0.07 0.179,-0.1c0.061,-0.02 0.12,-0.041 0.181,-0.05c0.13,-0.031 0.269,-0.031 0.39,0c0.07,0.009 0.129,0.03 0.19,0.05c0.06,0.03 0.119,0.06 0.17,0.1c0.059,0.03 0.109,0.069 0.16,0.12c0.039,0.05 0.079,0.1 0.119,0.15c0.04,0.06 0.071,0.11 0.091,0.17c0.029,0.07 0.05,0.129 0.06,0.19c0.009,0.07 0.019,0.13 0.019,0.2c0,0.13 -0.029,0.259 -0.079,0.38c-0.051,0.12 -0.12,0.23 -0.21,0.32c-0.19,0.19 -0.45,0.3 -0.711,0.3Z" style="fill:#48515a;fill-rule:nonzero;"/><path d="M96.822,127.956c-0.269,0 -0.519,-0.111 -0.711,-0.29c-0.188,-0.19 -0.289,-0.45 -0.289,-0.71c0,-0.13 0.02,-0.26 0.07,-0.38c0.049,-0.12 0.13,-0.231 0.219,-0.33c0.371,-0.37 1.041,-0.37 1.422,0c0.09,0.099 0.159,0.21 0.21,0.33c0.05,0.12 0.079,0.25 0.079,0.38c0,0.26 -0.109,0.52 -0.289,0.71c-0.19,0.179 -0.45,0.29 -0.711,0.29Z" style="fill:#48515a;fill-rule:nonzero;"/><path d="M99.822,126.956c0,-0.551 0.45,-1 1,-1c0.551,0 1,0.449 1,1c0,0.55 -0.449,1 -1,1c-0.55,0 -1,-0.45 -1,-1Zm4,0c0,-0.551 0.45,-1 1,-1c0.551,0 1,0.449 1,1c0,0.55 -0.449,1 -1,1c-0.55,0 -1,-0.45 -1,-1Zm4,0c0,-0.551 0.45,-1 1,-1c0.551,0 1,0.449 1,1c0,0.55 -0.449,1 -1,1c-0.55,0 -1,-0.45 -1,-1Zm4,0c0,-0.551 0.45,-1 1,-1c0.551,0 1,0.449 1,1c0,0.55 -0.449,1 -1,1c-0.55,0 -1,-0.45 -1,-1Zm4,0c0,-0.551 0.45,-1 1,-1c0.551,0 1,0.449 1,1c0,0.55 -0.449,1 -1,1c-0.55,0 -1,-0.45 -1,-1Zm4,0c0,-0.551 0.45,-1 1,-1c0.551,0 1,0.449 1,1c0,0.55 -0.449,1 -1,1c-0.55,0 -1,-0.45 -1,-1Zm4,0c0,-0.551 0.45,-1 1,-1c0.551,0 1,0.449 1,1c0,0.55 -0.449,1 -1,1c-0.55,0 -1,-0.45 -1,-1Zm4,0c0,-0.551 0.45,-1 1,-1c0.551,0 1,0.449 1,1c0,0.55 -0.449,1 -1,1c-0.55,0 -1,-0.45 -1,-1Z" style="fill:#48515a;fill-rule:nonzero;"/><path d="M132.822,127.956c-0.269,0 -0.519,-0.111 -0.71,-0.29c-0.189,-0.19 -0.29,-0.44 -0.29,-0.71c0,-0.13 0.021,-0.26 0.07,-0.38c0.05,-0.12 0.13,-0.231 0.22,-0.33c0.231,-0.23 0.58,-0.33 0.901,-0.27c0.07,0.01 0.129,0.03 0.19,0.06c0.06,0.02 0.119,0.05 0.17,0.09c0.059,0.04 0.109,0.08 0.149,0.12c0.101,0.099 0.17,0.21 0.221,0.33c0.05,0.12 0.079,0.25 0.079,0.38c0,0.27 -0.109,0.52 -0.3,0.71c-0.179,0.179 -0.439,0.29 -0.7,0.29Z" style="fill:#48515a;fill-rule:nonzero;"/><rect x="100.825" y="99.957" width="8.999" height="2" style="fill:#e1f5fc;fill-rule:nonzero;"/><rect x="64.828" y="39.989" width="11.997" height="2" style="fill:#48515a;fill-rule:nonzero;"/><rect x="64.828" y="43.989" width="11.997" height="2" style="fill:#48515a;fill-rule:nonzero;"/><rect x="70.828" y="54.996" width="59.997" height="2" style="fill:#48515a;fill-rule:nonzero;"/><rect x="64.828" y="58.996" width="65.997" height="2" style="fill:#48515a;fill-rule:nonzero;"/><rect x="64.828" y="62.996" width="65.997" height="2" style="fill:#48515a;fill-rule:nonzero;"/><rect x="64.828" y="66.996" width="53.997" height="2" style="fill:#48515a;fill-rule:nonzero;"/><path d="M40.712,138.988l0,-2c3.372,0 6.116,-2.691 6.116,-6l-0.026,-72.999l2,-0.001l0.026,73c0,4.412 -3.641,8 -8.116,8Z" style="fill:#48515a;fill-rule:nonzero;"/><path d="M148.83,77.498l-2,-0.002l0.062,-59.502l20.499,0c2.968,0 5.44,-2.166 5.917,-5l-102.467,0c0.107,0.833 0.324,1.631 0.522,2.359c0.398,1.461 0.74,2.722 -0.001,3.693c-0.65,0.85 -1.787,0.948 -2.586,0.948c-4.411,0 -8,-3.589 -8,-8l0,-3.994c0,-3.309 -2.692,-6 -6,-6c-3.309,0 -6,2.691 -6,6l0.016,28.948l-2,0.001l-0.016,-28.949c0,-4.411 3.589,-8 8,-8c4.411,0 8,3.589 8,8l0,3.994c0,3.309 2.692,6 6,6c0.815,0 0.996,-0.163 0.998,-0.164c0.127,-0.23 -0.155,-1.266 -0.342,-1.952c-0.292,-1.08 -0.659,-2.425 -0.659,-3.884l0,-1l106.618,0l0,1c0,4.411 -3.588,8 -8,8l-18.501,0l-0.06,57.504Z" style="fill:#48515a;fill-rule:nonzero;"/><path d="M140.773,138.988l-99.747,0l0,-2l99.747,0c3.309,0 6,-2.691 6,-6l0.02,-21.04l2,0.002l-0.02,21.038c0,4.412 -3.589,8 -8,8Z" style="fill:#48515a;fill-rule:nonzero;"/><path d="M41.76,139.004c-4.411,0 -8,-3.589 -8,-8l0,-3.595c0,-3.531 -2.873,-6.404 -6.404,-6.404l0,-2c4.634,0 8.404,3.77 8.404,8.404l0,3.595c0,3.309 2.692,6 6,6l0,2Z" style="fill:#48515a;fill-rule:nonzero;"/><path d="M34.443,128.009l-14.683,0l0,-1c0,-4.411 3.589,-8 8,-8l19.5,0c0.553,0 1,0.448 1,1c0,0.553 -0.447,1 -1,1l-19.5,0c-2.968,0 -5.439,2.167 -5.917,5l12.6,0c0.553,0 1,0.448 1,1c0,0.553 -0.447,1 -1,1Z" style="fill:#48515a;fill-rule:nonzero;"/><rect x="172.863" y="113.002" width="2" height="4" style="fill:#48515a;fill-rule:nonzero;"/><rect x="172.863" y="123.002" width="2" height="4" style="fill:#48515a;fill-rule:nonzero;"/><rect x="176.863" y="119.002" width="4" height="2" style="fill:#48515a;fill-rule:nonzero;"/><rect x="166.863" y="119.002" width="4" height="2" style="fill:#48515a;fill-rule:nonzero;"/><rect x="11.766" y="82.984" width="2" height="4" style="fill:#48515a;fill-rule:nonzero;"/><rect x="11.766" y="92.984" width="2" height="4" style="fill:#48515a;fill-rule:nonzero;"/><rect x="15.766" y="88.984" width="4" height="2" style="fill:#48515a;fill-rule:nonzero;"/><rect x="5.766" y="88.984" width="4" height="2" style="fill:#48515a;fill-rule:nonzero;"/><rect x="161.856" y="32.954" width="2" height="4" style="fill:#48515a;fill-rule:nonzero;"/><rect x="161.856" y="42.954" width="2" height="4" style="fill:#48515a;fill-rule:nonzero;"/><rect x="165.856" y="38.954" width="4" height="2" style="fill:#48515a;fill-rule:nonzero;"/><rect x="155.856" y="38.954" width="4" height="2" style="fill:#48515a;fill-rule:nonzero;"/><path d="M162.273,65.496c0,1.657 -1.343,3 -3,3c-1.657,0 -3,-1.343 -3,-3c0,-1.657 1.343,-3 3,-3c1.657,0 3,1.343 3,3Z" style="fill:#e1f5fc;fill-rule:nonzero;"/><path d="M32.276,75.496c0,1.104 -0.895,2 -2,2c-1.104,0 -2,-0.896 -2,-2c0,-1.105 0.896,-2 2,-2c1.105,0 2,0.895 2,2Z" style="fill:#e1f5fc;fill-rule:nonzero;"/><path d="M36.777,123.009c0.626,1.337 0.977,2.829 0.977,4.4l0,3.595c0,2.008 1.487,3.675 3.417,3.958c2.021,-0.233 3.65,-1.958 3.65,-3.974l0,-7.979l-8.044,0Z" style="fill:#e1f5fc;fill-rule:nonzero;"/><rect x="70.828" y="72.996" width="59.997" height="2" style="fill:#48515a;fill-rule:nonzero;"/><rect x="64.828" y="76.996" width="65.997" height="2" style="fill:#48515a;fill-rule:nonzero;"/><rect x="64.828" y="80.996" width="65.997" height="2" style="fill:#48515a;fill-rule:nonzero;"/><rect x="64.828" y="84.996" width="53.997" height="2" style="fill:#48515a;fill-rule:nonzero;"/><path d="M79.605,108.079l6.074,0.844l7.344,-2.973l-7.344,-2.972l-6.074,0.844l0,4.257Zm6.327,2.898l-8.327,-1.157l0,-7.74l8.327,-1.157l9.274,3.753l0,2.547l-9.274,3.754Z" style="fill:#48515a;fill-rule:nonzero;"/><rect x="84.606" y="104.95" width="9.6" height="2" style="fill:#48515a;fill-rule:nonzero;"/><path d="M49.189,107.949l28.416,0l0,-3.998l-28.416,0l0,3.998Zm30.416,2l-32.416,0l0,-7.998l32.416,0l0,7.998Z" style="fill:#48515a;fill-rule:nonzero;"/><path d="M4,109.951c-2.206,0 -4,-1.795 -4,-4c0,-2.206 1.794,-4 4,-4l44.194,0l0,2l-44.194,0c-1.102,0 -2,0.897 -2,2c0,1.103 0.898,2 2,2l44.269,-0.002l0,2l-44.269,0.002Z" style="fill:#48515a;fill-rule:nonzero;"/><path d="M144.753,85.392l0,4.329c0,7.698 3.928,14.727 10.538,18.922c6.611,-4.195 10.539,-11.225 10.539,-18.923l0,-4.328l-10.539,-4.216l-10.538,4.216Zm10.538,25.592l-0.515,-0.308c-7.528,-4.517 -12.023,-12.351 -12.023,-20.955l0,-5.683l12.538,-5.016l12.539,5.016l0,5.682c0,8.605 -4.495,16.438 -12.024,20.956l-0.515,0.308Z" style="fill:#48515a;fill-rule:nonzero;"/><rect x="154.291" y="80.099" width="2" height="29.063" style="fill:#48515a;fill-rule:nonzero;"/><rect x="143.753" y="93.099" width="23.001" height="2" style="fill:#48515a;fill-rule:nonzero;"/><path d="M32.756,54.995l-2,0c0,-2.205 -1.794,-4 -4,-4c-2.206,0 -4,1.795 -4,4l-2,0c0,-3.308 2.692,-6 6,-6c3.309,0 6,2.692 6,6Z" style="fill:#475059;fill-rule:nonzero;"/><path d="M42.756,54.995l-2,0c0,-2.205 -1.794,-4 -4,-4c-2.206,0 -4,1.795 -4,4l-2,0c0,-3.308 2.692,-6 6,-6c3.309,0 6,2.692 6,6Z" style="fill:#475059;fill-rule:nonzero;"/><path d="M52.756,54.995l-2,0c0,-2.205 -1.794,-4 -4,-4c-2.206,0 -4,1.795 -4,4l-2,0c0,-3.308 2.692,-6 6,-6c3.309,0 6,2.692 6,6Z" style="fill:#475059;fill-rule:nonzero;"/><path d="M20.756,53.995c0,-8.822 7.178,-16.001 16,-16.001c8.823,0 16,7.178 16,16l-2,0c0,-7.719 -6.28,-14 -14,-14c-7.719,0 -14,6.281 -14,14l-2,0.001Z" style="fill:#475059;fill-rule:nonzero;"/><path d="M33.256,67.995c-2.481,0 -4.5,-2.018 -4.5,-4.5l2,0c0,1.379 1.121,2.5 2.5,2.5c1.379,0 2.5,-1.121 2.5,-2.5l0,-13.5l2,0l0,13.5c0,2.482 -2.018,4.5 -4.5,4.5Z" style="fill:#475059;fill-rule:nonzero;"/><rect x="35.756" y="35.996" width="2" height="2.998" style="fill:#475059;fill-rule:nonzero;"/></g></svg>