<?xml version="1.0" encoding="UTF-8" standalone="no"?><!DOCTYPE svg PUBLIC "-//W3C//DTD SVG 1.1//EN" "http://www.w3.org/Graphics/SVG/1.1/DTD/svg11.dtd"><svg width="100%" height="100%" viewBox="0 0 81 91" version="1.1" xmlns="http://www.w3.org/2000/svg" xmlns:xlink="http://www.w3.org/1999/xlink" xml:space="preserve" xmlns:serif="http://www.serif.com/" style="fill-rule:evenodd;clip-rule:evenodd;stroke-linejoin:round;stroke-miterlimit:1.41421;"><rect id="Artboard1" x="0" y="0" width="80.858" height="90.859" style="fill:none;"/><clipPath id="_clip1"><rect x="0" y="0" width="80.858" height="90.859"/></clipPath><g clip-path="url(#_clip1)"><clipPath id="_clip2"><path d="M6.22,4.317c6.819,3.825 15.644,0.368 21.775,6.538c15.71,15.806 -4.484,40.491 -0.256,59.552c4.3,19.378 19.513,21.766 31.334,18.182c9.547,-2.892 16.847,-11.737 20.676,-22.587c7.14,-20.261 12.19,-44.904 3.509,-65.738c-7.36,-17.655 -22.028,-19.962 -36.731,-17.922c-5.694,0.793 -11.535,3.468 -16.85,6.069c-5.01,2.455 -11.197,2.393 -16.453,3.84c-2.932,0.806 -13.729,2.009 -10.691,8.195c0.881,1.796 2.172,3.02 3.687,3.871Z"/></clipPath><g clip-path="url(#_clip2)"><rect x="1.999" y="-0.622" width="79.415" height="90.608" style="fill:url(#_Linear3);fill-rule:nonzero;"/></g><clipPath id="_clip4"><path d="M87.535,0.812c3.204,-0.99 7.358,4.225 9.343,6.474c11.06,12.56 17.893,37.781 6.827,52.123c-3.274,4.239 -9.362,9.607 -14.815,10.341c-3.959,0.536 -7.651,-3.17 -7.475,-6.993c0.232,-4.962 6.993,-9.892 2.063,-14.526c-2.868,-2.697 -5.942,-1.766 -8.836,0.31c-5.437,3.908 -10.911,6.549 -17.405,3.305c-5.503,-2.753 -8.886,-8.915 -8.283,-15.137c0.493,-5.082 3.297,-10.452 8.057,-12.693c7.211,-3.391 17.311,2.796 22.99,-4.196c2.996,-3.693 3.927,-8.676 4.453,-13.438c0.229,-2.092 0.715,-4.834 3.081,-5.57Z"/></clipPath><g clip-path="url(#_clip4)"><rect x="48.885" y="0.688" width="40.427" height="60.501" style="fill:url(#_Linear5);fill-rule:nonzero;"/></g><clipPath id="_clip6"><path d="M88.904,30.297c-8.24,2.753 -17.003,0.734 -21.878,-9.728c-3.194,-6.863 -1.947,-14.847 0.794,-20.638c3.681,-7.781 9.272,-7.384 16.509,-9.178c4.46,-1.106 8.478,-6.119 13.406,-5.159c7.35,1.434 10.091,10.303 10.872,16.668c1.482,12.032 -8.64,24.335 -19.703,28.035Z"/></clipPath><g clip-path="url(#_clip6)"><rect x="65.134" y="-2.597" width="33.286" height="34.009" style="fill:url(#_Linear7);fill-rule:nonzero;"/></g></g><defs><linearGradient id="_Linear3" x1="0" y1="0" x2="1" y2="0" gradientUnits="userSpaceOnUse" gradientTransform="matrix(85.8459,0,0,106.339,2.00069,35.8551)"><stop offset="0" style="stop-color:#f4898e;stop-opacity:1"/><stop offset="1" style="stop-color:#fcb975;stop-opacity:1"/></linearGradient><linearGradient id="_Linear5" x1="0" y1="0" x2="1" y2="0" gradientUnits="userSpaceOnUse" gradientTransform="matrix(3.02093e-06,-69.1108,-69.1108,-3.02093e-06,79.1085,69.7993)"><stop offset="0" style="stop-color:#6d64ad;stop-opacity:1"/><stop offset="1" style="stop-color:#f0bdd4;stop-opacity:1"/></linearGradient><linearGradient id="_Linear7" x1="0" y1="0" x2="1" y2="0" gradientUnits="userSpaceOnUse" gradientTransform="matrix(-2.00802e-06,45.9381,45.9381,2.00802e-06,86.9445,-14.5267)"><stop offset="0" style="stop-color:#55c7da;stop-opacity:1"/><stop offset="1" style="stop-color:#c7e1a3;stop-opacity:1"/></linearGradient></defs></svg>