<?xml version="1.0" encoding="UTF-8" standalone="no"?><!DOCTYPE svg PUBLIC "-//W3C//DTD SVG 1.1//EN" "http://www.w3.org/Graphics/SVG/1.1/DTD/svg11.dtd"><svg width="100%" height="100%" viewBox="0 0 343 220" version="1.1" xmlns="http://www.w3.org/2000/svg" xmlns:xlink="http://www.w3.org/1999/xlink" xml:space="preserve" xmlns:serif="http://www.serif.com/" style="fill-rule:evenodd;clip-rule:evenodd;stroke-linejoin:round;stroke-miterlimit:1.41421;"><path d="M306.196,212.225l3.371,-28.14l-3.233,-0.331l-3.371,28.139l1.084,3.878l0.173,0.017l1.976,-3.563Z" style="fill:#fff;fill-rule:nonzero;"/><path d="M306.196,212.225l3.371,-28.14l-3.233,-0.331l-3.371,28.139l3.233,0.332Z" style="fill:#f1b8a4;fill-rule:nonzero;"/><path d="M304.579,212.059l3.371,-28.139l-1.616,-0.166l-3.371,28.139l1.616,0.166Z" style="fill:#e78866;fill-rule:nonzero;"/><path d="M309.239,187.581l0.418,-3.492l-3.412,-0.35l-0.418,3.492l3.412,0.35Z" style="fill:#fff;fill-rule:nonzero;"/><path d="M303.725,211.835l0.613,2.193l1.13,-2.039l3.264,-27.235l-1.741,-0.179l-3.266,27.26Zm0.414,4.751l-0.104,-0.007c-0.345,-0.042 -0.624,-0.283 -0.712,-0.616l-1.123,-4.011l3.476,-29.02l4.726,0.486l-3.479,29.042l-2.046,3.691c-0.149,0.271 -0.431,0.435 -0.738,0.435Z" style="fill:#414043;fill-rule:nonzero;"/><path d="M308.667,188.276l-2.828,-0.29l0.153,-1.492l2.827,0.29l-0.152,1.492Z" style="fill:#414043;fill-rule:nonzero;"/><path d="M305.917,212.95l-2.828,-0.29l0.153,-1.492l2.827,0.29l-0.152,1.492Z" style="fill:#414043;fill-rule:nonzero;"/><path d="M299.834,212.693l3.723,-33.599l-3.571,-0.396l-3.724,33.6l1.198,4.63c0.024,0.091 0.148,0.105 0.191,0.021l2.183,-4.256Z" style="fill:#fff;fill-rule:nonzero;"/><path d="M299.834,212.693l3.723,-33.599l-3.571,-0.396l-3.724,33.6l3.572,0.395Z" style="fill:#f1b8a4;fill-rule:nonzero;"/><path d="M298.048,212.496l3.724,-33.6l-1.786,-0.198l-3.724,33.6l1.786,0.198Z" style="fill:#e78866;fill-rule:nonzero;"/><path d="M303.194,183.267l0.462,-4.169l-3.768,-0.417l-0.462,4.168l3.768,0.418Z" style="fill:#fff;fill-rule:nonzero;"/><path d="M297.023,212.243l0.737,2.85l1.343,-2.62l3.626,-32.716l-2.08,-0.231l-3.626,32.717Zm0.539,5.512l-0.097,-0.005c-0.356,-0.04 -0.642,-0.29 -0.731,-0.637l-1.233,-4.761l0.016,-0.137l3.806,-34.345l5.062,0.56l-3.884,34.605l-2.183,4.256c-0.148,0.289 -0.438,0.464 -0.756,0.464Z" style="fill:#414043;fill-rule:nonzero;"/><path d="M302.564,183.952l-3.122,-0.347l0.166,-1.49l3.122,0.347l-0.166,1.49Z" style="fill:#414043;fill-rule:nonzero;"/><path d="M299.526,213.414l-3.122,-0.346l0.166,-1.49l3.122,0.346l-0.166,1.49Z" style="fill:#414043;fill-rule:nonzero;"/><path d="M305.697,211.835l-10.371,-31.066l-3.42,1.065l10.371,31.065l2.989,3.604c0.059,0.071 0.178,0.034 0.183,-0.057l0.248,-4.611Z" style="fill:#fff;fill-rule:nonzero;"/><path d="M305.697,211.835l-10.371,-31.066l-3.42,1.065l10.371,31.065l3.42,-1.064Z" style="fill:#f1b8a4;fill-rule:nonzero;"/><path d="M303.987,212.367l-10.371,-31.065l-1.71,0.532l10.371,31.065l1.71,-0.532Z" style="fill:#e78866;fill-rule:nonzero;"/><path d="M296.705,184.589l-1.286,-3.855l-3.609,1.123l1.287,3.855l3.608,-1.123Z" style="fill:#fff;fill-rule:nonzero;"/><path d="M302.944,212.527l1.846,2.226l0.15,-2.816l-10.092,-30.233l-1.987,0.618l10.083,30.205Zm2.4,4.764c-0.248,0 -0.487,-0.109 -0.653,-0.308l-3.081,-3.714l-0.044,-0.133l-10.613,-31.79l4.852,-1.511l10.649,31.897l-0.255,4.753c-0.019,0.351 -0.247,0.65 -0.581,0.761c-0.091,0.03 -0.183,0.045 -0.274,0.045Z" style="fill:#414043;fill-rule:nonzero;"/><path d="M293.414,186.398l-0.446,-1.431l2.991,-0.931l0.445,1.432l-2.99,0.93Z" style="fill:#414043;fill-rule:nonzero;"/><path d="M302.714,213.548l-0.445,-1.432l2.989,-0.931l0.446,1.432l-2.99,0.931Z" style="fill:#414043;fill-rule:nonzero;"/><path d="M307.894,218.689l-15.751,0l-2.22,-28.096l20.191,0l-2.22,28.096Z" style="fill:#535252;fill-rule:nonzero;"/><path d="M309.703,195.794l0.295,-3.735l-0.295,3.735Zm-19.37,0l-0.295,-3.735l0.296,3.735" style="fill:#b4b2b4;fill-rule:nonzero;"/><path d="M309.703,195.794l-19.37,0l-0.295,-3.735l19.96,0l-0.295,3.735Z" style="fill:#454243;fill-rule:nonzero;"/><path d="M292.836,217.939l14.365,0l2.101,-26.596l-18.568,0l2.102,26.596Zm15.751,1.5l-17.138,0l-2.338,-29.596l21.814,0l-2.338,29.596Z" style="fill:#414043;fill-rule:nonzero;"/><path d="M311.583,193.574l-23.129,0c-0.24,0 -0.435,-0.195 -0.435,-0.435l0,-2.866c0,-0.24 0.195,-0.434 0.435,-0.434l23.129,0c0.24,0 0.435,0.194 0.435,0.434l0,2.866c0,0.24 -0.195,0.435 -0.435,0.435Z" style="fill:#535252;fill-rule:nonzero;"/><path d="M311.583,189.839l-23.129,0c-0.24,0 -0.435,0.194 -0.435,0.434l0,0.866c0,0.24 0.195,0.435 0.435,0.435l23.129,0c0.24,0 0.434,-0.195 0.434,-0.435l0,-0.866c0,-0.24 -0.194,-0.434 -0.434,-0.434Z" style="fill:#757475;fill-rule:nonzero;"/><path d="M288.769,192.824l22.498,0l0,-2.235l-22.498,0l0,2.235Zm22.815,1.5l-23.13,0c-0.654,0 -1.185,-0.531 -1.185,-1.185l0,-2.866c0,-0.653 0.531,-1.184 1.185,-1.184l23.13,0c0.652,0 1.183,0.531 1.183,1.184l0,2.866c0,0.654 -0.531,1.185 -1.183,1.185Z" style="fill:#414043;fill-rule:nonzero;"/><path d="M17.356,185.593l0,-8.046c0,-2.002 -1.623,-3.624 -3.624,-3.624l-1.75,0c-2.001,0 -3.624,1.622 -3.624,3.624l0,8.046c-2.969,0 -5.376,2.407 -5.376,5.376l0,27.72l19.75,0l0,-27.72c0,-2.969 -2.407,-5.376 -5.376,-5.376Z" style="fill:#e7e7e8;fill-rule:nonzero;"/><path d="M15.356,185.593l0,-8.046c0,-1.959 -1.557,-3.544 -3.499,-3.612c-0.749,0.026 -1.437,0.277 -2.004,0.691c0.909,0.655 1.503,1.714 1.503,2.921l0,8.046c2.969,0 5.376,2.407 5.376,5.376l0,27.72l4,0l0,-27.72c0,-2.969 -2.407,-5.376 -5.376,-5.376Z" style="fill:#fff;fill-rule:nonzero;"/><rect x="8.358" y="183.256" width="8.998" height="2.337" style="fill:#e78866;fill-rule:nonzero;"/><path d="M3.732,217.939l18.25,0l0,-26.97c0,-2.551 -2.075,-4.626 -4.626,-4.626l-0.75,0l0,-8.796c0,-1.585 -1.289,-2.874 -2.874,-2.874l-1.75,0c-1.585,0 -2.874,1.289 -2.874,2.874l0,8.796l-0.75,0c-2.551,0 -4.626,2.075 -4.626,4.626l0,26.97Zm19.75,1.5l-21.25,0l0,-28.47c0,-3.124 2.351,-5.709 5.376,-6.081l0,-7.341c0,-2.412 1.962,-4.374 4.374,-4.374l1.75,0c2.411,0 4.374,1.962 4.374,4.374l0,7.341c3.025,0.372 5.376,2.957 5.376,6.081l0,28.47Z" style="fill:#414043;fill-rule:nonzero;"/><rect x="7.689" y="176.97" width="10.298" height="5.162" style="fill:#e78866;fill-rule:nonzero;"/><path d="M8.532,177.72l-0.093,0.092l0,3.478l0.093,0.092l8.613,0l0.092,-0.092l0,-3.478l-0.092,-0.092l-8.613,0Zm8.613,5.162l-8.613,0c-0.879,0 -1.593,-0.714 -1.593,-1.592l0,-3.478c0,-0.878 0.714,-1.592 1.593,-1.592l8.613,0c0.878,0 1.592,0.714 1.592,1.592l0,3.478c0,0.878 -0.714,1.592 -1.592,1.592Z" style="fill:#414043;fill-rule:nonzero;"/><path d="M56.77,195.989l-21.841,0l0,6.64c0,4.722 1.774,9.271 4.97,12.745l0,3.315l11.9,0l0,-3.315c3.197,-3.474 4.971,-8.023 4.971,-12.745l0,-6.64Z" style="fill:#aca29d;fill-rule:nonzero;"/><path d="M52.278,195.989l0,6.64c0,4.722 -1.775,9.271 -4.971,12.745l0,3.315l2.567,0l0,-3.315c3.196,-3.474 4.971,-8.023 4.971,-12.745l0,-6.64l-2.567,0Z" style="fill:#dedad8;fill-rule:nonzero;"/><path d="M40.649,217.939l10.4,0l0,-2.856l0.198,-0.216c3.078,-3.347 4.773,-7.692 4.773,-12.237l0,-5.891l-20.341,0l0,5.891c0,4.545 1.695,8.891 4.773,12.237l0.197,0.216l0,2.856Zm11.9,1.5l-13.4,0l0,-3.775c-3.208,-3.594 -4.97,-8.21 -4.97,-13.034l0,-7.391l23.341,0l0,7.391c0,4.824 -1.763,9.44 -4.971,13.034l0,3.775Z" style="fill:#414043;fill-rule:nonzero;"/><path d="M36.038,209.304l-3.593,0c-2.988,0 -5.419,-2.431 -5.419,-5.419c0,-2.989 2.431,-5.419 5.419,-5.419l2.309,0l0,1.5l-2.309,0c-2.161,0 -3.919,1.757 -3.919,3.919c0,2.161 1.758,3.919 3.919,3.919l3.593,0l0,1.5Z" style="fill:#414043;fill-rule:nonzero;"/><path d="M43.838,193.621l-1.5,0l0,-1.304c0,-2.345 1.908,-4.252 4.252,-4.252l3.226,0c0.281,0 0.51,-0.228 0.51,-0.51c0,-0.281 -0.229,-0.509 -0.51,-0.509l-10.147,0c-1.046,0 -1.898,-0.852 -1.898,-1.899c0,-1.046 0.852,-1.897 1.898,-1.897l4.265,0l0,1.5l-4.265,0c-0.219,0 -0.398,0.179 -0.398,0.397c0,0.22 0.179,0.399 0.398,0.399l10.147,0c1.108,0 2.01,0.901 2.01,2.009c0,1.109 -0.902,2.01 -2.01,2.01l-3.226,0c-1.517,0 -2.752,1.235 -2.752,2.752l0,1.304Z" style="fill:#414043;fill-rule:nonzero;"/><path d="M49.355,184.986l-3.668,0l0,-1.5l3.668,0c0.299,0 0.541,-0.243 0.541,-0.541c0,-0.298 -0.242,-0.541 -0.541,-0.541l-9.435,0c-1.185,0 -2.149,-0.964 -2.149,-2.148c0,-1.186 0.964,-2.15 2.149,-2.15l13.722,0l0,1.5l-13.722,0c-0.358,0 -0.649,0.291 -0.649,0.65c0,0.357 0.291,0.648 0.649,0.648l9.435,0c1.127,0 2.042,0.916 2.042,2.041c0,1.125 -0.915,2.041 -2.042,2.041Z" style="fill:#414043;fill-rule:nonzero;"/><path d="M182.361,61.296l-0.814,0c-1.617,0 -2.929,-1.311 -2.929,-2.929l-1,-30.705c0,-3.332 1.513,-6.483 4.114,-8.567l3.605,-2.889c-9.358,-5.826 -6.891,-15.422 -6.891,-15.422c4.313,6.471 27.809,6.378 41.47,8.48c3.239,0.498 5.757,3.069 6.178,6.318l0.331,2.556c2.677,0 4.847,2.17 4.847,4.847l-1,35.382c0,1.618 -1.311,2.929 -2.929,2.929l-44.982,0Z" style="fill:#e78866;fill-rule:nonzero;"/><path d="M178.446,3.784c4.313,6.471 27.809,6.378 41.47,8.48c3.239,0.498 4.843,2.128 5.264,5.377l0.331,2.556c2.452,0 5.371,2.768 5.695,5.131l0.066,-2.343c0,-2.677 -2.17,-4.847 -4.847,-4.847l-0.331,-2.556c-0.421,-3.249 -2.939,-5.82 -6.178,-6.318c-13.661,-2.102 -37.157,-2.009 -41.47,-8.48c0,0 -0.473,1.838 -0.219,4.392c0.086,-0.869 0.219,-1.392 0.219,-1.392Z" style="fill:#ad674d;fill-rule:nonzero;"/><path d="M178.95,2.459c-0.245,2.828 0.111,8.957 6.783,13.111l0.899,0.559l-4.432,3.551c-2.436,1.952 -3.832,4.862 -3.832,7.982l1,30.803c0,1.158 0.923,2.081 2.057,2.081l46.04,0c1.134,0 2.057,-0.923 2.057,-2.057l1,-35.525c0,-2.238 -1.838,-4.076 -4.097,-4.076l-0.659,0l-0.416,-3.21c-0.376,-2.895 -2.657,-5.228 -5.548,-5.673c-3.682,-0.567 -8.045,-0.969 -12.663,-1.395c-11.627,-1.073 -23.615,-2.179 -28.189,-6.151Zm48.515,59.587l-46.04,0c-1.962,0 -3.557,-1.596 -3.557,-3.557l-1,-30.802c0,-3.603 1.601,-6.939 4.394,-9.177l2.802,-2.245c-8.299,-5.808 -6.596,-14.566 -6.367,-15.575l0.108,-0.475l0.983,-0.215l0.32,0.425c3.023,4.372 16.383,5.604 28.169,6.691c4.641,0.428 9.025,0.832 12.754,1.406c3.547,0.546 6.346,3.409 6.807,6.963l0.251,1.942c2.775,0.33 4.933,2.696 4.933,5.558l-1,35.525c0,1.94 -1.596,3.536 -3.557,3.536Z" style="fill:#414043;fill-rule:nonzero;"/><path d="M231.2,51.402c0,1.708 -1.389,3.094 -3.098,3.094c-1.707,0 -3.095,-1.386 -3.095,-3.094l0,-2.999c0,-1.71 1.388,-3.094 3.095,-3.094c1.709,0 3.098,1.384 3.098,3.094l0,2.999Z" style="fill:#fdd9c7;fill-rule:nonzero;"/><path d="M228.102,46.059c-1.293,0 -2.345,1.052 -2.345,2.344l0,2.999c0,1.293 1.052,2.344 2.345,2.344c1.295,0 2.348,-1.051 2.348,-2.344l0,-2.999c0,-1.292 -1.053,-2.344 -2.348,-2.344Zm0,9.187c-2.12,0 -3.845,-1.724 -3.845,-3.844l0,-2.999c0,-2.12 1.725,-3.844 3.845,-3.844c2.122,0 3.848,1.724 3.848,3.844l0,2.999c0,2.12 -1.726,3.844 -3.848,3.844Z" style="fill:#414043;fill-rule:nonzero;"/><path d="M184.2,51.402c0,1.708 -1.389,3.094 -3.098,3.094c-1.707,0 -3.095,-1.386 -3.095,-3.094l0,-2.999c0,-1.71 1.388,-3.094 3.095,-3.094c1.709,0 3.098,1.384 3.098,3.094l0,2.999Z" style="fill:#fdd9c7;fill-rule:nonzero;"/><path d="M181.102,46.059c-1.293,0 -2.345,1.052 -2.345,2.344l0,2.999c0,1.293 1.052,2.344 2.345,2.344c1.295,0 2.348,-1.051 2.348,-2.344l0,-2.999c0,-1.292 -1.053,-2.344 -2.348,-2.344Zm0,9.187c-2.121,0 -3.845,-1.724 -3.845,-3.844l0,-2.999c0,-2.12 1.724,-3.844 3.845,-3.844c2.122,0 3.848,1.724 3.848,3.844l0,2.999c0,2.12 -1.726,3.844 -3.848,3.844Z" style="fill:#414043;fill-rule:nonzero;"/><path d="M232.693,218.689l0,-110.407c0,-15.602 -12.765,-28.368 -28.368,-28.368c-15.602,0 -28.367,12.766 -28.367,28.368l0,110.407l56.735,0Z" style="fill:#d0ccce;fill-rule:nonzero;"/><path d="M204.325,79.914c-15.602,0 -28.367,12.766 -28.367,28.368l0,6.198c0,-15.603 12.765,-28.368 28.367,-28.368c15.603,0 28.368,12.765 28.368,28.368l0,-6.198c0,-15.602 -12.765,-28.368 -28.368,-28.368Z" style="fill:#ecebec;fill-rule:nonzero;"/><path d="M233.443,218.689l-1.5,0l0,-110.407c0,-15.228 -12.389,-27.618 -27.617,-27.618c-15.229,0 -27.618,12.39 -27.618,27.618l0,110.407l-1.5,0l0,-110.407c0,-16.056 13.062,-29.118 29.118,-29.118c16.055,0 29.117,13.062 29.117,29.118l0,110.407Z" style="fill:#414043;fill-rule:nonzero;"/><rect x="189.909" y="106.313" width="1.5" height="112.376" style="fill:#414043;fill-rule:nonzero;"/><rect x="218.858" y="106.313" width="1.5" height="112.376" style="fill:#414043;fill-rule:nonzero;"/><path d="M205.539,91.384l-3.447,0c-2.464,0 -4.461,-1.997 -4.461,-4.461l0,-16.511c0,-2.463 1.997,-4.46 4.461,-4.46l3.447,0c2.464,0 4.461,1.997 4.461,4.46l0,16.511c0,2.464 -1.997,4.461 -4.461,4.461Z" style="fill:#fdd9c7;fill-rule:nonzero;"/><path d="M202.092,66.702c-2.046,0 -3.711,1.665 -3.711,3.71l0,16.511c0,2.046 1.664,3.711 3.71,3.711l3.448,0c2.045,0 3.711,-1.665 3.711,-3.711l0,-16.511c0,-2.045 -1.666,-3.71 -3.711,-3.71l-3.447,0Zm3.447,25.432l-3.448,0c-2.873,0 -5.21,-2.338 -5.21,-5.211l0,-16.511c0,-2.873 2.338,-5.21 5.211,-5.21l3.447,0c2.873,0 5.211,2.337 5.211,5.21l0,16.511c0,2.873 -2.338,5.211 -5.211,5.211Z" style="fill:#414043;fill-rule:nonzero;"/><path d="M204.325,79.182c-12.934,0 -23.517,-10.583 -23.517,-23.517l0,-15.941c0,-12.935 10.583,-23.518 23.517,-23.518c12.935,0 23.518,10.583 23.518,23.518l0,15.941c0,12.934 -10.583,23.517 -23.518,23.517Z" style="fill:#fdd9c7;fill-rule:nonzero;"/><path d="M204.325,16.206c-0.674,0 -1.34,0.036 -2,0.092c12.008,1.024 21.518,11.165 21.518,23.426l0,15.941c0,12.261 -9.51,22.401 -21.518,23.426c0.66,0.056 1.326,0.091 2,0.091c12.935,0 23.518,-10.583 23.518,-23.517l0,-15.941c0,-12.935 -10.583,-23.518 -23.518,-23.518Z" style="fill:#fee6d9;fill-rule:nonzero;"/><path d="M203.368,79.16c-0.036,-0.002 -0.073,-0.003 -0.109,-0.005c-0.082,-0.004 -0.166,-0.009 -0.25,-0.014c0.119,0.007 0.239,0.013 0.359,0.019Zm-0.561,-0.032c-9.718,-0.628 -17.872,-7.223 -20.818,-16.138c0.153,-0.005 0.307,-0.007 0.464,-0.007c4.853,0 12.057,2.254 12.057,2.254l0,-1.186c0,-1.472 1.192,-2.665 2.664,-2.665l13.136,0c1.471,0 2.664,1.193 2.664,2.665l0,1.186c0,0 4.992,-1.537 9.654,-2.129c-2.928,8.707 -10.84,15.176 -20.303,15.983c0.16,0.013 0.321,0.026 0.482,0.037Z" style="fill:#ccb3a6;fill-rule:nonzero;"/><path d="M204.325,79.182c-0.321,0 -0.64,-0.009 -0.957,-0.022c-0.12,-0.006 -0.24,-0.012 -0.359,-0.019c-0.064,-0.004 -0.128,-0.009 -0.191,-0.012c-0.004,-0.001 -0.008,-0.001 -0.011,-0.001c-0.161,-0.011 -0.322,-0.024 -0.482,-0.037c9.463,-0.807 17.375,-7.276 20.303,-15.983c1.112,-0.141 2.205,-0.228 3.207,-0.228c0.294,0 0.58,0.007 0.856,0.023c-2.922,8.962 -11.104,15.6 -20.858,16.226c-0.148,0.009 -0.298,0.02 -0.441,0.026c-0.354,0.016 -0.709,0.027 -1.067,0.027Z" style="fill:#cdbbb3;fill-rule:nonzero;"/><path d="M204.326,16.956c-12.554,0 -22.768,10.214 -22.768,22.768l0,15.941c0,12.554 10.214,22.767 22.768,22.767c12.553,0 22.767,-10.213 22.767,-22.767l0,-15.941c0,-12.554 -10.214,-22.768 -22.767,-22.768Zm0,62.976c-13.381,0 -24.268,-10.886 -24.268,-24.267l0,-15.941c0,-13.381 10.887,-24.268 24.268,-24.268c13.381,0 24.267,10.887 24.267,24.268l0,15.941c0,13.381 -10.886,24.267 -24.267,24.267Z" style="fill:#414043;fill-rule:nonzero;"/><path d="M213.805,13.406c0,0 -14.611,-4.103 -29.479,7.062l-5.836,12.055c0,0 27.503,8.553 43.57,-14.161c4.631,-6.547 -8.255,-4.956 -8.255,-4.956Z" style="fill:#e78866;fill-rule:nonzero;"/><path d="M217.586,19.079c0,0 -3.794,14.794 12.518,18.22l0,-7.219l-0.949,-6.069l-11.569,-4.932Z" style="fill:#e78866;fill-rule:nonzero;"/><path d="M229.155,24.011l-8.753,-3.731c0.56,-0.613 1.121,-1.245 1.658,-1.918c5.563,-6.976 -8.255,-4.956 -8.255,-4.956c0,0 -14.611,-4.103 -29.479,7.062l-5.836,12.055c0,0 21.58,6.127 38.729,-9.113c0.181,4.649 2.292,11.664 12.885,13.889l0,-7.219l-0.949,-6.069Z" style="fill:#e78866;fill-rule:nonzero;"/><path d="M218.992,22.429c-0.193,-1.174 -1.52,-1.769 -2.527,-1.136c-15.97,10.024 -31.565,12.62 -36.242,11.639c0,0 19.847,5.718 36.996,-9.522c0.181,4.649 0.583,11.242 11.176,13.466c-6.261,-4.115 -8.662,-9.93 -9.403,-14.447Z" style="fill:#eda185;fill-rule:nonzero;"/><path d="M229.066,37.83c-10.048,-2.111 -12.097,-8.181 -12.516,-13.011c-17.228,14.013 -37.129,8.702 -37.331,8.646l0.402,-1.446c0.197,0.055 19.99,5.311 36.778,-9.027c0.283,-0.241 0.669,-0.3 1.008,-0.153c0.336,0.145 0.555,0.464 0.571,0.831c0.219,4.841 1.711,10.658 11.397,12.692l-0.309,1.468Z" style="fill:#414043;fill-rule:nonzero;"/><path d="M183.012,39.539c-0.689,0 -1.25,0.56 -1.25,1.25l0,10.314c0,0.69 0.561,1.25 1.25,1.25l16.722,0c0.689,0 1.25,-0.56 1.25,-1.25l0,-10.314c0,-0.69 -0.561,-1.25 -1.25,-1.25l-16.722,0Zm16.722,14.314l-16.722,0c-1.516,0 -2.75,-1.234 -2.75,-2.75l0,-10.314c0,-1.516 1.234,-2.75 2.75,-2.75l16.722,0c1.517,0 2.75,1.234 2.75,2.75l0,10.314c0,1.516 -1.233,2.75 -2.75,2.75Z" style="fill:#414043;fill-rule:nonzero;"/><path d="M208.902,39.539c-0.69,0 -1.25,0.56 -1.25,1.25l0,10.314c0,0.69 0.56,1.25 1.25,1.25l16.721,0c0.689,0 1.25,-0.56 1.25,-1.25l0,-10.314c0,-0.69 -0.561,-1.25 -1.25,-1.25l-16.721,0Zm16.721,14.314l-16.721,0c-1.517,0 -2.75,-1.234 -2.75,-2.75l0,-10.314c0,-1.516 1.233,-2.75 2.75,-2.75l16.721,0c1.516,0 2.75,1.234 2.75,2.75l0,10.314c0,1.516 -1.234,2.75 -2.75,2.75Z" style="fill:#414043;fill-rule:nonzero;"/><path d="M189.578,43.909c-0.395,0.433 -0.642,1.004 -0.642,1.637c0,1.346 1.091,2.437 2.437,2.437c1.347,0 2.438,-1.091 2.438,-2.437c0,-0.633 -0.247,-1.204 -0.643,-1.637l-3.59,0Z" style="fill:#414043;fill-rule:nonzero;"/><path d="M216.048,43.909c-0.396,0.433 -0.643,1.004 -0.643,1.637c0,1.346 1.091,2.437 2.438,2.437c1.346,0 2.437,-1.091 2.437,-2.437c0,-0.633 -0.247,-1.204 -0.642,-1.637l-3.59,0Z" style="fill:#414043;fill-rule:nonzero;"/><rect x="201.734" y="45.196" width="4.586" height="1.5" style="fill:#414043;fill-rule:nonzero;"/><path d="M205.629,60.268l-2.806,0l0,-1.5l2.806,0c0.541,0 0.983,-0.441 0.983,-0.984l0,-0.159c0,-0.543 -0.442,-0.984 -0.983,-0.984l-2.169,0l0,-5.7l1.5,0l0,4.2l0.669,0c1.369,0 2.483,1.115 2.483,2.484l0,0.159c0,1.37 -1.114,2.484 -2.483,2.484Z" style="fill:#414043;fill-rule:nonzero;"/><path d="M210.629,65.467c0,3.415 -2.768,6.184 -6.184,6.184c-3.415,0 -6.184,-2.769 -6.184,-6.184l12.368,0Z" style="fill:#fff;fill-rule:nonzero;"/><path d="M199.063,66.217c0.366,2.643 2.64,4.684 5.382,4.684c2.742,0 5.017,-2.041 5.383,-4.684l-10.765,0Zm5.382,6.184c-3.823,0 -6.934,-3.111 -6.934,-6.934l0,-0.75l13.868,0l0,0.75c0,3.823 -3.11,6.934 -6.934,6.934Z" style="fill:#414043;fill-rule:nonzero;"/><path d="M233.443,108.282c0,-0.014 0,-0.027 0,-0.041c0,0.014 0,0.027 0,0.041Zm0,-0.063c0,-0.006 0,-0.009 0,-0.015c0,0.005 0,0.01 0,0.015Z" style="fill:#b4b2b4;fill-rule:nonzero;"/><path d="M231.943,218.689l-11.585,0l0,-40.695c2.166,-1.239 4.504,-2.208 6.971,-2.861l0,-1.878c-2.513,-0.739 -4.861,-1.869 -6.971,-3.32l0,-63.239c3.069,-1.678 6.533,-2.721 10.214,-2.951c0.564,1.369 1.024,2.791 1.369,4.255c0.001,0.094 0.002,0.188 0.002,0.282l0,110.407Zm-13.085,0l-13.203,0l0,-15.407c0,-10.186 5.258,-19.165 13.203,-24.369l0,39.776Zm0,-49.87c-5.25,-4.226 -8.734,-10.557 -9.156,-17.702c-1.92,-0.213 -3.424,-1.826 -3.424,-3.802l0,-3c0,-1.112 0.482,-2.106 1.239,-2.809l0,-13.202c0,-8.687 4.525,-16.337 11.341,-20.717l0,61.232Z" style="fill:#9b9899;fill-rule:nonzero;"/><path d="M231.941,108c-0.345,-1.464 -0.805,-2.886 -1.369,-4.255c0.328,-0.021 0.659,-0.035 0.991,-0.043c0.235,1.401 0.364,2.836 0.378,4.298Z" style="fill:#afadae;fill-rule:nonzero;"/><path d="M233.443,218.689l-1.5,0l0,-110.407c0,-0.094 -0.001,-0.188 -0.002,-0.282c-0.014,-1.462 -0.143,-2.897 -0.378,-4.298c0.187,-0.004 0.375,-0.006 0.563,-0.006l0.949,0c0.234,1.47 0.364,2.974 0.368,4.508l0,110.485Z" style="fill:#383638;fill-rule:nonzero;"/><path d="M220.358,218.689l-0.002,0l-1.498,0l0,-39.776c0.49,-0.321 0.99,-0.628 1.5,-0.919l0,40.695Zm0,-48.754c-0.514,-0.353 -1.015,-0.726 -1.5,-1.116l0,-61.232c0.489,-0.314 0.989,-0.611 1.5,-0.891l0,63.239Z" style="fill:#383638;fill-rule:nonzero;"/><path d="M275.951,166.746l-9.811,0l-20.587,0l0,-58.149c0,-6.738 5.461,-12.2 12.199,-12.2c6.737,0 12.199,5.462 12.199,12.2l0,52.269c-0.037,2.726 1.866,5.88 6,5.88Z" style="fill:#535252;fill-rule:nonzero;"/><path d="M246.302,165.996l25.209,0c-0.151,-0.127 -0.297,-0.261 -0.436,-0.402c-1.215,-1.232 -1.899,-2.959 -1.874,-4.738l0,-52.26c0,-6.313 -5.136,-11.449 -11.449,-11.449c-6.314,0 -11.45,5.136 -11.45,11.449l0,57.4Zm29.649,1.5l-31.149,0l0,-58.9c0,-7.14 5.809,-12.949 12.95,-12.949c7.14,0 12.949,5.809 12.949,12.949l0,52.27c-0.019,1.37 0.52,2.74 1.441,3.674c0.94,0.952 2.257,1.456 3.809,1.456l0,1.5Z" style="fill:#414043;fill-rule:nonzero;"/><path d="M263.258,143.648l0,-15.343c0,-13.123 -10.736,-23.859 -23.858,-23.859l-4.274,0c-13.123,0 -23.859,10.736 -23.859,23.859l0,15.343l51.991,0Z" style="fill:#535252;fill-rule:nonzero;"/><path d="M212.017,142.898l50.491,0l0,-14.594c0,-12.742 -10.366,-23.108 -23.108,-23.108l-4.274,0c-12.743,0 -23.109,10.366 -23.109,23.108l0,14.594Zm51.991,1.5l-53.491,0l0,-16.094c0,-13.569 11.039,-24.608 24.609,-24.608l4.274,0c13.569,0 24.608,11.039 24.608,24.608l0,16.094Z" style="fill:#414043;fill-rule:nonzero;"/><path d="M264.214,147.315c0,1.708 -1.385,3.094 -3.093,3.094c-1.71,0 -3.093,-1.386 -3.093,-3.094l0,-2.999c0,-1.71 1.383,-3.094 3.093,-3.094c1.708,0 3.093,1.384 3.093,3.094l0,2.999Z" style="fill:#fdd9c7;fill-rule:nonzero;"/><path d="M261.122,141.971c-1.292,0 -2.344,1.052 -2.344,2.344l0,3c0,1.292 1.052,2.344 2.344,2.344c1.292,0 2.342,-1.052 2.342,-2.344l0,-3c0,-1.292 -1.05,-2.344 -2.342,-2.344Zm0,9.188c-2.119,0 -3.844,-1.725 -3.844,-3.844l0,-3c0,-2.119 1.725,-3.844 3.844,-3.844c2.119,0 3.842,1.725 3.842,3.844l0,3c0,2.119 -1.723,3.844 -3.842,3.844Z" style="fill:#414043;fill-rule:nonzero;"/><path d="M216.214,147.315c0,1.708 -1.385,3.094 -3.093,3.094c-1.71,0 -3.093,-1.386 -3.093,-3.094l0,-2.999c0,-1.71 1.383,-3.094 3.093,-3.094c1.708,0 3.093,1.384 3.093,3.094l0,2.999Z" style="fill:#fdd9c7;fill-rule:nonzero;"/><path d="M213.122,141.971c-1.292,0 -2.344,1.052 -2.344,2.344l0,3c0,1.292 1.052,2.344 2.344,2.344c1.292,0 2.342,-1.052 2.342,-2.344l0,-3c0,-1.292 -1.05,-2.344 -2.342,-2.344Zm0,9.188c-2.119,0 -3.844,-1.725 -3.844,-3.844l0,-3c0,-2.119 1.725,-3.844 3.844,-3.844c2.119,0 3.842,1.725 3.842,3.844l0,3c0,2.119 -1.723,3.844 -3.842,3.844Z" style="fill:#414043;fill-rule:nonzero;"/><path d="M266.14,218.689l0,-15.407c0,-15.602 -12.765,-28.368 -28.367,-28.368c-15.603,0 -28.368,12.766 -28.368,28.368l0,15.407l56.735,0Z" style="fill:#e78866;fill-rule:nonzero;"/><path d="M237.773,174.914c-15.603,0 -28.368,12.766 -28.368,28.368l0,6.198c0,-15.603 12.765,-28.368 28.368,-28.368c15.602,0 28.367,12.765 28.367,28.368l0,-6.198c0,-15.602 -12.765,-28.368 -28.367,-28.368Z" style="fill:#eda185;fill-rule:nonzero;"/><path d="M266.89,218.689l-1.5,0l0,-15.407c0,-15.228 -12.388,-27.617 -27.617,-27.617c-15.228,0 -27.618,12.389 -27.618,27.617l0,15.407l-1.5,0l0,-15.407c0,-16.056 13.062,-29.117 29.118,-29.117c16.056,0 29.117,13.061 29.117,29.117l0,15.407Z" style="fill:#414043;fill-rule:nonzero;"/><rect x="223.356" y="201.313" width="1.5" height="17.376" style="fill:#414043;fill-rule:nonzero;"/><rect x="252.305" y="201.313" width="1.5" height="17.376" style="fill:#414043;fill-rule:nonzero;"/><path d="M238.986,186.384l-3.447,0c-2.464,0 -4.461,-1.997 -4.461,-4.461l0,-16.511c0,-2.463 1.998,-4.46 4.461,-4.46l3.447,0c2.464,0 4.461,1.997 4.461,4.46l0,16.511c0,2.464 -1.997,4.461 -4.461,4.461Z" style="fill:#fdd9c7;fill-rule:nonzero;"/><path d="M235.539,161.702c-2.046,0 -3.71,1.665 -3.71,3.711l0,16.511c0,2.046 1.664,3.71 3.71,3.71l3.447,0c2.046,0 3.711,-1.665 3.711,-3.711l0,-16.51c0,-2.046 -1.665,-3.711 -3.711,-3.711l-3.447,0Zm3.447,25.432l-3.447,0c-2.873,0 -5.21,-2.337 -5.21,-5.21l0,-16.511c0,-2.873 2.337,-5.211 5.21,-5.211l3.447,0c2.873,0 5.211,2.338 5.211,5.211l0,16.51c0,2.873 -2.338,5.211 -5.211,5.211Z" style="fill:#414043;fill-rule:nonzero;"/><path d="M261.121,133.982l0,15.666c0,13.123 -10.736,23.859 -23.858,23.859c-13.123,0 -23.859,-10.736 -23.859,-23.859l0,-15.666c11.801,0 21.064,-10.004 23.647,-13.099c0.378,-0.453 1.071,-0.455 1.452,-0.004c2.609,3.091 11.891,13.103 22.618,13.103Z" style="fill:#fdd9c7;fill-rule:nonzero;"/><path d="M238.503,120.879c-0.381,-0.451 -1.074,-0.449 -1.452,0.004c-0.419,0.502 -1.016,1.187 -1.768,1.98c3.886,4.098 11.853,11.119 20.838,11.119l0,15.666c0,12.279 -9.4,22.466 -21.358,23.726c0.822,0.087 1.656,0.133 2.5,0.133c13.122,0 23.858,-10.736 23.858,-23.859l0,-15.666c-10.727,0 -20.009,-10.012 -22.618,-13.103Z" style="fill:#fee6d9;fill-rule:nonzero;"/><path d="M214.154,134.72l0,14.928c0,12.742 10.366,23.109 23.108,23.109c12.742,0 23.11,-10.367 23.11,-23.109l0,-14.931c-10.722,-0.446 -19.854,-10.288 -22.443,-13.353l-0.151,-0.071l-0.15,0.071c-2.564,3.071 -11.71,12.947 -23.474,13.356Zm23.108,39.537c-13.569,0 -24.608,-11.039 -24.608,-24.609l0,-16.416l0.75,0c11.473,0 20.559,-9.819 23.071,-12.829c0.322,-0.387 0.796,-0.609 1.298,-0.61l0.006,0c0.5,0 0.973,0.219 1.297,0.603c2.543,3.011 11.648,12.836 22.046,12.836l0.75,0l0,16.416c0,13.57 -11.04,24.609 -24.61,24.609Z" style="fill:#414043;fill-rule:nonzero;"/><path d="M238.446,153.724l-1.805,0l0,-1.5l1.805,0c0.542,0 0.983,-0.441 0.983,-0.984l0,-0.159c0,-0.543 -0.441,-0.985 -0.983,-0.985l-1.169,0l0,-5.699l1.5,0l0,4.222c1.214,0.162 2.152,1.204 2.152,2.462l0,0.159c0,1.37 -1.114,2.484 -2.483,2.484Z" style="fill:#414043;fill-rule:nonzero;"/><path d="M243.447,158.923c0,3.415 -2.769,6.184 -6.184,6.184c-3.416,0 -6.185,-2.769 -6.185,-6.184l12.369,0Z" style="fill:#fff;fill-rule:nonzero;"/><path d="M231.88,159.673c0.367,2.642 2.64,4.684 5.382,4.684c2.742,0 5.017,-2.042 5.383,-4.684l-10.765,0Zm5.382,6.184c-3.823,0 -6.933,-3.11 -6.933,-6.934l0,-0.75l13.868,0l0,0.75c0,3.824 -3.11,6.934 -6.935,6.934Z" style="fill:#414043;fill-rule:nonzero;"/><path d="M225.481,153.971l-2.75,0c-1.1,0 -2,-0.9 -2,-2c0,-1.1 0.9,-2 2,-2l2.75,0c1.1,0 2,0.9 2,2c0,1.1 -0.9,2 -2,2Z" style="fill:#f9bda8;fill-rule:nonzero;"/><path d="M250.303,155.045l-2.75,0c-1.1,0 -2,-0.9 -2,-2c0,-1.1 0.9,-2 2,-2l2.75,0c1.1,0 2,0.9 2,2c0,1.1 -0.9,2 -2,2Z" style="fill:#f9bda8;fill-rule:nonzero;"/><path d="M228.327,141.928c0,0.987 -0.8,1.788 -1.788,1.788c-0.987,0 -1.787,-0.801 -1.787,-1.788c0,-0.987 0.8,-1.787 1.787,-1.787c0.988,0 1.788,0.8 1.788,1.787Z" style="fill:#414043;fill-rule:nonzero;"/><path d="M249.774,141.928c0,0.987 -0.801,1.788 -1.788,1.788c-0.987,0 -1.788,-0.801 -1.788,-1.788c0,-0.987 0.801,-1.787 1.788,-1.787c0.987,0 1.788,0.8 1.788,1.787Z" style="fill:#414043;fill-rule:nonzero;"/><path d="M222.419,139.192l-0.397,-1.447l7.315,-2l0.397,1.447l-7.315,2Z" style="fill:#414043;fill-rule:nonzero;"/><path d="M252.337,139.192l-7.315,-2l0.397,-1.447l7.315,2l-0.397,1.447Z" style="fill:#414043;fill-rule:nonzero;"/><path d="M252.199,109.494l-10.386,-4.257c-1.018,-0.417 -1.51,-1.591 -1.093,-2.609l0.444,-1.081c0.417,-1.018 1.591,-1.509 2.609,-1.092l10.386,4.257c1.018,0.417 1.51,1.591 1.093,2.609l-0.444,1.081c-0.417,1.018 -1.591,1.509 -2.609,1.092Z" style="fill:#fbe99c;fill-rule:nonzero;"/><path d="M252.484,108.8c0.308,0.125 0.645,0.123 0.956,-0.006c0.309,-0.129 0.549,-0.37 0.674,-0.677l0.443,-1.081c0.262,-0.637 -0.045,-1.369 -0.682,-1.63l-10.386,-4.257c-0.307,-0.127 -0.648,-0.125 -0.956,0.006c-0.31,0.129 -0.55,0.369 -0.675,0.676l-0.443,1.081c-0.262,0.638 0.045,1.37 0.682,1.631l10.387,4.257Zm0.47,1.593c-0.353,0 -0.704,-0.068 -1.038,-0.205l-10.387,-4.257c-1.403,-0.575 -2.077,-2.185 -1.503,-3.587l0.443,-1.082c0.279,-0.677 0.805,-1.207 1.484,-1.491c0.679,-0.285 1.426,-0.288 2.104,-0.01l10.387,4.257c1.402,0.575 2.076,2.184 1.502,3.587l-0.443,1.081c-0.279,0.678 -0.805,1.207 -1.484,1.492c-0.344,0.144 -0.705,0.215 -1.065,0.215Z" style="fill:#414043;fill-rule:nonzero;"/><rect x="243.887" y="206.106" width="60.606" height="12.583" style="fill:#fbe99c;fill-rule:nonzero;"/><rect x="243.887" y="206.106" width="60.606" height="5.6" style="fill:#fdf7d9;fill-rule:nonzero;"/><rect x="254.282" y="206.106" width="1.5" height="3.866" style="fill:#414043;fill-rule:nonzero;"/><rect x="246.552" y="206.106" width="1.5" height="3.866" style="fill:#414043;fill-rule:nonzero;"/><rect x="262.012" y="206.106" width="1.5" height="3.866" style="fill:#414043;fill-rule:nonzero;"/><rect x="269.742" y="206.106" width="1.5" height="3.866" style="fill:#414043;fill-rule:nonzero;"/><rect x="277.471" y="206.106" width="1.5" height="3.866" style="fill:#414043;fill-rule:nonzero;"/><rect x="292.931" y="206.106" width="1.5" height="3.866" style="fill:#414043;fill-rule:nonzero;"/><rect x="285.202" y="206.106" width="1.5" height="3.866" style="fill:#414043;fill-rule:nonzero;"/><rect x="300.661" y="206.106" width="1.5" height="3.866" style="fill:#414043;fill-rule:nonzero;"/><path d="M244.772,206.856l-0.135,0.135l0,10.813l0.135,0.135l58.835,0l0.136,-0.135l0,-10.813l-0.136,-0.135l-58.835,0Zm58.835,12.583l-58.835,0c-0.901,0 -1.635,-0.733 -1.635,-1.635l0,-10.813c0,-0.901 0.734,-1.635 1.635,-1.635l58.835,0c0.902,0 1.636,0.734 1.636,1.635l0,10.813c0,0.902 -0.734,1.635 -1.636,1.635Z" style="fill:#414043;fill-rule:nonzero;"/><path d="M163.825,83.135c-4.889,-11.202 -1.641,-31.75 -1.641,-31.75c0,-16.203 -13.136,-29.339 -29.343,-29.339c-16.204,0 -29.34,13.136 -29.34,29.339c0,0 3.904,20.284 -1.41,31.682c-1.266,2.717 0.165,5.911 3.073,6.635l28.432,7.082l27.142,-7.064c2.862,-0.745 4.27,-3.873 3.087,-6.585Z" style="fill:#fbe99c;fill-rule:nonzero;"/><path d="M107.777,89.702c-2.908,-0.724 -4.339,-3.918 -3.073,-6.635c5.315,-11.398 1.41,-31.682 1.41,-31.682c0,-15.765 12.436,-28.622 28.034,-29.307c-0.434,-0.019 -0.868,-0.032 -1.307,-0.032c-16.204,0 -29.34,13.136 -29.34,29.339c0,0 3.904,20.284 -1.41,31.682c-1.266,2.717 0.165,5.911 3.073,6.635l28.432,7.082l1.277,-0.333l-27.096,-6.749Z" style="fill:#beaf76;fill-rule:nonzero;"/><path d="M104.251,51.315c0.284,1.508 3.639,20.086 -1.193,31.426c-0.547,1.283 -0.505,2.733 0.115,3.979c0.619,1.243 1.748,2.149 3.098,2.485l27.32,6.805l26.671,-6.941c1.213,-0.316 2.223,-1.144 2.773,-2.272c0.532,-1.094 0.564,-2.299 0.088,-3.394c-4.817,-11.09 -1.916,-30.615 -1.689,-32.076c-0.032,-15.737 -12.846,-28.531 -28.593,-28.531c-15.741,0 -28.552,12.786 -28.59,28.519Zm29.348,46.243l-27.691,-6.898c-1.777,-0.442 -3.263,-1.635 -4.078,-3.272c-0.816,-1.639 -0.871,-3.547 -0.152,-5.234c4.752,-11.151 1.124,-30.434 1.087,-30.627l-0.014,-0.142c0,-16.591 13.499,-30.089 30.09,-30.089c16.593,0 30.093,13.498 30.093,30.089l-0.01,0.117c-0.031,0.203 -3.15,20.425 1.575,31.303c0.644,1.482 0.602,3.176 -0.116,4.648c-0.741,1.523 -2.106,2.641 -3.743,3.067l-27.041,7.038Z" style="fill:#414043;fill-rule:nonzero;"/><path d="M161.555,218.689l0,-99.407c0,-15.602 -12.765,-28.367 -28.368,-28.367c-15.602,0 -28.367,12.765 -28.367,28.367l0,99.407l56.735,0Z" style="fill:#e78866;fill-rule:nonzero;"/><rect x="118.771" y="117.313" width="1.5" height="101.376" style="fill:#414043;fill-rule:nonzero;"/><rect x="147.72" y="117.313" width="1.5" height="101.376" style="fill:#414043;fill-rule:nonzero;"/><path d="M122.222,106.957l1.603,1.003c6.096,3.813 13.868,3.665 19.815,-0.376c3.534,-2.402 5.65,-6.399 5.65,-10.672l0,-0.943c-4.583,-3.181 -10.133,-5.054 -16.103,-5.054c-5.969,0 -11.52,1.873 -16.102,5.054l0,1.715c0,3.77 1.941,7.274 5.137,9.273Z" style="fill:#fdd9c7;fill-rule:nonzero;"/><path d="M133.443,111.469c-3.472,0 -6.949,-0.956 -10.015,-2.874l-1.603,-1.002c-3.438,-2.15 -5.49,-5.854 -5.49,-9.91l0,-1.659l1.5,0l0,1.659c0,3.536 1.789,6.765 4.785,8.639l1.603,1.002c5.841,3.652 13.297,3.511 18.995,-0.36c3.332,-2.265 5.322,-6.023 5.322,-10.052l0,-0.981l1.5,0l0,0.981c0,4.526 -2.235,8.748 -5.979,11.292c-3.198,2.173 -6.906,3.265 -10.618,3.265Z" style="fill:#414043;fill-rule:nonzero;"/><rect x="133.105" y="106.547" width="1.5" height="4.932" style="fill:#414043;fill-rule:nonzero;"/><path d="M162.305,218.689l-1.5,0l0,-99.407c0,-15.229 -12.389,-27.618 -27.617,-27.618c-15.229,0 -27.618,12.389 -27.618,27.618l0,99.407l-1.5,0l0,-99.407c0,-16.056 13.062,-29.118 29.118,-29.118c16.055,0 29.117,13.062 29.117,29.118l0,99.407Z" style="fill:#414043;fill-rule:nonzero;"/><path d="M134.911,98.322l-3.447,0c-2.464,0 -4.461,-1.997 -4.461,-4.46l0,-16.511c0,-2.463 1.997,-4.46 4.461,-4.46l3.447,0c2.464,0 4.461,1.997 4.461,4.46l0,16.511c0,2.463 -1.997,4.46 -4.461,4.46Z" style="fill:#fdd9c7;fill-rule:nonzero;"/><path d="M127.753,93.862l-1.5,0l0,-16.511c0,-2.873 2.337,-5.211 5.211,-5.211l3.447,0c2.873,0 5.211,2.338 5.211,5.211l0,16.511l-1.5,0l0,-16.511c0,-2.046 -1.665,-3.711 -3.711,-3.711l-3.447,0c-2.046,0 -3.711,1.665 -3.711,3.711l0,16.511Z" style="fill:#414043;fill-rule:nonzero;"/><path d="M115.22,62.223c0,2.398 -1.943,4.342 -4.341,4.342c-2.398,0 -4.342,-1.944 -4.342,-4.342c0,-2.398 1.944,-4.341 4.342,-4.341c2.398,0 4.341,1.943 4.341,4.341Z" style="fill:#fdd9c7;fill-rule:nonzero;"/><path d="M110.879,57.895c-1.98,0 -3.592,1.612 -3.592,3.592c0,1.981 1.612,3.592 3.592,3.592c1.98,0 3.591,-1.611 3.591,-3.592c0,-1.98 -1.611,-3.592 -3.591,-3.592Zm0,8.684c-2.808,0 -5.092,-2.284 -5.092,-5.092c0,-2.808 2.284,-5.092 5.092,-5.092c2.807,0 5.091,2.284 5.091,5.092c0,2.808 -2.284,5.092 -5.091,5.092Z" style="fill:#414043;fill-rule:nonzero;"/><path d="M161.217,62.223c0,2.398 -1.944,4.342 -4.342,4.342c-2.398,0 -4.342,-1.944 -4.342,-4.342c0,-2.398 1.944,-4.341 4.342,-4.341c2.398,0 4.342,1.943 4.342,4.341Z" style="fill:#fdd9c7;fill-rule:nonzero;"/><path d="M156.875,57.895c-1.98,0 -3.592,1.612 -3.592,3.592c0,1.981 1.612,3.592 3.592,3.592c1.981,0 3.592,-1.611 3.592,-3.592c0,-1.98 -1.611,-3.592 -3.592,-3.592Zm0,8.684c-2.808,0 -5.092,-2.284 -5.092,-5.092c0,-2.808 2.284,-5.092 5.092,-5.092c2.808,0 5.092,2.284 5.092,5.092c0,2.808 -2.284,5.092 -5.092,5.092Z" style="fill:#414043;fill-rule:nonzero;"/><path d="M125.552,39.799c-8.379,0 -15.172,6.793 -15.172,15.171l0,9.29c0,12.904 10.461,23.365 23.362,23.365c12.905,0 23.362,-10.461 23.362,-23.365c0,0 0,-7.355 0,-9.807c0,-8.438 -5.937,-14.654 -6.815,-14.654l-24.737,0Z" style="fill:#fdd9c7;fill-rule:nonzero;"/><path d="M150.289,39.799l-2.789,0c2.013,2.482 4.604,7.076 4.604,12.654c0,2.452 0,9.807 0,9.807c0,12.904 -10.457,23.365 -23.362,23.365c-2.124,0 -4.179,-0.289 -6.134,-0.82c3.31,1.798 7.102,2.82 11.134,2.82c12.905,0 23.362,-10.461 23.362,-23.365c0,0 0,-7.355 0,-9.807c0,-8.438 -5.937,-14.654 -6.815,-14.654Z" style="fill:#fee6d9;fill-rule:nonzero;"/><path d="M124.511,40.549c-7.378,0 -13.381,6.003 -13.381,13.38l0,10.332c0,12.469 10.144,22.614 22.612,22.614c12.468,0 22.612,-10.145 22.612,-22.614l0,-7.66c0.057,-6.006 -1.117,-10.135 -3.59,-12.632c-2.977,-3.005 -7.749,-3.42 -12.462,-3.42l-15.791,0Zm9.231,47.826c-13.295,0 -24.112,-10.818 -24.112,-24.114l0,-10.332c0,-8.205 6.676,-14.88 14.881,-14.88l15.791,0c5.038,0 10.164,0.468 13.528,3.865c2.769,2.795 4.085,7.274 4.024,13.694l0,7.653c0,13.296 -10.817,24.114 -24.112,24.114Z" style="fill:#414043;fill-rule:nonzero;"/><rect x="132.462" y="81.207" width="3.213" height="1.5" style="fill:#414043;fill-rule:nonzero;"/><path d="M113.305,36.903c0,0 23.542,18.849 44.793,11.102l0,-8.183l-16.026,-10.103l-25.837,1.734l-2.93,5.45Z" style="fill:#fbe99c;fill-rule:nonzero;"/><path d="M113.615,35.454l-0.31,0.578l0.074,0.058l0.236,-0.636Z" style="fill:#fdf7d9;fill-rule:nonzero;"/><path d="M115.424,37.585c5.65,3.935 21.778,13.808 37.744,10.885c2.945,-0.54 5.256,-2.844 5.888,-5.771c-16.348,7.854 -37.157,-1.798 -43.632,-5.114Z" style="fill:#fdf7d9;fill-rule:nonzero;"/><path d="M121.811,42.18c0,0 -1.883,10.358 -13.412,10.358l-1.163,-5.033l4.598,-11.515l9.977,6.19Z" style="fill:#fbe99c;fill-rule:nonzero;"/><path d="M108.399,53.287l0,-1.5c10.744,0 12.601,-9.344 12.674,-9.742l1.476,0.27c-0.02,0.11 -2.134,10.972 -14.15,10.972Z" style="fill:#414043;fill-rule:nonzero;"/><path d="M147.707,50.318c-17.613,0 -33.781,-12.021 -33.978,-12.169l0.904,-1.198c0.233,0.176 23.552,17.499 44.166,9.985l0.514,1.409c-3.836,1.398 -7.756,1.973 -11.606,1.973Z" style="fill:#414043;fill-rule:nonzero;"/><path d="M124.962,70.161c0,1.74 -1.413,3.15 -3.152,3.15c-1.739,0 -3.149,-1.41 -3.149,-3.15c0,-1.738 1.41,-3.15 3.149,-3.15c1.739,0 3.152,1.412 3.152,3.15Z" style="fill:#f9bda8;fill-rule:nonzero;"/><path d="M149.877,70.161c0,1.74 -1.413,3.15 -3.152,3.15c-1.739,0 -3.15,-1.41 -3.15,-3.15c0,-1.738 1.411,-3.15 3.15,-3.15c1.739,0 3.152,1.412 3.152,3.15Z" style="fill:#f9bda8;fill-rule:nonzero;"/><path d="M144.817,59.529l-1.5,0c0,-1.112 -0.904,-2.016 -2.016,-2.016c-1.111,0 -2.016,0.904 -2.016,2.016l-1.5,0c0,-1.939 1.577,-3.516 3.516,-3.516c1.939,0 3.516,1.577 3.516,3.516Z" style="fill:#414043;fill-rule:nonzero;"/><path d="M129.516,59.529l-1.5,0c0,-1.112 -0.904,-2.016 -2.015,-2.016c-1.112,0 -2.017,0.904 -2.017,2.016l-1.5,0c0,-1.939 1.578,-3.516 3.517,-3.516c1.938,0 3.515,1.577 3.515,3.516Z" style="fill:#414043;fill-rule:nonzero;"/><path d="M140.348,73.247c0,3.468 -2.811,6.28 -6.279,6.28c-3.468,0 -6.28,-2.812 -6.28,-6.28l12.559,0Z" style="fill:#fff;fill-rule:nonzero;"/><path d="M128.59,73.997c0.368,2.696 2.684,4.78 5.479,4.78c2.795,0 5.112,-2.084 5.479,-4.78l-10.958,0Zm5.479,6.28c-3.876,0 -7.029,-3.154 -7.029,-7.03l0,-0.75l14.059,0l0,0.75c0,3.876 -3.154,7.03 -7.03,7.03Z" style="fill:#414043;fill-rule:nonzero;"/><path d="M134.252,68.579l-1.315,0l0,-1.5l1.315,0c0.462,0 0.839,-0.377 0.839,-0.839c0,-0.463 -0.377,-0.839 -0.839,-0.839l-0.933,0l0,-4.872l1.5,0l0,3.441c1.017,0.254 1.772,1.176 1.772,2.27c0,1.29 -1.049,2.339 -2.339,2.339Z" style="fill:#414043;fill-rule:nonzero;"/><path d="M123.637,218.689l-3,0l0,-18.407c0,-1.573 -0.125,-3.118 -0.366,-4.624l0,-8.958c2.148,4.057 3.366,8.68 3.366,13.582l0,18.407Zm-4.866,-28.669c-2.458,-6.504 -7.181,-11.905 -13.201,-15.236l0,-0.329c5.214,-4.277 8.546,-10.767 8.546,-18.022l0,-11.677c1.686,-0.327 2.963,-1.815 2.963,-3.595l0,-2.823c0,-0.222 -0.02,-0.44 -0.058,-0.651c0.86,-0.698 1.49,-1.672 1.75,-2.792l0,9.066c-0.467,0.393 -1.033,0.671 -1.655,0.791l0,11.681c0,7.368 -3.441,13.944 -8.797,18.216c4.215,2.278 7.807,5.565 10.452,9.534l0,5.837Zm1.5,-51.585l0,-21.122l-1.369,0l0,-3.327c0,-4.5 -3.649,-8.149 -8.149,-8.149l-1.684,0c0.141,-0.252 0.287,-0.503 0.435,-0.75l4.248,0c4.908,0 8.9,3.992 8.9,8.899l0,19.756c0,1.625 -0.652,3.132 -1.835,4.245c-0.174,0.163 -0.357,0.311 -0.546,0.448Z" style="fill:#ac6953;fill-rule:nonzero;"/><path d="M120.271,195.658c-0.313,-1.95 -0.82,-3.836 -1.5,-5.638l0,-5.837c0.54,0.812 1.041,1.651 1.5,2.517l0,8.958Zm-1.5,-51.697l0,-9.066c0.085,-0.37 0.131,-0.756 0.131,-1.153l0,-16.429l1.369,0l0,21.122c-0.064,0.045 -0.128,0.09 -0.192,0.134l0,2.592c0,1.124 -0.509,2.129 -1.308,2.8Z" style="fill:#383638;fill-rule:nonzero;"/><path d="M105.57,174.784c-0.081,-0.045 -0.162,-0.089 -0.243,-0.133c0.081,-0.065 0.162,-0.13 0.243,-0.196l0,0.329Zm3.499,-68.947l-1.685,0c0.132,-0.252 0.268,-0.502 0.407,-0.75l1.713,0c-0.148,0.247 -0.294,0.498 -0.435,0.75Z" style="fill:#383638;fill-rule:nonzero;"/><path d="M119.888,218.689l0,-18.407c0,-15.602 -12.766,-28.368 -28.368,-28.368c-15.602,0 -28.368,12.766 -28.368,28.368l0,18.407l56.736,0Z" style="fill:#fbe99c;fill-rule:nonzero;"/><path d="M120.637,218.689l-1.5,0l0,-18.407c0,-15.228 -12.389,-27.617 -27.617,-27.617c-15.228,0 -27.618,12.389 -27.618,27.617l0,18.407l-1.5,0l0,-18.407c0,-16.056 13.062,-29.117 29.118,-29.117c16.055,0 29.117,13.061 29.117,29.117l0,18.407Z" style="fill:#414043;fill-rule:nonzero;"/><rect x="77.103" y="198.313" width="1.5" height="20.376" style="fill:#414043;fill-rule:nonzero;"/><rect x="106.052" y="198.313" width="1.5" height="20.376" style="fill:#414043;fill-rule:nonzero;"/><path d="M92.734,183.384l-3.448,0c-2.463,0 -4.46,-1.997 -4.46,-4.461l0,-16.511c0,-2.463 1.997,-4.46 4.46,-4.46l3.448,0c2.463,0 4.46,1.997 4.46,4.46l0,16.511c0,2.464 -1.997,4.461 -4.46,4.461Z" style="fill:#ccb5aa;fill-rule:nonzero;"/><path d="M89.286,158.702c-2.046,0 -3.71,1.665 -3.71,3.711l0,16.511c0,2.046 1.664,3.71 3.71,3.71l3.447,0c2.047,0 3.711,-1.665 3.711,-3.711l0,-16.51c0,-2.046 -1.664,-3.711 -3.711,-3.711l-3.447,0Zm3.447,25.432l-3.447,0c-2.873,0 -5.21,-2.337 -5.21,-5.21l0,-16.511c0,-2.873 2.337,-5.211 5.21,-5.211l3.447,0c2.874,0 5.211,2.338 5.211,5.211l0,16.51c0,2.873 -2.337,5.211 -5.211,5.211Z" style="fill:#414043;fill-rule:nonzero;"/><path d="M116.329,141.161c0,1.607 -1.304,2.912 -2.911,2.912c-1.61,0 -2.912,-1.305 -2.912,-2.912l0,-2.824c0,-1.609 1.302,-2.912 2.912,-2.912c1.607,0 2.911,1.303 2.911,2.912l0,2.824Z" style="fill:#fee6d9;fill-rule:nonzero;"/><path d="M113.418,136.175c-1.192,0 -2.162,0.97 -2.162,2.163l0,2.823c0,1.192 0.97,2.162 2.162,2.162c1.191,0 2.161,-0.97 2.161,-2.162l0,-2.823c0,-1.193 -0.97,-2.163 -2.161,-2.163Zm0,8.648c-2.019,0 -3.662,-1.642 -3.662,-3.662l0,-2.823c0,-2.02 1.643,-3.663 3.662,-3.663c2.018,0 3.661,1.643 3.661,3.663l0,2.823c0,2.02 -1.643,3.662 -3.661,3.662Z" style="fill:#414043;fill-rule:nonzero;"/><path d="M71.149,141.161c0,1.607 -1.304,2.912 -2.911,2.912c-1.61,0 -2.911,-1.305 -2.911,-2.912l0,-2.824c0,-1.609 1.301,-2.912 2.911,-2.912c1.607,0 2.911,1.303 2.911,2.912l0,2.824Z" style="fill:#fee6d9;fill-rule:nonzero;"/><path d="M68.238,136.175c-1.192,0 -2.161,0.97 -2.161,2.163l0,2.823c0,1.192 0.969,2.162 2.161,2.162c1.191,0 2.161,-0.97 2.161,-2.162l0,-2.823c0,-1.193 -0.97,-2.163 -2.161,-2.163Zm0,8.648c-2.019,0 -3.661,-1.642 -3.661,-3.662l0,-2.823c0,-2.02 1.642,-3.663 3.661,-3.663c2.018,0 3.661,1.643 3.661,3.663l0,2.823c0,2.02 -1.643,3.662 -3.661,3.662Z" style="fill:#414043;fill-rule:nonzero;"/><path d="M90.816,178.983c-12.402,0 -22.549,-10.147 -22.549,-22.55l0,-25.897c0,-12.402 10.147,-22.55 22.549,-22.55c12.403,0 22.55,10.148 22.55,22.55l0,25.897c0,12.403 -10.147,22.55 -22.55,22.55Z" style="fill:#535252;fill-rule:nonzero;"/><path d="M90.816,178.233c-4.614,0 -8.898,-1.441 -12.425,-3.897c2.606,1.061 5.45,1.647 8.425,1.647c12.403,0 22.55,-10.147 22.55,-22.55l0,-1.079c1.319,-0.618 2.081,-2.063 2.081,-4.867l0,-13.206c0,-2.104 -0.037,-4.208 -0.185,-6.225c0.428,-0.33 0.789,-0.648 1.087,-0.936c0.176,1.113 0.267,2.254 0.267,3.416l0,25.897c0,12.021 -9.779,21.8 -21.8,21.8Z" style="fill:#4c494b;fill-rule:nonzero;"/><path d="M90.816,108.736c-12.02,0 -21.799,9.779 -21.799,21.8l0,25.897c0,12.021 9.779,21.8 21.799,21.8c12.021,0 21.8,-9.779 21.8,-21.8l0,-25.897c0,-12.021 -9.779,-21.8 -21.8,-21.8Zm0,70.997c-12.847,0 -23.299,-10.452 -23.299,-23.3l0,-25.897c0,-12.848 10.452,-23.3 23.299,-23.3c12.848,0 23.3,10.452 23.3,23.3l0,25.897c0,12.848 -10.452,23.3 -23.3,23.3Z" style="fill:#414043;fill-rule:nonzero;"/><path d="M90.816,149.734c-10.311,0 -20.631,8.065 -20.631,-2.247l0,-13.206c0,-10.311 -0.975,-20.631 9.336,-20.631l20.708,0c10.312,0 11.218,10.32 11.218,20.631l0,13.206c0,10.312 -10.319,2.247 -20.631,2.247Z" style="fill:#ccb5aa;fill-rule:nonzero;"/><path d="M97.415,156.431c0,3.644 -2.954,6.598 -6.599,6.598c-3.644,0 -6.598,-2.954 -6.598,-6.598l13.197,0Z" style="fill:#fff;fill-rule:nonzero;"/><path d="M85.016,157.18c0.369,2.873 2.83,5.099 5.8,5.099c2.971,0 5.432,-2.226 5.801,-5.099l-11.601,0Zm5.8,6.599c-4.052,0 -7.348,-3.297 -7.348,-7.349l0,-0.75l14.697,0l0,0.75c0,4.052 -3.297,7.349 -7.349,7.349Z" style="fill:#414043;fill-rule:nonzero;"/><path d="M77.23,137.02l-0.199,-1.486l7.471,-1l0.199,1.486l-7.471,1Z" style="fill:#414043;fill-rule:nonzero;"/><path d="M104.502,137.02l-7.471,-1l0.199,-1.486l7.471,1l-0.199,1.486Z" style="fill:#414043;fill-rule:nonzero;"/><path d="M83.758,139.798c0,1.045 -0.847,1.892 -1.892,1.892c-1.045,0 -1.892,-0.847 -1.892,-1.892c0,-1.045 0.847,-1.892 1.892,-1.892c1.045,0 1.892,0.847 1.892,1.892Z" style="fill:#414043;fill-rule:nonzero;"/><path d="M94.406,148.859l-5.022,0l0,-1.5l3.522,0l0,-1.032c0,-0.486 -0.396,-0.882 -0.882,-0.882l-2.085,0l0,-7.409l1.5,0l0,5.909l0.585,0c1.313,0 2.382,1.068 2.382,2.382l0,2.532Z" style="fill:#414043;fill-rule:nonzero;"/><path d="M68.037,139.414c-3.023,0 -5.474,-2.451 -5.474,-5.475l0,-13.161c0,-4.53 3.672,-8.202 8.202,-8.202c0,-3.722 3.017,-6.739 6.739,-6.739l33.249,0c4.5,0 8.149,3.649 8.149,8.149l0,19.756c0,2.927 -2.468,5.247 -5.388,5.067l0,-13.047c0,0 -3.755,6.134 -15.577,6.119c-14.286,-0.017 -23.572,-7.071 -23.572,-7.071c0,0 -0.877,1.941 -2.79,3.635c-1.758,1.555 -3.538,1.005 -3.538,1.005l0,9.964Z" style="fill:#535252;fill-rule:nonzero;"/><path d="M69.039,129.538c0.324,-0.018 0.708,-0.082 1.122,-0.234c-0.414,0.152 -0.798,0.216 -1.122,0.234Z" style="fill:#4c494b;fill-rule:nonzero;"/><path d="M70.765,112.551c0,-0.002 0,-0.005 0,-0.008c0,0.003 0,0.006 0,0.008Zm0,-0.026c0,-0.002 0,-0.005 0,-0.008c0,0.003 0,0.006 0,0.008Zm0,-0.027c0.001,-0.002 0.001,-0.004 0.001,-0.006c0,0.002 0,0.004 -0.001,0.006Zm0.001,-0.057c0,-0.002 0,-0.004 0.001,-0.006c-0.001,0.002 -0.001,0.004 -0.001,0.006Zm0.001,-0.027c0,-0.001 0,-0.003 0,-0.005c0,0.002 0,0.003 0,0.005Z" style="fill:#9f9fa1;fill-rule:nonzero;"/><path d="M68.826,129.544c0,0 -0.001,0 -0.002,0c0.001,0 0.002,0 0.002,0Zm0.033,0c0.058,0 0.118,-0.002 0.18,-0.006c-0.062,0.004 -0.122,0.006 -0.18,0.006Z" style="fill:#414043;fill-rule:nonzero;"/><path d="M70.161,129.304c0.399,-0.146 0.826,-0.375 1.256,-0.725c-0.43,0.35 -0.857,0.579 -1.256,0.725Zm1.26,-0.729c0.019,-0.015 0.039,-0.031 0.058,-0.047c-0.019,0.016 -0.039,0.032 -0.058,0.047Zm0.059,-0.048c0.008,-0.007 0.016,-0.014 0.024,-0.021c-0.008,0.007 -0.016,0.014 -0.024,0.021Zm0.037,-0.032c0.02,-0.017 0.039,-0.033 0.058,-0.05c-0.019,0.017 -0.038,0.033 -0.058,0.05Z" style="fill:#8c7f7b;fill-rule:nonzero;"/><path d="M68.037,139.414c-2.551,0 -4.694,-1.745 -5.301,-4.107c-0.113,-0.437 -0.173,-0.895 -0.173,-1.368l0,-13.161c0,-4.53 3.672,-8.202 8.202,-8.202l0,-0.078c0.001,-0.002 0.001,-0.004 0.001,-0.006l0,-0.051c0,-0.002 0,-0.004 0.001,-0.006l0,-0.026c0.001,-0.027 0.002,-0.053 0.003,-0.08c0.081,-2.254 1.271,-4.222 3.038,-5.385c2.615,15.682 18.359,18.854 30.507,24.079c-1.741,0.567 -3.666,0.806 -5.677,0.806c-10.891,0 -24.273,-7.019 -24.273,-7.019l0,0.001c-0.017,0.037 -0.895,1.956 -2.79,3.634c-0.019,0.017 -0.038,0.033 -0.058,0.05c-0.004,0.004 -0.009,0.008 -0.013,0.011c-0.008,0.007 -0.016,0.014 -0.024,0.021c-0.001,0 -0.001,0.001 -0.001,0.001c-0.019,0.016 -0.039,0.032 -0.058,0.047c-0.001,0.002 -0.003,0.003 -0.004,0.004c-0.43,0.35 -0.857,0.579 -1.256,0.725c-0.414,0.152 -0.798,0.216 -1.122,0.234c-0.062,0.004 -0.122,0.006 -0.18,0.006c-0.011,0 -0.022,0 -0.033,0c0,0 -0.001,0 -0.002,0c-0.47,0 -0.772,-0.09 -0.786,-0.094l-0.001,0l0,9.964Z" style="fill:#4c494b;fill-rule:nonzero;"/><path d="M68.788,140.164l-0.75,0c-3.432,0 -6.225,-2.792 -6.225,-6.225l0,-13.161c0,-4.695 3.633,-8.558 8.237,-8.924c0.364,-3.792 3.568,-6.767 7.454,-6.767l33.249,0c4.907,0 8.899,3.992 8.899,8.899l0,19.756c0,1.625 -0.652,3.132 -1.835,4.245c-1.184,1.112 -2.733,1.665 -4.349,1.571l-0.704,-0.044l0,-13.752l1.5,0l0,12.287c0.942,-0.093 1.82,-0.492 2.525,-1.155c0.879,-0.826 1.363,-1.946 1.363,-3.152l0,-19.756c0,-4.079 -3.319,-7.399 -7.399,-7.399l-33.249,0c-3.302,0 -5.989,2.687 -5.989,5.989l0,0.75l-0.75,0c-4.109,0 -7.452,3.343 -7.452,7.452l0,13.161c0,2.35 1.725,4.305 3.974,4.665l0.001,-10.172l0.971,0.301c0.051,0.016 1.422,0.388 2.819,-0.85c1.773,-1.57 2.596,-3.364 2.604,-3.381l1.367,0.617c-0.039,0.086 -0.966,2.107 -2.977,3.887c-1.217,1.079 -2.469,1.305 -3.284,1.287l0,9.871Z" style="fill:#414043;fill-rule:nonzero;"/><path d="M97.968,132.632l-0.031,0c-14.369,-0.018 -26.703,-9.02 -27.221,-9.404l0.892,-1.206c0.123,0.092 12.466,9.093 26.331,9.11l0.028,0c11.268,0 16.482,-7.703 16.533,-7.782l1.252,0.827c-0.228,0.345 -5.721,8.455 -17.784,8.455Z" style="fill:#414043;fill-rule:nonzero;"/><path d="M103.26,141.69l-1.5,0c0,-1.098 -0.894,-1.993 -1.993,-1.993c-1.099,0 -1.993,0.895 -1.993,1.993l-1.5,0c0,-1.926 1.567,-3.493 3.493,-3.493c1.926,0 3.493,1.567 3.493,3.493Z" style="fill:#414043;fill-rule:nonzero;"/><path d="M175.208,199.566l-12.903,0l0,-80.284c0,-9.459 -4.534,-17.879 -11.542,-23.201c1.527,-0.868 3.293,-1.365 5.172,-1.365l22.63,0c-2.144,4.054 -3.357,8.67 -3.357,13.566l0,51.751c-0.312,0.109 -0.626,0.213 -0.943,0.31l0,2.422c0.316,0.071 0.631,0.148 0.943,0.229l0,36.572Z" style="fill:#b4b2b4;fill-rule:nonzero;"/><path d="M196.959,199.566l-1.5,0l-4.05,0l0,-25.484c3.489,4.8 5.55,10.701 5.55,17.077l0,8.407Zm-13.085,0l-1.5,0l-5.666,0l0,-36.135c5.178,1.659 9.731,4.73 13.201,8.758l0,27.377l-6.035,0Zm-7.166,-40.116l0,-51.168c0,-0.094 0,-0.187 0.001,-0.28c1.199,-5.086 3.777,-9.654 7.314,-13.286l16.285,0l0,10.87c0,5.133 -3.707,9.408 -8.584,10.309l0,11.351c0.355,-0.108 0.723,-0.184 1.112,-0.184c2.123,0 3.848,1.725 3.848,3.845l0,2.999c0,2.119 -1.725,3.844 -3.848,3.844c-0.396,0 -0.772,-0.078 -1.132,-0.19c-0.034,1.049 -0.134,2.08 -0.295,3.092l0,-34.339l-1.5,0l0,39.711c-2.453,6.028 -7.224,10.874 -13.201,13.426Z" style="fill:#9b9899;fill-rule:nonzero;"/><path d="M176.709,108.002c0.048,-4.822 1.339,-9.353 3.566,-13.286l3.748,0c-3.537,3.632 -6.115,8.2 -7.314,13.286Z" style="fill:#afadae;fill-rule:nonzero;"/><path d="M176.708,199.566l-1.5,0l0,-36.572c0.505,0.133 1.005,0.278 1.5,0.437l0,36.135Zm-1.5,-39.533l0,-51.751c0,-4.896 1.213,-9.512 3.357,-13.566l1.71,0c-2.227,3.933 -3.518,8.464 -3.566,13.286c-0.001,0.093 -0.001,0.186 -0.001,0.28l0,51.168c-0.494,0.21 -0.992,0.404 -1.5,0.583Z" style="fill:#383638;fill-rule:nonzero;"/><path d="M191.409,199.566l-1.5,0l0,-27.377c0.525,0.61 1.026,1.241 1.5,1.893l0,25.484Zm-1.5,-53.542l0,-39.711l1.5,0l0,34.339c-0.298,1.868 -0.807,3.668 -1.5,5.372Z" style="fill:#383638;fill-rule:nonzero;"/><path d="M154.924,199.566l-1.5,0l-4.204,0l0,-30.772c3.215,-2.68 7.015,-4.682 11.177,-5.784l0,-2.509c-4.319,-1.211 -8.162,-3.572 -11.177,-6.728l0,-36.46l-1.5,0l0,34.737c-3.155,-3.978 -5.11,-8.948 -5.313,-14.361c-0.197,0.031 -0.394,0.061 -0.599,0.061c-2.119,0 -3.844,-1.725 -3.844,-3.844l0,-2.999c0,-1.184 0.55,-2.232 1.395,-2.938c-0.431,-0.314 -0.714,-0.818 -0.714,-1.39l0.033,-15.849c1.886,-0.543 3.705,-1.385 5.383,-2.526c3.607,-2.451 5.813,-6.458 5.97,-10.795c6.548,5.055 10.774,12.98 10.774,21.873l0,80.284l-5.881,0Zm-14.7,0l-1.5,0l0,-8.407c0,-8.257 3.455,-15.721 8.996,-21.024l0,29.431l-7.496,0Z" style="fill:#ac6953;fill-rule:nonzero;"/><path d="M149.22,199.566l-1.5,0l0,-29.431c0.484,-0.464 0.985,-0.911 1.5,-1.341l0,30.772Zm0,-45.793c-0.526,-0.551 -1.027,-1.126 -1.5,-1.723l0,-34.737l1.5,0l0,36.46Z" style="fill:#383638;fill-rule:nonzero;"/><path d="M138.681,109.163l0.003,-1.331c0.967,-2.897 3.314,-3.704 5.354,-3.704c0.51,0 1.002,0.051 1.447,0.132c0.226,-2.509 1.339,-4.767 3.022,-6.455c-0.27,3.686 -2.204,7.062 -5.289,9.159c-1.42,0.965 -2.95,1.698 -4.537,2.199Z" style="fill:#bca294;fill-rule:nonzero;"/><path d="M138.678,110.73l0.003,-1.567c1.587,-0.501 3.117,-1.234 4.537,-2.199c3.085,-2.097 5.019,-5.473 5.289,-9.159c0.296,-0.297 0.609,-0.576 0.938,-0.836c0.197,0.144 0.393,0.291 0.586,0.44c-0.157,4.337 -2.363,8.344 -5.97,10.795c-1.678,1.141 -3.497,1.983 -5.383,2.526Z" style="fill:#383638;fill-rule:nonzero;"/><path d="M162.305,199.566l-1.5,0l0,-80.284c0,-8.893 -4.226,-16.818 -10.774,-21.873c-0.193,-0.149 -0.389,-0.296 -0.586,-0.44c0.416,-0.328 0.856,-0.625 1.318,-0.888c7.008,5.322 11.542,13.742 11.542,23.201l0,80.284Z" style="fill:#383638;fill-rule:nonzero;"/><path d="M198.209,199.566l0,-8.407c0,-15.602 -12.765,-28.368 -28.368,-28.368c-15.602,0 -28.367,12.766 -28.367,28.368l0,8.407l56.735,0Z" style="fill:#e78866;fill-rule:nonzero;"/><path d="M169.841,162.791c-15.602,0 -28.367,12.766 -28.367,28.368l0,6.198c0,-15.603 12.765,-28.368 28.367,-28.368c15.603,0 28.368,12.765 28.368,28.368l0,-6.198c0,-15.602 -12.765,-28.368 -28.368,-28.368Z" style="fill:#eda185;fill-rule:nonzero;"/><path d="M198.959,199.566l-1.5,0l0,-8.407c0,-15.229 -12.389,-27.617 -27.618,-27.617c-15.228,0 -27.617,12.388 -27.617,27.617l0,8.407l-1.5,0l0,-8.407c0,-16.056 13.062,-29.117 29.117,-29.117c16.056,0 29.118,13.061 29.118,29.117l0,8.407Z" style="fill:#414043;fill-rule:nonzero;"/><rect x="155.424" y="189.19" width="1.5" height="10.376" style="fill:#414043;fill-rule:nonzero;"/><rect x="184.374" y="189.19" width="1.5" height="10.376" style="fill:#414043;fill-rule:nonzero;"/><path d="M171.055,174.261l-3.447,0c-2.464,0 -4.461,-1.997 -4.461,-4.461l0,-16.511c0,-2.463 1.997,-4.46 4.461,-4.46l3.447,0c2.463,0 4.461,1.997 4.461,4.46l0,16.511c0,2.464 -1.998,4.461 -4.461,4.461Z" style="fill:#fdd9c7;fill-rule:nonzero;"/><path d="M167.608,149.579c-2.046,0 -3.711,1.665 -3.711,3.711l0,16.511c0,2.045 1.665,3.71 3.711,3.71l3.447,0c2.046,0 3.71,-1.665 3.71,-3.711l0,-16.51c0,-2.046 -1.664,-3.711 -3.71,-3.711l-3.447,0Zm3.447,25.432l-3.447,0c-2.874,0 -5.211,-2.337 -5.211,-5.21l0,-16.511c0,-2.873 2.337,-5.211 5.211,-5.211l3.447,0c2.873,0 5.21,2.338 5.21,5.211l0,16.51c0,2.873 -2.337,5.211 -5.21,5.211Z" style="fill:#414043;fill-rule:nonzero;"/><path d="M146.9,133.906c0,1.708 -1.385,3.094 -3.092,3.094c-1.711,0 -3.094,-1.386 -3.094,-3.094l0,-2.999c0,-1.71 1.383,-3.094 3.094,-3.094c1.707,0 3.092,1.384 3.092,3.094l0,2.999Z" style="fill:#fee6d9;fill-rule:nonzero;"/><path d="M143.808,128.562c-1.292,0 -2.344,1.052 -2.344,2.345l0,2.999c0,1.292 1.052,2.344 2.344,2.344c1.292,0 2.342,-1.052 2.342,-2.344l0,-2.999c0,-1.293 -1.05,-2.345 -2.342,-2.345Zm0,9.188c-2.119,0 -3.844,-1.725 -3.844,-3.844l0,-2.999c0,-2.12 1.725,-3.845 3.844,-3.845c2.119,0 3.842,1.725 3.842,3.845l0,2.999c0,2.119 -1.723,3.844 -3.842,3.844Z" style="fill:#414043;fill-rule:nonzero;"/><path d="M197.934,133.906c0,1.708 -1.39,3.094 -3.098,3.094c-1.708,0 -3.095,-1.386 -3.095,-3.094l0,-2.999c0,-1.71 1.387,-3.094 3.095,-3.094c1.708,0 3.098,1.384 3.098,3.094l0,2.999Z" style="fill:#fee6d9;fill-rule:nonzero;"/><path d="M194.837,128.562c-1.293,0 -2.346,1.052 -2.346,2.345l0,2.999c0,1.292 1.053,2.344 2.346,2.344c1.294,0 2.347,-1.052 2.347,-2.344l0,-2.999c0,-1.293 -1.053,-2.345 -2.347,-2.345Zm0,9.188c-2.121,0 -3.846,-1.725 -3.846,-3.844l0,-2.999c0,-2.12 1.725,-3.845 3.846,-3.845c2.122,0 3.847,1.725 3.847,3.845l0,2.999c0,2.119 -1.725,3.844 -3.847,3.844Z" style="fill:#414043;fill-rule:nonzero;"/><path d="M192.974,111.708l0,25.046c0,13.209 -10.706,23.917 -23.923,23.917c-13.206,0 -23.918,-10.708 -23.918,-23.917l0,-25.046l47.841,0Z" style="fill:#fdd9c7;fill-rule:nonzero;"/><path d="M185.537,111.708l0,23.806c0,13.209 -10.706,23.917 -23.922,23.917l-0.143,-0.007c2.384,0.797 4.927,1.247 7.579,1.247c13.217,0 23.923,-10.708 23.923,-23.917l0,-25.046l-7.437,0Z" style="fill:#fee6d9;fill-rule:nonzero;"/><path d="M145.883,112.458l0,24.296c0,12.774 10.393,23.167 23.168,23.167c12.778,0 23.173,-10.393 23.173,-23.167l0,-24.296l-46.341,0Zm23.168,48.963c-13.602,0 -24.668,-11.066 -24.668,-24.667l0,-25.796l49.341,0l0,25.796c0,13.601 -11.068,24.667 -24.673,24.667Z" style="fill:#414043;fill-rule:nonzero;"/><path d="M201.558,95.466l0,10.12c0,5.379 -4.359,9.741 -9.741,9.741l-38.754,0c-2.688,0 -4.87,2.184 -4.87,4.873l0,6.378c0,0.536 -0.436,0.974 -0.975,0.974l-4.85,0c-0.534,0 -0.973,-0.438 -0.973,-0.974l0,-18.509c1.53,-4.582 6.798,-2.86 6.798,-2.86c0,-5.38 4.364,-9.743 9.742,-9.743l43.623,0Z" style="fill:#535252;fill-rule:nonzero;"/><path d="M190.79,111.33c5.823,0 10.545,-4.723 10.545,-10.544l0,-5.32l-43.4,0c-5.378,0 -9.742,4.363 -9.742,9.743c0,0 -5.268,-1.722 -6.798,2.86l0,18.994l2.125,0c0.582,0 1.056,-0.471 1.056,-1.055l0,-9.405c0,-2.912 2.365,-5.273 5.27,-5.273l40.944,0Z" style="fill:#aca29d;fill-rule:nonzero;"/><path d="M142.145,108.195l0,18.384c0,0.121 0.102,0.224 0.223,0.224l4.85,0c0.124,0 0.225,-0.101 0.225,-0.224l0,-6.379c0,-3.101 2.521,-5.623 5.62,-5.623l38.754,0c4.958,0 8.991,-4.033 8.991,-8.991l0,-9.37l-42.873,0c-4.958,0 -8.992,4.034 -8.992,8.993l0,1.029l-0.981,-0.316c-0.186,-0.059 -4.497,-1.4 -5.817,2.273Zm5.073,20.108l-4.85,0c-0.95,0 -1.723,-0.774 -1.723,-1.724l0.039,-18.747c1.209,-3.622 4.577,-3.977 6.801,-3.572c0.481,-5.343 4.984,-9.544 10.45,-9.544l44.373,0l0,10.87c0,5.785 -4.706,10.491 -10.491,10.491l-38.754,0c-2.272,0 -4.12,1.85 -4.12,4.123l0,6.379c0,0.95 -0.773,1.724 -1.725,1.724Z" style="fill:#414043;fill-rule:nonzero;"/><path d="M170.514,142.614l-2.804,0l0,-1.5l2.804,0c0.542,0 0.984,-0.441 0.984,-0.983l0,-0.16c0,-0.542 -0.442,-0.984 -0.984,-0.984l-2.168,0l0,-5.7l1.5,0l0,4.2l0.668,0c1.369,0 2.484,1.114 2.484,2.484l0,0.16c0,1.369 -1.115,2.483 -2.484,2.483Z" style="fill:#414043;fill-rule:nonzero;"/><rect x="156.143" y="125.219" width="7.938" height="1.5" style="fill:#414043;fill-rule:nonzero;"/><rect x="175.162" y="125.219" width="7.937" height="1.5" style="fill:#414043;fill-rule:nonzero;"/><path d="M162.122,129.71c0,1.11 -0.9,2.01 -2.01,2.01c-1.11,0 -2.01,-0.9 -2.01,-2.01c0,-1.11 0.9,-2.01 2.01,-2.01c1.11,0 2.01,0.9 2.01,2.01Z" style="fill:#414043;fill-rule:nonzero;"/><path d="M181.14,129.71c0,1.11 -0.9,2.01 -2.01,2.01c-1.11,0 -2.011,-0.9 -2.011,-2.01c0,-1.11 0.901,-2.01 2.011,-2.01c1.11,0 2.01,0.9 2.01,2.01Z" style="fill:#414043;fill-rule:nonzero;"/><path d="M175.516,147.813c0,3.415 -2.769,6.184 -6.185,6.184c-3.415,0 -6.184,-2.769 -6.184,-6.184l12.369,0Z" style="fill:#fff;fill-rule:nonzero;"/><path d="M163.949,148.563c0.366,2.643 2.64,4.684 5.382,4.684c2.742,0 5.016,-2.041 5.382,-4.684l-10.764,0Zm5.382,6.184c-3.823,0 -6.934,-3.11 -6.934,-6.934l0,-0.75l13.868,0l0,0.75c0,3.824 -3.11,6.934 -6.934,6.934Z" style="fill:#414043;fill-rule:nonzero;"/><rect x="166.963" y="156.002" width="4.737" height="1.5" style="fill:#414043;fill-rule:nonzero;"/><rect x="97.112" y="208.744" width="34.824" height="9.945" style="fill:#fdd9c7;fill-rule:nonzero;"/><path d="M97.862,217.939l33.325,0l0,-8.445l-33.325,0l0,8.445Zm34.825,1.5l-36.325,0l0,-11.445l36.325,0l0,11.445Z" style="fill:#414043;fill-rule:nonzero;"/><path d="M84.575,218.689c-1.19,0 -2.164,-0.974 -2.164,-2.164l0,-3.034c0,-1.19 0.974,-2.164 2.164,-2.164c1.19,0 2.164,0.974 2.164,2.164l0,3.034c0,1.19 -0.974,2.164 -2.164,2.164Z" style="fill:#fdd9c7;fill-rule:nonzero;"/><path d="M84.575,212.077c-0.779,0 -1.413,0.635 -1.413,1.414l0,3.034c0,0.779 0.634,1.414 1.413,1.414c0.78,0 1.414,-0.635 1.414,-1.414l0,-3.034c0,-0.779 -0.634,-1.414 -1.414,-1.414Zm0,7.362c-1.606,0 -2.913,-1.307 -2.913,-2.914l0,-3.034c0,-1.606 1.307,-2.914 2.913,-2.914c1.607,0 2.914,1.308 2.914,2.914l0,3.034c0,1.607 -1.307,2.914 -2.914,2.914Z" style="fill:#414043;fill-rule:nonzero;"/><path d="M102.575,218.689c-1.19,0 -2.164,-0.974 -2.164,-2.164l0,-3.034c0,-1.19 0.974,-2.164 2.164,-2.164c1.19,0 2.164,0.974 2.164,2.164l0,3.034c0,1.19 -0.974,2.164 -2.164,2.164Z" style="fill:#fdd9c7;fill-rule:nonzero;"/><path d="M102.575,212.077c-0.779,0 -1.413,0.635 -1.413,1.414l0,3.034c0,0.779 0.634,1.414 1.413,1.414c0.78,0 1.414,-0.635 1.414,-1.414l0,-3.034c0,-0.779 -0.634,-1.414 -1.414,-1.414Zm0,7.362c-1.606,0 -2.913,-1.307 -2.913,-2.914l0,-3.034c0,-1.606 1.307,-2.914 2.913,-2.914c1.607,0 2.914,1.308 2.914,2.914l0,3.034c0,1.607 -1.307,2.914 -2.914,2.914Z" style="fill:#414043;fill-rule:nonzero;"/><path d="M102.51,218.689l0,-3.343c0,-4.744 -3.881,-8.625 -8.625,-8.625c-4.744,0 -8.625,3.881 -8.625,8.625l0,3.343l17.25,0Z" style="fill:#fff;fill-rule:nonzero;"/><path d="M86.01,217.939l15.75,0l0,-2.593c0,-4.342 -3.533,-7.875 -7.875,-7.875c-4.342,0 -7.875,3.533 -7.875,7.875l0,2.593Zm17.25,1.5l-18.75,0l0,-4.093c0,-5.169 4.206,-9.375 9.375,-9.375c5.169,0 9.375,4.206 9.375,9.375l0,4.093Z" style="fill:#414043;fill-rule:nonzero;"/><path d="M98.712,213.917c-1.31,0 -2.382,-1.072 -2.382,-2.382l0,-3.34c0,-1.31 1.072,-2.383 2.382,-2.383c1.31,0 2.382,1.073 2.382,2.383l0,3.34c0,1.31 -1.072,2.382 -2.382,2.382Z" style="fill:#fdd9c7;fill-rule:nonzero;"/><path d="M98.712,206.562c-0.9,0 -1.632,0.733 -1.632,1.633l0,3.34c0,0.899 0.732,1.632 1.632,1.632c0.899,0 1.632,-0.733 1.632,-1.632l0,-3.34c0,-0.9 -0.733,-1.633 -1.632,-1.633Zm0,8.105c-1.728,0 -3.132,-1.405 -3.132,-3.132l0,-3.34c0,-1.727 1.404,-3.133 3.132,-3.133c1.727,0 3.132,1.406 3.132,3.133l0,3.34c0,1.727 -1.405,3.132 -3.132,3.132Z" style="fill:#414043;fill-rule:nonzero;"/><path d="M93.225,212.777c-1.31,0 -2.382,-1.072 -2.382,-2.382l0,-3.341c0,-1.31 1.072,-2.382 2.382,-2.382c1.311,0 2.383,1.072 2.383,2.382l0,3.341c0,1.31 -1.072,2.382 -2.383,2.382Z" style="fill:#fdd9c7;fill-rule:nonzero;"/><path d="M93.225,205.424c-0.9,0 -1.632,0.732 -1.632,1.63l0,3.341c0,0.9 0.732,1.632 1.632,1.632c0.9,0 1.633,-0.732 1.633,-1.632l0,-3.341c0,-0.898 -0.733,-1.63 -1.633,-1.63Zm0,8.103c-1.727,0 -3.132,-1.405 -3.132,-3.132l0,-3.341c0,-1.725 1.405,-3.13 3.132,-3.13c1.727,0 3.133,1.405 3.133,3.13l0,3.341c0,1.727 -1.406,3.132 -3.133,3.132Z" style="fill:#414043;fill-rule:nonzero;"/><path d="M87.739,214.223c-1.31,0 -2.382,-1.072 -2.382,-2.382l0,-3.34c0,-1.31 1.072,-2.383 2.382,-2.383c1.31,0 2.382,1.073 2.382,2.383l0,3.34c0,1.31 -1.072,2.382 -2.382,2.382Z" style="fill:#fdd9c7;fill-rule:nonzero;"/><path d="M87.739,206.868c-0.9,0 -1.632,0.732 -1.632,1.633l0,3.341c0,0.899 0.732,1.631 1.632,1.631c0.9,0 1.632,-0.732 1.632,-1.631l0,-3.341c0,-0.901 -0.732,-1.633 -1.632,-1.633Zm0,8.105c-1.727,0 -3.132,-1.405 -3.132,-3.131l0,-3.341c0,-1.728 1.405,-3.133 3.132,-3.133c1.727,0 3.132,1.405 3.132,3.133l0,3.341c0,1.726 -1.405,3.131 -3.132,3.131Z" style="fill:#414043;fill-rule:nonzero;"/><path d="M211.946,218.689l-86.01,0c-2.686,0 -5.13,-1.552 -6.272,-3.984l-2.129,-4.534l102.812,0l-2.129,4.534c-1.142,2.432 -3.586,3.984 -6.272,3.984Z" style="fill:#e7e7e8;fill-rule:nonzero;"/><path d="M219.204,210.841l-100.576,0.08l1.715,3.466c1.014,2.158 3.209,3.552 5.594,3.552l86.009,0c2.384,0 4.579,-1.394 5.593,-3.552l1.665,-3.546Zm-7.258,8.598l-86.009,0c-2.963,0 -5.692,-1.733 -6.952,-4.416l-1.664,-3.545c-0.212,-0.449 -0.179,-0.967 0.088,-1.387c0.266,-0.419 0.722,-0.67 1.219,-0.67l100.626,0c0.497,0 0.953,0.25 1.218,0.67c0.267,0.419 0.3,0.938 0.089,1.387l-1.665,3.546c-1.259,2.682 -3.987,4.415 -6.95,4.415Z" style="fill:#414043;fill-rule:nonzero;"/><path d="M210.042,213.726l-82.202,0c-1.764,0 -3.194,-1.43 -3.194,-3.194l0,-50.684c0,-1.764 1.43,-3.194 3.194,-3.194l82.202,0c1.764,0 3.194,1.43 3.194,3.194l0,50.684c0,1.764 -1.43,3.194 -3.194,3.194Z" style="fill:#fff;fill-rule:nonzero;"/><path d="M127.84,157.404c-1.347,0 -2.444,1.097 -2.444,2.444l0,50.684c0,1.348 1.097,2.444 2.444,2.444l82.202,0c1.347,0 2.444,-1.096 2.444,-2.444l0,-50.684c0,-1.347 -1.097,-2.444 -2.444,-2.444l-82.202,0Zm82.202,57.072l-82.202,0c-2.174,0 -3.944,-1.769 -3.944,-3.944l0,-50.684c0,-2.174 1.77,-3.944 3.944,-3.944l82.202,0c2.174,0 3.944,1.77 3.944,3.944l0,50.684c0,2.175 -1.77,3.944 -3.944,3.944Z" style="fill:#414043;fill-rule:nonzero;"/><path d="M175.816,185.19c0,3.797 -3.078,6.875 -6.875,6.875c-3.797,0 -6.875,-3.078 -6.875,-6.875c0,-3.797 3.078,-6.875 6.875,-6.875c3.797,0 6.875,3.078 6.875,6.875Z" style="fill:#e7e7e8;fill-rule:nonzero;"/><rect x="251.205" y="75.637" width="2.396" height="1.5" style="fill:#414043;fill-rule:nonzero;"/><rect x="255.205" y="75.637" width="26.144" height="1.5" style="fill:#414043;fill-rule:nonzero;"/><rect x="288.951" y="119.792" width="2.396" height="1.5" style="fill:#414043;fill-rule:nonzero;"/><rect x="292.951" y="119.793" width="26.143" height="1.5" style="fill:#414043;fill-rule:nonzero;"/><rect x="91.243" y="15.456" width="30.568" height="1.5" style="fill:#414043;fill-rule:nonzero;"/><rect x="7.448" y="127.96" width="30.568" height="1.5" style="fill:#414043;fill-rule:nonzero;"/><rect x="28.946" y="46.609" width="30.569" height="1.5" style="fill:#414043;fill-rule:nonzero;"/><rect x="62.514" y="46.609" width="3.638" height="1.5" style="fill:#414043;fill-rule:nonzero;"/><rect x="270.337" y="44.559" width="30.568" height="1.5" style="fill:#414043;fill-rule:nonzero;"/><rect x="302.905" y="44.559" width="5.139" height="1.5" style="fill:#414043;fill-rule:nonzero;"/><rect x="247.08" y="75.637" width="2.24" height="1.5" style="fill:#414043;fill-rule:nonzero;"/><rect x="143.076" y="6.7" width="2.396" height="1.5" style="fill:#414043;fill-rule:nonzero;"/><rect x="115.328" y="6.7" width="26.144" height="1.5" style="fill:#414043;fill-rule:nonzero;"/><rect x="147.358" y="6.7" width="2.24" height="1.5" style="fill:#414043;fill-rule:nonzero;"/><rect x="52.317" y="86.875" width="2.396" height="1.5" style="fill:#414043;fill-rule:nonzero;"/><rect x="56.317" y="86.875" width="26.145" height="1.5" style="fill:#414043;fill-rule:nonzero;"/><rect x="237.073" y="75.637" width="5.136" height="1.5" style="fill:#414043;fill-rule:nonzero;"/><rect x="238.89" y="73.82" width="1.5" height="5.135" style="fill:#414043;fill-rule:nonzero;"/><rect x="44.231" y="86.875" width="5.135" height="1.5" style="fill:#414043;fill-rule:nonzero;"/><rect x="46.048" y="85.057" width="1.499" height="5.136" style="fill:#414043;fill-rule:nonzero;"/><rect x="155.53" y="6.7" width="5.135" height="1.5" style="fill:#414043;fill-rule:nonzero;"/><rect x="157.347" y="4.883" width="1.5" height="5.135" style="fill:#414043;fill-rule:nonzero;"/><rect x="68.594" y="46.609" width="5.136" height="1.5" style="fill:#414043;fill-rule:nonzero;"/><rect x="70.412" y="44.791" width="1.5" height="5.136" style="fill:#414043;fill-rule:nonzero;"/><path d="M263.069,45.946l0.917,0.917l0.917,-0.917l-0.917,-0.916l-0.917,0.916Zm0.917,3.038l-3.038,-3.038l3.038,-3.038l3.038,3.038l-3.038,3.038Z" style="fill:#414043;fill-rule:nonzero;"/><path d="M281.494,120.542l0.917,0.917l0.917,-0.917l-0.917,-0.916l-0.917,0.916Zm0.917,3.038l-3.038,-3.038l3.038,-3.037l3.038,3.037l-3.038,3.038Z" style="fill:#414043;fill-rule:nonzero;"/><path d="M44.933,129.71l0.916,0.917l0.917,-0.917l-0.917,-0.917l-0.916,0.917Zm0.916,3.038l-3.037,-3.038l3.037,-3.038l3.038,3.038l-3.038,3.038Z" style="fill:#414043;fill-rule:nonzero;"/><rect x="0" y="217.939" width="342.272" height="1.5" style="fill:#414043;fill-rule:nonzero;"/></svg>