<?xml version="1.0" encoding="UTF-8" standalone="no"?><!DOCTYPE svg PUBLIC "-//W3C//DTD SVG 1.1//EN" "http://www.w3.org/Graphics/SVG/1.1/DTD/svg11.dtd"><svg width="100%" height="100%" viewBox="0 0 213 99" version="1.1" xmlns="http://www.w3.org/2000/svg" xmlns:xlink="http://www.w3.org/1999/xlink" xml:space="preserve" xmlns:serif="http://www.serif.com/" style="fill-rule:evenodd;clip-rule:evenodd;stroke-linejoin:round;stroke-miterlimit:1.41421;"><g><path d="M9.228,8.967l183.429,0c4.802,0 8.695,3.893 8.695,8.695c0,4.802 -3.893,8.695 -8.695,8.695l-35.843,0c-4.182,0 -7.573,3.39 -7.573,7.572c0,4.182 3.391,7.572 7.573,7.572l43.869,0c4.622,0 8.37,3.748 8.37,8.371c0,4.622 -3.748,8.37 -8.37,8.37l-21.981,0c0,8.378 -6.791,15.17 -15.169,15.17c-3.7,0 -6.699,2.999 -6.699,6.698l0,17.86l-96.297,0l0,-1.471c0,-8.913 -7.178,-16.163 -16.091,-16.252l-27.78,-0.33c-5.089,-0.051 -9.189,-4.191 -9.189,-9.281c0,-5.126 4.156,-9.282 9.281,-9.282l27.719,0c0,-8.451 6.851,-15.302 15.302,-15.302l1.298,0c5.144,0 9.314,-4.17 9.314,-9.314c0,-5.145 -4.17,-9.315 -9.314,-9.315l-51.849,0c-5.097,0 -9.228,-4.131 -9.228,-9.228c0,-5.096 4.131,-9.228 9.228,-9.228Z" style="fill:#eef7fd;fill-rule:nonzero;"/><path d="M165.443,98.191l-21.576,0c-1.098,0 -1.987,-0.889 -1.987,-1.987l0,-36.688c0,-1.097 0.889,-1.987 1.987,-1.987l21.576,0c1.098,0 1.987,0.89 1.987,1.987l0,36.688c0,1.098 -0.889,1.987 -1.987,1.987Z" style="fill:#fff;fill-rule:nonzero;"/><path d="M142.63,74.406l-1.5,0l0,-14.591c0,-1.674 1.362,-3.036 3.035,-3.036l2.178,0l0,1.5l-2.178,0c-0.846,0 -1.535,0.689 -1.535,1.536l0,14.591Z" style="fill:#2483c6;fill-rule:nonzero;"/><path d="M165.144,98.941l0,-1.5c0.847,0 1.536,-0.689 1.536,-1.535l0,-36.091c0,-0.847 -0.689,-1.536 -1.536,-1.536l-10.565,0l0,-1.5l10.565,0c1.674,0 3.036,1.362 3.036,3.036l0,36.091c0,1.673 -1.362,3.035 -3.036,3.035Z" style="fill:#2483c6;fill-rule:nonzero;"/><rect x="148.45" y="56.779" width="3.614" height="1.5" style="fill:#2483c6;fill-rule:nonzero;"/><rect x="150.874" y="59.843" width="7.562" height="1.5" style="fill:#2483c6;fill-rule:nonzero;"/><path d="M154.655,94.39c-0.263,0 -0.476,0.213 -0.476,0.476c0,0.263 0.213,0.476 0.476,0.476c0.263,0 0.476,-0.213 0.476,-0.476c0,-0.263 -0.213,-0.476 -0.476,-0.476Zm0,2.452c-1.09,0 -1.976,-0.886 -1.976,-1.976c0,-1.09 0.886,-1.976 1.976,-1.976c1.09,0 1.976,0.886 1.976,1.976c0,1.09 -0.886,1.976 -1.976,1.976Z" style="fill:#2483c6;fill-rule:nonzero;"/><rect x="144.435" y="63.397" width="20.44" height="28.804" style="fill:#9ecfef;fill-rule:nonzero;"/><path d="M174.393,98.191l-4.086,0l0,-81.907c0,-1.129 0.915,-2.043 2.043,-2.043c1.128,0 2.043,0.914 2.043,2.043l0,81.907Z" style="fill:#fff;fill-rule:nonzero;"/><path d="M175.143,98.191l-1.5,0l0,-82.08c0,-0.618 -0.502,-1.12 -1.12,-1.12l-0.345,0c-0.618,0 -1.12,0.502 -1.12,1.12l0,82.08l-1.5,0l0,-82.08c0,-1.445 1.175,-2.62 2.62,-2.62l0.345,0c1.445,0 2.62,1.175 2.62,2.62l0,82.08Z" style="fill:#2483c6;fill-rule:nonzero;"/><rect x="158.037" y="22.615" width="28.627" height="1.5" style="fill:#2483c6;fill-rule:nonzero;"/><path d="M176.665,23.111c0,2.37 -1.921,4.29 -4.291,4.29c-2.37,0 -4.291,-1.92 -4.291,-4.29c0,-2.37 1.921,-4.291 4.291,-4.291c2.37,0 4.291,1.921 4.291,4.291Z" style="fill:#60afe1;fill-rule:nonzero;"/><path d="M172.374,19.57c-1.953,0 -3.541,1.588 -3.541,3.541c0,1.952 1.588,3.54 3.541,3.54c1.953,0 3.541,-1.588 3.541,-3.54c0,-1.953 -1.588,-3.541 -3.541,-3.541Zm0,8.581c-2.78,0 -5.041,-2.261 -5.041,-5.04c0,-2.78 2.261,-5.041 5.041,-5.041c2.78,0 5.041,2.261 5.041,5.041c0,2.779 -2.261,5.04 -5.041,5.04Z" style="fill:#2483c6;fill-rule:nonzero;"/><path d="M188.984,37.663l-5.518,-15.401l1.412,-0.506l5.518,15.401l-1.412,0.506Z" style="fill:#2483c6;fill-rule:nonzero;"/><path d="M180.386,37.682l-1.398,-0.544l5.985,-15.4l1.398,0.543l-5.985,15.401Z" style="fill:#2483c6;fill-rule:nonzero;"/><path d="M191.589,36.801c0,3.787 -3.07,6.858 -6.857,6.858c-3.788,0 -6.858,-3.071 -6.858,-6.858l13.715,0Z" style="fill:#9ecfef;fill-rule:nonzero;"/><path d="M155.759,37.663l-1.412,-0.506l5.519,-15.401l1.412,0.506l-5.519,15.401Z" style="fill:#2483c6;fill-rule:nonzero;"/><path d="M164.357,37.682l-5.985,-15.401l1.399,-0.543l5.985,15.4l-1.399,0.544Z" style="fill:#2483c6;fill-rule:nonzero;"/><path d="M153.155,36.801c0,3.787 3.07,6.858 6.857,6.858c3.787,0 6.858,-3.071 6.858,-6.858l-13.715,0Z" style="fill:#9ecfef;fill-rule:nonzero;"/><path d="M190.488,41.774l-1.135,-0.98c0.353,-0.408 0.648,-0.858 0.881,-1.339l1.35,0.653c-0.289,0.599 -0.658,1.159 -1.096,1.666Z" style="fill:#2483c6;fill-rule:nonzero;"/><path d="M184.731,44.409c-4.194,0 -7.607,-3.413 -7.607,-7.608l0,-0.75l15.215,0l0,0.75c0,0.93 -0.166,1.838 -0.493,2.699l-1.402,-0.532c0.174,-0.457 0.291,-0.932 0.35,-1.417l-12.124,0c0.37,3.015 2.948,5.358 6.061,5.358c0.536,0 1.067,-0.07 1.58,-0.206c0.677,-0.181 1.314,-0.476 1.892,-0.876l0.854,1.233c-0.721,0.499 -1.515,0.867 -2.359,1.092c-0.639,0.17 -1.301,0.257 -1.967,0.257Z" style="fill:#2483c6;fill-rule:nonzero;"/><path d="M153.95,37.551c0.371,3.015 2.948,5.358 6.062,5.358c3.114,0 5.691,-2.343 6.062,-5.358l-12.124,0Zm6.062,6.858c-4.195,0 -7.608,-3.413 -7.608,-7.608l0,-0.75l15.216,0l0,0.75c0,4.195 -3.413,7.608 -7.608,7.608Z" style="fill:#2483c6;fill-rule:nonzero;"/><path d="M186.551,23.364c0,0.996 -0.807,1.803 -1.803,1.803c-0.995,0 -1.802,-0.807 -1.802,-1.803c0,-0.995 0.807,-1.802 1.802,-1.802c0.996,0 1.803,0.807 1.803,1.802Z" style="fill:#60afe1;fill-rule:nonzero;"/><path d="M184.748,22.312c-0.58,0 -1.052,0.472 -1.052,1.053c0,0.58 0.472,1.052 1.052,1.052c0.581,0 1.053,-0.472 1.053,-1.052c0,-0.581 -0.472,-1.053 -1.053,-1.053Zm0,3.605c-1.407,0 -2.552,-1.145 -2.552,-2.552c0,-1.408 1.145,-2.553 2.552,-2.553c1.408,0 2.553,1.145 2.553,2.553c0,1.407 -1.145,2.552 -2.553,2.552Z" style="fill:#2483c6;fill-rule:nonzero;"/><path d="M161.814,23.364c0,0.996 -0.807,1.803 -1.802,1.803c-0.995,0 -1.802,-0.807 -1.802,-1.803c0,-0.995 0.807,-1.802 1.802,-1.802c0.995,0 1.802,0.807 1.802,1.802Z" style="fill:#60afe1;fill-rule:nonzero;"/><path d="M160.012,22.312c-0.58,0 -1.053,0.472 -1.053,1.053c0,0.58 0.473,1.052 1.053,1.052c0.58,0 1.052,-0.472 1.052,-1.052c0,-0.581 -0.472,-1.053 -1.052,-1.053Zm0,3.605c-1.408,0 -2.553,-1.145 -2.553,-2.552c0,-1.408 1.145,-2.553 2.553,-2.553c1.407,0 2.552,1.145 2.552,2.553c0,1.407 -1.145,2.552 -2.552,2.552Z" style="fill:#2483c6;fill-rule:nonzero;"/><rect x="44.885" y="50.218" width="29.66" height="47.973" style="fill:#9ecfef;fill-rule:nonzero;"/><path d="M45.635,98.191l-1.5,0l0,-48.723l24.395,0l0,1.5l-22.895,0l0,47.223Z" style="fill:#2483c6;fill-rule:nonzero;"/><rect x="46.914" y="57.235" width="25.602" height="40.956" style="fill:#d1e9f8;fill-rule:nonzero;"/><path d="M47.664,97.441l24.102,0l0,-39.456l-24.102,0l0,39.456Zm25.602,1.5l-27.102,0l0,-42.456l27.102,0l0,42.456Z" style="fill:#2483c6;fill-rule:nonzero;"/><rect x="50.437" y="57.235" width="1.5" height="40.956" style="fill:#2483c6;fill-rule:nonzero;"/><rect x="54.648" y="57.235" width="1.5" height="40.956" style="fill:#2483c6;fill-rule:nonzero;"/><rect x="58.859" y="57.235" width="1.5" height="40.956" style="fill:#2483c6;fill-rule:nonzero;"/><rect x="63.069" y="57.235" width="1.5" height="40.956" style="fill:#2483c6;fill-rule:nonzero;"/><rect x="67.28" y="57.235" width="1.5" height="40.956" style="fill:#2483c6;fill-rule:nonzero;"/><rect x="46.914" y="77.903" width="25.602" height="1.5" style="fill:#2483c6;fill-rule:nonzero;"/><rect x="46.914" y="73.692" width="25.602" height="1.5" style="fill:#2483c6;fill-rule:nonzero;"/><rect x="46.914" y="82.114" width="25.602" height="1.5" style="fill:#2483c6;fill-rule:nonzero;"/><rect x="46.914" y="86.325" width="25.602" height="1.5" style="fill:#2483c6;fill-rule:nonzero;"/><rect x="46.914" y="90.535" width="25.602" height="1.5" style="fill:#2483c6;fill-rule:nonzero;"/><rect x="46.914" y="94.746" width="25.602" height="1.5" style="fill:#2483c6;fill-rule:nonzero;"/><rect x="46.914" y="69.481" width="25.602" height="1.5" style="fill:#2483c6;fill-rule:nonzero;"/><rect x="46.914" y="65.271" width="25.602" height="1.5" style="fill:#2483c6;fill-rule:nonzero;"/><rect x="46.914" y="61.06" width="25.602" height="1.5" style="fill:#2483c6;fill-rule:nonzero;"/><rect x="74.222" y="12.776" width="15.219" height="6.974" style="fill:#9ecfef;fill-rule:nonzero;"/><path d="M74.972,19l13.718,0l0,-5.474l-13.718,0l0,5.474Zm15.218,1.5l-16.718,0l0,-8.474l16.718,0l0,8.474Z" style="fill:#2483c6;fill-rule:nonzero;"/><rect x="71.094" y="17.58" width="21.475" height="80.611" style="fill:#d1e9f8;fill-rule:nonzero;"/><rect x="75.536" y="17.58" width="11.804" height="80.611" style="fill:#fff;fill-rule:nonzero;"/><rect x="73.472" y="0" width="1.5" height="13.361" style="fill:#2483c6;fill-rule:nonzero;"/><rect x="88.69" y="0" width="1.5" height="13.361" style="fill:#2483c6;fill-rule:nonzero;"/><rect x="81.021" y="4.026" width="1.5" height="8.721" style="fill:#2483c6;fill-rule:nonzero;"/><path d="M71.844,98.191l-1.5,0l0,-81.361l22.975,0l0,21.453l-1.5,0l0,-19.953l-19.975,0l0,79.861Z" style="fill:#2483c6;fill-rule:nonzero;"/><rect x="74.787" y="17.58" width="1.5" height="80.318" style="fill:#2483c6;fill-rule:nonzero;"/><rect x="86.897" y="17.58" width="1.5" height="21.872" style="fill:#2483c6;fill-rule:nonzero;"/><path d="M36.309,37.26l-4.274,0c-0.414,0 -0.75,-0.336 -0.75,-0.75c0,-0.414 0.336,-0.75 0.75,-0.75l4.274,0c0.414,0 0.75,0.336 0.75,0.75c0,0.414 -0.336,0.75 -0.75,0.75Z" style="fill:#2483c6;fill-rule:nonzero;"/><path d="M34.172,39.397c-0.414,0 -0.75,-0.336 -0.75,-0.75l0,-4.274c0,-0.414 0.336,-0.75 0.75,-0.75c0.414,0 0.75,0.336 0.75,0.75l0,4.274c0,0.414 -0.336,0.75 -0.75,0.75Z" style="fill:#2483c6;fill-rule:nonzero;"/><path d="M184.816,64.667l-4.274,0c-0.414,0 -0.75,-0.336 -0.75,-0.75c0,-0.414 0.336,-0.75 0.75,-0.75l4.274,0c0.414,0 0.75,0.336 0.75,0.75c0,0.414 -0.336,0.75 -0.75,0.75Z" style="fill:#2483c6;fill-rule:nonzero;"/><path d="M182.679,66.804c-0.414,0 -0.75,-0.336 -0.75,-0.75l0,-4.274c0,-0.414 0.336,-0.75 0.75,-0.75c0.414,0 0.75,0.336 0.75,0.75l0,4.274c0,0.414 -0.336,0.75 -0.75,0.75Z" style="fill:#2483c6;fill-rule:nonzero;"/><path d="M129.249,30.459l-4.274,0c-0.415,0 -0.75,-0.336 -0.75,-0.75c0,-0.414 0.335,-0.75 0.75,-0.75l4.274,0c0.414,0 0.75,0.336 0.75,0.75c0,0.414 -0.336,0.75 -0.75,0.75Z" style="fill:#2483c6;fill-rule:nonzero;"/><path d="M127.112,32.597c-0.414,0 -0.75,-0.336 -0.75,-0.75l0,-4.275c0,-0.414 0.336,-0.75 0.75,-0.75c0.414,0 0.75,0.336 0.75,0.75l0,4.275c0,0.414 -0.336,0.75 -0.75,0.75Z" style="fill:#2483c6;fill-rule:nonzero;"/><path d="M143.755,19.841c-0.192,0 -0.384,-0.074 -0.53,-0.22c-0.293,-0.293 -0.293,-0.768 0,-1.061l3.022,-3.022c0.293,-0.293 0.768,-0.293 1.061,0c0.293,0.293 0.293,0.768 0,1.061l-3.022,3.022c-0.147,0.146 -0.339,0.22 -0.531,0.22Z" style="fill:#2483c6;fill-rule:nonzero;"/><path d="M146.778,19.841c-0.192,0 -0.384,-0.074 -0.531,-0.22l-3.022,-3.022c-0.293,-0.293 -0.293,-0.768 0,-1.061c0.293,-0.293 0.768,-0.293 1.061,0l3.022,3.022c0.293,0.293 0.293,0.768 0,1.061c-0.146,0.146 -0.338,0.22 -0.53,0.22Z" style="fill:#2483c6;fill-rule:nonzero;"/><path d="M194.29,34.414c-0.191,0 -0.383,-0.073 -0.53,-0.219c-0.293,-0.293 -0.293,-0.768 0,-1.061l3.023,-3.022c0.293,-0.293 0.767,-0.293 1.06,0c0.293,0.293 0.293,0.767 0,1.06l-3.022,3.023c-0.147,0.146 -0.339,0.219 -0.531,0.219Z" style="fill:#2483c6;fill-rule:nonzero;"/><path d="M197.313,34.414c-0.192,0 -0.384,-0.073 -0.53,-0.219l-3.023,-3.023c-0.293,-0.293 -0.293,-0.767 0,-1.06c0.293,-0.293 0.768,-0.293 1.061,0l3.022,3.022c0.293,0.293 0.293,0.768 0,1.061c-0.146,0.146 -0.338,0.219 -0.53,0.219Z" style="fill:#2483c6;fill-rule:nonzero;"/><path d="M36.662,85.125c-0.192,0 -0.384,-0.073 -0.531,-0.22c-0.293,-0.293 -0.293,-0.767 0,-1.06l3.023,-3.023c0.293,-0.293 0.767,-0.293 1.06,0c0.293,0.293 0.293,0.768 0,1.061l-3.022,3.022c-0.147,0.147 -0.338,0.22 -0.53,0.22Z" style="fill:#2483c6;fill-rule:nonzero;"/><path d="M39.684,85.125c-0.192,0 -0.384,-0.073 -0.53,-0.22l-3.023,-3.022c-0.293,-0.293 -0.293,-0.768 0,-1.061c0.293,-0.293 0.768,-0.293 1.061,0l3.022,3.023c0.293,0.293 0.293,0.767 0,1.06c-0.146,0.147 -0.338,0.22 -0.53,0.22Z" style="fill:#2483c6;fill-rule:nonzero;"/><rect x="99.941" y="16.83" width="40.718" height="1.5" style="fill:#2483c6;fill-rule:nonzero;"/><rect x="129.898" y="3.276" width="40.718" height="1.5" style="fill:#2483c6;fill-rule:nonzero;"/><rect x="190.415" y="63.167" width="22.573" height="1.5" style="fill:#2483c6;fill-rule:nonzero;"/><rect x="44.397" y="35.76" width="17.396" height="1.5" style="fill:#2483c6;fill-rule:nonzero;"/><rect x="39.327" y="35.76" width="3.57" height="1.5" style="fill:#2483c6;fill-rule:nonzero;"/><path d="M28.446,49.03c0,0.674 -0.547,1.221 -1.222,1.221c-0.675,0 -1.222,-0.547 -1.222,-1.221c0,-0.675 0.547,-1.222 1.222,-1.222c0.675,0 1.222,0.547 1.222,1.222Z" style="fill:#2483c6;fill-rule:nonzero;"/><path d="M116.505,30.931c0,0.675 -0.547,1.222 -1.222,1.222c-0.675,0 -1.222,-0.547 -1.222,-1.222c0,-0.675 0.547,-1.222 1.222,-1.222c0.675,0 1.222,0.547 1.222,1.222Z" style="fill:#2483c6;fill-rule:nonzero;"/><path d="M186.038,79.744c0,0.675 -0.547,1.222 -1.222,1.222c-0.674,0 -1.222,-0.547 -1.222,-1.222c0,-0.675 0.548,-1.222 1.222,-1.222c0.675,0 1.222,0.547 1.222,1.222Z" style="fill:#2483c6;fill-rule:nonzero;"/><path d="M37.038,72.986c0,0.403 -0.326,0.729 -0.729,0.729c-0.402,0 -0.728,-0.326 -0.728,-0.729c0,-0.402 0.326,-0.728 0.728,-0.728c0.403,0 0.729,0.326 0.729,0.728Z" style="fill:#2483c6;fill-rule:nonzero;"/><path d="M134.749,12.747c0,0.402 -0.326,0.729 -0.728,0.729c-0.403,0 -0.729,-0.327 -0.729,-0.729c0,-0.402 0.326,-0.728 0.729,-0.728c0.402,0 0.728,0.326 0.728,0.728Z" style="fill:#2483c6;fill-rule:nonzero;"/><path d="M205.462,34.141c0,0.402 -0.326,0.728 -0.728,0.728c-0.402,0 -0.729,-0.326 -0.729,-0.728c0,-0.402 0.327,-0.729 0.729,-0.729c0.402,0 0.728,0.327 0.728,0.729Z" style="fill:#2483c6;fill-rule:nonzero;"/><path d="M48.371,14.241c0,0.402 -0.326,0.728 -0.729,0.728c-0.402,0 -0.728,-0.326 -0.728,-0.728c0,-0.402 0.326,-0.728 0.728,-0.728c0.403,0 0.729,0.326 0.729,0.728Z" style="fill:#2483c6;fill-rule:nonzero;"/><path d="M92.569,98.191l-5.229,0l0,-58.274c1.163,-0.411 2.413,-0.635 3.715,-0.635l1.514,0l0,58.909Z" style="fill:#94caee;fill-rule:nonzero;"/><path d="M87.34,98.191l-0.479,0l0,-2.985c-4.087,-1.663 -6.978,-5.671 -6.978,-10.348l0,-34.404c0,-4.859 3.118,-9.002 7.457,-10.537l0,58.274Z" style="fill:#b4daf4;fill-rule:nonzero;"/><rect x="121.202" y="92.687" width="7.165" height="5.504" style="fill:#60afe1;fill-rule:nonzero;"/><path d="M121.952,97.441l5.665,0l0,-4.004l-5.665,0l0,4.004Zm7.165,1.5l-8.665,0l0,-7.004l8.665,0l0,7.004Z" style="fill:#2483c6;fill-rule:nonzero;"/><rect x="89.611" y="92.687" width="7.165" height="5.504" style="fill:#60afe1;fill-rule:nonzero;"/><path d="M90.361,97.441l5.665,0l0,-4.004l-5.665,0l0,4.004Zm7.165,1.5l-8.665,0l0,-7.004l8.665,0l0,7.004Z" style="fill:#2483c6;fill-rule:nonzero;"/><path d="M127.459,95.28l-34.404,0c-5.756,0 -10.422,-4.666 -10.422,-10.422l0,-34.404c0,-5.756 4.666,-10.422 10.422,-10.422l34.404,0c5.756,0 10.422,4.666 10.422,10.422l0,34.404c0,5.756 -4.666,10.422 -10.422,10.422Z" style="fill:#d1e9f8;fill-rule:nonzero;"/><path d="M126.418,90.566l-32.322,0c-3.727,0 -6.749,-3.021 -6.749,-6.749l0,-32.322c0,-3.727 3.022,-6.749 6.749,-6.749l32.322,0c3.728,0 6.749,3.022 6.749,6.749l0,32.322c0,3.728 -3.021,6.749 -6.749,6.749Z" style="fill:#60afe1;fill-rule:nonzero;"/><path d="M93.559,45.496c-3.011,0 -5.462,2.451 -5.462,5.462l0,33.396c0,3.012 2.451,5.462 5.462,5.462l33.397,0c3.011,0 5.461,-2.45 5.461,-5.462l0,-33.396c0,-3.011 -2.45,-5.462 -5.461,-5.462l-33.397,0Zm33.397,45.82l-33.397,0c-3.838,0 -6.962,-3.123 -6.962,-6.962l0,-33.396c0,-3.839 3.124,-6.962 6.962,-6.962l33.397,0c3.838,0 6.961,3.123 6.961,6.962l0,33.396c0,3.839 -3.123,6.962 -6.961,6.962Z" style="fill:#2483c6;fill-rule:nonzero;"/><path d="M93.055,40.783c-5.333,0 -9.672,4.338 -9.672,9.671l0,34.404c0,5.333 4.339,9.672 9.672,9.672l34.404,0c5.333,0 9.672,-4.339 9.672,-9.672l0,-34.404c0,-5.333 -4.339,-9.671 -9.672,-9.671l-34.404,0Zm34.404,55.247l-34.404,0c-6.16,0 -11.172,-5.012 -11.172,-11.172l0,-34.404c0,-6.16 5.012,-11.171 11.172,-11.171l34.404,0c6.161,0 11.172,5.011 11.172,11.171l0,34.404c0,6.16 -5.011,11.172 -11.172,11.172Z" style="fill:#2483c6;fill-rule:nonzero;"/><path d="M133.634,97.924l-11.015,0c-0.137,0 -0.248,-0.112 -0.248,-0.249l0,-3.146c0,-0.137 0.111,-0.248 0.248,-0.248l11.015,0c0.137,0 0.248,0.111 0.248,0.248l0,3.146c0,0.137 -0.111,0.249 -0.248,0.249Z" style="fill:#fff;fill-rule:nonzero;"/><path d="M123.121,97.174l10.011,0l0,-2.143l-10.011,0l0,2.143Zm10.513,1.5l-11.015,0c-0.55,0 -0.998,-0.448 -0.998,-0.998l0,-3.147c0,-0.55 0.448,-0.998 0.998,-0.998l11.015,0c0.55,0 0.998,0.448 0.998,0.998l0,3.147c0,0.55 -0.448,0.998 -0.998,0.998Z" style="fill:#2483c6;fill-rule:nonzero;"/><path d="M132.619,94.281l-11.015,0c-0.137,0 -0.247,-0.111 -0.247,-0.248l0,-3.147c0,-0.137 0.11,-0.248 0.247,-0.248l11.015,0c0.137,0 0.248,0.111 0.248,0.248l0,3.147c0,0.137 -0.111,0.248 -0.248,0.248Z" style="fill:#fff;fill-rule:nonzero;"/><path d="M122.106,93.531l10.011,0l0,-2.142l-10.011,0l0,2.142Zm10.513,1.5l-11.015,0c-0.55,0 -0.998,-0.448 -0.998,-0.998l0,-3.146c0,-0.551 0.448,-0.998 0.998,-0.998l11.015,0c0.55,0 0.998,0.447 0.998,0.998l0,3.146c0,0.55 -0.448,0.998 -0.998,0.998Z" style="fill:#2483c6;fill-rule:nonzero;"/><path d="M133.366,90.638l-11.014,0c-0.137,0 -0.248,-0.111 -0.248,-0.248l0,-3.146c0,-0.137 0.111,-0.248 0.248,-0.248l11.014,0c0.137,0 0.248,0.111 0.248,0.248l0,3.146c0,0.137 -0.111,0.248 -0.248,0.248Z" style="fill:#fff;fill-rule:nonzero;"/><path d="M122.854,89.889l10.011,0l0,-2.143l-10.011,0l0,2.143Zm10.513,1.5l-11.015,0c-0.55,0 -0.998,-0.448 -0.998,-0.999l0,-3.146c0,-0.55 0.448,-0.998 0.998,-0.998l11.015,0c0.55,0 0.998,0.448 0.998,0.998l0,3.146c0,0.551 -0.448,0.999 -0.998,0.999Z" style="fill:#2483c6;fill-rule:nonzero;"/><path d="M133.673,86.996l-11.014,0c-0.137,0 -0.248,-0.111 -0.248,-0.248l0,-3.147c0,-0.137 0.111,-0.248 0.248,-0.248l11.014,0c0.137,0 0.248,0.111 0.248,0.248l0,3.147c0,0.137 -0.111,0.248 -0.248,0.248Z" style="fill:#fff;fill-rule:nonzero;"/><path d="M123.161,86.246l10.01,0l0,-2.143l-10.01,0l0,2.143Zm10.512,1.5l-11.014,0c-0.55,0 -0.998,-0.448 -0.998,-0.998l0,-3.147c0,-0.55 0.448,-0.998 0.998,-0.998l11.014,0c0.551,0 0.998,0.448 0.998,0.998l0,3.147c0,0.55 -0.447,0.998 -0.998,0.998Z" style="fill:#2483c6;fill-rule:nonzero;"/><path d="M131.337,83.353l-11.014,0c-0.138,0 -0.249,-0.111 -0.249,-0.248l0,-3.146c0,-0.137 0.111,-0.248 0.249,-0.248l11.014,0c0.137,0 0.248,0.111 0.248,0.248l0,3.146c0,0.137 -0.111,0.248 -0.248,0.248Z" style="fill:#fff;fill-rule:nonzero;"/><path d="M120.825,82.603l10.01,0l0,-2.142l-10.01,0l0,2.142Zm10.512,1.5l-11.015,0c-0.55,0 -0.997,-0.447 -0.997,-0.998l0,-3.146c0,-0.55 0.447,-0.998 0.997,-0.998l11.015,0c0.55,0 0.998,0.448 0.998,0.998l0,3.146c0,0.551 -0.448,0.998 -0.998,0.998Z" style="fill:#2483c6;fill-rule:nonzero;"/><path d="M131.644,79.711l-11.015,0c-0.137,0 -0.248,-0.111 -0.248,-0.248l0,-3.147c0,-0.137 0.111,-0.248 0.248,-0.248l11.015,0c0.137,0 0.248,0.111 0.248,0.248l0,3.147c0,0.137 -0.111,0.248 -0.248,0.248Z" style="fill:#fff;fill-rule:nonzero;"/><path d="M121.131,78.961l10.011,0l0,-2.143l-10.011,0l0,2.143Zm10.513,1.5l-11.015,0c-0.55,0 -0.998,-0.448 -0.998,-0.998l0,-3.147c0,-0.55 0.448,-0.998 0.998,-0.998l11.015,0c0.55,0 0.998,0.448 0.998,0.998l0,3.147c0,0.55 -0.448,0.998 -0.998,0.998Z" style="fill:#2483c6;fill-rule:nonzero;"/><path d="M128.867,76.068l-11.015,0c-0.137,0 -0.248,-0.111 -0.248,-0.248l0,-3.146c0,-0.137 0.111,-0.248 0.248,-0.248l11.015,0c0.137,0 0.248,0.111 0.248,0.248l0,3.146c0,0.137 -0.111,0.248 -0.248,0.248Z" style="fill:#fff;fill-rule:nonzero;"/><path d="M118.354,75.318l10.011,0l0,-2.142l-10.011,0l0,2.142Zm10.513,1.5l-11.014,0c-0.551,0 -0.999,-0.448 -0.999,-0.998l0,-3.146c0,-0.551 0.448,-0.998 0.999,-0.998l11.014,0c0.55,0 0.998,0.447 0.998,0.998l0,3.146c0,0.55 -0.448,0.998 -0.998,0.998Z" style="fill:#2483c6;fill-rule:nonzero;"/><path d="M146.164,97.924l-11.014,0c-0.137,0 -0.248,-0.112 -0.248,-0.249l0,-3.146c0,-0.137 0.111,-0.248 0.248,-0.248l11.014,0c0.137,0 0.248,0.111 0.248,0.248l0,3.146c0,0.137 -0.111,0.249 -0.248,0.249Z" style="fill:#fff;fill-rule:nonzero;"/><path d="M135.652,97.174l10.01,0l0,-2.143l-10.01,0l0,2.143Zm10.512,1.5l-11.014,0c-0.55,0 -0.998,-0.448 -0.998,-0.998l0,-3.147c0,-0.55 0.448,-0.998 0.998,-0.998l11.014,0c0.55,0 0.998,0.448 0.998,0.998l0,3.147c0,0.55 -0.448,0.998 -0.998,0.998Z" style="fill:#2483c6;fill-rule:nonzero;"/><path d="M146.164,94.281l-11.014,0c-0.137,0 -0.248,-0.111 -0.248,-0.248l0,-3.147c0,-0.137 0.111,-0.248 0.248,-0.248l11.014,0c0.137,0 0.248,0.111 0.248,0.248l0,3.147c0,0.137 -0.111,0.248 -0.248,0.248Z" style="fill:#fff;fill-rule:nonzero;"/><path d="M135.652,93.531l10.01,0l0,-2.142l-10.01,0l0,2.142Zm10.512,1.5l-11.014,0c-0.55,0 -0.998,-0.448 -0.998,-0.998l0,-3.146c0,-0.551 0.448,-0.998 0.998,-0.998l11.014,0c0.55,0 0.998,0.447 0.998,0.998l0,3.146c0,0.55 -0.448,0.998 -0.998,0.998Z" style="fill:#2483c6;fill-rule:nonzero;"/><path d="M145.283,90.638l-11.015,0c-0.137,0 -0.247,-0.111 -0.247,-0.248l0,-3.146c0,-0.137 0.11,-0.248 0.247,-0.248l11.015,0c0.137,0 0.248,0.111 0.248,0.248l0,3.146c0,0.137 -0.111,0.248 -0.248,0.248Z" style="fill:#fff;fill-rule:nonzero;"/><path d="M134.771,89.889l10.01,0l0,-2.143l-10.01,0l0,2.143Zm10.512,1.5l-11.015,0c-0.55,0 -0.997,-0.448 -0.997,-0.999l0,-3.146c0,-0.55 0.447,-0.998 0.997,-0.998l11.015,0c0.55,0 0.998,0.448 0.998,0.998l0,3.146c0,0.551 -0.448,0.999 -0.998,0.999Z" style="fill:#2483c6;fill-rule:nonzero;"/><path d="M146.164,86.996l-11.014,0c-0.137,0 -0.248,-0.111 -0.248,-0.248l0,-3.147c0,-0.137 0.111,-0.248 0.248,-0.248l11.014,0c0.137,0 0.248,0.111 0.248,0.248l0,3.147c0,0.137 -0.111,0.248 -0.248,0.248Z" style="fill:#fff;fill-rule:nonzero;"/><path d="M135.652,86.246l10.01,0l0,-2.143l-10.01,0l0,2.143Zm10.512,1.5l-11.014,0c-0.55,0 -0.998,-0.448 -0.998,-0.998l0,-3.147c0,-0.55 0.448,-0.998 0.998,-0.998l11.014,0c0.55,0 0.998,0.448 0.998,0.998l0,3.147c0,0.55 -0.448,0.998 -0.998,0.998Z" style="fill:#2483c6;fill-rule:nonzero;"/><path d="M144.842,83.353l-11.014,0c-0.137,0 -0.248,-0.111 -0.248,-0.248l0,-3.146c0,-0.137 0.111,-0.248 0.248,-0.248l11.014,0c0.137,0 0.248,0.111 0.248,0.248l0,3.146c0,0.137 -0.111,0.248 -0.248,0.248Z" style="fill:#fff;fill-rule:nonzero;"/><path d="M134.33,82.603l10.01,0l0,-2.142l-10.01,0l0,2.142Zm10.512,1.5l-11.014,0c-0.55,0 -0.998,-0.447 -0.998,-0.998l0,-3.146c0,-0.55 0.448,-0.998 0.998,-0.998l11.014,0c0.55,0 0.998,0.448 0.998,0.998l0,3.146c0,0.551 -0.448,0.998 -0.998,0.998Z" style="fill:#2483c6;fill-rule:nonzero;"/><path d="M139.591,79.717l-9.808,-5.011c-0.122,-0.062 -0.171,-0.212 -0.108,-0.334l1.431,-2.802c0.062,-0.122 0.212,-0.17 0.334,-0.108l9.808,5.011c0.122,0.062 0.171,0.212 0.108,0.334l-1.431,2.802c-0.062,0.122 -0.212,0.17 -0.334,0.108Z" style="fill:#fff;fill-rule:nonzero;"/><path d="M130.571,74.266l8.914,4.554l0.975,-1.908l-8.915,-4.554l-0.974,1.908Zm9.132,6.228c-0.156,0 -0.311,-0.037 -0.453,-0.11l-9.809,-5.01c-0.238,-0.122 -0.414,-0.329 -0.496,-0.583c-0.081,-0.254 -0.059,-0.525 0.063,-0.761l1.43,-2.801c0.122,-0.238 0.329,-0.414 0.582,-0.496c0.253,-0.082 0.523,-0.061 0.762,0.062l9.808,5.01c0.238,0.122 0.413,0.329 0.495,0.582c0.082,0.254 0.061,0.524 -0.061,0.762l-1.431,2.801c-0.12,0.236 -0.327,0.413 -0.581,0.495c-0.101,0.033 -0.205,0.049 -0.309,0.049Z" style="fill:#2483c6;fill-rule:nonzero;"/><path d="M119.971,85.762l-21.929,-1.938c-2.047,-0.181 -3.674,-1.651 -3.674,-3.286l0,-27.375c0,-1.635 1.627,-3.105 3.674,-3.286l21.929,-1.938c2.6,-0.23 4.755,1.119 4.755,3.018l0,31.786c0,1.9 -2.155,3.249 -4.755,3.019Z" style="fill:#9ecfef;fill-rule:nonzero;"/><path d="M120.544,48.663c-0.167,0 -0.336,0.008 -0.506,0.023l-21.93,1.938c-1.649,0.146 -2.99,1.285 -2.99,2.539l0,27.375c0,1.254 1.341,2.393 2.99,2.539l21.93,1.938c1.316,0.116 2.543,-0.221 3.288,-0.903c0.296,-0.272 0.65,-0.73 0.65,-1.369l0,-31.786c0,-0.638 -0.354,-1.096 -0.65,-1.367c-0.648,-0.594 -1.663,-0.927 -2.782,-0.927Zm-0.011,37.874c-0.207,0 -0.418,-0.009 -0.627,-0.028l-21.93,-1.938c-2.444,-0.216 -4.358,-1.988 -4.358,-4.033l0,-27.375c0,-2.045 1.914,-3.817 4.358,-4.033l21.93,-1.938c1.726,-0.152 3.383,0.33 4.433,1.291c0.733,0.672 1.137,1.551 1.137,2.474l0,31.786c0,0.925 -0.404,1.804 -1.138,2.475c-0.922,0.844 -2.311,1.319 -3.805,1.319Z" style="fill:#2483c6;fill-rule:nonzero;"/><path d="M115.584,93.764l-21.929,-2.739c-2.047,-0.256 -3.675,-2.333 -3.675,-4.644l0,-38.689c0,-2.312 1.628,-4.389 3.675,-4.645l21.929,-2.739c2.6,-0.325 4.754,1.582 4.754,4.266l0,44.924c0,2.684 -2.154,4.591 -4.754,4.266Z" style="fill:#9ecfef;fill-rule:nonzero;"/><path d="M115.677,93.02c1.034,0.128 2.009,-0.157 2.744,-0.807c0.753,-0.664 1.166,-1.628 1.166,-2.715l0,-44.924c0,-1.087 -0.413,-2.051 -1.166,-2.715c-0.735,-0.65 -1.708,-0.932 -2.744,-0.807l-21.929,2.739c-1.665,0.208 -3.018,1.958 -3.018,3.901l0,38.689c0,1.943 1.353,3.692 3.018,3.9l21.929,2.739Zm0.488,1.531c-0.222,0 -0.447,-0.015 -0.674,-0.043l-21.929,-2.739c-2.429,-0.303 -4.332,-2.67 -4.332,-5.388l0,-38.689c0,-2.719 1.903,-5.086 4.332,-5.389l21.929,-2.739c1.469,-0.183 2.862,0.233 3.923,1.171c1.08,0.952 1.674,2.316 1.674,3.839l0,44.924c0,1.523 -0.594,2.887 -1.674,3.839c-0.898,0.794 -2.033,1.214 -3.249,1.214Z" style="fill:#2483c6;fill-rule:nonzero;"/><path d="M112.951,93.764l-21.929,-2.739c-2.047,-0.256 -3.675,-2.333 -3.675,-4.644l0,-38.689c0,-2.312 1.628,-4.389 3.675,-4.645l21.929,-2.739c2.6,-0.325 4.755,1.582 4.755,4.266l0,44.924c0,2.684 -2.155,4.591 -4.755,4.266Z" style="fill:#e5f3fb;fill-rule:nonzero;"/><path d="M117.706,89.498l0,-38.018l-30.359,30.358l0,4.543c0,2.311 1.628,4.388 3.675,4.644l21.929,2.739c2.6,0.325 4.755,-1.582 4.755,-4.266Z" style="fill:#d1e9f8;fill-rule:nonzero;"/><path d="M113.044,93.02c1.036,0.129 2.01,-0.157 2.745,-0.807c0.752,-0.664 1.166,-1.628 1.166,-2.715l0,-44.924c0,-1.087 -0.414,-2.051 -1.166,-2.715c-0.735,-0.649 -1.708,-0.932 -2.745,-0.807l-21.929,2.739c-1.664,0.208 -3.018,1.958 -3.018,3.901l0,38.689c0,1.943 1.354,3.692 3.018,3.9l21.929,2.739Zm0.489,1.531c-0.223,0 -0.448,-0.015 -0.674,-0.043l-21.929,-2.739c-2.43,-0.303 -4.333,-2.67 -4.333,-5.388l0,-38.689c0,-2.719 1.903,-5.086 4.333,-5.389l21.929,-2.739c1.467,-0.183 2.86,0.233 3.923,1.17c1.079,0.953 1.674,2.317 1.674,3.84l0,44.924c0,1.523 -0.595,2.887 -1.674,3.84c-0.899,0.793 -2.033,1.213 -3.249,1.213Z" style="fill:#2483c6;fill-rule:nonzero;"/><path d="M88.109,58.821l-1.427,0c-0.475,0 -0.86,-0.385 -0.86,-0.86l0,-5.794c0,-0.475 0.385,-0.86 0.86,-0.86l1.427,0c0.475,0 0.86,0.385 0.86,0.86l0,5.794c0,0.475 -0.385,0.86 -0.86,0.86Z" style="fill:#fff;fill-rule:nonzero;"/><path d="M88.535,51.307l-1.198,0l0,7.514l1.198,0c0.239,0 0.434,-0.263 0.434,-0.586l0,-6.342c0,-0.324 -0.195,-0.586 -0.434,-0.586Z" style="fill:#d1e9f8;fill-rule:nonzero;"/><path d="M86.682,52.057l-0.11,0.109l0,5.795l0.11,0.11l1.427,0l0.11,-0.11l0,-5.795l-0.11,-0.109l-1.427,0Zm1.427,7.514l-1.427,0c-0.888,0 -1.61,-0.722 -1.61,-1.61l0,-5.795c0,-0.887 0.722,-1.609 1.61,-1.609l1.427,0c0.888,0 1.61,0.722 1.61,1.609l0,5.795c0,0.888 -0.722,1.61 -1.61,1.61Z" style="fill:#2483c6;fill-rule:nonzero;"/><path d="M88.109,81.636l-1.427,0c-0.475,0 -0.86,-0.385 -0.86,-0.859l0,-5.795c0,-0.474 0.385,-0.859 0.86,-0.859l1.427,0c0.475,0 0.86,0.385 0.86,0.859l0,5.795c0,0.474 -0.385,0.859 -0.86,0.859Z" style="fill:#fff;fill-rule:nonzero;"/><path d="M88.535,74.123l-1.198,0l0,7.513l1.198,0c0.239,0 0.434,-0.262 0.434,-0.586l0,-6.341c0,-0.324 -0.195,-0.586 -0.434,-0.586Z" style="fill:#d1e9f8;fill-rule:nonzero;"/><path d="M86.682,74.873l-0.11,0.109l0,5.795l0.11,0.109l1.427,0l0.11,-0.109l0,-5.795l-0.11,-0.109l-1.427,0Zm1.427,7.513l-1.427,0c-0.888,0 -1.61,-0.722 -1.61,-1.609l0,-5.795c0,-0.887 0.722,-1.609 1.61,-1.609l1.427,0c0.888,0 1.61,0.722 1.61,1.609l0,5.795c0,0.887 -0.722,1.609 -1.61,1.609Z" style="fill:#2483c6;fill-rule:nonzero;"/><path d="M106.8,67.031c0,3.347 -2.47,5.516 -4.966,4.966c-2.044,-0.45 -3.447,-2.643 -3.447,-4.966c0,-2.323 1.403,-4.516 3.447,-4.966c2.496,-0.55 4.966,1.619 4.966,4.966Z" style="fill:#60afe1;fill-rule:nonzero;"/><path d="M102.613,62.729c-0.206,0 -0.412,0.023 -0.617,0.068c-1.63,0.36 -2.859,2.18 -2.859,4.234c0,2.055 1.229,3.875 2.858,4.234c0.877,0.192 1.764,-0.03 2.504,-0.625c0.986,-0.791 1.551,-2.107 1.551,-3.609c0,-1.502 -0.565,-2.818 -1.551,-3.61c-0.566,-0.455 -1.22,-0.692 -1.886,-0.692Zm-0.012,10.101c-0.311,0 -0.621,-0.033 -0.929,-0.101c-2.338,-0.515 -4.035,-2.911 -4.035,-5.698c0,-2.786 1.697,-5.183 4.035,-5.699c1.306,-0.288 2.68,0.047 3.767,0.92c1.341,1.078 2.111,2.82 2.111,4.779c0,1.959 -0.77,3.701 -2.111,4.778c-0.831,0.668 -1.83,1.021 -2.838,1.021Z" style="fill:#2483c6;fill-rule:nonzero;"/><path d="M105.461,67.012c0,-2.186 -1.228,-3.835 -2.711,-3.986l0,-0.011l-1.312,0l0,0.291c-1.095,0.605 -1.846,2.067 -1.846,3.706c0,1.638 0.751,3.1 1.846,3.706l0,0.306l1.312,0l0,-0.027c1.483,-0.151 2.711,-1.799 2.711,-3.985Z" style="fill:#60afe1;fill-rule:nonzero;"/><path d="M103.702,67.031c0,2.152 -1.503,3.736 -3.193,3.554c-1.534,-0.165 -2.676,-1.75 -2.676,-3.554c0,-1.804 1.142,-3.389 2.676,-3.554c1.69,-0.182 3.193,1.401 3.193,3.554Z" style="fill:#9c999c;fill-rule:nonzero;"/><path d="M103.702,67.031c0,2.152 -1.503,3.736 -3.193,3.554c-1.534,-0.165 -2.676,-1.75 -2.676,-3.554c0,-1.804 1.142,-3.389 2.676,-3.554c1.69,-0.182 3.193,1.401 3.193,3.554Z" style="fill:#9ecfef;fill-rule:nonzero;"/><path d="M100.768,64.213l-0.179,0.009c-1.125,0.122 -2.006,1.356 -2.006,2.809c0,1.454 0.881,2.688 2.006,2.808c0.505,0.054 1.013,-0.122 1.431,-0.496c0.593,-0.533 0.933,-1.375 0.933,-2.312c0,-0.936 -0.34,-1.779 -0.933,-2.311c-0.368,-0.33 -0.806,-0.507 -1.252,-0.507Zm0.006,7.136c-0.115,0 -0.23,-0.006 -0.346,-0.019c-1.875,-0.201 -3.345,-2.089 -3.345,-4.299c0,-2.209 1.47,-4.098 3.346,-4.3c0.937,-0.101 1.856,0.21 2.593,0.873c0.909,0.816 1.431,2.065 1.431,3.427c0,1.362 -0.522,2.611 -1.431,3.427c-0.647,0.581 -1.434,0.891 -2.248,0.891Z" style="fill:#2483c6;fill-rule:nonzero;"/><path d="M142.748,86.607c-1.994,3.926 -0.427,8.726 3.5,10.719c3.926,1.993 8.725,0.426 10.718,-3.5c1.994,-3.927 0.426,-8.726 -3.5,-10.719c-3.926,-1.993 -8.725,-0.426 -10.718,3.5Z" style="fill:#fff;fill-rule:nonzero;"/><path d="M149.844,98.943c-1.47,0.001 -2.924,-0.375 -4.243,-1.112c-4.198,-2.346 -5.705,-7.671 -3.359,-11.87c1.137,-2.034 2.998,-3.504 5.24,-4.138c2.243,-0.635 4.597,-0.357 6.631,0.779c0.799,0.447 1.517,1.01 2.134,1.674l-1.098,1.021c-0.511,-0.549 -1.106,-1.015 -1.768,-1.386c-3.475,-1.941 -7.885,-0.695 -9.829,2.781c-1.943,3.477 -0.696,7.886 2.781,9.829c1.684,0.942 3.634,1.172 5.491,0.646c1.856,-0.526 3.397,-1.742 4.338,-3.426c0.667,-1.193 0.981,-2.541 0.909,-3.898l1.498,-0.08c0.087,1.641 -0.292,3.269 -1.097,4.709c-1.137,2.034 -2.998,3.503 -5.24,4.138c-0.788,0.223 -1.59,0.333 -2.388,0.333Z" style="fill:#2483c6;fill-rule:nonzero;"/><path d="M156.718,87.958c-0.178,-0.541 -0.419,-1.06 -0.718,-1.544l1.277,-0.787c0.36,0.584 0.651,1.21 0.865,1.862l-1.424,0.469Z" style="fill:#2483c6;fill-rule:nonzero;"/><path d="M150.728,93.986l-4.064,0l0,-1.5l4.064,0c0.418,0 0.759,-0.341 0.759,-0.76c0,-0.418 -0.341,-0.759 -0.759,-0.759l-1.625,0c-1.247,0 -2.26,-1.014 -2.26,-2.26c0,-1.246 1.013,-2.259 2.26,-2.259l3.947,0l0,1.5l-3.947,0c-0.419,0 -0.76,0.34 -0.76,0.759c0,0.419 0.341,0.76 0.76,0.76l1.625,0c1.246,0 2.259,1.013 2.259,2.259c0,1.246 -1.013,2.26 -2.259,2.26Z" style="fill:#2483c6;fill-rule:nonzero;"/><rect x="149.107" y="84.701" width="1.5" height="11.031" style="fill:#2483c6;fill-rule:nonzero;"/><rect x="25.854" y="97.441" width="2.74" height="1.5" style="fill:#2483c6;fill-rule:nonzero;"/><rect x="195.802" y="97.441" width="6.049" height="1.5" style="fill:#2483c6;fill-rule:nonzero;"/><rect x="30.417" y="97.441" width="163.822" height="1.5" style="fill:#2483c6;fill-rule:nonzero;"/><path d="M196.227,87.16l-9.275,0c-4.699,0 -8.508,-3.809 -8.508,-8.507c0,-4.698 3.809,-8.507 8.508,-8.507l9.275,0c4.698,0 8.507,3.809 8.507,8.507c0,4.698 -3.809,8.507 -8.507,8.507Z" style="fill:#eef7fd;fill-rule:nonzero;"/></g></svg>