<?xml version="1.0" encoding="UTF-8" standalone="no"?>
<!-- Created with Inkscape (http://www.inkscape.org/) -->

<svg
   xmlns:dc="http://purl.org/dc/elements/1.1/"
   xmlns:cc="http://creativecommons.org/ns#"
   xmlns:rdf="http://www.w3.org/1999/02/22-rdf-syntax-ns#"
   xmlns:svg="http://www.w3.org/2000/svg"
   xmlns="http://www.w3.org/2000/svg"
   xmlns:sodipodi="http://sodipodi.sourceforge.net/DTD/sodipodi-0.dtd"
   xmlns:inkscape="http://www.inkscape.org/namespaces/inkscape"
   width="105mm"
   height="74mm"
   viewBox="0 0 105 74"
   version="1.1"
   id="svg8"
   inkscape:version="0.92.2 (5c3e80d, 2017-08-06)"
   sodipodi:docname="logo_plain.svg">
  <defs
     id="defs2" />
  <sodipodi:namedview
     id="base"
     pagecolor="#ffffff"
     bordercolor="#666666"
     borderopacity="1.0"
     inkscape:pageopacity="0.0"
     inkscape:pageshadow="2"
     inkscape:zoom="1.7377856"
     inkscape:cx="279.78246"
     inkscape:cy="112.89613"
     inkscape:document-units="mm"
     inkscape:current-layer="layer1"
     showgrid="false"
     inkscape:window-width="1280"
     inkscape:window-height="800"
     inkscape:window-x="0"
     inkscape:window-y="0"
     inkscape:window-maximized="0" />
  <metadata
     id="metadata5">
    <rdf:RDF>
      <cc:Work
         rdf:about="">
        <dc:format>image/svg+xml</dc:format>
        <dc:type
           rdf:resource="http://purl.org/dc/dcmitype/StillImage" />
        <dc:title></dc:title>
      </cc:Work>
    </rdf:RDF>
  </metadata>
  <g
     inkscape:groupmode="layer"
     id="layer2"
     inkscape:label="Backgorund"
     transform="translate(0,-223)" />
  <g
     inkscape:label="Layer 1"
     inkscape:groupmode="layer"
     id="layer1"
     transform="translate(0,-223)">
    <g
       aria-label="JURISTHUSET"
       style="font-style:normal;font-weight:normal;font-size:10.58333302px;line-height:1.25;font-family:'Bitstream Vera Sans';letter-spacing:0px;word-spacing:0px;fill:#000000;fill-opacity:1;stroke:none;stroke-width:0.26458332px;stroke-linecap:butt;stroke-linejoin:miter;stroke-opacity:1"
       id="text3720"
       transform="matrix(1.0096305,0,0,1.0096305,-58.155703,156.72323)">
      <path
         d="m 81.937674,105.05462 q 0,0.33866 -0.05292,0.75141 -0.04233,0.41275 -0.254,0.78317 -0.201083,0.35983 -0.613833,0.61383 -0.402167,0.24342 -1.132417,0.24342 -0.8255,0 -1.312333,-0.41275 -0.47625,-0.42333 -0.635,-1.12183 l 0.6985,-0.127 q 0.254,1.02658 1.248833,1.02658 0.370417,0 0.624417,-0.11642 0.264583,-0.127 0.423333,-0.33866 0.15875,-0.21167 0.232833,-0.49742 0.07408,-0.29633 0.07408,-0.635 v -5.460999 h 0.6985 z"
         style="font-style:normal;font-variant:normal;font-weight:300;font-stretch:normal;font-family:Avenir;-inkscape-font-specification:'Avenir Light';fill:#000000;fill-opacity:1;stroke-width:0.26458332px"
         id="path3767"
         inkscape:connector-curvature="0" />
      <path
         d="m 89.318722,104.38787 q 0,0.60325 -0.137584,1.15358 -0.137583,0.55033 -0.465666,0.97367 -0.3175,0.42333 -0.846667,0.67733 -0.518583,0.254 -1.280583,0.254 -0.762,0 -1.291167,-0.254 -0.518583,-0.254 -0.846667,-0.67733 -0.3175,-0.42334 -0.455083,-0.97367 -0.137583,-0.55033 -0.137583,-1.15358 v -4.624919 h 0.6985 v 4.444999 q 0,0.40217 0.07408,0.85725 0.07408,0.45508 0.28575,0.84667 0.22225,0.39158 0.613833,0.64558 0.402167,0.254 1.058334,0.254 0.656166,0 1.04775,-0.254 0.402166,-0.254 0.613833,-0.64558 0.22225,-0.39159 0.296333,-0.84667 0.07408,-0.45508 0.07408,-0.85725 v -4.444999 h 0.6985 z"
         style="font-style:normal;font-variant:normal;font-weight:300;font-stretch:normal;font-family:Avenir;-inkscape-font-specification:'Avenir Light';fill:#000000;fill-opacity:1;stroke-width:0.26458332px"
         id="path3769"
         inkscape:connector-curvature="0" />
      <path
         d="m 91.928506,103.06495 h 1.481666 q 0.550334,0 0.889,-0.13758 0.34925,-0.13759 0.53975,-0.33867 0.1905,-0.20108 0.254,-0.43392 0.07408,-0.23283 0.07408,-0.42333 0,-0.1905 -0.07408,-0.42333 -0.0635,-0.23284 -0.254,-0.43392 -0.1905,-0.20108 -0.53975,-0.33867 -0.338666,-0.13758 -0.889,-0.13758 h -1.481666 z m -0.6985,-3.301999 h 1.9685 q 0.148166,0 0.402166,0.01058 0.254,0.01058 0.550334,0.0635 0.296333,0.05292 0.60325,0.169339 0.306916,0.11641 0.550333,0.33866 0.243417,0.22225 0.402167,0.56092 0.15875,0.33867 0.15875,0.8255 0,0.53975 -0.1905,0.889 -0.179917,0.34925 -0.465667,0.5715 -0.275167,0.21167 -0.613833,0.3175 -0.338667,0.10583 -0.645584,0.14817 l 2.180167,3.59833 h -0.79375 l -2.106083,-3.556 h -1.30175 v 3.556 h -0.6985 z"
         style="font-style:normal;font-variant:normal;font-weight:300;font-stretch:normal;font-family:Avenir;-inkscape-font-specification:'Avenir Light';fill:#000000;fill-opacity:1;stroke-width:0.26458332px"
         id="path3771"
         inkscape:connector-curvature="0" />
      <path
         d="m 97.513859,99.762951 h 0.6985 v 7.492999 h -0.6985 z"
         style="font-style:normal;font-variant:normal;font-weight:300;font-stretch:normal;font-family:Avenir;-inkscape-font-specification:'Avenir Light';fill:#000000;fill-opacity:1;stroke-width:0.26458332px"
         id="path3773"
         inkscape:connector-curvature="0" />
      <path
         d="m 100.46413,105.86953 q 0.27516,0.47625 0.70908,0.70909 0.4445,0.23283 1.00542,0.23283 0.34925,0 0.65616,-0.10583 0.30692,-0.10584 0.52917,-0.29634 0.23283,-0.1905 0.35983,-0.45508 0.13759,-0.27517 0.13759,-0.61383 0,-0.39159 -0.16934,-0.64559 -0.15875,-0.254 -0.43391,-0.41275 -0.27517,-0.16933 -0.62442,-0.28575 -0.33867,-0.11641 -0.70908,-0.23283 -0.35984,-0.11642 -0.70909,-0.26458 -0.33866,-0.14817 -0.61383,-0.381 -0.27517,-0.24342 -0.4445,-0.60325 -0.158748,-0.35984 -0.158748,-0.889 0,-0.49742 0.190498,-0.87842 0.20108,-0.39158 0.52917,-0.64558 0.33866,-0.264586 0.77258,-0.391586 0.43392,-0.137583 0.91017,-0.137583 0.61383,0 1.13241,0.22225 0.52917,0.211669 0.91017,0.719669 l -0.60325,0.43391 q -0.26458,-0.37041 -0.62442,-0.55033 -0.34925,-0.1905 -0.83608,-0.1905 -0.33867,0 -0.64558,0.0953 -0.30692,0.0847 -0.53975,0.26458 -0.22225,0.16934 -0.35984,0.43392 -0.13758,0.26458 -0.13758,0.62442 0,0.56091 0.28575,0.86783 0.28575,0.29633 0.70908,0.47625 0.43392,0.16933 0.93134,0.30692 0.508,0.127 0.93133,0.34925 0.43392,0.22225 0.71967,0.62441 0.28575,0.39159 0.28575,1.09009 0,0.508 -0.1905,0.89958 -0.1905,0.39158 -0.51859,0.66675 -0.3175,0.26458 -0.74083,0.40217 -0.42333,0.13758 -0.87842,0.13758 -0.74083,0 -1.36525,-0.254 -0.62441,-0.26458 -1.068912,-0.87842 z"
         style="font-style:normal;font-variant:normal;font-weight:300;font-stretch:normal;font-family:Avenir;-inkscape-font-specification:'Avenir Light';fill:#000000;fill-opacity:1;stroke-width:0.26458332px"
         id="path3775"
         inkscape:connector-curvature="0" />
      <path
         d="m 107.81574,100.39795 h -2.56117 v -0.634999 h 5.82084 v 0.634999 h -2.56117 v 6.858 h -0.6985 z"
         style="font-style:normal;font-variant:normal;font-weight:300;font-stretch:normal;font-family:Avenir;-inkscape-font-specification:'Avenir Light';fill:#000000;fill-opacity:1;stroke-width:0.26458332px"
         id="path3777"
         inkscape:connector-curvature="0" />
      <path
         d="m 112.23131,99.762951 h 0.6985 v 3.301999 h 4.191 v -3.301999 h 0.6985 v 7.492999 h -0.6985 v -3.556 h -4.191 v 3.556 h -0.6985 z"
         style="font-style:normal;font-variant:normal;font-weight:300;font-stretch:normal;font-family:Avenir;-inkscape-font-specification:'Avenir Light';fill:#000000;fill-opacity:1;stroke-width:0.26458332px"
         id="path3779"
         inkscape:connector-curvature="0" />
      <path
         d="m 125.20284,104.38787 q 0,0.60325 -0.13759,1.15358 -0.13758,0.55033 -0.46566,0.97367 -0.3175,0.42333 -0.84667,0.67733 -0.51858,0.254 -1.28058,0.254 -0.762,0 -1.29117,-0.254 -0.51858,-0.254 -0.84667,-0.67733 -0.3175,-0.42334 -0.45508,-0.97367 -0.13758,-0.55033 -0.13758,-1.15358 v -4.624919 h 0.6985 v 4.444999 q 0,0.40217 0.0741,0.85725 0.0741,0.45508 0.28575,0.84667 0.22225,0.39158 0.61383,0.64558 0.40217,0.254 1.05834,0.254 0.65616,0 1.04775,-0.254 0.40216,-0.254 0.61383,-0.64558 0.22225,-0.39159 0.29633,-0.84667 0.0741,-0.45508 0.0741,-0.85725 v -4.444999 h 0.6985 z"
         style="font-style:normal;font-variant:normal;font-weight:300;font-stretch:normal;font-family:Avenir;-inkscape-font-specification:'Avenir Light';fill:#000000;fill-opacity:1;stroke-width:0.26458332px"
         id="path3781"
         inkscape:connector-curvature="0" />
      <path
         d="m 127.3152,105.86953 q 0.27517,0.47625 0.70909,0.70909 0.4445,0.23283 1.00541,0.23283 0.34925,0 0.65617,-0.10583 0.30692,-0.10584 0.52917,-0.29634 0.23283,-0.1905 0.35983,-0.45508 0.13758,-0.27517 0.13758,-0.61383 0,-0.39159 -0.16933,-0.64559 -0.15875,-0.254 -0.43392,-0.41275 -0.27516,-0.16933 -0.62441,-0.28575 -0.33867,-0.11641 -0.70909,-0.23283 -0.35983,-0.11642 -0.70908,-0.26458 -0.33867,-0.14817 -0.61383,-0.381 -0.27517,-0.24342 -0.4445,-0.60325 -0.15875,-0.35984 -0.15875,-0.889 0,-0.49742 0.1905,-0.87842 0.20108,-0.39158 0.52916,-0.64558 0.33867,-0.264586 0.77259,-0.391586 0.43391,-0.137583 0.91016,-0.137583 0.61384,0 1.13242,0.22225 0.52917,0.211669 0.91017,0.719669 l -0.60325,0.43391 q -0.26459,-0.37041 -0.62442,-0.55033 -0.34925,-0.1905 -0.83608,-0.1905 -0.33867,0 -0.64559,0.0953 -0.30691,0.0847 -0.53975,0.26458 -0.22225,0.16934 -0.35983,0.43392 -0.13758,0.26458 -0.13758,0.62442 0,0.56091 0.28575,0.86783 0.28575,0.29633 0.70908,0.47625 0.43392,0.16933 0.93133,0.30692 0.508,0.127 0.93134,0.34925 0.43391,0.22225 0.71966,0.62441 0.28575,0.39159 0.28575,1.09009 0,0.508 -0.1905,0.89958 -0.1905,0.39158 -0.51858,0.66675 -0.3175,0.26458 -0.74083,0.40217 -0.42334,0.13758 -0.87842,0.13758 -0.74083,0 -1.36525,-0.254 -0.62442,-0.26458 -1.06892,-0.87842 z"
         style="font-style:normal;font-variant:normal;font-weight:300;font-stretch:normal;font-family:Avenir;-inkscape-font-specification:'Avenir Light';fill:#000000;fill-opacity:1;stroke-width:0.26458332px"
         id="path3783"
         inkscape:connector-curvature="0" />
      <path
         d="m 133.00523,99.762951 h 4.58259 v 0.634999 h -3.88409 v 2.667 h 3.64067 v 0.635 h -3.64067 v 2.921 h 4.05342 v 0.635 h -4.75192 z"
         style="font-style:normal;font-variant:normal;font-weight:300;font-stretch:normal;font-family:Avenir;-inkscape-font-specification:'Avenir Light';fill:#000000;fill-opacity:1;stroke-width:0.26458332px"
         id="path3785"
         inkscape:connector-curvature="0" />
      <path
         d="m 140.95067,100.39795 h -2.56117 v -0.634999 h 5.82084 v 0.634999 h -2.56117 v 6.858 h -0.6985 z"
         style="font-style:normal;font-variant:normal;font-weight:300;font-stretch:normal;font-family:Avenir;-inkscape-font-specification:'Avenir Light';fill:#000000;fill-opacity:1;stroke-width:0.26458332px"
         id="path3787"
         inkscape:connector-curvature="0" />
    </g>
    <g
       id="g3804"
       style="fill:#000000"
       transform="translate(-2.8928666,-7.9171637)" />
    <g
       aria-label="JURISTHUSET"
       style="font-style:normal;font-weight:normal;font-size:10.58333302px;line-height:1.25;font-family:'Bitstream Vera Sans';letter-spacing:0px;word-spacing:0px;fill:#000000;fill-opacity:1;stroke:none;stroke-width:0.26458332px;stroke-linecap:butt;stroke-linejoin:miter;stroke-opacity:1"
       id="text3720-3"
       transform="matrix(1.0096306,0,0,1.0096306,-43.623081,144.25419)">
      <g
         aria-label="ADVOKATFIRMAET
"
         style="font-style:normal;font-weight:normal;font-size:3.12352037px;line-height:1.25;font-family:'Bitstream Vera Sans';letter-spacing:0px;word-spacing:0px;fill:#000000;fill-opacity:1;stroke:none;stroke-width:0.07808802px;stroke-linecap:butt;stroke-linejoin:miter;stroke-opacity:1"
         id="text3868">
        <path
           d="m 78.537481,107.70281 -0.417893,1.13319 h 0.837311 z m -0.173868,-0.30351 h 0.349261 l 0.867814,2.27706 h -0.320283 l -0.207421,-0.58413 h -1.02643 l -0.207422,0.58413 h -0.324858 z"
           style="letter-spacing:0.77901px;word-spacing:0px;fill:#000000;stroke-width:0.07808802px"
           id="path3872"
           inkscape:connector-curvature="0" />
        <path
           d="m 80.998739,107.65248 v 1.77071 h 0.372138 q 0.471273,0 0.689371,-0.21353 0.219622,-0.21352 0.219622,-0.67412 0,-0.45754 -0.219622,-0.66954 -0.218098,-0.21352 -0.689371,-0.21352 z m -0.308082,-0.25318 h 0.63294 q 0.661918,0 0.971525,0.27606 0.309606,0.27452 0.309606,0.86018 0,0.58871 -0.311131,0.86477 -0.311132,0.27605 -0.97,0.27605 h -0.63294 z"
           style="letter-spacing:0.77901px;word-spacing:0px;fill:#000000;stroke-width:0.07808802px"
           id="path3874"
           inkscape:connector-curvature="0" />
        <path
           d="m 84.408644,109.67636 -0.869339,-2.27706 h 0.321808 l 0.721399,1.91712 0.722924,-1.91712 h 0.320283 l -0.867814,2.27706 z"
           style="letter-spacing:0.77901px;word-spacing:0px;fill:#000000;stroke-width:0.07808802px"
           id="path3876"
           inkscape:connector-curvature="0" />
        <path
           d="m 87.605027,107.60825 q -0.335535,0 -0.533805,0.25012 -0.196745,0.25013 -0.196745,0.68175 0,0.43009 0.196745,0.68022 0.19827,0.25012 0.533805,0.25012 0.335534,0 0.530754,-0.25012 0.196745,-0.25013 0.196745,-0.68022 0,-0.43162 -0.196745,-0.68175 -0.19522,-0.25012 -0.530754,-0.25012 z m 0,-0.25013 q 0.478899,0 0.765628,0.32181 0.28673,0.32028 0.28673,0.86019 0,0.53838 -0.28673,0.86019 -0.286729,0.32028 -0.765628,0.32028 -0.480424,0 -0.768679,-0.32028 -0.286729,-0.32029 -0.286729,-0.86019 0,-0.53991 0.286729,-0.86019 0.288255,-0.32181 0.768679,-0.32181 z"
           style="letter-spacing:0.77901px;word-spacing:0px;fill:#000000;stroke-width:0.07808802px"
           id="path3878"
           inkscape:connector-curvature="0" />
        <path
           d="m 89.921394,107.3993 h 0.308082 v 0.96238 l 1.021854,-0.96238 h 0.396541 l -1.130141,1.06151 1.210974,1.21555 h -0.405691 l -1.093537,-1.09659 v 1.09659 h -0.308082 z"
           style="letter-spacing:0.77901px;word-spacing:0px;fill:#000000;stroke-width:0.07808802px"
           id="path3880"
           inkscape:connector-curvature="0" />
        <path
           d="m 93.459412,107.70281 -0.417893,1.13319 h 0.837311 z m -0.173868,-0.30351 h 0.349261 l 0.867814,2.27706 h -0.320283 l -0.207421,-0.58413 h -1.02643 l -0.207421,0.58413 h -0.324859 z"
           style="letter-spacing:0.77901px;word-spacing:0px;fill:#000000;stroke-width:0.07808802px"
           id="path3882"
           inkscape:connector-curvature="0" />
        <path
           d="m 95.055907,107.3993 h 1.926272 v 0.25928 h -0.808333 v 2.01778 H 95.86424 v -2.01778 h -0.808333 z"
           style="letter-spacing:0.77901px;word-spacing:0px;fill:#000000;stroke-width:0.07808802px"
           id="path3884"
           inkscape:connector-curvature="0" />
        <path
           d="m 98.060119,107.3993 h 1.308585 v 0.25928 h -1.000503 v 0.67107 h 0.902893 v 0.25927 h -0.902893 v 1.08744 h -0.308082 z"
           style="letter-spacing:0.77901px;word-spacing:0px;fill:#000000;stroke-width:0.07808802px"
           id="path3886"
           inkscape:connector-curvature="0" />
        <path
           d="m 100.63881,107.3993 h 0.30809 v 2.27706 h -0.30809 z"
           style="letter-spacing:0.77901px;word-spacing:0px;fill:#000000;stroke-width:0.07808802px"
           id="path3888"
           inkscape:connector-curvature="0" />
        <path
           d="m 103.41883,108.60875 q 0.0991,0.0336 0.19217,0.14337 0.0946,0.10981 0.18912,0.30198 l 0.31266,0.62226 h -0.33096 l -0.29131,-0.58413 q -0.11286,-0.22878 -0.21962,-0.30351 -0.10524,-0.0747 -0.28825,-0.0747 h -0.33554 v 0.96237 h -0.30808 v -2.27706 h 0.69547 q 0.39044,0 0.58261,0.16319 0.19217,0.1632 0.19217,0.49263 0,0.21505 -0.10066,0.35689 -0.0991,0.14184 -0.28978,0.19674 z m -0.77173,-0.95627 v 0.80833 h 0.38739 q 0.22267,0 0.33554,-0.10218 0.11438,-0.10371 0.11438,-0.30351 0,-0.1998 -0.11438,-0.30046 -0.11287,-0.10218 -0.33554,-0.10218 z"
           style="letter-spacing:0.77901px;word-spacing:0px;fill:#000000;stroke-width:0.07808802px"
           id="path3890"
           inkscape:connector-curvature="0" />
        <path
           d="m 105.28985,107.3993 h 0.45907 l 0.58109,1.54956 0.58413,-1.54956 h 0.45908 v 2.27706 h -0.30046 v -1.99948 l -0.58719,1.56176 h -0.3096 l -0.58719,-1.56176 v 1.99948 h -0.29893 z"
           style="letter-spacing:0.77901px;word-spacing:0px;fill:#000000;stroke-width:0.07808802px"
           id="path3892"
           inkscape:connector-curvature="0" />
        <path
           d="m 109.52639,107.70281 -0.41789,1.13319 h 0.83731 z m -0.17387,-0.30351 h 0.34926 l 0.86782,2.27706 h -0.32028 l -0.20743,-0.58413 h -1.02643 l -0.20742,0.58413 h -0.32486 z"
           style="letter-spacing:0.77901px;word-spacing:0px;fill:#000000;stroke-width:0.07808802px"
           id="path3894"
           inkscape:connector-curvature="0" />
        <path
           d="m 111.67957,107.3993 h 1.43974 v 0.25928 h -1.13166 v 0.67412 h 1.08438 v 0.25927 h -1.08438 v 0.82511 h 1.15912 v 0.25928 h -1.4672 z"
           style="letter-spacing:0.77901px;word-spacing:0px;fill:#000000;stroke-width:0.07808802px"
           id="path3896"
           inkscape:connector-curvature="0" />
        <path
           d="m 114.11947,107.3993 h 1.92628 v 0.25928 h -0.80834 v 2.01778 h -0.3096 v -2.01778 h -0.80834 z"
           style="letter-spacing:0.77901px;word-spacing:0px;fill:#000000;stroke-width:0.07808802px"
           id="path3898"
           inkscape:connector-curvature="0" />
      </g>
    </g>
  </g>
</svg>
