<?xml version="1.0" encoding="UTF-8" standalone="no"?><!DOCTYPE svg PUBLIC "-//W3C//DTD SVG 1.1//EN" "http://www.w3.org/Graphics/SVG/1.1/DTD/svg11.dtd"><svg width="100%" height="100%" viewBox="0 0 126 145" version="1.1" xmlns="http://www.w3.org/2000/svg" xmlns:xlink="http://www.w3.org/1999/xlink" xml:space="preserve" xmlns:serif="http://www.serif.com/" style="fill-rule:evenodd;clip-rule:evenodd;stroke-linejoin:round;stroke-miterlimit:1.41421;"><path d="M61.209,28.454c-0.058,0.001 -0.117,0.003 -0.176,0.004c0.064,0.134 0.119,0.263 0.176,0.394l0,-0.398Z" style="fill:#bedfb5;fill-rule:nonzero;"/><path d="M30.864,51.477c-0.826,-4.271 -2.156,-11.184 -2.56,-15.218c-0.075,-0.439 -0.126,-1.01 -0.114,-1.702c-0.001,-0.079 -0.008,-0.173 -0.008,-0.246c0,0.022 0.014,0.047 0.016,0.07c0.016,-0.474 0.055,-0.987 0.152,-1.568c0.486,-2.918 5.456,-7.406 11.681,-7.147c6.224,0.259 12.556,3.214 13.333,5.029c0.541,1.262 0.311,6.138 -3.332,7.694c-1.598,0.683 -5.833,-0.821 -8.558,-0.216c-1.264,0.281 -2.777,1.87 -3.833,3.167c4.266,2.329 9.448,4.9 14.426,7.37c3.724,-3.047 6.188,-6.553 6.188,-6.553c0,0 1.951,-3.58 2.954,-7.218l0,-6.087c-0.057,-0.131 -0.112,-0.26 -0.176,-0.394c-2.151,-4.464 -8.702,-10.597 -16.27,-10.379c-9.399,0.27 -19.793,7.338 -25.285,8.584c-3.455,0.783 -11.53,-0.846 -16.885,-4.488c-5.355,-3.642 -0.851,6.717 -0.258,7.97c0.593,1.253 6.722,9.998 12.784,14.032c1.343,0.895 2.829,1.777 4.406,2.621c1.82,0.974 3.767,1.891 5.772,2.714c1.825,0.749 3.696,1.413 5.567,1.965Z" style="fill:#00639d;fill-rule:nonzero;"/><path d="M123.199,30.145c0.593,-1.253 5.096,-11.612 -0.259,-7.97c-5.355,3.642 -13.43,5.271 -16.884,4.488c-5.493,-1.246 -15.886,-8.314 -25.286,-8.584c-7.544,-0.218 -14.08,5.878 -16.251,10.339c-0.122,0.249 -0.234,0.494 -0.328,0.732l0,5.291c0.952,3.802 3.088,7.716 3.088,7.716c0,0 3.386,4.84 8.238,8.087c4.907,-2.754 9.93,-5.628 14.024,-8.214c-1.02,-1.341 -2.876,-3.523 -4.377,-3.857c-2.725,-0.605 -6.961,0.899 -8.559,0.216c-3.642,-1.556 -3.872,-6.432 -3.332,-7.694c0.778,-1.815 7.11,-4.77 13.334,-5.029c6.224,-0.259 11.195,4.229 11.681,7.147c0.101,0.606 0.141,1.141 0.155,1.631c0.001,-0.024 0.014,-0.052 0.013,-0.075c0.002,0.08 -0.005,0.181 -0.005,0.266c0.002,0.171 -0.003,0.325 -0.009,0.481c-0.002,0.043 -0.002,0.08 -0.005,0.124c-0.017,0.348 -0.045,0.67 -0.086,0.932c-0.474,4.011 -2.383,10.928 -3.439,15.235c3.353,-1.006 6.701,-2.378 9.763,-3.92c0.305,-0.154 0.61,-0.309 0.909,-0.465c1.736,-0.912 3.368,-1.871 4.831,-2.845c6.062,-4.034 12.191,-12.779 12.784,-14.032Z" style="fill:#00639d;fill-rule:nonzero;"/><path d="M57.558,121.904c1.145,-0.9 2.377,-1.756 3.651,-2.586l0,-1.598c-3.377,-2.218 -6.814,-4.425 -9.43,-6.86c-1.032,1.568 -1.58,3.241 -1.273,5.043c0.718,2.284 3.178,3.158 7.052,6.001Z" style="fill:#06bdf0;fill-rule:nonzero;"/><path d="M64.191,127.897c6.258,7.071 1.564,13.828 -0.078,15.858c-0.061,0.219 -0.158,0.418 -0.304,0.584c0.183,-0.079 0.506,-0.271 0.93,-0.548c1.97,-1.292 5.94,-4.323 6.316,-5.369c0,0 2.116,-2.919 2.439,-5.503c0.472,-3.772 -1.579,-6.866 -4.715,-9.673c-1.15,0.909 -2.655,2.062 -4.588,3.542l0,1.109Z" style="fill:#06bdf0;fill-rule:nonzero;"/><path d="M64.191,103.54c3.167,2.347 6.631,4.943 8.376,7.981c1.66,-1.547 2.935,-3.24 3.573,-5.189c0.069,-0.348 0.159,-0.69 0.216,-1.041c0.438,-3.154 -2.054,-6.003 -6.154,-9.149c-1.932,1.322 -3.983,2.752 -6.011,4.363l0,3.035Z" style="fill:#06bdf0;fill-rule:nonzero;"/><path d="M75.947,107.264c-0.262,1.048 -0.535,2.138 -0.815,3.261c0.298,-1.079 0.569,-2.166 0.815,-3.261Z" style="fill:#77c47a;fill-rule:nonzero;"/><path d="M73.61,116.615l0,-0.001l0,0.001Z" style="fill:#77c47a;fill-rule:nonzero;"/><path d="M53.555,96.135c2.218,-1.591 4.867,-3.247 7.654,-5.047l0,-1.158c-4.626,-3.029 -9.889,-5.593 -13.816,-7.994c-2.421,1.943 -4.013,3.987 -3.687,5.903c0.7,2.831 4.956,5.306 9.849,8.296Z" style="fill:#06bdf0;fill-rule:nonzero;"/><path d="M28.304,36.259c-0.066,-0.656 -0.104,-1.223 -0.114,-1.702c-0.012,0.692 0.039,1.263 0.114,1.702Z" style="fill:#16a04a;fill-rule:nonzero;"/><path d="M37.641,41.34c1.056,-1.297 2.569,-2.886 3.833,-3.167c2.725,-0.605 6.96,0.899 8.558,0.216c3.643,-1.556 3.873,-6.432 3.332,-7.694c-0.777,-1.815 -7.109,-4.77 -13.333,-5.029c-6.225,-0.259 -11.195,4.229 -11.681,7.147c-0.097,0.581 -0.136,1.094 -0.152,1.568c0.119,1.45 4.035,4.007 9.443,6.959Z" style="fill:#0088c8;fill-rule:nonzero;"/><path d="M64.191,54.884l0,1.711c0.494,-0.281 1.001,-0.569 1.522,-0.863c-0.482,-0.274 -0.982,-0.555 -1.522,-0.848Z" style="fill:#06bdf0;fill-rule:nonzero;"/><path d="M50.511,65.02c2.368,-1.463 4.924,-2.999 7.423,-4.67c0.859,-0.574 1.978,-1.261 3.275,-2.028l0,-5.016c-2.749,-1.423 -5.898,-2.987 -9.142,-4.596c-4.978,-2.47 -10.16,-5.041 -14.426,-7.37c-5.408,-2.952 -9.324,-5.509 -9.443,-6.959c-0.002,-0.023 -0.016,-0.048 -0.016,-0.07c0,0.073 0.007,0.167 0.008,0.246c0.01,0.479 0.048,1.046 0.114,1.702c0.404,4.034 1.734,10.947 2.56,15.218c0.196,1.015 0.366,1.894 0.485,2.534c0.63,2.545 10.728,7.354 19.162,11.009Z" style="fill:#06bdf0;fill-rule:nonzero;"/><path d="M79.402,80.006c2.184,-1.531 3.709,-3.014 4.071,-4.533c0.247,-0.841 0.463,-1.695 0.607,-2.581c0.368,-2.657 -1.657,-5.245 -4.94,-7.966c-5.024,2.836 -10.011,5.433 -12.738,6.842c4.204,1.9 10.232,4.957 13,8.238Z" style="fill:#06bdf0;fill-rule:nonzero;"/><path d="M98.451,34.635c0,0.154 0,0.308 -0.009,0.481c0.006,-0.156 0.011,-0.31 0.009,-0.481Z" style="fill:#77c47a;fill-rule:nonzero;"/><path d="M98.437,35.24c-0.018,0.289 -0.047,0.601 -0.086,0.932c0.041,-0.262 0.069,-0.584 0.086,-0.932Z" style="fill:#77c47a;fill-rule:nonzero;"/><path d="M98.443,34.444c-0.014,-0.49 -0.054,-1.025 -0.155,-1.631c-0.486,-2.918 -5.457,-7.406 -11.681,-7.147c-6.224,0.259 -12.556,3.214 -13.334,5.029c-0.54,1.262 -0.31,6.138 3.332,7.694c1.598,0.683 5.834,-0.821 8.559,-0.216c1.501,0.334 3.357,2.516 4.377,3.857c5.171,-3.268 8.841,-6.07 8.902,-7.586Z" style="fill:#06bdf0;fill-rule:nonzero;"/><path d="M61.209,34.939l0,23.383c0.908,-0.537 1.909,-1.115 2.982,-1.727l0,-1.711l0,-20.443l0,-5.291l0,-0.748l0,-19.199c-0.489,0.071 -0.985,0.119 -1.495,0.119c-0.506,0 -1,-0.048 -1.487,-0.118l0,25.735Z" style="fill:#00639d;fill-rule:nonzero;"/><path d="M64.113,143.755c0.035,-0.126 0.078,-0.25 0.078,-0.386l0,-15.472l0,-1.109c-0.323,0.248 -0.632,0.485 -0.982,0.753c-0.744,0.509 -1.401,1.002 -2,1.485l0,14.343c0,0.064 0.029,0.12 0.037,0.182c0.227,0.317 0.382,0.613 0.43,0.891c0.268,0.255 0.627,0.418 1.024,0.418c0.446,0 0.836,-0.208 1.109,-0.521c0.146,-0.166 0.243,-0.365 0.304,-0.584Z" style="fill:#00639d;fill-rule:nonzero;"/><path d="M61.209,119.318c0.98,-0.638 1.983,-1.262 2.982,-1.884l0,-13.894l0,-3.035c-0.018,0.015 -0.036,0.028 -0.054,0.043c-0.866,0.689 -1.871,1.405 -2.928,2.146l0,16.624Z" style="fill:#00639d;fill-rule:nonzero;"/><path d="M61.209,91.088c0.885,-0.572 1.78,-1.154 2.683,-1.757c0.099,-0.066 0.2,-0.13 0.299,-0.195l0,-16.222c-0.383,0.184 -1.476,0.641 -2.982,1.307l0,16.867Z" style="fill:#00639d;fill-rule:nonzero;"/><path d="M64.191,56.595c-1.073,0.612 -2.074,1.19 -2.982,1.727c-1.297,0.767 -2.416,1.454 -3.275,2.028c-2.499,1.671 -5.055,3.207 -7.423,4.67c-5.916,3.652 -10.63,6.828 -10.136,10.389c0.651,4.005 2.604,8.529 3.331,12.43c-0.326,-1.916 1.266,-3.96 3.687,-5.903c3.947,-3.17 10.106,-6.073 13.816,-7.715c1.506,-0.666 2.599,-1.123 2.982,-1.307c0.049,-0.023 0.095,-0.046 0.12,-0.06c0.149,-0.086 0.912,-0.477 2.091,-1.086c2.727,-1.409 7.714,-4.006 12.738,-6.842c7.293,-4.119 14.644,-8.733 15.184,-10.915c0.122,-0.657 0.332,-1.559 0.588,-2.604c1.056,-4.307 2.965,-11.224 3.439,-15.235c0.039,-0.331 0.068,-0.643 0.086,-0.932c0.003,-0.044 0.003,-0.081 0.005,-0.124c0.009,-0.173 0.009,-0.327 0.009,-0.481c0,-0.085 0.007,-0.186 0.005,-0.266c0.001,0.023 -0.012,0.051 -0.013,0.075c-0.061,1.516 -3.731,4.318 -8.902,7.586c-4.094,2.586 -9.117,5.46 -14.024,8.214c-3.453,1.938 -6.839,3.813 -9.804,5.488c-0.521,0.294 -1.028,0.582 -1.522,0.863Z" style="fill:#0088c8;fill-rule:nonzero;"/><path d="M79.402,80.006c-3.897,2.73 -9.891,5.615 -15.211,9.13c-0.099,0.065 -0.2,0.129 -0.299,0.195c-0.903,0.603 -1.798,1.185 -2.683,1.757c-2.787,1.8 -5.436,3.456 -7.654,5.047c-3.9,2.796 -6.467,5.397 -6.072,8.247c0.627,3.857 2.307,7.681 3.023,11.521c-0.307,-1.802 0.241,-3.475 1.273,-5.043c2.04,-3.099 6.022,-5.778 9.43,-8.166c1.057,-0.741 2.062,-1.457 2.928,-2.146c0.018,-0.015 0.036,-0.028 0.054,-0.043c2.028,-1.611 4.079,-3.041 6.011,-4.363c4.987,-3.413 9.161,-6.097 9.931,-9.212c0.727,-3.901 2.612,-7.493 3.363,-11.521c-0.005,0.021 -0.018,0.043 -0.023,0.064c-0.362,1.519 -1.887,3.002 -4.071,4.533Z" style="fill:#0088c8;fill-rule:nonzero;"/><path d="M64.191,20.633c5.021,-0.727 8.882,-5.035 8.882,-10.257c0,-5.731 -4.646,-10.376 -10.377,-10.376c-5.73,0 -10.376,4.645 -10.376,10.376c0,5.224 3.865,9.535 8.889,10.258c0.487,0.07 0.981,0.118 1.487,0.118c0.51,0 1.006,-0.048 1.495,-0.119Z" style="fill:#00639d;fill-rule:nonzero;"/><path d="M72.567,111.521c-2.301,2.144 -5.323,4.016 -8.376,5.913c-0.999,0.622 -2.002,1.246 -2.982,1.884c-1.274,0.83 -2.506,1.686 -3.651,2.586c-3.857,3.032 -6.677,6.591 -6.365,11.582c0.203,3.254 1.796,4.6 1.796,4.6c0.406,0.95 4.752,3.842 7.138,5.378c0.915,0.59 1.551,0.985 1.551,0.985c0,-0.002 -0.002,-0.005 -0.002,-0.007c-0.048,-0.278 -0.203,-0.574 -0.43,-0.891c-1.957,-2.743 -9.3,-7.07 -0.037,-14.525c0.599,-0.483 1.256,-0.976 2,-1.485c0.35,-0.268 0.659,-0.505 0.982,-0.753c1.933,-1.48 3.438,-2.633 4.588,-3.542c3.934,-3.109 3.972,-3.568 4.693,-6.079c0.042,-0.166 0.091,-0.362 0.138,-0.552l0,-0.001c0.089,-0.355 0.18,-0.718 0.257,-1.025c0.379,-1.518 0.823,-3.294 1.265,-5.064c0.28,-1.123 0.553,-2.213 0.815,-3.261c0.124,-0.498 0.252,-1.01 0.367,-1.468c-0.048,0.183 -0.115,0.358 -0.174,0.536c-0.638,1.949 -1.913,3.642 -3.573,5.189Z" style="fill:#0088c8;fill-rule:nonzero;"/></svg>