<?xml version="1.0" encoding="UTF-8" standalone="no"?><!DOCTYPE svg PUBLIC "-//W3C//DTD SVG 1.1//EN" "http://www.w3.org/Graphics/SVG/1.1/DTD/svg11.dtd"><svg width="100%" height="100%" viewBox="0 0 960 824" version="1.1" xmlns="http://www.w3.org/2000/svg" xmlns:xlink="http://www.w3.org/1999/xlink" xml:space="preserve" xmlns:serif="http://www.serif.com/" style="fill-rule:evenodd;clip-rule:evenodd;stroke-linecap:round;stroke-linejoin:round;stroke-miterlimit:1.41421;"><g><path d="M138.132,640.92c8.425,0 15.255,5.211 15.255,11.639c0,6.428 -6.83,11.639 -15.255,11.639l66.56,0c-8.425,0 -15.255,-5.211 -15.255,-11.639c0,-6.428 6.83,-11.639 15.255,-11.639l-66.56,0Z" style="fill:#f0f9fc;fill-rule:nonzero;"/><path d="M116.57,731.657c8.795,0 15.924,5.44 15.924,12.15c0,6.709 -7.129,12.149 -15.924,12.149l69.478,0c-8.794,0 -15.924,-5.44 -15.924,-12.149c0,-6.71 7.13,-12.15 15.924,-12.15l-69.478,0Z" style="fill:#f0f9fc;fill-rule:nonzero;"/><path d="M819.167,638.121c-8.43,0 -15.26,-5.211 -15.26,-11.639c0,-6.428 6.83,-11.639 15.26,-11.639l-66.565,0c8.425,0 15.255,5.211 15.255,11.639c0,6.428 -6.83,11.639 -15.255,11.639l66.565,0Z" style="fill:#f0f9fc;fill-rule:nonzero;"/><path d="M555.563,376.887c-8.794,0 -15.923,-5.439 -15.923,-12.149c0,-6.71 7.129,-12.149 15.923,-12.149l-69.478,0c8.795,0 15.924,5.439 15.924,12.149c0,6.71 -7.129,12.149 -15.924,12.149l69.478,0Z" style="fill:#f0f9fc;fill-rule:nonzero;"/><rect x="188.643" y="0" width="6" height="14.863" style="fill:#6a79a8;fill-rule:nonzero;"/><rect x="188.643" y="30.103" width="6" height="14.864" style="fill:#6a79a8;fill-rule:nonzero;"/><rect x="169.068" y="19.388" width="14.864" height="6" style="fill:#6a79a8;fill-rule:nonzero;"/><rect x="199.172" y="19.388" width="14.863" height="6" style="fill:#6a79a8;fill-rule:nonzero;"/><rect x="934.237" y="540.434" width="6" height="14.862" style="fill:#6a79a8;fill-rule:nonzero;"/><rect x="934.237" y="570.537" width="6" height="14.863" style="fill:#6a79a8;fill-rule:nonzero;"/><rect x="914.657" y="559.821" width="14.86" height="6" style="fill:#6a79a8;fill-rule:nonzero;"/><rect x="944.757" y="559.821" width="14.87" height="6" style="fill:#6a79a8;fill-rule:nonzero;"/><rect x="34.098" y="136.442" width="6" height="14.864" style="fill:#ff9c81;fill-rule:nonzero;"/><rect x="34.098" y="166.546" width="6" height="14.863" style="fill:#ff9c81;fill-rule:nonzero;"/><rect x="14.523" y="155.831" width="14.864" height="6" style="fill:#ff9c81;fill-rule:nonzero;"/><rect x="44.627" y="155.831" width="14.863" height="6" style="fill:#ff9c81;fill-rule:nonzero;"/><path d="M82.811,293.542c-6.795,0 -12.323,5.528 -12.323,12.322c0,6.795 5.528,12.323 12.323,12.323c6.794,0 12.322,-5.528 12.322,-12.323c0,-6.794 -5.528,-12.322 -12.322,-12.322Zm0,32.645c-11.206,0 -20.323,-9.117 -20.323,-20.323c0,-11.205 9.117,-20.322 20.323,-20.322c11.205,0 20.322,9.117 20.322,20.322c0,11.206 -9.117,20.323 -20.322,20.323Z" style="fill:#bbdff5;fill-rule:nonzero;"/><path d="M904.807,47.947c-6.8,0 -12.32,5.528 -12.32,12.323c0,6.794 5.52,12.322 12.32,12.322c6.79,0 12.32,-5.528 12.32,-12.322c0,-6.795 -5.53,-12.323 -12.32,-12.323Zm0,32.645c-11.21,0 -20.32,-9.117 -20.32,-20.322c0,-11.206 9.11,-20.323 20.32,-20.323c11.2,0 20.32,9.117 20.32,20.323c0,11.205 -9.12,20.322 -20.32,20.322Z" style="fill:#bbdff5;fill-rule:nonzero;"/><rect x="817.257" y="153.356" width="6" height="14.863" style="fill:#ff9c81;fill-rule:nonzero;"/><rect x="817.257" y="183.459" width="6" height="14.864" style="fill:#ff9c81;fill-rule:nonzero;"/><rect x="797.687" y="172.744" width="14.86" height="6" style="fill:#ff9c81;fill-rule:nonzero;"/><rect x="827.787" y="172.744" width="14.86" height="6" style="fill:#ff9c81;fill-rule:nonzero;"/><rect x="19.575" y="677.006" width="6" height="14.863" style="fill:#6a79a8;fill-rule:nonzero;"/><rect x="19.575" y="707.109" width="6" height="14.864" style="fill:#6a79a8;fill-rule:nonzero;"/><rect x="0" y="696.393" width="14.863" height="6" style="fill:#6a79a8;fill-rule:nonzero;"/><rect x="30.103" y="696.393" width="14.863" height="6" style="fill:#6a79a8;fill-rule:nonzero;"/><rect x="616.737" y="98.146" width="6" height="14.863" style="fill:#6a79a8;fill-rule:nonzero;"/><rect x="616.737" y="128.25" width="6" height="14.863" style="fill:#6a79a8;fill-rule:nonzero;"/><rect x="597.162" y="117.534" width="14.863" height="6" style="fill:#6a79a8;fill-rule:nonzero;"/><rect x="627.265" y="117.534" width="14.864" height="6" style="fill:#6a79a8;fill-rule:nonzero;"/><path d="M736.526,537.334c50.292,36.487 84.511,108.484 84.511,191.338l-319.202,0c0,-83.081 34.41,-155.247 84.929,-191.638l2.888,-1.925c6.333,-4.223 6.465,-14.146 0.246,-18.565l-3.134,-2.227c-50.519,-36.391 -84.929,-108.556 -84.929,-191.638l319.202,0c0,82.854 -34.219,154.851 -84.511,191.338l-3.639,3.073c-5.314,4.487 -5.194,13.234 0.241,17.548l3.398,2.696Z" style="fill:#fff;fill-rule:nonzero;"/><path d="M503.842,726.672l315.185,0c-0.53,-78.791 -32.487,-150.581 -83.676,-187.719c-0.023,-0.017 -0.046,-0.034 -0.068,-0.052l-3.398,-2.697c-3.057,-2.426 -4.845,-6.153 -4.908,-10.226c-0.062,-4.088 1.621,-7.884 4.619,-10.416l3.64,-3.074c0.037,-0.031 0.076,-0.061 0.115,-0.09c51.189,-37.138 83.146,-108.928 83.676,-187.719l-315.185,0c0.534,79.052 32.652,150.961 84.09,188.016l3.124,2.218c3.463,2.461 5.491,6.587 5.425,11.036c-0.065,4.433 -2.204,8.48 -5.72,10.824l-2.888,1.925c-51.38,37.014 -83.497,108.921 -84.031,187.974Zm317.195,4l-319.202,0c-1.104,0 -2,-0.895 -2,-2c0,-81.102 32.862,-155.155 85.759,-193.261l2.949,-1.966c2.419,-1.615 3.892,-4.439 3.939,-7.555c0.047,-3.133 -1.353,-6.018 -3.742,-7.716l-3.135,-2.226c-52.908,-38.114 -85.77,-112.167 -85.77,-193.269c0,-1.104 0.896,-2 2,-2l319.202,0c1.11,0 2,0.896 2,2c0,80.801 -32.67,154.711 -85.277,192.913l-3.584,3.026c-2.077,1.754 -3.244,4.414 -3.2,7.298c0.044,2.87 1.281,5.478 3.396,7.155l3.364,2.67c52.621,38.198 85.301,112.121 85.301,192.931c0,1.105 -0.89,2 -2,2Z" style="fill:#6a79a8;fill-rule:nonzero;"/><path d="M663.024,633.291c0,2.191 -37.708,21.911 -45.754,26.721c-24.382,14.573 -64.984,35.509 -64.984,69.593l239.111,-0.001c-0.89,-21.503 -15.931,-37.17 -32.454,-48.776c-12.504,-8.783 -52.069,-29.722 -58.07,-33.895c-2.502,-1.74 -21.861,-11.257 -21.861,-13.837l0,-105.241c0,0 30.212,-6.49 37.904,-9.886c23.143,-10.219 37.064,-24.484 45.215,-36.252c4.522,-6.53 -2.049,-15.077 -9.264,-12.005c-20.169,8.586 -52.421,20.033 -81.028,20.033c-29.191,0 -62.18,-11.92 -82.25,-20.557c-7.026,-3.023 -13.679,5.094 -9.527,11.643c7.946,12.534 22.394,28.136 48.07,38.573c6.502,2.643 34.892,8.646 34.892,8.646c0,0 0,105.194 0,105.241Z" style="fill:#ffe964;fill-rule:nonzero;"/><path d="M650.901,631.433m-74.775,-161.829c-1.813,0 -3.32,0.943 -4.267,2.053c-1.337,1.57 -2.274,4.388 -0.51,7.169c7.259,11.452 21.329,27.302 47.134,37.791c6.265,2.547 34.271,8.483 34.554,8.542c0.924,0.196 1.586,1.012 1.586,1.957l0,105.242c0,2.065 -1.52,3.55 -33.373,21.002c-5.89,3.226 -10.976,6.012 -13.356,7.435c-1.925,1.15 -3.951,2.341 -6.05,3.573c-23.917,14.05 -56.475,33.178 -57.911,62.304l234.926,-0.001c-1.43,-16.499 -11.744,-31.287 -31.467,-45.14c-7.38,-5.183 -24.495,-14.762 -38.247,-22.46c-9.675,-5.415 -17.317,-9.692 -19.816,-11.43c-0.605,-0.42 -2.752,-1.586 -5.026,-2.821c-14.22,-7.719 -17.693,-10.204 -17.693,-12.658l0,-105.241c0,-0.942 0.658,-1.758 1.58,-1.955c0.3,-0.064 30.099,-6.485 37.517,-9.761c23.516,-10.385 37.112,-25.069 44.377,-35.56c1.945,-2.809 1.066,-5.731 -0.278,-7.379c-1.299,-1.594 -3.701,-2.863 -6.558,-1.648c-21.637,9.212 -53.395,20.193 -81.811,20.194c-28.836,0 -61.074,-11.268 -83.04,-20.72c-0.795,-0.342 -1.557,-0.488 -2.271,-0.488Zm-34.242,261.068c-0.53,0 -1.039,-0.211 -1.414,-0.586c-0.375,-0.375 -0.586,-0.884 -0.586,-1.414c0,-32.545 34.641,-52.894 59.934,-67.753c2.09,-1.227 4.107,-2.412 6.023,-3.557c2.446,-1.461 7.562,-4.265 13.487,-7.511c10.725,-5.875 28.394,-15.556 31.295,-18.14l0,-102.976c-6.141,-1.32 -27.881,-6.069 -33.646,-8.413c-26.786,-10.886 -41.434,-27.41 -49.007,-39.353c-2.411,-3.804 -2.079,-8.477 0.845,-11.906c2.822,-3.311 7.207,-4.347 11.162,-2.645c21.622,9.304 53.306,20.394 81.46,20.394c27.742,-0.001 58.949,-10.808 80.244,-19.873c4.03,-1.718 8.44,-0.62 11.226,2.799c2.879,3.534 3.066,8.429 0.466,12.184c-7.558,10.913 -21.682,26.182 -46.051,36.942c-6.853,3.027 -30.318,8.269 -36.712,9.669l0,103.242c1.59,1.923 11.357,7.226 15.601,9.531c2.948,1.599 4.652,2.53 5.401,3.052c2.34,1.626 10.286,6.074 19.487,11.223c13.831,7.741 31.045,17.376 38.592,22.677c21.637,15.197 32.528,31.661 33.297,50.331c0.022,0.544 -0.178,1.074 -0.555,1.467c-0.378,0.392 -0.898,0.615 -1.443,0.615l-239.106,0.001Z" style="fill:#6a79a8;fill-rule:nonzero;"/><path d="M541.879,626.338c-0.276,0 -0.557,-0.058 -0.825,-0.18c-1.006,-0.456 -1.451,-1.641 -0.995,-2.647c10.576,-23.318 26.475,-45.897 47.254,-67.108c0.773,-0.79 2.041,-0.8 2.828,-0.029c0.789,0.774 0.802,2.039 0.029,2.828c-20.451,20.876 -36.086,43.069 -46.468,65.961c-0.335,0.739 -1.062,1.175 -1.823,1.175Z" style="fill:#6a79a8;fill-rule:nonzero;"/><path d="M556.084,456.916c-0.656,0 -1.298,-0.322 -1.681,-0.914c-17.149,-26.511 -28.708,-58.204 -33.429,-91.653c-0.154,-1.094 0.608,-2.106 1.701,-2.26c1.081,-0.154 2.106,0.606 2.26,1.701c4.64,32.878 15.991,64.012 32.827,90.039c0.6,0.928 0.334,2.166 -0.594,2.766c-0.334,0.217 -0.711,0.321 -1.084,0.321Z" style="fill:#6a79a8;fill-rule:nonzero;"/><path d="M834.637,322.679l-346.396,0c-3.724,0 -6.743,-3.019 -6.743,-6.743l0,-70.532c0,-3.724 3.019,-6.743 6.743,-6.743l346.396,0c3.72,0 6.74,3.019 6.74,6.743l0,70.532c0,3.724 -3.02,6.743 -6.74,6.743Z" style="fill:#fff;fill-rule:nonzero;"/><path d="M843.967,332.015l-346.39,0c-3.724,0 -6.743,-3.019 -6.743,-6.743l0,-70.532c0,-3.724 3.019,-6.743 6.743,-6.743l346.39,0c3.73,0 6.74,3.019 6.74,6.743l0,70.532c0,3.724 -3.01,6.743 -6.74,6.743Z" style="fill:#ffc261;fill-rule:nonzero;"/><path d="M488.242,240.661c-2.616,0 -4.743,2.128 -4.743,4.743l0,70.532c0,2.615 2.127,4.743 4.743,4.743l346.395,0c2.61,0 4.74,-2.128 4.74,-4.743l0,-70.532c0,-2.615 -2.13,-4.743 -4.74,-4.743l-346.395,0Zm346.395,84.018l-346.395,0c-4.822,0 -8.743,-3.922 -8.743,-8.743l0,-70.532c0,-4.82 3.921,-8.743 8.743,-8.743l346.395,0c4.82,0 8.74,3.923 8.74,8.743l0,70.532c0,4.821 -3.92,8.743 -8.74,8.743Z" style="fill:#6a79a8;fill-rule:nonzero;"/><path d="M831.507,812.783l-346.481,0c-3.7,0 -6.699,-2.999 -6.699,-6.699l0,-70.62c0,-3.7 2.999,-6.699 6.699,-6.699l346.481,0c3.7,0 6.7,2.999 6.7,6.699l0,70.62c0,3.7 -3,6.699 -6.7,6.699Z" style="fill:#fff;fill-rule:nonzero;"/><path d="M840.837,822.119l-346.475,0c-3.7,0 -6.699,-2.999 -6.699,-6.699l0,-70.62c0,-3.7 2.999,-6.699 6.699,-6.699l346.475,0c3.7,0 6.7,2.999 6.7,6.699l0,70.62c0,3.7 -3,6.699 -6.7,6.699Z" style="fill:#ffc261;fill-rule:nonzero;"/><path d="M485.026,730.765c-2.591,0 -4.699,2.108 -4.699,4.699l0,70.62c0,2.591 2.108,4.699 4.699,4.699l346.481,0c2.589,0 4.7,-2.108 4.7,-4.699l0,-70.62c0,-2.591 -2.111,-4.699 -4.7,-4.699l-346.481,0Zm346.481,84.018l-346.481,0c-4.797,0 -8.699,-3.902 -8.699,-8.699l0,-70.62c0,-4.797 3.902,-8.699 8.699,-8.699l346.481,0c4.8,0 8.7,3.902 8.7,8.699l0,70.62c0,4.797 -3.9,8.699 -8.7,8.699Z" style="fill:#6a79a8;fill-rule:nonzero;"/><path d="M826.567,795.362c-1.11,0 -2,-0.895 -2,-2l0,-57.343c0,-1.105 0.89,-2 2,-2c1.1,0 2,0.895 2,2l0,57.343c0,1.105 -0.9,2 -2,2Z" style="fill:#6a79a8;fill-rule:nonzero;"/><path d="M826.567,305.515c-1.11,0 -2,-0.895 -2,-2l0,-58.325c0,-1.104 0.89,-2 2,-2c1.1,0 2,0.896 2,2l0,58.325c0,1.105 -0.9,2 -2,2Z" style="fill:#6a79a8;fill-rule:nonzero;"/><path d="M762.406,720.419c-0.824,0 -1.597,-0.515 -1.887,-1.336c-5.718,-16.229 -20.402,-26.765 -31.714,-32.746c-0.976,-0.517 -1.349,-1.726 -0.834,-2.703c0.517,-0.977 1.727,-1.349 2.703,-0.834c11.944,6.314 27.47,17.505 33.619,34.953c0.366,1.042 -0.181,2.185 -1.222,2.552c-0.221,0.077 -0.445,0.114 -0.665,0.114Z" style="fill:#fff;fill-rule:nonzero;"/><path d="M721.198,681.86c-0.387,0 -0.779,-0.113 -1.122,-0.346c-10.09,-6.859 -18.799,-11.627 -28.02,-16.676c-5.615,-3.075 -11.423,-6.255 -17.807,-10.055c-0.95,-0.565 -1.261,-1.792 -0.697,-2.741c0.565,-0.95 1.793,-1.26 2.741,-0.696c6.325,3.764 12.099,6.926 17.685,9.984c9.307,5.096 18.098,9.909 28.346,16.875c0.914,0.621 1.151,1.865 0.53,2.779c-0.387,0.569 -1.016,0.876 -1.656,0.876Z" style="fill:#fff;fill-rule:nonzero;"/><path d="M688.491,509.374c-1.055,0 -1.938,-0.826 -1.995,-1.892c-0.06,-1.103 0.786,-2.045 1.889,-2.105c17.183,-0.926 31.422,-12.056 40.341,-21.23c0.77,-0.792 2.035,-0.81 2.828,-0.039c0.792,0.769 0.81,2.036 0.039,2.828c-9.416,9.685 -24.518,21.44 -42.993,22.435c-0.036,0.002 -0.073,0.003 -0.109,0.003Z" style="fill:#fff;fill-rule:nonzero;"/><path d="M514.99,204.045l-187.975,-177.318c-5.998,-5.658 -15.723,-5.658 -21.722,0l-187.975,177.318c-9.676,9.127 -2.823,24.734 10.861,24.734l68.002,0l0,568.217c0,6.149 5.284,11.134 11.803,11.134l216.341,0c6.518,0 11.803,-4.985 11.803,-11.134l0,-568.217l68.002,0c13.683,0 20.536,-15.607 10.86,-24.734Z" style="fill:#fff;fill-rule:nonzero;"/><path d="M514.99,204.045l-187.975,-177.318c-5.998,-5.658 -15.723,-5.658 -21.722,0l-187.975,177.318c-9.676,9.127 -2.823,24.734 10.861,24.734l68.002,0l0,568.217c0,6.149 5.284,11.134 11.803,11.134l216.341,0c6.518,0 11.803,-4.985 11.803,-11.134l0,-568.217l68.002,0c13.683,0 20.536,-15.607 10.86,-24.734Z" style="fill:none;stroke:#6a79a8;stroke-width:4px;"/><path d="M308.464,405.256l-0.637,-178.703l7.354,-0.029l0.638,178.703l-7.355,0.029Z" style="fill:#6a79a8;fill-rule:nonzero;"/><path d="M311.511,285.905l-74.078,-74.08l5.2,-5.2l68.878,68.88l22.959,-22.959l5.2,5.2l-28.159,28.159Z" style="fill:#6a79a8;fill-rule:nonzero;"/><rect x="246.821" y="236.314" width="23.061" height="7.355" style="fill:#6a79a8;fill-rule:nonzero;"/><rect x="267.12" y="216.016" width="7.355" height="23.06" style="fill:#6a79a8;fill-rule:nonzero;"/><path d="M296.173,205.701c0,16.693 21.862,30.225 21.862,30.225c0,0 21.862,-13.532 21.862,-30.225c0,-16.692 -21.862,-30.224 -21.862,-30.224c0,0 -21.862,13.532 -21.862,30.224Z" style="fill:#bbdff5;fill-rule:nonzero;"/><path d="M344.09,240.928c-5.936,5.936 -2.974,18.521 -2.974,18.521c0,0 12.585,2.961 18.521,-2.974c5.935,-5.935 2.973,-18.52 2.973,-18.52c0,0 -12.585,-2.962 -18.52,2.973Z" style="fill:#bbdff5;fill-rule:nonzero;"/><path d="M231.897,211.888c5.935,5.935 18.52,2.973 18.52,2.973c0,0 2.962,-12.585 -2.974,-18.52c-5.935,-5.935 -18.52,-2.974 -18.52,-2.974c0,0 -2.962,12.585 2.974,18.521Z" style="fill:#bbdff5;fill-rule:nonzero;"/><path d="M243.159,252.613c8.394,0 15.198,-10.994 15.198,-10.994c0,0 -6.804,-10.993 -15.198,-10.993c-8.394,0 -15.199,10.993 -15.199,10.993c0,0 6.805,10.994 15.199,10.994Z" style="fill:#bbdff5;fill-rule:nonzero;"/><path d="M266.182,209.603c0,8.394 10.993,15.199 10.993,15.199c0,0 10.993,-6.805 10.993,-15.199c0,-8.394 -10.993,-15.198 -10.993,-15.198c0,0 -10.993,6.804 -10.993,15.198Z" style="fill:#bbdff5;fill-rule:nonzero;"/><path d="M311.035,174.874c-4.246,2.901 -19.862,14.478 -19.862,27.827c0,13.349 15.616,24.928 19.862,27.828c4.247,-2.9 19.862,-14.479 19.862,-27.828c0,-13.349 -15.615,-24.926 -19.862,-27.827Zm0,60.052c-0.365,0 -0.73,-0.099 -1.053,-0.299c-0.931,-0.577 -22.809,-14.321 -22.809,-31.926c0,-17.604 21.878,-31.348 22.809,-31.925c0.646,-0.399 1.459,-0.399 2.105,0c0.932,0.577 22.81,14.321 22.81,31.925c0,17.605 -21.878,31.349 -22.81,31.926c-0.323,0.2 -0.687,0.299 -1.052,0.299Z" style="fill:#6a79a8;fill-rule:nonzero;"/><path d="M337.09,237.928l0.01,0l-0.01,0Zm-1.264,16.81c3.129,0.518 11.325,1.394 15.397,-2.677c4.07,-4.071 3.194,-12.266 2.677,-15.396c-3.128,-0.517 -11.325,-1.394 -15.396,2.677c-4.071,4.071 -3.195,12.267 -2.678,15.396Zm5.27,4.45c-3.979,0 -7.17,-0.73 -7.438,-0.793c-0.739,-0.174 -1.315,-0.75 -1.489,-1.489c-0.131,-0.558 -3.14,-13.745 3.507,-20.392c6.646,-6.646 19.835,-3.637 20.392,-3.506c0.739,0.174 1.315,0.75 1.489,1.489c0.132,0.558 3.14,13.745 -3.506,20.392c-3.45,3.45 -8.661,4.299 -12.955,4.299Z" style="fill:#6a79a8;fill-rule:nonzero;"/><path d="M226.311,207.474c4.07,4.07 12.267,3.196 15.396,2.678c0.517,-3.129 1.393,-11.326 -2.678,-15.397c-4.07,-4.07 -12.265,-3.195 -15.396,-2.678c-0.517,3.129 -1.393,11.326 2.678,15.397Zm10.127,7.126c-4.294,0 -9.505,-0.848 -12.956,-4.298c-6.647,-6.647 -3.637,-19.835 -3.506,-20.393c0.174,-0.738 0.751,-1.315 1.489,-1.488c0.558,-0.131 13.746,-3.141 20.392,3.506c6.647,6.647 3.638,19.834 3.507,20.393c-0.174,0.738 -0.751,1.314 -1.489,1.488c-0.269,0.063 -3.459,0.792 -7.437,0.792Z" style="fill:#6a79a8;fill-rule:nonzero;"/><path d="M223.379,238.619c1.847,2.578 7.023,8.993 12.78,8.993c5.318,0 10.496,-5.749 12.788,-8.982c-1.84,-2.57 -7.023,-9.004 -12.788,-9.004c-5.757,0 -10.932,6.415 -12.78,8.993Zm12.78,12.993c-9.4,0 -16.597,-11.453 -16.899,-11.94c-0.399,-0.645 -0.399,-1.46 0,-2.105c0.302,-0.488 7.499,-11.941 16.899,-11.941c9.4,0 16.597,11.453 16.899,11.941c0.399,0.645 0.399,1.46 0,2.105c-0.302,0.487 -7.499,11.94 -16.899,11.94Z" style="fill:#6a79a8;fill-rule:nonzero;"/><path d="M270.175,193.823c-2.578,1.847 -8.993,7.023 -8.993,12.78c0,5.318 5.749,10.497 8.982,12.789c2.57,-1.841 9.004,-7.023 9.004,-12.789c0,-5.756 -6.415,-10.932 -8.993,-12.78Zm0,29.979c-0.365,0 -0.73,-0.1 -1.053,-0.299c-0.487,-0.302 -11.94,-7.5 -11.94,-16.9c0,-9.399 11.453,-16.597 11.94,-16.899c0.646,-0.399 1.46,-0.399 2.106,0c0.487,0.302 11.94,7.5 11.94,16.899c0,9.4 -11.453,16.598 -11.94,16.9c-0.323,0.199 -0.688,0.299 -1.053,0.299Z" style="fill:#6a79a8;fill-rule:nonzero;"/><path d="M508.892,700.864c-0.138,-5.978 -0.548,-11.945 -1.225,-17.87c-9.584,-83.874 -69.995,-153.749 -125.117,-212.746c-0.461,-0.494 -0.879,-1.029 -1.247,-1.598c-9.829,-15.203 -18.872,-33.221 -17.73,-51.911c1.27,-20.771 17.66,-32.469 28.326,-48.821c2.785,-4.27 5.504,-9.456 3.784,-14.267c-0.941,-2.631 -3.085,-4.639 -5.372,-6.213c-6.416,-4.414 -17.816,-7.745 -25.347,-4.585c-7.084,2.973 -10.37,11.08 -17.552,13.704c-9.037,3.302 -21.282,-1.477 -25.748,-9.934c-1.647,-3.117 -2.468,-6.708 -4.65,-9.473c-7.781,-9.854 -16.498,4.424 -20.511,10.626c-4.25,6.569 -12.21,10.19 -19.891,8.749c-7.282,-1.365 -9.21,-8.756 -15.098,-11.894c-7.143,-3.807 -18.092,-2.976 -25.26,0.627c-20.696,10.405 3.449,32.012 11.6,42.363c10.218,12.975 12.674,26.612 10.571,42.842c-2.969,22.905 -17.629,38.008 -31.868,54.635c-44.028,51.415 -92.144,107.258 -107.062,175.458c-10.483,47.921 -2.588,99.189 21.037,141.977c2.195,3.974 4.74,8.084 8.786,10.079c3.156,1.555 6.803,1.606 10.313,1.625c99.523,0.551 199.115,0.467 298.67,0.443c41.996,-0.01 51.316,-82.547 50.591,-113.816Z" style="fill:#fff;fill-rule:nonzero;"/><path d="M517.324,709.295c-0.139,-5.978 -0.548,-11.945 -1.225,-17.87c-9.585,-83.874 -69.996,-153.748 -125.117,-212.746c-0.462,-0.494 -0.879,-1.029 -1.247,-1.598c-9.83,-15.203 -18.873,-33.221 -17.73,-51.91c1.27,-20.772 17.659,-32.469 28.325,-48.822c2.786,-4.27 5.504,-9.456 3.784,-14.267c-0.941,-2.63 -3.085,-4.639 -5.372,-6.212c-6.416,-4.414 -17.816,-7.746 -25.347,-4.585c-7.084,2.972 -10.37,11.079 -17.552,13.704c-9.037,3.302 -21.281,-1.478 -25.748,-9.935c-1.647,-3.117 -2.468,-6.708 -4.65,-9.473c-7.779,-9.854 -16.498,4.424 -20.511,10.627c-4.25,6.568 -12.21,10.189 -19.891,8.749c-7.282,-1.366 -9.21,-8.756 -15.098,-11.895c-7.142,-3.807 -18.092,-2.976 -25.26,0.628c-20.696,10.404 3.449,32.011 11.6,42.362c10.218,12.975 12.675,26.612 10.571,42.842c-2.969,22.906 -17.629,38.009 -31.867,54.635c-44.029,51.415 -92.145,107.258 -107.063,175.458c-10.483,47.921 -2.588,99.189 21.038,141.977c2.194,3.974 4.739,8.085 8.786,10.079c3.155,1.556 6.802,1.606 10.312,1.625c99.523,0.551 199.115,0.471 298.67,0.441c41.996,-0.01 51.316,-82.545 50.592,-113.814Z" style="fill:#bbdff5;fill-rule:nonzero;"/><path d="M250.119,344.122c-4.444,0 -9.11,0.984 -12.967,2.923c-4.047,2.035 -6.306,4.523 -6.909,7.608c-1.544,7.907 7.791,18.564 14.607,26.347c1.712,1.954 3.328,3.8 4.575,5.384c9.935,12.615 13.322,26.289 10.983,44.336c-2.79,21.526 -15.352,36.042 -28.651,51.411c-1.225,1.415 -2.454,2.836 -3.68,4.268l-0.885,1.033c-42.67,49.826 -91.032,106.299 -105.744,173.552c-10.24,46.814 -2.646,98.055 20.835,140.582c2.053,3.718 4.356,7.496 7.92,9.251c2.805,1.383 6.329,1.403 9.439,1.42c90.736,0.503 183.042,0.476 272.309,0.45l26.35,-0.007c7.999,-0.002 15.248,-3.271 21.543,-9.716c20.932,-21.427 27.699,-73.969 27.049,-102.055c-0.137,-5.89 -0.545,-11.842 -1.213,-17.689c-9.402,-82.276 -66.705,-149.65 -124.591,-211.607c-0.541,-0.579 -1.034,-1.21 -1.465,-1.877c-8.352,-12.918 -19.309,-32.479 -18.047,-53.119c0.932,-15.245 9.76,-25.929 18.297,-36.261c3.56,-4.308 7.24,-8.763 10.35,-13.531c2.569,-3.939 5.004,-8.505 3.575,-12.501c-0.656,-1.837 -2.168,-3.55 -4.621,-5.237c-6.177,-4.25 -16.896,-7.136 -23.44,-4.389c-3.072,1.289 -5.406,3.733 -7.878,6.322c-2.776,2.906 -5.646,5.912 -9.762,7.416c-9.85,3.601 -23.294,-1.585 -28.203,-10.879c-0.665,-1.258 -1.193,-2.561 -1.705,-3.82c-0.801,-1.977 -1.559,-3.843 -2.746,-5.348c-1.442,-1.826 -2.888,-2.688 -4.391,-2.605c-4.584,0.22 -9.901,8.472 -12.457,12.437l-0.414,0.642c-4.742,7.331 -13.56,11.202 -21.938,9.628c-4.918,-0.922 -7.745,-4.214 -10.239,-7.12c-1.693,-1.972 -3.293,-3.835 -5.432,-4.975c-2.856,-1.522 -6.571,-2.274 -10.454,-2.274Zm121.792,472.576c-70.269,0 -141.748,-0.07 -212.291,-0.461c-3.541,-0.019 -7.556,-0.042 -11.186,-1.832c-4.602,-2.267 -7.395,-6.818 -9.653,-10.906c-23.943,-43.364 -31.685,-95.621 -21.24,-143.371c14.926,-68.234 63.636,-125.114 106.613,-175.298l0.885,-1.033c1.23,-1.437 2.464,-2.863 3.693,-4.283c12.894,-14.902 25.074,-28.976 27.709,-49.308c2.19,-16.894 -0.943,-29.646 -10.158,-41.347c-1.183,-1.502 -2.766,-3.31 -4.442,-5.224c-7.361,-8.405 -17.444,-19.916 -15.524,-29.749c0.844,-4.319 3.885,-7.823 9.038,-10.415c7.22,-3.63 18.848,-5.004 27.099,-0.605c2.803,1.494 4.726,3.734 6.586,5.9c2.363,2.753 4.405,5.131 7.941,5.793c6.799,1.275 13.972,-1.887 17.843,-7.869l0.41,-0.636c3.361,-5.216 8.986,-13.947 15.628,-14.266c2.867,-0.137 5.453,1.25 7.722,4.123c1.54,1.951 2.441,4.173 3.313,6.321c0.496,1.222 0.964,2.377 1.535,3.457c3.983,7.54 15.303,11.909 23.293,8.99c3.24,-1.184 5.67,-3.728 8.242,-6.422c2.646,-2.771 5.382,-5.636 9.223,-7.248c8.192,-3.438 20.156,-0.102 27.255,4.782c3.169,2.18 5.171,4.531 6.121,7.187c2.029,5.675 -1.067,11.55 -3.992,16.033c-3.233,4.956 -6.987,9.499 -10.616,13.892c-8.504,10.292 -16.536,20.013 -17.389,33.959c-1.19,19.463 9.369,38.258 17.414,50.702c0.303,0.468 0.649,0.913 1.029,1.319c27.881,29.842 56.851,62.285 79.845,97.311c26.459,40.306 41.439,78.437 45.798,116.572c0.68,5.967 1.097,12.04 1.236,18.051c0.666,28.737 -6.396,82.638 -28.185,104.943c-7.077,7.244 -15.288,10.918 -24.405,10.92l-26.349,0.007c-19.877,0.005 -39.913,0.011 -60.041,0.011Z" style="fill:#6a79a8;fill-rule:nonzero;"/><path d="M301.891,611.554l-0.036,-16.643c-11.739,-0.5 -23.133,-3.629 -29.798,-7.469l5.211,-20.507c7.366,4.012 17.711,7.67 29.098,7.645c9.986,-0.021 16.809,-3.89 16.794,-10.898c-0.014,-6.657 -5.63,-10.85 -18.604,-15.201c-18.757,-6.266 -31.565,-14.997 -31.601,-31.991c-0.034,-15.416 10.801,-27.527 29.539,-31.248l-0.037,-16.642l17.169,-0.037l0.033,15.417c11.739,0.5 19.627,2.935 25.415,5.725l-5.038,19.808c-4.559,-1.918 -12.626,-5.93 -25.24,-5.902c-11.387,0.024 -15.055,4.938 -15.045,9.843c0.013,5.782 6.153,9.447 21.055,15.021c20.863,7.312 29.293,16.929 29.327,32.696c0.034,15.592 -10.974,28.93 -31.113,32.477l0.039,17.869l-17.168,0.037Z" style="fill:#fff;fill-rule:nonzero;"/><path d="M274.378,586.429c6.889,3.542 17.486,6.055 27.562,6.484c1.069,0.045 1.913,0.924 1.915,1.994l0.032,14.643l13.168,-0.029l-0.035,-15.87c-0.002,-0.971 0.695,-1.804 1.653,-1.973c18.205,-3.206 29.494,-14.895 29.46,-30.503c-0.032,-14.929 -8.141,-23.857 -27.988,-30.813c-15.173,-5.674 -22.378,-9.646 -22.394,-16.904c-0.007,-3.372 1.379,-6.252 4.01,-8.326c2.948,-2.324 7.331,-3.509 13.031,-3.521c0.043,0 0.088,0 0.132,0c11.157,0 18.893,3.059 23.751,5.141l4.05,-15.928c-6.532,-2.874 -14.126,-4.462 -23.151,-4.846c-1.069,-0.045 -1.913,-0.924 -1.915,-1.994l-0.029,-13.417l-13.168,0.029l0.032,14.642c0.002,0.957 -0.673,1.78 -1.611,1.966c-17.52,3.479 -27.961,14.426 -27.928,29.283c0.03,14.027 9.072,23.028 30.236,30.097c11.974,4.016 19.95,8.459 19.969,17.093c0.009,4.1 -1.923,7.479 -5.586,9.769c-3.26,2.039 -7.826,3.122 -13.204,3.134c-0.039,0 -0.08,0 -0.119,0c-11.774,0 -21.734,-3.788 -27.666,-6.711l-4.207,16.56Zm27.513,27.125c-1.102,0 -1.997,-0.893 -2,-1.996l-0.032,-14.753c-10.764,-0.722 -21.894,-3.651 -28.801,-7.629c-0.776,-0.448 -1.161,-1.358 -0.94,-2.226l5.211,-20.508c0.152,-0.598 0.572,-1.093 1.138,-1.34c0.567,-0.246 1.215,-0.218 1.757,0.077c5.082,2.767 15.469,7.401 28.027,7.401c0.038,0 0.073,0 0.11,0c4.63,-0.01 8.466,-0.883 11.092,-2.525c2.465,-1.541 3.713,-3.685 3.707,-6.369c-0.01,-4.521 -2.945,-8.515 -17.239,-13.309c-15.324,-5.119 -32.922,-13.597 -32.966,-33.883c-0.035,-16.193 11.235,-28.669 29.535,-32.868l-0.032,-15.022c-0.001,-0.531 0.207,-1.039 0.582,-1.415c0.375,-0.376 0.883,-0.588 1.413,-0.589l17.168,-0.037c0.002,0 0.003,0 0.005,0c0.528,0 1.036,0.21 1.411,0.583c0.376,0.374 0.588,0.882 0.589,1.413l0.029,13.522c9.428,0.587 17.389,2.497 24.287,5.822c0.857,0.414 1.305,1.374 1.07,2.295l-5.037,19.808c-0.144,0.564 -0.526,1.038 -1.048,1.298c-0.522,0.258 -1.131,0.277 -1.666,0.053c-0.406,-0.171 -0.841,-0.359 -1.302,-0.558c-4.498,-1.942 -12.016,-5.188 -23.037,-5.188c-0.041,0 -0.081,0 -0.122,0c-4.714,0.009 -8.366,0.93 -10.562,2.662c-1.654,1.304 -2.492,3.047 -2.487,5.177c0.01,4.312 4.995,7.63 19.756,13.152c21.419,7.507 30.59,17.848 30.626,34.565c0.037,16.929 -12.113,30.179 -31.11,34.132l0.036,16.214c0.001,0.53 -0.208,1.039 -0.582,1.415c-0.375,0.376 -0.883,0.588 -1.413,0.589l-17.168,0.037c-0.002,0 -0.004,0 -0.005,0Z" style="fill:#6a79a8;fill-rule:nonzero;"/><path d="M143.941,759.933c-0.88,0 -1.687,-0.587 -1.929,-1.478c-11.191,-41.263 -5.849,-92.934 14.289,-138.219c0.449,-1.009 1.629,-1.466 2.64,-1.014c1.009,0.448 1.464,1.631 1.015,2.639c-19.777,44.471 -25.041,95.143 -14.083,135.547c0.289,1.067 -0.341,2.165 -1.407,2.454c-0.175,0.047 -0.352,0.071 -0.525,0.071Z" style="fill:#6a79a8;fill-rule:nonzero;"/><path d="M185.051,576.237c-0.338,0 -0.68,-0.085 -0.994,-0.265c-0.958,-0.55 -1.289,-1.773 -0.739,-2.731l6.499,-11.32c0.55,-0.957 1.773,-1.289 2.73,-0.738c0.958,0.55 1.289,1.772 0.739,2.73l-6.499,11.321c-0.369,0.643 -1.043,1.003 -1.736,1.003Z" style="fill:#6a79a8;fill-rule:nonzero;"/><path d="M170.643,601.335c-0.338,0 -0.681,-0.085 -0.994,-0.266c-0.958,-0.549 -1.289,-1.772 -0.739,-2.73l7.204,-12.549c0.55,-0.957 1.774,-1.289 2.73,-0.738c0.958,0.55 1.289,1.772 0.739,2.73l-7.204,12.549c-0.37,0.644 -1.044,1.004 -1.736,1.004Z" style="fill:#6a79a8;fill-rule:nonzero;"/><path d="M311.348,432.022c-20.84,0 -52.011,-5.558 -52.323,-5.614c-1.087,-0.195 -1.81,-1.235 -1.615,-2.322c0.196,-1.088 1.239,-1.811 2.322,-1.615c0.309,0.056 31.134,5.551 51.616,5.551c22.285,0 51.852,-5.493 52.149,-5.548c1.078,-0.204 2.13,0.511 2.334,1.597c0.203,1.086 -0.512,2.131 -1.598,2.334c-0.299,0.057 -30.233,5.617 -52.885,5.617Z" style="fill:#6a79a8;fill-rule:nonzero;"/></g></svg>