<?xml version="1.0" encoding="UTF-8" standalone="no"?><!DOCTYPE svg PUBLIC "-//W3C//DTD SVG 1.1//EN" "http://www.w3.org/Graphics/SVG/1.1/DTD/svg11.dtd"><svg width="100%" height="100%" viewBox="0 0 245 239" version="1.1" xmlns="http://www.w3.org/2000/svg" xmlns:xlink="http://www.w3.org/1999/xlink" xml:space="preserve" xmlns:serif="http://www.serif.com/" style="fill-rule:evenodd;clip-rule:evenodd;stroke-linecap:round;stroke-linejoin:round;stroke-miterlimit:1.41421;"><path d="M166.738,165.502l-3.465,0.556l-1.623,1.326l-11.495,7.389c0,0 -1.873,0.213 -2.139,1.051c-0.275,0.807 -14.206,4.738 -14.206,4.738l-2.773,1.462l-26.005,-21.679l13.208,-28.899l17.642,-3.29l30.856,37.346Z" style="fill:#c69463;fill-rule:nonzero;"/><path d="M71.252,128.245c4.264,0.594 7.248,5.099 6.632,10.01l-1.378,10.984c-0.616,4.911 -4.432,8.423 -8.481,7.804c-4.047,-0.619 -6.963,-5.155 -6.477,-10.082l1.069,-10.84c0.486,-4.927 4.371,-8.471 8.635,-7.876Z" style="fill:#f4bd9a;fill-rule:nonzero;"/><path d="M71.252,128.245c4.264,0.594 7.248,5.099 6.632,10.01l-1.378,10.984c-0.616,4.911 -4.425,8.349 -8.464,7.639c-4.04,-0.709 -6.947,-5.318 -6.461,-10.245l1.036,-10.512c0.486,-4.927 4.371,-8.471 8.635,-7.876Z" style="fill:none;stroke:#333;stroke-width:2.3px;"/><path d="M179.07,145.077l-48.946,-42.441l10.131,3.987c4.606,1.813 9.792,-0.498 11.523,-5.136l0.477,-1.275c1.731,-4.637 -0.62,-9.914 -5.227,-11.727c0,0 -24.508,-9.553 -27.466,-10.672c-2.096,-0.782 -3.893,-1.236 -5.898,-0.512l-29.427,10.618c-0.354,0.128 -0.685,0.289 -1.004,0.465l-18.428,-7.997l-21.479,49.494l31.713,13.763c-0.786,3.289 0.352,6.925 3.208,9.174l43.619,34.347c3.89,3.061 9.536,2.437 12.549,-1.388c1.088,-1.381 1.682,-2.999 1.823,-4.646l1.501,1.182c3.89,3.062 9.536,2.438 12.549,-1.388c1.91,-2.425 2.315,-5.579 1.367,-8.342l0.745,0.585c3.89,3.062 9.578,2.386 12.64,-1.502l0.491,-0.624c2.287,-2.905 2.488,-6.81 0.823,-9.878l0.02,0.015c3.906,3.04 9.608,2.346 12.672,-1.543l1.255,-1.593c3.063,-3.889 2.51,-9.724 -1.231,-12.966Z" style="fill:#e2a07a;fill-rule:nonzero;"/><path d="M119.54,101.491l57.703,50.086c1.888,1.636 2.961,3.933 3.17,6.307c2.929,-3.887 2.348,-9.608 -1.343,-12.807l-51.579,-44.128c-1.443,0.194 -7.951,0.542 -7.951,0.542Z" style="fill:#edae8e;fill-rule:nonzero;"/><path d="M62.978,86.887l18.428,7.997c0.319,-0.176 0.65,-0.337 1.004,-0.465l29.427,-10.618c2.005,-0.724 3.802,-0.27 5.898,0.512c2.958,1.119 27.466,10.672 27.466,10.672c3.43,1.349 5.606,4.62 5.781,8.116c0.314,-0.5 0.581,-1.039 0.796,-1.614l0.477,-1.275c1.731,-4.637 -0.62,-9.914 -5.227,-11.727c0,0 -24.508,-9.553 -27.466,-10.672c-2.096,-0.782 -3.893,-1.236 -5.898,-0.512l-29.427,10.618c-0.354,0.128 -0.685,0.289 -1.004,0.465l-18.428,-7.997l-21.479,49.494l0.836,0.364l18.816,-43.358Z" style="fill:#edae8e;fill-rule:nonzero;"/><path d="M179.07,145.077l-48.946,-42.441l10.131,3.987c4.606,1.813 9.792,-0.498 11.523,-5.136l0.477,-1.275c1.731,-4.637 -0.62,-9.914 -5.227,-11.727c0,0 -24.508,-9.553 -27.466,-10.672c-2.096,-0.782 -3.893,-1.236 -5.898,-0.512l-29.427,10.618c-0.354,0.128 -0.685,0.289 -1.004,0.465l-18.428,-7.997l-21.479,49.494l31.713,13.763c-0.786,3.289 0.352,6.925 3.208,9.174l43.619,34.347c3.89,3.061 9.536,2.437 12.549,-1.388c1.088,-1.381 1.682,-2.999 1.823,-4.646l1.501,1.182c3.89,3.062 9.536,2.438 12.549,-1.388c1.91,-2.425 2.315,-5.579 1.367,-8.342l0.745,0.585c3.89,3.062 9.578,2.386 12.64,-1.502l0.491,-0.624c2.287,-2.905 2.488,-6.81 0.823,-9.878l0.02,0.015c3.906,3.04 9.608,2.346 12.672,-1.543l1.255,-1.593c3.063,-3.889 2.51,-9.724 -1.231,-12.966Z" style="fill:none;stroke:#333;stroke-width:2.3px;"/><path d="M27.01,124.405l26.405,11.463l22.625,-52.263l-26.404,-11.464l-22.626,52.264Z" style="fill:#fff;fill-rule:nonzero;"/><path d="M27.01,124.405l26.405,11.463l22.625,-52.263l-26.404,-11.464l-22.626,52.264Z" style="fill:none;stroke:#333;stroke-width:2.3px;"/><path d="M15.707,129.219l26.404,11.463l29.056,-66.918l-26.404,-11.464l-29.056,66.919Z" style="fill:#4dbfd9;fill-rule:nonzero;"/><path d="M62.692,76.322l-20.397,-8.856l2.243,-5.166l26.404,11.464l-29.055,66.918l-6.007,-2.607l26.812,-61.753Z" style="fill:#5fcee0;fill-rule:nonzero;"/><path d="M15.707,129.219l26.404,11.463l29.056,-66.918l-26.404,-11.464l-29.056,66.919Z" style="fill:none;stroke:#333;stroke-width:2.3px;"/><path d="M177.595,143.797l32.064,-13.916l-21.478,-49.494l-18.453,8.008c-0.325,-0.181 -0.663,-0.345 -1.024,-0.476l-29.428,-10.618c-2.08,-0.751 -4.295,-0.442 -6.054,0.638c-0.282,0.08 -0.561,0.172 -0.838,0.282l-26.082,10.264c-2.748,1.081 -4.111,3.263 -5.439,6.075c-0.949,2.114 -6.794,15.601 -6.794,15.601c-1.946,4.551 0.014,9.794 4.356,11.649c4.341,1.857 9.484,-0.349 11.43,-4.9l4.636,-10.845l13,-5.116c1.049,1.219 50.104,42.848 50.104,42.848Z" style="fill:#f4bd9a;fill-rule:nonzero;"/><path d="M100.863,102.943c1.328,-2.812 2.691,-4.993 5.439,-6.075l26.082,-10.264c0.277,-0.109 0.556,-0.202 0.838,-0.281c1.759,-1.081 3.974,-1.389 6.054,-0.639l29.428,10.619c0.361,0.13 0.699,0.294 1.024,0.475l18.453,-8.007l18.417,42.439l3.061,-1.329l-21.478,-49.494l-18.453,8.008c-0.325,-0.181 -0.663,-0.345 -1.024,-0.476l-29.428,-10.618c-2.08,-0.751 -4.295,-0.442 -6.054,0.638c-0.282,0.08 -0.561,0.172 -0.838,0.282l-26.082,10.264c-2.748,1.081 -4.111,3.263 -5.439,6.075c-0.949,2.114 -6.794,15.601 -6.794,15.601c-1.125,2.632 -0.937,5.491 0.255,7.797c1.134,-2.616 5.709,-13.165 6.539,-15.015Z" style="fill:#f9cbb2;fill-rule:nonzero;"/><path d="M177.595,143.797l32.064,-13.916l-21.478,-49.494l-18.453,8.008c-0.325,-0.181 -0.663,-0.345 -1.024,-0.476l-29.428,-10.618c-2.08,-0.751 -4.295,-0.442 -6.054,0.638c-0.282,0.08 -0.561,0.172 -0.838,0.282l-26.082,10.264c-2.748,1.081 -4.111,3.263 -5.439,6.075c-0.949,2.114 -6.794,15.601 -6.794,15.601c-1.946,4.551 0.014,9.794 4.356,11.649c4.341,1.857 9.484,-0.349 11.43,-4.9l4.636,-10.845l13,-5.116c0.493,0.708 50.104,42.848 50.104,42.848Z" style="fill:none;stroke:#333;stroke-width:2.3px;"/><path d="M226.095,124.405l-26.405,11.463l-22.625,-52.263l26.405,-11.464l22.625,52.264Z" style="fill:#fff;fill-rule:nonzero;"/><path d="M226.095,124.405l-26.405,11.463l-22.625,-52.263l26.405,-11.464l22.625,52.264Z" style="fill:none;stroke:#333;stroke-width:2.3px;"/><path d="M237.623,129.219l-26.404,11.463l-29.056,-66.918l26.404,-11.464l29.056,66.919Z" style="fill:#f2784b;fill-rule:nonzero;"/><path d="M190.413,76.322l20.398,-8.856l-2.244,-5.166l-26.404,11.464l29.056,66.918l6.007,-2.607l-26.813,-61.753Z" style="fill:#f78866;fill-rule:nonzero;"/><path d="M237.623,129.219l-26.404,11.463l-29.056,-66.918l26.404,-11.464l29.056,66.919Z" style="fill:none;stroke:#333;stroke-width:2.3px;"/><path d="M166.354,161.164l-36.189,-30.559" style="fill:none;stroke:#333;stroke-width:2.3px;"/><path d="M151.488,172.39l-29.573,-24.972" style="fill:none;stroke:#333;stroke-width:2.3px;"/><path d="M136.238,181.131l-19.367,-16.474" style="fill:none;stroke:#333;stroke-width:2.3px;"/><path d="M85.942,142.329c1.963,3.311 0.859,7.628 -2.453,9.59l-9.489,5.624c-3.312,1.963 -7.627,0.86 -9.59,-2.452l-0.712,-1.202c-1.963,-3.311 -0.859,-7.628 2.453,-9.591l9.488,-5.622c3.312,-1.963 7.628,-0.859 9.591,2.452l0.712,1.201Z" style="fill:#f4bd9a;fill-rule:nonzero;"/><path d="M85.942,142.329c1.963,3.311 0.859,7.628 -2.453,9.59l-9.489,5.624c-3.312,1.963 -7.627,0.86 -9.59,-2.452l-0.551,-0.929c-1.963,-3.312 -0.859,-7.628 2.453,-9.591l9.488,-5.622c3.312,-1.963 7.629,-0.86 9.592,2.452l0.55,0.928Z" style="fill:none;stroke:#333;stroke-width:2.3px;"/><path d="M100.139,153.097c1.963,3.312 0.859,7.628 -2.452,9.591l-11.691,6.93c-3.312,1.963 -7.628,0.859 -9.591,-2.452l-1.169,-1.974c-1.963,-3.312 -0.859,-7.628 2.453,-9.591l11.689,-6.927c3.312,-1.963 7.629,-0.859 9.592,2.452l1.169,1.971Z" style="fill:#f4bd9a;fill-rule:nonzero;"/><path d="M100.139,153.098c1.963,3.312 0.859,7.628 -2.453,9.591l-11.69,6.929c-3.312,1.963 -7.628,0.859 -9.591,-2.452l-1.169,-1.974c-1.963,-3.312 -0.859,-7.628 2.453,-9.591l11.69,-6.928c3.312,-1.962 7.628,-0.858 9.591,2.453l1.169,1.972Z" style="fill:none;stroke:#333;stroke-width:2.3px;"/><path d="M111.984,163.672c1.963,3.312 0.859,7.628 -2.453,9.591l-11.892,7.048c-3.312,1.963 -7.628,0.859 -9.591,-2.453l-0.537,-0.906c-1.963,-3.313 -0.859,-7.628 2.453,-9.591l11.891,-7.048c3.312,-1.962 7.629,-0.858 9.592,2.453l0.537,0.906Z" style="fill:#f4bd9a;fill-rule:nonzero;"/><path d="M111.984,163.672c1.963,3.312 0.859,7.628 -2.453,9.591l-11.892,7.048c-3.312,1.963 -7.628,0.859 -9.591,-2.453l-0.537,-0.906c-1.963,-3.313 -0.859,-7.628 2.453,-9.591l11.891,-7.048c3.312,-1.962 7.629,-0.858 9.592,2.453l0.537,0.906Z" style="fill:none;stroke:#333;stroke-width:2.3px;"/><path d="M118.387,175.142c1.762,2.974 0.495,7.013 -2.817,8.976l-3.812,2.259c-3.312,1.963 -7.464,1.136 -9.226,-1.838c-1.763,-2.974 -0.495,-7.014 2.817,-8.977l3.811,-2.258c3.312,-1.963 7.464,-1.136 9.227,1.838Z" style="fill:#f4bd9a;fill-rule:nonzero;"/><path d="M118.387,175.142c1.762,2.974 0.494,7.013 -2.818,8.976l-3.811,2.259c-3.312,1.963 -7.464,1.136 -9.226,-1.838c-1.763,-2.974 -0.495,-7.014 2.817,-8.976l3.812,-2.26c3.312,-1.962 7.463,-1.135 9.226,1.839Z" style="fill:none;stroke:#333;stroke-width:2.3px;"/><path d="M55.902,16.855l27.865,0" style="fill:none;stroke:#333;stroke-width:1.8px;"/><path d="M66.652,22.855l27.865,0" style="fill:none;stroke:#333;stroke-width:1.8px;"/><path d="M134.82,45.272l18.535,0" style="fill:none;stroke:#333;stroke-width:1.8px;"/><path d="M80.244,227.605l18.535,0" style="fill:none;stroke:#333;stroke-width:1.8px;"/><path d="M178.976,19.605l18.535,0" style="fill:none;stroke:#333;stroke-width:1.8px;"/><path d="M120.897,2.252l18.536,0" style="fill:none;stroke:#333;stroke-width:1.8px;"/><path d="M159.462,45.272l8.694,0" style="fill:none;stroke:#333;stroke-width:1.8px;"/><path d="M235.233,67.938l8.695,0" style="fill:none;stroke:#333;stroke-width:1.8px;"/><path d="M228.929,62.3l8.694,0" style="fill:none;stroke:#333;stroke-width:1.8px;"/><path d="M233.276,56.355l8.695,0" style="fill:none;stroke:#333;stroke-width:1.8px;"/><path d="M0.9,92.605l8.695,0" style="fill:none;stroke:#333;stroke-width:1.8px;"/><path d="M7.013,85.272l8.694,0" style="fill:none;stroke:#333;stroke-width:1.8px;"/><path d="M20.966,149.851l-2.704,2.705" style="fill:none;stroke:#333;stroke-width:1.8px;"/><path d="M15.265,155.553l-2.705,2.704" style="fill:none;stroke:#333;stroke-width:1.8px;"/><path d="M20.966,158.257l-2.705,-2.705" style="fill:none;stroke:#333;stroke-width:1.8px;"/><path d="M15.265,152.556l-2.705,-2.705" style="fill:none;stroke:#333;stroke-width:1.8px;"/><path d="M163.665,0.9l-2.704,2.705" style="fill:none;stroke:#333;stroke-width:1.8px;"/><path d="M157.964,6.602l-2.705,2.704" style="fill:none;stroke:#333;stroke-width:1.8px;"/><path d="M163.665,9.306l-2.705,-2.705" style="fill:none;stroke:#333;stroke-width:1.8px;"/><path d="M157.964,3.605l-2.705,-2.705" style="fill:none;stroke:#333;stroke-width:1.8px;"/><path d="M136.239,225.486l0,3.825" style="fill:none;stroke:#333;stroke-width:1.8px;"/><path d="M136.239,233.549l0,3.826" style="fill:none;stroke:#333;stroke-width:1.8px;"/><path d="M142.184,231.43l-3.827,0" style="fill:none;stroke:#333;stroke-width:1.8px;"/><path d="M134.12,231.43l-3.826,0" style="fill:none;stroke:#333;stroke-width:1.8px;"/><path d="M206.576,175.928l2.704,2.704" style="fill:none;stroke:#333;stroke-width:1.8px;"/><path d="M212.277,181.629l2.705,2.705" style="fill:none;stroke:#333;stroke-width:1.8px;"/><path d="M214.982,175.928l-2.705,2.705" style="fill:none;stroke:#333;stroke-width:1.8px;"/><path d="M209.28,181.629l-2.704,2.705" style="fill:none;stroke:#333;stroke-width:1.8px;"/><path d="M105.032,39.327l0,3.825" style="fill:none;stroke:#333;stroke-width:1.8px;"/><path d="M105.032,47.391l0,3.825" style="fill:none;stroke:#333;stroke-width:1.8px;"/><path d="M110.977,45.272l-3.827,0" style="fill:none;stroke:#333;stroke-width:1.8px;"/><path d="M102.913,45.272l-3.826,0" style="fill:none;stroke:#333;stroke-width:1.8px;"/><path d="M51.525,28.355l27.866,0" style="fill:none;stroke:#333;stroke-width:1.8px;"/><path d="M30.957,187.091l27.865,0" style="fill:none;stroke:#333;stroke-width:1.8px;"/><path d="M44.89,192.591l27.865,0" style="fill:none;stroke:#333;stroke-width:1.8px;"/><path d="M159.123,207.772l16.668,0" style="fill:none;stroke:#333;stroke-width:1.8px;"/><path d="M44.191,180.131l16.668,0" style="fill:none;stroke:#333;stroke-width:1.8px;"/><path d="M170.963,215.272l27.865,0" style="fill:none;stroke:#333;stroke-width:1.8px;"/></svg>